<svg width="20" height="20" viewBox="0 0 20 20" fill="none" xmlns="http://www.w3.org/2000/svg">
<path d="M7.50032 4.41669C8.00014 4.4168 8.41639 4.66688 8.66634 5.16669L12.5003 13.8337L13.9163 10.6667C14.2497 9.83335 15.0837 9.33368 16.0003 9.33368H18.4163C18.8329 9.33368 19.0832 9.66647 19.0833 9.99969C19.0833 10.4164 18.7497 10.7497 18.4163 10.7497H16.0003C15.6671 10.7497 15.3338 10.9166 15.2503 11.2497L13.6663 14.7497C13.4164 15.1663 13.0002 15.4995 12.5003 15.4997C12.0003 15.4997 11.5833 15.2497 11.3333 14.7497L7.50032 6.08368L5.83333 9.66669C5.58337 10.2499 4.91688 10.6666 4.25032 10.6667H1.75032C1.33366 10.6667 1.00032 10.333 1.00032 9.99969C1.0005 9.58332 1.3332 9.24991 1.66634 9.24969H4.16634C4.33301 9.24969 4.41699 9.16636 4.50032 8.99969L6.33333 5.08368C6.5 4.66701 7.00032 4.41669 7.50032 4.41669Z" fill="#200040"/>
</svg>
