<svg width="20" height="20" viewBox="0 0 20 20" fill="none" xmlns="http://www.w3.org/2000/svg">
<path d="M18.4163 17.25C18.8329 17.25 19.2502 17.5833 19.2502 18C19.2502 18.4166 18.9168 18.7498 18.5002 18.75H6.08325C5.66659 18.75 5.33325 18.4167 5.33325 18C5.33325 17.5833 5.66659 17.25 6.08325 17.25H18.4163ZM18.4163 12.5C18.8329 12.5 19.2502 12.8333 19.2502 13.25C19.2502 13.6666 18.9168 13.9998 18.5002 14H6.08325C5.66659 14 5.33325 13.6667 5.33325 13.25C5.33325 12.8333 5.66659 12.5 6.08325 12.5H18.4163ZM18.5002 7.5C18.9168 7.50017 19.2502 7.83344 19.2502 8.25C19.2502 8.66656 18.9168 8.99983 18.5002 9H9.16626C8.74975 8.99983 8.41626 8.66656 8.41626 8.25C8.41626 7.83344 8.74974 7.50017 9.16626 7.5H18.5002ZM4.33325 1.25C4.74992 1.25 5.08325 1.58333 5.08325 2V4.16699H7.16626C7.58282 4.16699 7.91609 4.41654 7.91626 4.83301C7.91626 5.24967 7.58293 5.58301 7.16626 5.58301H5.16626V7.66699C5.16609 8.08351 4.83282 8.41699 4.41626 8.41699C3.99985 8.41682 3.66643 8.0834 3.66626 7.66699V5.58301H1.58325C1.16659 5.58301 0.833252 5.24967 0.833252 4.83301C0.833426 4.41654 1.16669 4.16699 1.58325 4.16699H3.66626V2C3.66626 1.66667 3.91659 1.25 4.33325 1.25Z" fill="#200040"/>
</svg>
