<svg width="20" height="20" viewBox="0 0 20 20" fill="none" xmlns="http://www.w3.org/2000/svg">
<path d="M18.4163 15.4166C18.8329 15.4166 19.2502 15.75 19.2502 16.1666C19.2502 16.5832 18.9168 16.9165 18.5002 16.9166H6.08325C5.66659 16.9166 5.33325 16.5833 5.33325 16.1666C5.33325 15.75 5.66659 15.4166 6.08325 15.4166H18.4163ZM18.5002 10.5836C18.9168 10.5838 19.2502 10.9171 19.2502 11.3336C19.2501 11.75 18.9167 12.0834 18.5002 12.0836H6.08325C5.66669 12.0836 5.33343 11.7501 5.33325 11.3336C5.33325 10.917 5.66659 10.5836 6.08325 10.5836H18.5002ZM4.33325 1.41663C4.74992 1.41663 5.08325 1.74996 5.08325 2.16663V4.24963H7.16626C7.58293 4.24963 7.91626 4.49996 7.91626 4.91663C7.91626 5.33329 7.58293 5.66663 7.16626 5.66663H5.16626V7.83362C5.16609 8.25013 4.83282 8.58362 4.41626 8.58362C3.99985 8.58344 3.66643 8.25002 3.66626 7.83362V5.74963H1.58325C1.16659 5.74963 0.833252 5.4163 0.833252 4.99963C0.833426 4.58312 1.16669 4.24963 1.58325 4.24963H3.66626V2.16663C3.66626 1.83329 3.91659 1.41663 4.33325 1.41663Z" fill="#200040"/>
</svg>
