<svg width="20" height="20" viewBox="0 0 20 20" fill="none" xmlns="http://www.w3.org/2000/svg">
<path d="M2.83374 16.667C3.58354 16.6672 4.16675 17.2501 4.16675 18C4.16675 18.7499 3.58354 19.3328 2.83374 19.333C2.08374 19.333 1.49976 18.75 1.49976 18C1.49976 17.25 2.08374 16.667 2.83374 16.667ZM18.4167 17.25C18.8334 17.2501 19.2498 17.5834 19.2498 18C19.2498 18.4167 18.9164 18.75 18.4998 18.75H6.08374C5.66707 18.75 5.33374 18.4167 5.33374 18C5.33374 17.5833 5.66708 17.25 6.08374 17.25H18.4167ZM2.83374 11.917C3.58354 11.9172 4.16675 12.5001 4.16675 13.25C4.16675 13.9999 3.58354 14.5828 2.83374 14.583C2.08374 14.583 1.49976 14 1.49976 13.25C1.49976 12.5 2.08374 11.917 2.83374 11.917ZM18.4167 12.5C18.8334 12.5001 19.2498 12.8334 19.2498 13.25C19.2498 13.6667 18.9164 14 18.4998 14H6.08374C5.66707 14 5.33374 13.6667 5.33374 13.25C5.33374 12.8333 5.66707 12.5 6.08374 12.5H18.4167ZM18.4998 7.5C18.9164 7.5 19.2498 7.83333 19.2498 8.25C19.2498 8.66667 18.9164 9 18.4998 9H9.16675C8.75008 9 8.41675 8.66667 8.41675 8.25C8.41675 7.83333 8.75008 7.5 9.16675 7.5H18.4998ZM4.33374 1.25C4.75018 1.25026 5.08374 1.5835 5.08374 2V4.16699H7.16675C7.58323 4.16706 7.91657 4.41659 7.91675 4.83301C7.91675 5.24962 7.58334 5.58292 7.16675 5.58301H5.16675V7.66699C5.16657 8.08345 4.83323 8.41691 4.41675 8.41699C4.00019 8.41699 3.66692 8.08351 3.66675 7.66699V5.58301H1.58374C1.16707 5.58301 0.832764 5.24967 0.832764 4.83301C0.832937 4.41654 1.16718 4.16699 1.58374 4.16699H3.66675V2C3.66675 1.66667 3.91707 1.25 4.33374 1.25Z" fill="#200040"/>
</svg>
