<svg width="20" height="20" viewBox="0 0 20 20" fill="none" xmlns="http://www.w3.org/2000/svg">
<path d="M13.9163 17.2503C14.3329 17.2503 14.7502 17.5836 14.7502 18.0003C14.7501 18.4167 14.4167 18.7501 14.0002 18.7503H1.58325C1.16669 18.7503 0.833413 18.4168 0.833252 18.0003C0.833252 17.5836 1.16659 17.2503 1.58325 17.2503H13.9163ZM13.9163 12.5003C14.3328 12.5003 14.75 12.7499 14.7502 13.1663C14.7502 13.5829 14.4168 13.9161 14.0002 13.9163H1.58325C1.16659 13.9163 0.833252 13.583 0.833252 13.1663C0.833437 12.7499 1.1667 12.5003 1.58325 12.5003H13.9163ZM10.8333 7.58331C11.2499 7.58331 11.5833 7.83364 11.5833 8.25031C11.5831 8.66683 11.2498 9.0003 10.8333 9.00031H1.58325C1.16659 9.00031 0.833252 8.74998 0.833252 8.33331C0.833263 7.91666 1.16659 7.58331 1.58325 7.58331H10.8333ZM15.5833 1.25031C15.9999 1.25031 16.3333 1.58364 16.3333 2.00031V4.16632H18.4163C18.8329 4.16632 19.2502 4.41666 19.2502 4.83331C19.2502 5.24987 18.9168 5.58314 18.5002 5.58331H16.4163V7.75031C16.4161 8.16683 16.0828 8.50031 15.6663 8.50031C15.2498 8.50013 14.9164 8.16672 14.9163 7.75031V5.66632H12.8333C12.4166 5.66632 12.0833 5.33299 12.0833 4.91632C12.0834 4.49982 12.4167 4.16632 12.8333 4.16632H14.9163V2.00031C14.9163 1.66697 15.1666 1.25031 15.5833 1.25031Z" fill="#200040"/>
</svg>
