<svg width="20" height="20" viewBox="0 0 20 20" fill="none" xmlns="http://www.w3.org/2000/svg">
<g clip-path="url(#clip0_11_744)">
<path d="M6.0835 13.9163C7.49988 13.9165 8.66608 14.8333 8.99951 16.1663H19.1665C19.5832 16.1663 19.8335 16.5 19.8335 16.8333C19.8335 17.1666 19.5832 17.5003 19.1665 17.5003H8.99951C8.66608 18.8333 7.49988 19.8332 6.0835 19.8333C4.66694 19.8333 3.49994 18.8335 3.1665 17.5003H0.833496C0.500163 17.5003 0.166504 17.1666 0.166504 16.8333C0.166505 16.5 0.41683 16.1663 0.833496 16.1663H3.1665C3.49995 14.9165 4.66694 13.9163 6.0835 13.9163ZM6.0835 15.3333C5.25027 15.3333 4.49971 16.0831 4.49951 16.9163C4.49951 17.7497 5.16683 18.5003 6.0835 18.5003C6.99999 18.5001 7.6665 17.7496 7.6665 16.9163C7.66631 16.0832 6.91659 15.3335 6.0835 15.3333ZM13.8335 7.00031C15.25 7.00045 16.4162 7.91707 16.7495 9.25031H19.1665C19.583 9.25031 19.8333 9.5831 19.8335 9.91632C19.8335 10.2497 19.5832 10.5833 19.1665 10.5833H16.8335C16.5002 11.9166 15.3332 12.9163 13.9165 12.9163C12.4998 12.9163 11.3328 11.9166 10.9995 10.5833H0.833496C0.500163 10.5833 0.166504 10.2497 0.166504 9.91632C0.166666 9.5831 0.416965 9.25031 0.833496 9.25031H10.9165C11.2498 8.0003 12.4168 7.00031 13.8335 7.00031ZM13.9165 8.41632C13.0832 8.41632 12.3335 9.16697 12.3335 10.0003C12.3337 10.8335 13 11.5833 13.9165 11.5833C14.7497 11.5833 15.4993 10.8335 15.4995 10.0003C15.4995 9.16697 14.7498 8.41632 13.9165 8.41632ZM6.0835 0.083313C7.49988 0.0834662 8.66608 1.08328 8.99951 2.41632H19.1665C19.583 2.41632 19.8333 2.83304 19.8335 3.16632C19.8335 3.49965 19.5832 3.83331 19.1665 3.83331H8.99951C8.66618 5.16651 7.49999 6.16617 6.0835 6.16632C4.66683 6.16632 3.49984 5.16665 3.1665 3.83331H0.833496C0.41683 3.83331 0.166504 3.41665 0.166504 3.08331C0.166504 2.74998 0.416829 2.41632 0.833496 2.41632H3.1665C3.49994 1.08314 4.66694 0.083313 6.0835 0.083313ZM6.0835 1.50031C5.25016 1.50031 4.49951 2.16665 4.49951 3.08331C4.49951 3.99998 5.16683 4.75031 6.0835 4.75031C6.99999 4.75011 7.6665 3.91655 7.6665 3.08331C7.6665 2.25008 6.99999 1.50048 6.0835 1.50031Z" fill="#200040"/>
</g>
<defs>
<clipPath id="clip0_11_744">
<rect width="20" height="20" fill="white"/>
</clipPath>
</defs>
</svg>
