<svg width="20" height="20" viewBox="0 0 20 20" fill="none" xmlns="http://www.w3.org/2000/svg">
<g clip-path="url(#clip0_18_986)">
<path d="M10.04 10.042C10.8732 10.042 11.5401 10.3749 12.04 10.958L16.79 16.625C17.1233 17.1249 17.2068 17.7081 16.957 18.208C16.7071 18.7079 16.2072 19.0418 15.624 19.042H4.62402C4.04069 19.042 3.54004 18.708 3.29004 18.208C3.04022 17.6248 3.12376 17.0416 3.45703 16.625L8.04004 10.958C8.53999 10.3748 9.29014 10.0421 10.04 10.042ZM10.124 11.458C9.70739 11.458 9.45701 11.625 9.20703 11.875L4.54004 17.542H15.624L11.04 11.875C10.7902 11.6251 10.5404 11.4581 10.124 11.458ZM15.874 0.958008C18.1237 0.958239 19.8732 2.70831 19.79 4.95801V11.625C19.79 12.8748 19.2904 13.958 18.374 14.708C18.2075 14.7913 18.0405 14.8749 17.874 14.875C17.7074 14.875 17.5406 14.7915 17.374 14.625C17.124 14.2917 17.1237 13.875 17.457 13.625C18.0403 13.125 18.374 12.375 18.374 11.625V4.95801C18.3738 3.54149 17.2066 2.375 15.79 2.375H4.12402C2.70746 2.375 1.54022 3.54149 1.54004 4.95801V11.542C1.54014 12.2919 1.87378 13.0421 2.45703 13.542C2.79013 13.792 2.78998 14.2087 2.54004 14.542C2.29001 14.875 1.87327 14.8749 1.54004 14.625C0.706773 13.875 0.207031 12.7916 0.207031 11.625V4.95801C0.2072 2.70816 1.95714 0.958008 4.20703 0.958008H15.874Z" fill="#200040"/>
</g>
<defs>
<clipPath id="clip0_18_986">
<rect width="20" height="20" fill="white"/>
</clipPath>
</defs>
</svg>
