<svg width="20" height="20" viewBox="0 0 20 20" fill="none" xmlns="http://www.w3.org/2000/svg">
<g clip-path="url(#clip0_11_464)">
<path d="M12.5 0.083252C13.5833 0.083252 14.5 0.500244 15.25 1.25024L18.75 4.75024C19.4167 5.50024 19.8333 6.50025 20 7.50024V12.5002C19.9999 13.5001 19.5839 14.5003 18.834 15.2502L15.334 18.7502C14.5841 19.5002 13.5839 19.9162 12.584 19.9163H7.58398C6.50081 19.9163 5.58392 19.5 4.83398 18.7502L1.33398 15.2502C0.584066 14.5003 0.167083 13.5001 0.166992 12.5002V7.50024C0.166992 6.5004 0.583512 5.50021 1.25 4.75024L4.75 1.25024C5.49992 0.500326 6.50011 0.0833424 7.5 0.083252H12.5ZM7.5 1.58325C6.83347 1.58333 6.24992 1.83365 5.75 2.25024L2.25 5.75024C1.75022 6.25017 1.5 6.83372 1.5 7.50024V12.5002C1.50011 13.1668 1.8334 13.8336 2.25 14.2502L5.75 17.7502C6.24992 18.2502 6.83347 18.5002 7.5 18.5002H12.417C13.0836 18.5002 13.667 18.2501 14.167 17.7502L17.667 14.2502C18.1669 13.7503 18.4169 13.1668 18.417 12.5002H18.5V7.58325C18.5 6.91658 18.1667 6.24992 17.75 5.83325L14.25 2.33325C13.75 1.83336 13.1666 1.58325 12.5 1.58325H7.5ZM10 13.4163C10.6667 13.4163 11.167 13.9166 11.167 14.5833C11.167 15.2499 10.6667 15.7502 10 15.7502C9.3335 15.7501 8.83399 15.2498 8.83398 14.5833C8.83398 13.9167 9.3335 13.4164 10 13.4163ZM9.83398 4.25024C10.2504 4.25037 10.5838 4.4999 10.584 4.91626L10.667 11.5833C10.7503 11.9999 10.4167 12.3333 10 12.3333C9.66678 12.3331 9.33331 12.0828 9.25 11.6663L9.16699 5.00024C9.16699 4.58358 9.41732 4.25024 9.83398 4.25024Z" fill="#200040"/>
</g>
<defs>
<clipPath id="clip0_11_464">
<rect width="20" height="20" fill="white"/>
</clipPath>
</defs>
</svg>
