<svg width="20" height="20" viewBox="0 0 20 20" fill="none" xmlns="http://www.w3.org/2000/svg">
<g clip-path="url(#clip0_11_465)">
<path d="M10 0.083252C15.4165 0.0834326 19.916 4.58369 19.916 10.0002C19.9158 15.4167 15.4164 19.9161 10 19.9163C4.58344 19.9163 0.0831884 15.4168 0.0830078 10.0002C0.0830078 4.58358 4.58333 0.083252 10 0.083252ZM10 1.50024C5.33333 1.50024 1.5 5.33358 1.5 10.0002C1.50018 14.6668 5.33344 18.5002 10 18.5002C14.6664 18.5001 18.4998 14.6667 18.5 10.0002C18.5 5.33369 14.6665 1.50042 10 1.50024ZM10 13.4163C10.6665 13.4164 11.166 13.9167 11.166 14.5833C11.166 15.2498 10.6665 15.7501 10 15.7502C9.33333 15.7502 8.83301 15.2499 8.83301 14.5833C8.83301 13.9166 9.33333 13.4163 10 13.4163ZM9.91602 4.25024C10.2493 4.25024 10.5828 4.49979 10.583 4.91626L10.666 11.5833C10.7493 11.9998 10.4165 12.3331 10 12.3333C9.66667 12.3333 9.33301 12.0829 9.33301 11.6663L9.25 5.00024C9.25 4.58369 9.49954 4.25042 9.91602 4.25024Z" fill="#200040"/>
</g>
<defs>
<clipPath id="clip0_11_465">
<rect width="20" height="20" fill="white"/>
</clipPath>
</defs>
</svg>
