<svg width="20" height="20" viewBox="0 0 20 20" fill="none" xmlns="http://www.w3.org/2000/svg">
<path d="M10 0.833252C11.1665 0.833252 12.1666 1.41648 12.75 2.41626L19.334 13.3333C19.9172 14.3332 20.0005 15.5 19.334 16.5833C18.7507 17.6666 17.6667 18.2502 16.5 18.2502H3.41699C2.25039 18.2502 1.16734 17.5832 0.583984 16.5833C0.000651062 15.5833 0.0836589 14.3333 0.666992 13.3333L7.25 2.41626C7.8333 1.41641 8.8335 0.833343 10 0.833252ZM10 2.16626C9.33346 2.16635 8.75028 2.50001 8.41699 3.08325L1.83398 14.0002C1.5007 14.5836 1.50067 15.2499 1.83398 15.8333C2.16733 16.4165 2.75039 16.7502 3.41699 16.7502H16.584C17.2505 16.7501 17.8337 16.4165 18.167 15.8333C18.5003 15.3333 18.5002 14.5835 18.167 14.0002L11.584 3.08325C11.2507 2.49992 10.6667 2.16626 10 2.16626ZM10 12.5833C10.6667 12.5833 11.167 13.0836 11.167 13.7502C11.1668 14.4167 10.6666 14.9163 10 14.9163C9.33358 14.9161 8.83415 14.4167 8.83398 13.7502C8.83398 13.0837 9.33347 12.5834 10 12.5833ZM10 5.08325C10.3333 5.08325 10.667 5.33358 10.667 5.75024V10.7502C10.7501 11.1668 10.4166 11.5002 10 11.5002C9.66676 11.5001 9.33398 11.2498 9.33398 10.8333V5.83325C9.33398 5.41668 9.5835 5.0834 10 5.08325Z" fill="#200040"/>
</svg>
