<svg width="20" height="20" viewBox="0 0 20 20" fill="none" xmlns="http://www.w3.org/2000/svg">
<g clip-path="url(#clip0_11_745)">
<path d="M15.75 12.417C16.1667 12.417 16.417 12.7503 16.417 13.167C16.4169 13.5835 16.1666 13.917 15.75 13.917H4.08301C3.74987 13.9168 3.41717 13.5834 3.41699 13.167C3.41699 12.7504 3.66654 12.4172 4.08301 12.417H15.75ZM19.083 8.25C19.4997 8.25 19.75 8.58333 19.75 9C19.75 9.41667 19.4997 9.75 19.083 9.75H0.75C0.416667 9.75 0.0830078 9.41667 0.0830078 9C0.0830078 8.58333 0.333333 8.25 0.75 8.25H19.083ZM15.75 4.08301C16.1666 4.08301 16.4169 4.41649 16.417 4.83301C16.417 5.24967 16.1667 5.58301 15.75 5.58301H4.08301C3.74978 5.58279 3.41699 5.24954 3.41699 4.83301C3.41712 4.4166 3.66665 4.08318 4.08301 4.08301H15.75ZM19.083 0C19.4997 0 19.75 0.250326 19.75 0.666992C19.7499 1.08351 19.4996 1.41699 19.083 1.41699H0.75C0.333442 1.41699 0.000173452 1.08351 0 0.666992C0 0.250326 0.333333 2.38419e-08 0.75 0H19.083Z" fill="#200040"/>
</g>
<defs>
<clipPath id="clip0_11_745">
<rect width="20" height="20" fill="white"/>
</clipPath>
</defs>
</svg>
