<svg width="20" height="20" viewBox="0 0 20 20" fill="none" xmlns="http://www.w3.org/2000/svg">
<path d="M19.1665 15.834C19.5832 15.834 19.8335 16.1673 19.8335 16.584C19.8334 17.0005 19.5831 17.334 19.1665 17.334H0.833496C0.50025 17.334 0.166677 17.0005 0.166504 16.584C0.166504 16.1673 0.416829 15.834 0.833496 15.834H19.1665ZM19.1665 11.667C19.5832 11.667 19.8335 12.0003 19.8335 12.417C19.8335 12.8337 19.5832 13.167 19.1665 13.167H0.833496C0.500163 13.167 0.166504 12.8337 0.166504 12.417C0.166504 12.0003 0.416829 11.667 0.833496 11.667H19.1665ZM19.1665 7.5C19.5831 7.5 19.8334 7.83349 19.8335 8.25C19.8335 8.66667 19.5832 9 19.1665 9H0.833496C0.500163 9 0.166504 8.66667 0.166504 8.25C0.166634 7.83349 0.416938 7.5 0.833496 7.5H19.1665ZM19.1665 3.41699C19.5832 3.41699 19.8335 3.66732 19.8335 4.08398C19.8334 4.5005 19.5831 4.83398 19.1665 4.83398H0.833496C0.416938 4.83398 0.0836695 4.5005 0.0834961 4.08398C0.0834961 3.66732 0.416829 3.41699 0.833496 3.41699H19.1665Z" fill="#200040"/>
</svg>
