<svg width="20" height="20" viewBox="0 0 20 20" fill="none" xmlns="http://www.w3.org/2000/svg">
<path d="M19.1665 15.75C19.5831 15.75 19.8334 16.0835 19.8335 16.5C19.8335 16.9167 19.5832 17.25 19.1665 17.25H7.50049C7.08382 17.25 6.8335 16.9167 6.8335 16.5C6.83367 16.0835 7.16724 15.75 7.50049 15.75H19.1665ZM19.1665 11.584C19.5832 11.584 19.8335 11.9173 19.8335 12.334C19.8334 12.7505 19.5831 13.084 19.1665 13.084H0.833496C0.416936 13.084 0.166632 12.7505 0.166504 12.334C0.166504 11.9173 0.500163 11.584 0.833496 11.584H19.1665ZM19.1665 7.5C19.5831 7.5 19.8334 7.83349 19.8335 8.25C19.8335 8.66667 19.5832 8.91699 19.1665 8.91699H7.50049C7.08382 8.91699 6.8335 8.58366 6.8335 8.16699C6.8335 7.75033 7.08382 7.5 7.50049 7.5H19.1665ZM19.1665 3.41699C19.5832 3.41699 19.8335 3.75033 19.8335 4.16699C19.8335 4.58366 19.5832 4.83398 19.1665 4.83398H0.833496C0.416938 4.83398 0.0836695 4.5005 0.0834961 4.08398C0.0834961 3.66732 0.416829 3.41699 0.833496 3.41699H19.1665Z" fill="#200040"/>
</svg>
