<svg width="20" height="20" viewBox="0 0 20 20" fill="none" xmlns="http://www.w3.org/2000/svg">
<path d="M10.0003 0.833313C11.8335 0.833496 13.2503 2.33342 13.2503 4.08331C13.2503 5.66656 12.1669 6.91689 10.7503 7.25031V17.4163C12.5001 17.2496 14.1665 16.5 15.4164 15.2503C16.6664 14.0003 17.4167 12.3333 17.5833 10.5833H15.8333C15.5 10.5833 15.1664 10.2497 15.1664 9.91632C15.1665 9.5831 15.4168 9.25031 15.8333 9.25031H18.3333C18.7498 9.25031 19.0829 9.58312 19.1664 9.91632C19.1664 12.3329 18.2502 14.5833 16.5003 16.3333C14.7503 18.0833 12.5 19.0003 10.0833 19.0003C7.66668 19.0003 5.41635 18.0833 3.66635 16.3333C1.91645 14.5833 1.00034 12.3329 1.00034 9.91632C1.0005 9.58318 1.25001 9.25047 1.66635 9.25031H4.16635C4.58302 9.25031 4.83334 9.66697 4.83334 10.0003C4.83318 10.3335 4.58288 10.6663 4.16635 10.6663H2.41635C2.58301 12.4996 3.33344 14.083 4.58334 15.4163C5.91668 16.6663 7.50034 17.4163 9.25034 17.6663V7.33331C7.83367 6.99998 6.75034 5.66632 6.75034 4.16632C6.75051 2.41645 8.16712 0.833313 10.0003 0.833313ZM10.0003 2.33331C9.00044 2.33331 8.16653 3.16647 8.16635 4.16632C8.16635 5.16632 9.00034 6.00031 10.0003 6.00031C11.0002 6.00012 11.8333 5.16621 11.8333 4.16632C11.8332 3.16658 11.0001 2.3335 10.0003 2.33331Z" fill="#200040"/>
</svg>
