<svg width="20" height="20" viewBox="0 0 20 20" fill="none" xmlns="http://www.w3.org/2000/svg">
<g clip-path="url(#clip0_18_984)">
<path d="M10.0835 0.166351C15.5001 0.166441 20.0005 4.66673 20.0005 10.0833C20.0003 15.4998 15.5 19.9993 10.0835 19.9994C4.66694 19.9994 0.166685 15.4999 0.166504 10.0833C0.166504 4.66668 4.66683 0.166351 10.0835 0.166351ZM10.5835 18.4994C13.2501 18.3326 15.5839 16.9996 17.0005 14.9164L14.9165 11.4164L10.5835 18.4994ZM3.1665 14.9164C4.49981 16.833 6.58324 18.1663 8.9165 18.4164L11.0835 14.9164H3.1665ZM2.3335 6.58334C1.91687 7.66661 1.5835 8.83343 1.5835 10.0833C1.58354 11.2498 1.83361 12.4162 2.3335 13.4994H6.50049L2.3335 6.58334ZM8.25049 6.58334L6.1665 10.0833L8.25049 13.4994H12.0005L14.0835 9.99936L12.0005 6.58334H8.25049ZM13.6665 6.58334L17.8335 13.4994C18.2501 12.4995 18.5834 11.3331 18.5835 10.0833C18.5835 8.83347 18.3334 7.66658 17.8335 6.58334H13.6665ZM9.5835 1.66635C6.91683 1.74968 4.6665 3.16635 3.1665 5.16635L5.25049 8.74936L9.5835 1.66635ZM9.0835 5.16635H17.0005C15.6672 3.33314 13.5836 1.9998 11.2505 1.66635L9.0835 5.16635Z" fill="#200040"/>
</g>
<defs>
<clipPath id="clip0_18_984">
<rect width="20" height="20" fill="white"/>
</clipPath>
</defs>
</svg>
