<svg width="20" height="20" viewBox="0 0 20 20" fill="none" xmlns="http://www.w3.org/2000/svg">
<g clip-path="url(#clip0_1400_41)">
<path d="M5.91699 10.9998C7.66699 10.9998 9.08398 12.4171 9.08398 14.0837V16.6667C9.08398 18.4167 7.66699 19.8337 5.91699 19.8337H3.33398C1.58398 19.8337 0.166992 18.4167 0.166992 16.6667V14.1667C0.166992 12.4167 1.58398 10.9998 3.33398 10.9998H5.91699ZM16.75 10.9998C18.5 10.9998 19.917 12.4171 19.917 14.0837V16.6667C19.917 18.4167 18.5 19.8337 16.75 19.8337H14.167C12.417 19.8337 11 18.4167 11 16.6667V14.1667C11 12.4167 12.417 10.9998 14.167 10.9998H16.75ZM3.33398 12.3337C2.33398 12.3337 1.58398 13.0837 1.58398 14.0837V16.6667C1.58398 17.6667 2.33398 18.4167 3.33398 18.4167H5.91699C6.91699 18.4167 7.66699 17.6667 7.66699 16.6667V14.0837C7.66699 13.0837 6.91699 12.3337 5.91699 12.3337H3.33398ZM14.167 12.3337C13.167 12.3337 12.417 13.0837 12.417 14.0837V16.6667C12.417 17.6667 13.167 18.4167 14.167 18.4167H16.75C17.75 18.4167 18.5 17.6667 18.5 16.6667V14.0837C18.5 13.0837 17.75 12.3337 16.75 12.3337H14.167ZM5.91699 0.166748C7.66688 0.166748 9.0838 1.58323 9.08398 3.24976V5.83374C9.08381 7.58359 7.66688 8.99976 5.91699 8.99976H3.33398C1.58409 8.99976 0.167168 7.58359 0.166992 5.83374V3.33374C0.166992 1.58374 1.58398 0.166748 3.33398 0.166748H5.91699ZM16.75 0.166748C18.4999 0.166748 19.9168 1.58323 19.917 3.24976V5.83374C19.9168 7.58359 18.4999 8.99976 16.75 8.99976H14.167C12.4171 8.99976 11.0002 7.58359 11 5.83374V3.33374C11 1.58374 12.417 0.166748 14.167 0.166748H16.75ZM3.33398 1.49976C2.33409 1.49976 1.58415 2.24992 1.58398 3.24976V5.83374C1.58415 6.83358 2.33409 7.58374 3.33398 7.58374H5.91699C6.91688 7.58374 7.66683 6.83358 7.66699 5.83374V3.24976C7.66683 2.24992 6.91688 1.49976 5.91699 1.49976H3.33398ZM14.167 1.49976C13.1671 1.49976 12.4172 2.24992 12.417 3.24976V5.83374C12.4172 6.83358 13.1671 7.58374 14.167 7.58374H16.75C17.7499 7.58374 18.4998 6.83358 18.5 5.83374V3.24976C18.4998 2.24992 17.7499 1.49976 16.75 1.49976H14.167Z" fill="#200040"/>
</g>
<defs>
<clipPath id="clip0_1400_41">
<rect width="20" height="20" fill="white"/>
</clipPath>
</defs>
</svg>
