<svg width="20" height="20" viewBox="0 0 20 20" fill="none" xmlns="http://www.w3.org/2000/svg">
<g clip-path="url(#clip0_11_541)">
<path d="M15.834 0.166748C18.0838 0.166918 19.834 1.91686 19.834 4.16675V4.99976C19.834 5.66642 19.5 6.33309 19 6.74976V15.8337C18.9998 18.0003 17.2499 19.8337 15 19.8337H5C2.83358 19.8336 1.00018 18.0835 1 15.8337V6.74976C0.500196 6.33307 0.166992 5.66627 0.166992 4.99976V4.16675C0.166992 1.91675 1.91699 0.166748 4.16699 0.166748H15.834ZM2.41699 15.8337C2.41717 17.2502 3.58359 18.4166 5 18.4167H15.084C16.5004 18.4166 17.6668 17.2502 17.667 15.8337H17.75V7.33374H2.41699V15.8337ZM12.5 10.1667C12.8333 10.1667 13.167 10.5004 13.167 10.8337C13.1668 11.167 12.9165 11.4998 12.5 11.4998H7.5C7.16688 11.4995 6.8342 11.1669 6.83398 10.8337C6.83398 10.5005 7.08353 10.1669 7.5 10.1667H12.5ZM4.16699 1.58374C2.75033 1.58374 1.58398 2.75008 1.58398 4.16675V4.99976C1.58398 5.58297 2.00014 5.99985 2.5 5.91675H17.5C18 5.91675 18.417 5.49976 18.417 4.99976V4.16675C18.417 2.75019 17.2505 1.58392 15.834 1.58374H4.16699Z" fill="#200040"/>
</g>
<defs>
<clipPath id="clip0_11_541">
<rect width="20" height="20" fill="white"/>
</clipPath>
</defs>
</svg>
