<svg width="20" height="20" viewBox="0 0 20 20" fill="none" xmlns="http://www.w3.org/2000/svg">
<path d="M10.0005 2.49988C10.5835 2.49997 11.0832 2.74978 11.4165 3.08289L13.4165 5.08289C13.7498 5.41622 13.7498 5.83354 13.4165 6.16687C13.25 6.25014 13.083 6.33289 12.9165 6.33289C12.7499 6.33278 12.5831 6.24944 12.4165 6.08289L10.6665 4.24988V16.8329C10.6665 17.1661 10.417 17.4997 10.0005 17.4999C9.66716 17.4999 9.3335 17.2496 9.3335 16.8329V4.33289L7.5835 6.08289C7.3335 6.33289 6.8335 6.33289 6.5835 6.08289C6.25032 5.83285 6.25021 5.33285 6.5835 5.08289L8.5835 3.08289C8.91683 2.74963 9.41725 2.49988 10.0005 2.49988Z" fill="#200040"/>
</svg>
