<svg width="20" height="20" viewBox="0 0 20 20" fill="none" xmlns="http://www.w3.org/2000/svg">
<path d="M7.08301 3.5C7.33295 3.25005 7.83295 3.25016 8.08301 3.5C8.33301 3.75 8.33301 4.25 8.08301 4.5L3.41699 9.16699H18.083C18.4163 9.16699 18.833 9.50033 18.833 9.91699C18.8328 10.3335 18.4996 10.667 18.083 10.667H3.25L8.08301 15.5C8.33301 15.75 8.33301 16.25 8.08301 16.5C7.91643 16.5833 7.74959 16.667 7.58301 16.667C7.41656 16.6669 7.25033 16.5832 7.16699 16.5L1.66699 11C1.41699 10.75 1.25 10.4167 1.25 10C1.25 9.66667 1.41699 9.25 1.66699 9L7.08301 3.5Z" fill="#200040"/>
</svg>
