<svg width="20" height="20" viewBox="0 0 20 20" fill="none" xmlns="http://www.w3.org/2000/svg">
<g clip-path="url(#clip0_8_2254)">
<path d="M10.6667 14.4167C10.8334 14.5 11 14.5833 11.1667 14.5833C11.3334 14.5833 11.5834 14.5 11.6667 14.3333C11.9167 14.0833 11.9167 13.5833 11.6667 13.3333L8.25004 9.99998L11.6667 6.58331C11.9167 6.33331 11.9167 5.83331 11.6667 5.58331C11.4167 5.33331 10.9167 5.33331 10.6667 5.58331L7.25004 8.99998C7.00004 9.24998 6.83337 9.58331 6.83337 9.99998C6.83337 10.4166 7.00004 10.75 7.25004 11L10.6667 14.4167Z" fill="#200040"/>
<path fill-rule="evenodd" clip-rule="evenodd" d="M0.083374 9.99998C0.083374 15.4166 4.58337 19.9166 10 19.9166C15.4167 19.9166 19.9167 15.5 19.9167 9.99998C19.9167 4.49998 15.4167 0.083313 10 0.083313C4.58337 0.083313 0.083374 4.58331 0.083374 9.99998ZM1.50004 9.99998C1.50004 5.33331 5.33337 1.49998 10 1.49998C14.6667 1.49998 18.5 5.33331 18.5 9.99998C18.5 14.6666 14.6667 18.5 10 18.5C5.33337 18.5 1.50004 14.6666 1.50004 9.99998Z" fill="#200040"/>
</g>
<defs>
<clipPath id="clip0_8_2254">
<rect width="20" height="20" fill="white"/>
</clipPath>
</defs>
</svg>
