<svg width="20" height="20" viewBox="0 0 20 20" fill="none" xmlns="http://www.w3.org/2000/svg">
<path d="M12.667 3.33301C13.0834 3.33318 13.4168 3.6666 13.417 4.08301C13.417 4.49957 13.0835 4.83283 12.667 4.83301H5.83301L16.25 15.333C16.5833 15.583 16.583 16.083 16.333 16.333C16.1664 16.4163 15.9996 16.5 15.833 16.5C15.6664 16.5 15.4996 16.4996 15.333 16.333L5 6V12.583C5 12.9997 4.66667 13.333 4.25 13.333C3.83333 13.333 3.5 12.9997 3.5 12.583V4.83301C3.50019 4.08314 4.1671 3.41633 4.91699 3.33301H12.667Z" fill="#200040"/>
</svg>
