<svg width="20" height="20" viewBox="0 0 20 20" fill="none" xmlns="http://www.w3.org/2000/svg">
<path d="M9.08337 1.66669C9.58337 1.16669 10.5834 1.16669 11.0834 1.66669L16.5834 7.16669C16.8334 7.41669 16.8334 7.91669 16.5834 8.16669C16.4168 8.24998 16.2502 8.33361 16.0004 8.33368C15.8338 8.33368 15.667 8.24998 15.5004 8.16669L10.7504 3.41669V18.0837C10.667 18.5001 10.3335 18.8335 10.0004 18.8337C9.58381 18.8337 9.25055 18.5002 9.25037 18.0837V3.42841L4.58337 8.16669C4.33337 8.41666 3.83337 8.41668 3.58337 8.16669C3.33339 7.91669 3.3334 7.41669 3.58337 7.16669L9.08337 1.66669Z" fill="#200040"/>
</svg>
