<svg width="20" height="20" viewBox="0 0 20 20" fill="none" xmlns="http://www.w3.org/2000/svg">
<g clip-path="url(#clip0_8_2262)">
<path d="M10.0004 0.083313C15.4169 0.0834936 19.9164 4.58375 19.9164 10.0003C19.9162 15.4167 15.4168 19.9161 10.0004 19.9163C4.58381 19.9163 0.0835547 15.4168 0.083374 10.0003C0.083374 4.58364 4.5837 0.083313 10.0004 0.083313ZM10.0004 1.50031C5.3337 1.50031 1.50037 5.33364 1.50037 10.0003C1.50054 14.6668 5.33381 18.5003 10.0004 18.5003C14.6668 18.5001 18.5002 14.6667 18.5004 10.0003C18.5004 5.33375 14.6669 1.50048 10.0004 1.50031ZM13.4164 8.33331C13.6663 8.00003 14.0831 8.00014 14.4164 8.33331C14.6664 8.58331 14.6664 9.08331 14.4164 9.33331L11.0004 12.7503C10.7504 13.0002 10.3336 13.1662 10.0004 13.1663C9.66718 13.1663 9.2504 13.0001 9.00037 12.7503L5.58337 9.33331C5.33337 9.08331 5.33337 8.58331 5.58337 8.33331C5.83337 8.08331 6.33337 8.08331 6.58337 8.33331L10.0834 11.7503L13.4164 8.33331Z" fill="#200040"/>
</g>
<defs>
<clipPath id="clip0_8_2262">
<rect width="20" height="20" fill="white"/>
</clipPath>
</defs>
</svg>
