<svg width="20" height="20" viewBox="0 0 20 20" fill="none" xmlns="http://www.w3.org/2000/svg">
<g clip-path="url(#clip0_8_2258)">
<path d="M10.0004 0.083313C15.4169 0.0834903 19.9164 4.50042 19.9164 10.0003C19.9162 15.5 15.4168 19.9161 10.0004 19.9163C4.58381 19.9163 0.0835547 15.4168 0.083374 10.0003C0.083374 4.58364 4.5837 0.083313 10.0004 0.083313ZM10.0004 1.50031C5.3337 1.50031 1.50037 5.33364 1.50037 10.0003C1.50054 14.6668 5.33381 18.5003 10.0004 18.5003C14.6668 18.5001 18.5002 14.6667 18.5004 10.0003C18.5004 5.33375 14.6669 1.50048 10.0004 1.50031ZM8.33337 5.58331C8.58337 5.33331 9.08337 5.33331 9.33337 5.58331L12.7504 9.00031C13.0002 9.25027 13.1664 9.58382 13.1664 10.0003C13.1663 10.4168 13.0003 10.7504 12.7504 11.0003L9.33337 14.4163C9.16671 14.4997 9.00004 14.5833 8.83337 14.5833C8.66671 14.5833 8.50004 14.583 8.33337 14.4163C8.08354 14.1663 8.08343 13.6663 8.33337 13.4163L11.7504 9.91632L8.33337 6.58331C8.08337 6.33331 8.08337 5.83331 8.33337 5.58331Z" fill="#200040"/>
</g>
<defs>
<clipPath id="clip0_8_2258">
<rect width="20" height="20" fill="white"/>
</clipPath>
</defs>
</svg>
