<svg width="20" height="20" viewBox="0 0 20 20" fill="none" xmlns="http://www.w3.org/2000/svg">
<path d="M11.8336 3.5C12.0837 3.25016 12.5837 3.25005 12.8336 3.5L18.3336 9C18.6668 9.24998 18.7503 9.58342 18.8336 10C18.8336 10.3333 18.6666 10.75 18.4166 11L12.9166 16.5C12.75 16.5833 12.5833 16.667 12.4166 16.667C12.25 16.667 12.0833 16.6667 11.9166 16.5C11.6666 16.25 11.6666 15.75 11.9166 15.5L16.7496 10.667H1.91663C1.50007 10.667 1.1668 10.3335 1.16663 9.91699C1.16663 9.50033 1.49996 9.16699 1.91663 9.16699H16.4996L11.8336 4.5C11.5836 4.25 11.5836 3.75 11.8336 3.5Z" fill="#200040"/>
</svg>
