<svg width="20" height="20" viewBox="0 0 20 20" fill="none" xmlns="http://www.w3.org/2000/svg">
<path d="M15.083 3.41666C15.833 3.41666 16.4997 4.08366 16.583 4.83366V12.5837C16.5828 13.0002 16.2496 13.3337 15.833 13.3337C15.4166 13.3335 15.0832 13.0001 15.083 12.5837V5.99967L4.75 16.3337C4.58338 16.417 4.41662 16.4997 4.25 16.4997C4.08339 16.4997 3.91661 16.5002 3.75 16.3337C3.50005 16.0837 3.50016 15.5837 3.75 15.3337L14.167 4.91666H7.33301C6.91649 4.91649 6.58301 4.58322 6.58301 4.16666C6.58301 3.75011 6.91649 3.41684 7.33301 3.41666H15.083Z" fill="#200040"/>
</svg>
