<svg width="20" height="20" viewBox="0 0 20 20" fill="none" xmlns="http://www.w3.org/2000/svg">
<path d="M9.91699 1.16667C10.3335 1.16685 10.667 1.50011 10.667 1.91667V16.7497L15.5 11.9167C15.75 11.6667 16.25 11.6667 16.5 11.9167C16.75 12.1667 16.75 12.5837 16.5 12.8337L11 18.3337C10.75 18.5836 10.3333 18.7497 10 18.7497C9.66674 18.7497 9.25002 18.5836 9 18.3337L3.5 12.8337C3.25005 12.5837 3.25016 12.0837 3.5 11.8337C3.75 11.5837 4.25 11.5837 4.5 11.8337L9.16699 16.4997V1.91667C9.16699 1.58334 9.50033 1.16667 9.91699 1.16667Z" fill="#200040"/>
</svg>
