<svg width="20" height="20" viewBox="0 0 20 20" fill="none" xmlns="http://www.w3.org/2000/svg">
<g clip-path="url(#clip0_8_2256)">
<path d="M10.0004 0.083374C15.4169 0.0835547 19.9164 4.58381 19.9164 10.0004C19.9162 15.4168 15.4168 19.9162 10.0004 19.9164C4.58381 19.9164 0.0835547 15.4169 0.083374 10.0004C0.083374 4.5837 4.5837 0.083374 10.0004 0.083374ZM10.0004 1.50037C5.3337 1.50037 1.50037 5.3337 1.50037 10.0004C1.50054 14.6669 5.33381 18.5004 10.0004 18.5004C14.6668 18.5002 18.5002 14.6668 18.5004 10.0004C18.5004 5.33381 14.6669 1.50054 10.0004 1.50037ZM9.08337 7.25037C9.58337 6.75037 10.5 6.75037 11.0834 7.25037L14.5004 10.6664C14.7503 10.9163 14.75 11.4163 14.5004 11.6664C14.2504 11.833 14.083 11.9164 13.9164 11.9164C13.7498 11.9163 13.5829 11.8336 13.4164 11.7504L10.0004 8.25037L6.66638 11.6664C6.41638 11.9164 5.91638 11.9164 5.66638 11.6664C5.41671 11.4163 5.41649 10.9163 5.66638 10.6664L9.08337 7.25037Z" fill="#200040"/>
</g>
<defs>
<clipPath id="clip0_8_2256">
<rect width="20" height="20" fill="white"/>
</clipPath>
</defs>
</svg>
