<svg width="20" height="20" viewBox="0 0 20 20" fill="none" xmlns="http://www.w3.org/2000/svg">
<g clip-path="url(#clip0_11_540)">
<path d="M10 0.0833435C15.4165 0.0835241 19.916 4.58378 19.916 10.0003V11.4164C19.916 13.2497 18.4993 14.6664 16.666 14.6664C15.4161 14.6662 14.25 13.9996 13.75 12.9164C12.8334 14.0829 11.4999 14.7502 10 14.7503C7.41677 14.7503 5.25018 12.6668 5.25 10.0003C5.25 7.33367 7.49967 5.25034 10.083 5.25034C12.6663 5.25034 14.833 7.33367 14.833 10.0003V11.5003C14.8332 12.5001 15.6663 13.3332 16.666 13.3333C17.6659 13.3333 18.4998 12.5002 18.5 11.5003V10.0003C18.5 5.33378 14.6665 1.50051 10 1.50034C5.33333 1.50034 1.5 5.33367 1.5 10.0003C1.50018 14.6667 5.33293 18.5002 9.91602 18.5003C11.7493 18.5003 13.4163 17.9164 14.833 16.9164C15.1663 16.6665 15.583 16.7501 15.833 17.0833C16.083 17.4167 15.9993 17.8333 15.666 18.0833C13.9995 19.2499 12.0831 19.9163 10 19.9164C4.58344 19.9164 0.0831884 15.4169 0.0830078 10.0003C0.0830078 4.58367 4.58333 0.0833435 10 0.0833435ZM10 6.66635C8.16667 6.66635 6.66602 8.167 6.66602 10.0003C6.66619 11.8335 8.16678 13.3333 10 13.3333C11.8331 13.3332 13.3328 11.8334 13.333 10.0003C13.333 8.16711 11.8332 6.66653 10 6.66635Z" fill="#200040"/>
</g>
<defs>
<clipPath id="clip0_11_540">
<rect width="20" height="20" fill="white"/>
</clipPath>
</defs>
</svg>
