<svg width="20" height="20" viewBox="0 0 20 20" fill="none" xmlns="http://www.w3.org/2000/svg">
<path d="M8.69711 13.3333H7.51645L6.86703 11.5736H4.08676L3.43735 13.3333H2.29672L5.04672 6.33334H5.95688L8.69711 13.3333ZM16.867 6.33334V13.3333H15.8368V10.5335H14.367L12.4266 13.3333H11.2069L13.3368 10.3529V10.3333C12.3268 10.1133 11.787 9.29322 11.787 8.46323C11.787 7.31327 12.6068 6.33341 14.2166 6.33334H16.867ZM11.2079 11.0033H8.60825V10.0833H11.2079V11.0033ZM4.40707 10.7035H6.54672L5.48715 7.87338H5.46664L4.40707 10.7035ZM14.2372 7.2435C13.4872 7.2435 12.8574 7.62316 12.8573 8.43295C12.8573 9.24295 13.4872 9.66342 14.2372 9.66342H15.8368V7.2435H14.2372Z" fill="#200040"/>
</svg>
