<svg width="20" height="20" viewBox="0 0 20 20" fill="none" xmlns="http://www.w3.org/2000/svg">
<g clip-path="url(#clip0_17_763)">
<path d="M0.833496 0.166687C1.00016 0.166795 1.24995 0.2504 1.4165 0.333679C1.49979 0.500259 1.5835 0.667099 1.5835 0.833679V15.9167C1.5835 16.5834 1.8335 17.2497 2.3335 17.7497C2.8335 18.2497 3.49984 18.4997 4.1665 18.4997H19.1665C19.3332 18.4997 19.4998 18.5 19.6665 18.6667C19.7498 18.75 19.8335 19 19.8335 19.1667C19.8335 19.3334 19.8332 19.5 19.6665 19.6667C19.4998 19.75 19.3332 19.8337 19.1665 19.8337H4.1665C3.08325 19.8337 2.08348 19.4166 1.3335 18.6667C0.583572 17.9168 0.166588 16.9169 0.166504 15.8337V0.833679C0.166504 0.667056 0.250184 0.500302 0.333496 0.333679C0.500119 0.250368 0.666873 0.166687 0.833496 0.166687ZM4.99951 9.33368C5.16607 9.33368 5.33295 9.33335 5.49951 9.49969C5.58279 9.66625 5.6664 9.83314 5.6665 9.99969V15.8337C5.6665 16.0002 5.66607 16.1671 5.49951 16.3337C5.2494 16.5834 4.7494 16.5836 4.49951 16.3337C4.41623 16.1671 4.3336 16.0002 4.3335 15.8337V9.99969C4.3335 9.83307 4.33308 9.58304 4.49951 9.49969C4.66607 9.41642 4.83295 9.33379 4.99951 9.33368ZM9.1665 7.66669C9.33317 7.66669 9.49984 7.66701 9.6665 7.83368C9.74979 8.00026 9.8335 8.1671 9.8335 8.33368V15.8337C9.8335 16.0002 9.83306 16.1671 9.6665 16.3337C9.4165 16.5835 8.9165 16.5835 8.6665 16.3337C8.58323 16.1671 8.49962 16.0002 8.49951 15.8337V8.33368C8.49951 8.16707 8.5 8.00029 8.6665 7.83368C8.83317 7.75035 8.99984 7.66669 9.1665 7.66669ZM13.3335 10.1667C13.5002 10.1667 13.7502 10.1671 13.8335 10.3337C13.9168 10.5002 13.9995 10.6671 13.9995 10.8337V15.8337C13.9995 16.0002 14.0001 16.1671 13.8335 16.3337C13.5836 16.5836 13.0836 16.5834 12.8335 16.3337C12.7502 16.1671 12.6666 16.0002 12.6665 15.8337V10.8337C12.6665 10.667 12.6668 10.5003 12.8335 10.3337C13.0002 10.167 13.1668 10.1667 13.3335 10.1667ZM17.4995 6.83368C17.6661 6.83368 17.833 6.83335 17.9995 6.99969C18.0828 7.16625 18.1664 7.33314 18.1665 7.49969V15.8337C18.1665 16.0002 18.1661 16.1671 17.9995 16.3337C17.7494 16.5834 17.2494 16.5836 16.9995 16.3337C16.9162 16.1671 16.8336 16.0002 16.8335 15.8337V7.49969C16.8335 7.33314 16.833 7.16625 16.9995 6.99969C17.0829 6.83327 17.3329 6.83368 17.4995 6.83368ZM19.1665 0.166687C19.3332 0.166687 19.4998 0.167013 19.6665 0.333679C19.7498 0.500259 19.8335 0.667099 19.8335 0.833679C19.8335 1.00024 19.8331 1.16712 19.6665 1.33368L14.9995 5.99969C14.5829 6.41629 14 6.66661 13.3335 6.66669C12.6668 6.66669 12.0832 6.41636 11.6665 5.99969L9.8335 4.16669C9.50016 3.83335 8.83285 3.83335 8.49951 4.16669L5.49951 7.16669C5.24952 7.4165 4.83345 7.41628 4.5835 7.24969C4.50019 7.16638 4.41681 7.08327 4.3335 6.91669V6.49969C4.33371 6.41631 4.41634 6.24997 4.49951 6.16669L7.49951 3.16669C7.91618 2.75002 8.49984 2.49969 9.1665 2.49969C9.83317 2.49969 10.4168 2.75002 10.8335 3.16669L12.6665 4.99969C12.9998 5.33303 13.6662 5.33303 13.9995 4.99969L18.6665 0.333679C18.8332 0.250346 18.9998 0.166687 19.1665 0.166687Z" fill="#200040"/>
</g>
<defs>
<clipPath id="clip0_17_763">
<rect width="20" height="20" fill="white"/>
</clipPath>
</defs>
</svg>
