<svg width="20" height="20" viewBox="0 0 20 20" fill="none" xmlns="http://www.w3.org/2000/svg">
<g clip-path="url(#clip0_17_762)">
<path d="M0.833496 0.166687C1.00016 0.166795 1.24995 0.2504 1.4165 0.333679C1.49979 0.500259 1.5835 0.667099 1.5835 0.833679V15.8337C1.58358 16.5002 1.83358 17.1668 2.3335 17.6667C2.83348 18.1666 3.49991 18.4167 4.1665 18.4167H19.1665C19.3332 18.4167 19.4998 18.5 19.6665 18.6667C19.7498 18.8334 19.8335 19 19.8335 19.1667C19.8335 19.3334 19.8332 19.5 19.6665 19.6667C19.4998 19.75 19.3332 19.8337 19.1665 19.8337H4.1665C3.08325 19.8337 2.08348 19.4166 1.3335 18.6667C0.583572 17.9168 0.166588 16.9169 0.166504 15.8337V0.833679C0.166504 0.667056 0.250184 0.500302 0.333496 0.333679C0.500119 0.250368 0.666873 0.166687 0.833496 0.166687ZM5.6665 10.1667C5.99984 10.1667 6.3335 10.417 6.3335 10.8337V14.9997C6.3335 15.333 6.08317 15.6667 5.6665 15.6667C5.33317 15.6667 4.99951 15.4164 4.99951 14.9997V10.8337C4.99951 10.417 5.33317 10.1667 5.6665 10.1667ZM10.1665 6.83368C10.4998 6.83368 10.8333 7.08322 10.8335 7.49969V14.9997C10.8335 15.333 10.5832 15.6667 10.1665 15.6667C9.83317 15.6667 9.49951 15.4164 9.49951 14.9997V7.49969C9.49969 7.08322 9.83326 6.83368 10.1665 6.83368ZM14.6665 3.49969C14.9998 3.49969 15.3335 3.75002 15.3335 4.16669V14.9997C15.3335 15.333 15.0832 15.6667 14.6665 15.6667C14.2498 15.6667 13.9995 15.4164 13.9995 14.9997V4.16669C13.9995 3.75002 14.3332 3.49969 14.6665 3.49969ZM19.1665 0.166687C19.5832 0.166687 19.8335 0.417012 19.8335 0.833679V14.9997C19.8335 15.333 19.4998 15.6667 19.1665 15.6667C18.8332 15.6667 18.4995 15.4164 18.4995 14.9997V0.833679C18.4995 0.500346 18.7498 0.166688 19.1665 0.166687Z" fill="#200040"/>
</g>
<defs>
<clipPath id="clip0_17_762">
<rect width="20" height="20" fill="white"/>
</clipPath>
</defs>
</svg>
