<svg width="20" height="20" viewBox="0 0 20 20" fill="none" xmlns="http://www.w3.org/2000/svg">
<path d="M4.1665 3.50131H14.1665C16.0831 3.50131 17.75 4.91783 18.0835 6.83432H19.0835C19.5001 6.83438 19.8335 7.08473 19.8335 7.50131V12.4183C19.8334 12.8348 19.5 13.1682 19.0835 13.1683H18.0835C17.8334 15.0849 16.1664 16.5013 14.1665 16.5013H4.1665C1.99992 16.5012 0.166504 14.7512 0.166504 12.5013V7.50131C0.166537 5.2514 1.91661 3.41809 4.1665 3.50131ZM4.1665 4.9183C2.74994 4.9184 1.58353 6.08474 1.5835 7.50131V12.5013C1.5835 13.9179 2.74992 15.0842 4.1665 15.0843H14.1665C15.5832 15.0843 16.7505 13.918 16.7505 12.5013V7.50131C16.7505 6.08467 15.5831 4.9183 14.1665 4.9183H4.1665Z" fill="#200040"/>
</svg>
