<svg width="20" height="20" viewBox="0 0 20 20" fill="none" xmlns="http://www.w3.org/2000/svg">
<path d="M14.1704 3.58344C16.0869 3.58364 17.7531 4.99991 18.0864 6.91644H19.0864C19.5031 6.91644 19.8364 7.16677 19.8364 7.58344V12.6664C19.8364 13.0831 19.5031 13.4164 19.0864 13.4164H18.0864C17.8364 15.3329 16.1702 16.7493 14.1704 16.7495H12.5034C12.1701 16.7495 11.8364 16.4161 11.8364 15.9995C11.8365 15.5829 12.0868 15.2495 12.5034 15.2495H14.1704C15.5869 15.2492 16.7534 14.0829 16.7534 12.6664V7.66644C16.7534 6.24991 15.5869 5.08366 14.1704 5.08344H12.5034C12.1702 5.08344 11.8366 4.74991 11.8364 4.33344C11.8364 3.91677 12.0868 3.58344 12.5034 3.58344H14.1704ZM5.83643 3.49945C6.25301 3.49945 6.50332 3.8329 6.50342 4.24945C6.50342 4.66612 6.25309 4.99945 5.83643 4.99945H4.17041C2.75374 4.99945 1.58643 6.16677 1.58643 7.58344V12.5834C1.58665 13.9999 2.75388 15.1664 4.17041 15.1664H5.83643C6.25309 15.1664 6.50342 15.4168 6.50342 15.8334C6.50325 16.2499 6.25296 16.5834 5.83643 16.5834H4.17041C2.00388 16.5834 0.170634 14.8332 0.17041 12.5834V7.58344C0.17041 5.33343 1.92041 3.49945 4.17041 3.49945H5.83643ZM8.75342 3.83344C9.00342 3.5001 9.42008 3.41677 9.75342 3.58344C10.0865 3.83346 10.17 4.25019 10.0034 4.58344L7.42041 9.41644H10.9204C11.4203 9.41658 11.9205 9.66688 12.1704 10.0834C12.4201 10.5 12.42 10.9999 12.2534 11.4164L9.92041 16.1664C9.75376 16.4164 9.50339 16.5834 9.25342 16.5834C9.08681 16.5834 9.00371 16.5827 8.92041 16.4995C8.58722 16.3329 8.42011 15.9167 8.58643 15.5834L10.9204 10.8334L10.8364 10.7495H7.33643C6.83673 10.7494 6.4204 10.4997 6.17041 10.0834C5.92041 9.58344 5.92041 9.08311 6.17041 8.66644L8.75342 3.83344Z" fill="#200040"/>
</svg>
