<svg width="20" height="20" viewBox="0 0 20 20" fill="none" xmlns="http://www.w3.org/2000/svg">
<g clip-path="url(#clip0_18_976)">
<path d="M10.0005 0.0830078C15.417 0.0831884 19.9165 4.58344 19.9165 10C19.9165 15.4165 15.417 19.9168 10.0005 19.917C4.58383 19.917 0.0835077 15.4167 0.0834961 10C0.0834961 4.58333 4.58382 0.0830078 10.0005 0.0830078ZM10.0005 1.5C5.33382 1.5 1.50049 5.33333 1.50049 10C1.5005 14.6667 5.33383 18.5 10.0005 18.5C14.667 18.4998 18.5005 14.6665 18.5005 10C18.5005 5.33344 14.667 1.50018 10.0005 1.5ZM10.0005 3.5C10.3338 3.3335 10.7502 3.41706 11.0835 3.66699L13.5835 5.83301C13.9168 6.16627 14.0834 6.58314 14.0835 7.08301C14.0835 7.58301 13.8335 8 13.3335 8.25L11.0835 9.91699L13.2505 11.583C13.5838 11.833 13.8335 12.25 13.8335 12.75C13.8335 13.25 13.6668 13.6667 13.3335 14L10.9165 16.167C10.7499 16.3334 10.5002 16.4169 10.2505 16.417C10.0838 16.417 10.0002 16.4163 9.8335 16.333C9.50032 16.1664 9.25063 15.8334 9.25049 15.417V11.417L7.0835 13.083C6.75024 13.333 6.33351 13.2501 6.0835 12.917C5.8335 12.5837 5.91716 12.167 6.25049 11.917L8.8335 10L6.25049 8.08301C6.00049 7.83301 5.9165 7.41634 6.1665 7.08301C6.33323 6.74979 6.83387 6.74968 7.25049 6.83301L9.4165 8.5V4.41699C9.4165 4.00033 9.58382 3.66667 10.0005 3.5ZM10.6665 14.583L12.5005 13C12.5804 12.9998 12.5834 12.9228 12.5835 12.917L12.5005 12.833L10.6665 11.417V14.583ZM10.7505 8.58301L12.5835 7.16699C12.625 7.16699 12.6457 7.14578 12.6665 7.125C12.6873 7.10417 12.7088 7.08301 12.7505 7.08301L12.6665 7L10.7505 5.33301V8.58301Z" fill="#200040"/>
</g>
<defs>
<clipPath id="clip0_18_976">
<rect width="20" height="20" fill="white"/>
</clipPath>
</defs>
</svg>
