<svg width="20" height="20" viewBox="0 0 20 20" fill="none" xmlns="http://www.w3.org/2000/svg">
<path d="M11.7497 2.58398C13.9997 2.58398 15.7497 4.41732 15.7497 6.58398C15.7496 7.83383 15.2502 8.91738 14.3337 9.58398C15.6668 10.2507 16.5837 11.5838 16.5837 13.167C16.5836 15.417 14.7497 17.25 12.4997 17.25H4.33366V2.58398H11.7497ZM5.74968 15.834H12.4997C13.9163 15.834 15.0837 14.6667 15.0837 13.25C15.0835 11.8335 13.9162 10.667 12.4997 10.667H5.74968V15.834ZM5.74968 9.16699H11.9167C13.2499 9.08367 14.3335 7.91716 14.3337 6.58398C14.3337 5.16732 13.1663 4 11.7497 4H5.74968V9.16699Z" fill="#200040"/>
</svg>
