<svg width="20" height="20" viewBox="0 0 20 20" fill="none" xmlns="http://www.w3.org/2000/svg">
<path d="M15 0.166664C17.25 0.166664 19 2 19 4.16666V17.6667C19 18.25 18.7497 18.833 18.333 19.2497C17.9163 19.6663 17.3333 19.9167 16.75 19.9167C16.1667 19.9167 15.5837 19.6663 15.167 19.2497L10 13.9997L4.75 19.1667C4.41667 19.6667 3.83333 19.8337 3.25 19.8337C2.00011 19.8337 1.00017 18.8335 1 17.5837V4.16666C1 1.91666 2.83333 0.166664 5 0.166664H15ZM5 1.58366C3.58333 1.58366 2.41699 2.75 2.41699 4.16666V17.6667C2.41699 18.0833 2.75 18.4997 3.25 18.4997C3.5 18.4997 3.66634 18.4163 3.83301 18.2497L9.5 12.6667C9.66659 12.5001 9.83319 12.4167 10.083 12.4167C10.333 12.4167 10.5003 12.5 10.667 12.6667L16.25 18.2497C16.4166 18.4163 16.5832 18.4996 16.833 18.4997C17.083 18.4997 17.2503 18.4163 17.417 18.2497C17.5834 18.0831 17.667 17.9165 17.667 17.6667V4.16666C17.667 2.75 16.4997 1.58366 15.083 1.58366H5Z" fill="#200040"/>
</svg>
