<svg width="20" height="20" viewBox="0 0 20 20" fill="none" xmlns="http://www.w3.org/2000/svg">
<path d="M14.167 0.166672C16.4168 0.166842 18.2503 1.91679 18.167 4.16667V15.7497C18.167 17.9997 16.333 19.8337 14.083 19.8337H4.91699C3.16699 19.8337 1.75 18.4167 1.75 16.6667V4.24968C1.75018 1.99994 3.58326 0.166848 5.83301 0.166672H14.167ZM5 14.9167C4.08333 14.9167 3.25 15.75 3.25 16.6667C3.25 17.5833 4 18.4167 5 18.4167H14.167C15.5834 18.4165 16.8328 17.2501 16.833 15.8337V14.9167H5ZM5.16699 1.66667C4.00043 1.99998 3.16683 2.99983 3.25 4.24968V13.9997C3.74996 13.5831 4.3334 13.4167 5 13.4167H5.16699V1.66667ZM6.58301 1.58366V13.4167H16.833V4.16667C16.833 2.75011 15.5835 1.58384 14.167 1.58366H6.58301Z" fill="#200040"/>
</svg>
