<svg width="20" height="20" viewBox="0 0 20 20" fill="none" xmlns="http://www.w3.org/2000/svg">
<g clip-path="url(#clip0_11_554)">
<path d="M16.166 0.916664C16.9159 0.750015 17.7494 0.916786 18.416 1.41666C18.9993 1.91662 19.4159 2.66642 19.166 3.49967V14.5837C19.1659 15.8335 18.3326 16.9167 17.166 17.1667L12.416 18.3337H12.333C11.583 18.5003 10.9993 18.6667 10.916 18.6667C10.7496 18.6669 10.5832 18.8332 10.583 18.9997C10.583 19.333 10.2493 19.5837 9.91602 19.5837C9.58285 19.5835 9.33331 19.3329 9.25 18.9997C9.25 18.9162 9.24892 18.7499 8.91602 18.6667C8.74892 18.6664 8.16553 18.5002 7.41602 18.3337L2.58301 17.2497C1.41639 16.9163 0.583008 15.9166 0.583008 14.6667V3.49967C0.583116 2.66656 0.999557 1.9166 1.66602 1.41666C2.3326 0.916727 3.08281 0.750102 3.91602 0.916664L8.66602 2.08366C9.16602 2.16699 9.66667 2.41699 10 2.83366C10.3333 2.50039 10.8328 2.16708 11.416 2.08366L16.166 0.916664ZM3.58301 2.24967C3.16652 2.16639 2.83319 2.2499 2.5 2.49967C2.16675 2.74961 2.00009 3.08316 2 3.49967H2.08301V14.6667C2.08301 15.1667 2.41667 15.667 3 15.8337L7.66602 16.9997C8.08268 17.083 8.41667 16.9997 8.75 16.7497C9.08309 16.4997 9.25 16.1662 9.25 15.7497V4.58366C9.25 4.08366 8.91634 3.58333 8.33301 3.41666L3.58301 2.24967ZM16.416 2.33366L11.666 3.49967C11.1661 3.58314 10.75 4.08343 10.75 4.66666V15.7497C10.75 16.1663 10.9167 16.4997 11.25 16.7497C11.5 16.9997 11.9167 17.083 12.25 16.9997L17.083 15.8337C17.583 15.7503 18 15.25 18 14.6667H17.916V3.58366C17.916 3.16699 17.7493 2.83366 17.416 2.58366C17.2493 2.41699 16.916 2.33366 16.666 2.33366H16.416Z" fill="#200040"/>
</g>
<defs>
<clipPath id="clip0_11_554">
<rect width="20" height="20" fill="white"/>
</clipPath>
</defs>
</svg>
