<svg width="20" height="20" viewBox="0 0 20 20" fill="none" xmlns="http://www.w3.org/2000/svg">
<g clip-path="url(#clip0_11_535)">
<path d="M8.25 0.416779C9.33317 0.000257306 10.5828 0.000257522 11.666 0.416779L16.916 2.16678C17.5826 2.33343 18.166 2.8335 18.416 3.41678L19.666 5.91678C19.916 6.50011 19.916 7.1671 19.666 7.83377C19.416 8.50011 18.9164 8.91682 18.25 9.16678H18.166V14.5838C18.1659 16.3336 17.0826 17.8335 15.416 18.4168L11.666 19.6668C11.1662 19.8333 10.5831 19.9167 10 19.9168C9.5 19.9168 8.91634 19.8334 8.33301 19.6668L4.58301 18.4168C2.91645 17.8335 1.83314 16.3336 1.83301 14.5838V9.16678H1.75C1.08344 8.91682 0.583047 8.41699 0.333008 7.83377C0.0830078 7.1671 0.083008 6.50011 0.333008 5.91678L1.58301 3.41678C1.83301 2.83345 2.41667 2.33377 3 2.08377L8.25 0.416779ZM10.666 18.4168C10.8327 18.3334 11.083 18.3331 11.333 18.2498L15.083 16.9998C16.083 16.5831 16.833 15.5831 16.833 14.4998V9.58377L14 10.5838C13.7501 10.7504 13.4999 10.7498 13.25 10.7498C12.4167 10.7498 11.5827 10.2501 11.166 9.41678L10.75 8.58377L10.666 18.4168ZM8.91602 9.41678C8.41599 10.4167 7.16627 11.0003 6.08301 10.5838L3.25 9.58377V14.4998C3.25 15.6665 3.91667 16.6665 5 16.9998L8.75 18.1668C8.91658 18.2501 9.08342 18.3338 9.25 18.3338L9.33301 8.49979L8.91602 9.41678ZM17.166 3.91678L11.166 5.99979L12.5 8.74979C12.6667 9.16645 13.1663 9.41645 13.583 9.24979L17.916 7.74979C18.166 7.66645 18.3327 7.49979 18.416 7.24979C18.4993 6.99985 18.4997 6.74972 18.583 6.49979L17.333 3.99979L17.25 3.91678H17.166ZM1.66602 6.49979C1.49941 6.74969 1.49977 6.99988 1.58301 7.24979C1.6663 7.49966 1.91615 7.66641 2.16602 7.74979L6.58301 9.24979C6.99967 9.33312 7.49935 9.16645 7.66602 8.74979L9 5.99979L2.91602 3.99979L1.66602 6.49979ZM11.25 1.74979C10.4167 1.49979 9.49935 1.49979 8.66602 1.74979L4.66602 3.08377L10 4.91678L15.25 3.08377L11.25 1.74979Z" fill="#200040"/>
</g>
<defs>
<clipPath id="clip0_11_535">
<rect width="20" height="20" fill="white"/>
</clipPath>
</defs>
</svg>
