<svg width="20" height="20" viewBox="0 0 20 20" fill="none" xmlns="http://www.w3.org/2000/svg">
<g clip-path="url(#clip0_11_531)">
<path d="M10.834 0.083252C12.5838 0.0833865 14.0837 1.16701 14.667 2.75024L14.834 3.33325V3.41626H15.834C18.0837 3.41644 19.8338 5.24984 19.834 7.41626V15.8333C19.834 17.9998 18.0838 19.8331 15.834 19.8333H4.16699C2.00033 19.8333 0.166992 18.0833 0.166992 15.8333V7.41626C0.167168 5.24973 1.91711 3.41626 4.16699 3.41626H5.25V3.33325L5.41699 2.83325C5.91699 1.24992 7.50065 0.083252 9.33398 0.083252H10.834ZM1.58398 11.5002V15.8333C1.58398 17.2499 2.75033 18.4163 4.16699 18.4163H15.834C17.2505 18.4161 18.417 17.2498 18.417 15.8333V11.5833H10.667V12.5002C10.6668 12.8335 10.3332 13.1663 10 13.1663C9.66686 13.1661 9.33416 12.9166 9.33398 12.5002V11.5002H1.58398ZM4.16699 4.83325C2.75043 4.83325 1.58416 5.99974 1.58398 7.41626V10.0833H18.417V7.41626C18.4168 5.99985 17.2504 4.83343 15.834 4.83325H4.16699ZM9.25 1.50024C8.08347 1.50038 7.0833 2.25002 6.75 3.33325L6.66699 3.41626H13.334L13.25 3.25024C12.8333 2.16691 11.8333 1.50024 10.75 1.50024H9.25Z" fill="#200040"/>
</g>
<defs>
<clipPath id="clip0_11_531">
<rect width="20" height="20" fill="white"/>
</clipPath>
</defs>
</svg>
