<svg width="20" height="20" viewBox="0 0 20 20" fill="none" xmlns="http://www.w3.org/2000/svg">
<g clip-path="url(#clip0_11_529)">
<path d="M14.25 0.166656C14.5833 0.166656 14.917 0.416982 14.917 0.833649V1.83365H15.834C18.0838 1.83382 19.834 3.58376 19.834 5.83365V15.8336C19.8338 18.0001 18.0837 19.8335 15.834 19.8336H4.16699C2.00043 19.8336 0.16717 18.0835 0.166992 15.8336V5.83365C0.166992 3.58365 1.91699 1.833 4.16699 1.74966H5.16699V0.833649C5.16699 0.500315 5.58366 0.166656 5.91699 0.166656C6.25033 0.166657 6.58398 0.416982 6.58398 0.833649V1.74966H13.5V0.833649C13.5 0.500423 13.9167 0.166873 14.25 0.166656ZM1.58398 15.8336C1.58416 17.2502 2.75044 18.4167 4.16699 18.4167H15.834C17.2504 18.4165 18.4165 17.2501 18.5 15.8336V8.24966H1.58398V15.8336ZM6.66699 10.0836C7.50032 10.0836 8.25 10.8333 8.25 11.6667V13.2497C8.25 14.1663 7.50032 14.8336 6.66699 14.8336H5.08398C4.16732 14.8336 3.5 14.083 3.5 13.2497V11.6667C3.5 10.75 4.25065 10.0836 5.08398 10.0836H6.66699ZM5.08398 11.4997C5.00065 11.4997 4.91699 11.5833 4.91699 11.6667V13.2497C4.91699 13.333 5.00065 13.4167 5.08398 13.4167H6.66699C6.75033 13.4167 6.83398 13.333 6.83398 13.2497V11.6667C6.83398 11.5833 6.75033 11.4997 6.66699 11.4997H5.08398ZM4.16699 3.24966C2.75033 3.24966 1.58398 4.41698 1.58398 5.83365V6.83365H18.417V5.83365C18.417 4.41709 17.2505 3.24984 15.834 3.24966H4.16699Z" fill="#200040"/>
</g>
<defs>
<clipPath id="clip0_11_529">
<rect width="20" height="20" fill="white"/>
</clipPath>
</defs>
</svg>
