<svg width="20" height="20" viewBox="0 0 20 20" fill="none" xmlns="http://www.w3.org/2000/svg">
<g clip-path="url(#clip0_18_981)">
<path d="M0.297607 0.3479C0.547607 0.0979004 1.04761 0.0979004 1.29761 0.3479L4.9646 4.01392L6.63062 1.76392C7.04728 1.26394 7.71462 0.930908 8.4646 0.930908H11.5476C12.2976 0.930938 12.964 1.26459 13.3806 1.8479L15.0476 4.01392C17.2975 4.01397 19.0475 5.76407 19.0476 8.01392V15.0139C19.0476 15.8472 18.7975 16.5973 18.2976 17.2639L19.6306 18.6809C19.9639 18.9309 19.9639 19.4309 19.6306 19.6809C19.464 19.7642 19.2972 19.8479 19.1306 19.8479C18.964 19.8479 18.7972 19.8475 18.6306 19.6809L0.297607 1.3479C0.0476575 1.09795 0.0477576 0.59795 0.297607 0.3479ZM1.4646 6.0979C1.63127 5.76457 2.04793 5.59725 2.4646 5.76392C2.79768 6.01384 2.88099 6.4307 2.7146 6.76392C2.46465 7.09718 2.38065 7.5973 2.38062 8.01392V15.0139C2.38062 16.4306 3.54793 17.5979 4.9646 17.5979H13.2976C13.7142 17.598 13.9646 18.0146 13.9646 18.3479C13.9644 18.6811 13.714 19.0139 13.2976 19.0139H4.9646C2.79793 19.0139 0.9646 17.2639 0.9646 15.0139V8.01392C0.964641 7.34738 1.13135 6.68113 1.4646 6.0979ZM8.29761 7.3479C8.79761 7.0979 9.38127 7.01392 9.9646 7.01392C12.4643 7.01414 14.4645 9.01417 14.4646 11.5139C14.4646 12.0972 14.3806 12.6809 14.1306 13.1809L17.2146 16.2639C17.4644 15.8474 17.5476 15.4305 17.5476 15.0139V8.01392C17.5475 6.5975 16.381 5.43114 14.9646 5.43091H6.38062L8.29761 7.3479ZM6.29761 10.4309C6.6309 10.5143 6.9646 10.848 6.9646 11.3479V11.5979C6.96483 13.2644 8.38107 14.6809 10.0476 14.6809H10.4646C10.7978 14.5979 11.1312 14.8475 11.2146 15.2639C11.2979 15.5972 11.0473 15.9306 10.6306 16.0139H10.0476C7.54761 16.0139 5.54761 14.0139 5.54761 11.5139V11.0979C5.54761 10.6812 5.88094 10.4309 6.29761 10.4309ZM8.4646 2.3479C8.2146 2.3479 7.96427 2.43091 7.79761 2.68091L6.7146 4.01392H13.2146L12.2146 2.68091C12.048 2.51426 11.7976 2.34795 11.5476 2.3479H8.4646Z" fill="#200040"/>
</g>
<defs>
<clipPath id="clip0_18_981">
<rect width="20" height="20" fill="white"/>
</clipPath>
</defs>
</svg>
