<svg width="20" height="20" viewBox="0 0 20 20" fill="none" xmlns="http://www.w3.org/2000/svg">
<g clip-path="url(#clip0_18_977)">
<path d="M11.5269 0.25C12.2768 0.250056 12.9432 0.583708 13.3599 1.16699L15.0269 3.41699H15.7769C18.0268 3.4171 19.7769 5.25006 19.7769 7.5V15.833C19.7769 17.9996 18.0268 19.8329 15.7769 19.833H4.10986C1.94326 19.8329 0.109863 18.083 0.109863 15.833V7.5C0.109864 5.25005 1.85993 3.41675 4.10986 3.5H4.85986V3.41699L6.60986 1.16699C7.02644 0.583778 7.69306 0.250137 8.44287 0.25H11.5269ZM4.10986 4.91699C2.69326 4.91707 1.52686 6.08338 1.52686 7.5V15.833C1.52686 17.2496 2.69326 18.4169 4.10986 18.417H15.7769C17.1934 18.4169 18.3599 17.2496 18.3599 15.833V7.5C18.3599 6.0834 17.1934 4.9171 15.7769 4.91699H4.10986ZM9.94287 6.75C12.6095 6.75 14.8599 8.91699 14.8599 11.667C14.8597 14.4168 12.6928 16.583 9.94287 16.583C7.1932 16.5828 5.02703 14.4167 5.02686 11.667C5.02686 8.91715 7.27641 6.75025 9.94287 6.75ZM9.94287 8.16699C8.02652 8.16723 6.44305 9.66665 6.44287 11.583C6.44287 13.4995 8.02641 15.0828 9.94287 15.083C11.8594 15.083 13.4427 13.5835 13.4429 11.667C13.4429 9.75033 11.8595 8.16699 9.94287 8.16699ZM8.44287 1.66699C8.19307 1.6672 7.94342 1.83347 7.77686 2L6.60986 3.41699H13.2769L12.1929 2C12.0262 1.83345 11.7767 1.66708 11.5269 1.66699H8.44287Z" fill="#200040"/>
</g>
<defs>
<clipPath id="clip0_18_977">
<rect width="20" height="20" fill="white"/>
</clipPath>
</defs>
</svg>
