<svg width="20" height="20" viewBox="0 0 20 20" fill="none" xmlns="http://www.w3.org/2000/svg">
<path d="M12.3334 1.58325C14.75 1.58328 16.2501 2.41694 17.0834 4.00024C17.5 4.66691 17.8338 5.66672 18.2504 6.58325C18.5836 7.41631 18.9164 8.24951 19.1664 8.66626C19.4997 9.08286 19.6663 9.7497 19.6664 10.4163L19.7504 13.1663C19.8337 13.8329 19.5834 14.6669 18.8334 15.2502C18.5001 15.5835 18.083 15.8336 17.6664 16.0002V16.4163C17.6664 17.4994 16.8335 18.333 15.7504 18.3333C14.667 18.3333 13.8334 17.4163 13.8334 16.4163V16.1663H6.00037V16.4163C6.00037 17.4996 5.16665 18.3332 4.08337 18.3333C3.00004 18.3333 2.16638 17.4163 2.16638 16.4163V16.0002C1.66643 15.8336 1.16669 15.4999 0.833374 15.0833C0.250129 14.5 0.0831372 13.7501 0.166382 13.0002L0.500366 10.0833C0.500367 9.6667 0.666492 9.16684 0.916382 8.75024C1.08301 8.41699 1.24975 8.00009 1.41638 7.50024C1.83305 6.33358 2.41703 4.83325 3.00037 3.83325C4.08372 1.83342 6.08374 1.58325 7.50037 1.58325H12.3334ZM2.00037 10.0002V10.1663L1.66638 13.2502C1.5832 13.5835 1.66715 13.917 2.00037 14.2502C2.33358 14.5833 2.74994 14.8332 3.16638 14.8333H16.8334C17.2499 14.8332 17.5831 14.6665 17.9164 14.3333C18.2496 14 18.4165 13.5835 18.3334 13.2502L18.2504 10.4163C18.2503 10.2499 18.1665 10.1666 18.1664 10.0002H16.0004V10.9163C16.0004 11.3329 15.583 11.7502 15.1664 11.7502C14.7498 11.7501 14.3334 11.4162 14.3334 10.9163V10.0002H5.66638V10.9163C5.66638 11.3329 5.25 11.7502 4.83337 11.7502C4.41671 11.7502 4.00037 11.4163 4.00037 10.9163V10.0002H2.00037ZM7.50037 2.91626C5.83392 2.91626 4.83373 3.33325 4.25037 4.41626C3.75037 5.41626 3.16703 6.91691 2.75037 8.00024C2.66708 8.25007 2.58365 8.41668 2.50037 8.58325H17.5834C17.4167 8.08331 17.1664 7.58349 16.9164 7.00024C16.5831 6.08372 16.1667 5.16689 15.8334 4.50024C15.3334 3.41691 14.2497 2.91626 12.4164 2.91626H7.50037Z" fill="#200040"/>
</svg>
