<svg width="20" height="20" viewBox="0 0 20 20" fill="none" xmlns="http://www.w3.org/2000/svg">
<path d="M10.6663 5.83374C12.0829 5.83374 13.4163 6.58327 14.1663 7.74976L16.1663 11.0837C16.5829 11.9169 16.9162 12.8333 16.9163 13.7498L17.0003 14.9998C17.0836 15.7496 16.8332 16.4998 16.3333 16.9998C16 17.4164 15.583 17.5831 15.1663 17.7498V17.8337C15.1662 18.9168 14.3333 19.7495 13.2503 19.7498C12.1671 19.7498 11.3335 18.8336 11.3333 17.8337H6.75031C6.75014 18.9169 5.91647 19.7497 4.83331 19.7498C3.7501 19.7498 2.9165 18.8336 2.91632 17.8337V17.7498C2.49977 17.5831 2.08355 17.333 1.75031 16.9998C1.25031 16.4164 0.99998 15.7498 1.08331 14.9998L1.25031 13.6667C1.33364 12.7502 1.58339 11.8337 2.08331 11.0837L4.08331 7.74976C4.75004 6.58326 6.08376 5.83374 7.50031 5.83374H10.6663ZM2.83331 12.7498C2.66665 13.1664 2.58331 13.5004 2.58331 13.8337L2.50031 15.0837C2.50036 15.4169 2.58347 15.7498 2.83331 15.9998C2.99995 16.2497 3.33305 16.4167 3.66632 16.4167H14.5003C14.8334 16.4166 15.0834 16.2496 15.3333 15.9998C15.5831 15.7499 15.7498 15.4168 15.5003 15.0837L15.4163 13.8337C15.333 13.4171 15.2497 13.0831 15.1663 12.7498H13.4163V13.5837C13.4161 13.9168 13.0834 14.2494 12.7503 14.2498C12.4171 14.2498 12.0835 14.0002 12.0833 13.5837V12.7498H5.91632V13.5837C5.9161 13.9168 5.58337 14.2494 5.25031 14.2498C4.91706 14.2498 4.58349 14.0002 4.58331 13.5837V12.7498H2.83331ZM7.50031 7.24976C6.58382 7.24976 5.75034 7.75 5.25031 8.49976L3.58331 11.4167H14.6663L12.9163 8.49976C12.4163 7.74993 11.5829 7.24976 10.6663 7.24976H7.50031ZM18.0833 8.83374C18.4999 8.83381 18.9163 9.1668 18.9163 9.66675C18.9163 10.1667 18.4999 10.4997 18.0833 10.4998C17.5833 10.4998 17.2503 10.1667 17.2503 9.66675C17.2503 9.16675 17.6666 8.83374 18.0833 8.83374ZM18.0833 0.166748C18.4166 0.166817 18.7503 0.417131 18.7503 0.83374V6.91675C18.7503 7.25004 18.4999 7.58367 18.0833 7.58374C17.6668 7.58374 17.3335 7.25025 17.3333 6.83374V0.83374C17.3333 0.417074 17.75 0.166748 18.0833 0.166748Z" fill="#200040"/>
</svg>
