<svg width="20" height="20" viewBox="0 0 20 20" fill="none" xmlns="http://www.w3.org/2000/svg">
<path d="M1.70654 15.917C2.12321 15.917 2.45654 16.2503 2.45654 16.667C2.45639 17.0835 2.12311 17.417 1.70654 17.417C1.28999 17.417 0.956696 17.0835 0.956543 16.667C0.956543 16.2503 1.2899 15.917 1.70654 15.917ZM16.1235 2.58301C17.7066 2.58317 19.1227 3.9166 19.0396 5.58301V14.333C19.0396 15.9997 17.7062 17.333 16.0396 17.333H11.7065C11.3733 17.333 11.0397 17.0002 11.0396 16.667C11.0396 16.3337 11.2899 16 11.7065 16H16.0396C16.9561 16 17.6234 15.2502 17.6235 14.417V5.58301C17.6233 4.66653 16.8728 4 16.0396 4H3.95654C3.04003 4.00002 2.37373 4.74983 2.37354 5.58301V6.66699C2.37335 7.08337 1.95674 7.33287 1.62354 7.33301C1.29028 7.33301 0.956695 7.08349 0.956543 6.66699V5.58301C0.956738 3.91653 2.29002 2.58303 3.95654 2.58301H16.1235ZM1.70654 9.33301C5.70642 9.33301 9.03967 12.5832 8.95654 16.583C8.95654 16.9163 8.62288 17.25 8.28955 17.25C7.95634 17.2498 7.62354 16.9995 7.62354 16.583C7.62333 13.3332 4.95642 10.667 1.70654 10.667C1.37322 10.667 1.03955 10.3333 1.03955 10C1.03957 9.66669 1.28992 9.33303 1.70654 9.33301ZM1.70654 12.667C3.8732 12.667 5.62287 14.5 5.53955 16.5C5.53955 16.8332 5.20677 17.1668 4.87354 17.167C4.5402 17.167 4.20654 16.9167 4.20654 16.5C4.20652 15.1667 3.12319 14 1.70654 14C1.37322 14 1.03955 13.6663 1.03955 13.333C1.03973 12.9998 1.29005 12.667 1.70654 12.667Z" fill="#200040"/>
</svg>
