<svg width="20" height="20" viewBox="0 0 20 20" fill="none" xmlns="http://www.w3.org/2000/svg">
<path d="M17.8335 12.8336C18.0835 12.5836 18.5835 12.5836 18.8335 12.8336C19.0833 13.0837 19.0834 13.5837 18.8335 13.8336L17.6665 14.9997L18.8335 16.1667C19.0835 16.4167 19.0835 16.9167 18.8335 17.1667C18.6668 17.25 18.5002 17.3336 18.3335 17.3336C18.1668 17.3336 18.0002 17.3333 17.8335 17.1667L16.6665 15.9997L15.5005 17.1667C15.3339 17.2499 15.167 17.3335 15.0005 17.3336C14.8339 17.3336 14.6671 17.3332 14.5005 17.1667C14.2505 16.9167 14.2505 16.4167 14.5005 16.1667L15.6665 14.9997L14.5005 13.8336C14.2505 13.5836 14.2505 13.0836 14.5005 12.8336C14.7505 12.5836 15.2505 12.5836 15.5005 12.8336L16.6665 13.9997L17.8335 12.8336ZM18.4165 3.99966C18.6664 3.74977 19.1664 3.74999 19.4165 3.99966C19.6665 4.24965 19.6665 4.66634 19.4165 4.99966L9.6665 15.4167C9.58311 15.5832 9.33313 15.6667 9.1665 15.6667C8.99995 15.6667 8.83306 15.6662 8.6665 15.4997C8.41683 15.2496 8.41661 14.7496 8.6665 14.4997L18.4165 3.99966ZM17.0005 0.416656C17.2505 0.166818 17.7505 0.16671 18.0005 0.416656C18.2503 0.666636 18.2503 1.08342 18.0005 1.41666L8.3335 11.8336C7.91682 12.3335 7.25008 12.6667 6.5835 12.6667H6.50049C5.83382 12.6667 5.16715 12.4163 4.75049 11.9997L0.333496 7.58365C0.0835503 7.3337 0.0836587 6.8337 0.333496 6.58365C0.583496 6.33365 1.0835 6.33365 1.3335 6.58365L5.75049 10.9997C5.91715 11.1663 6.16715 11.2497 6.50049 11.2497C6.83366 11.2496 7.08388 11.0833 7.25049 10.9167L17.0005 0.416656Z" fill="#200040"/>
</svg>
