<svg width="20" height="20" viewBox="0 0 20 20" fill="none" xmlns="http://www.w3.org/2000/svg">
<path d="M18.4165 7.83301C18.6664 7.58312 19.1664 7.58333 19.4165 7.83301C19.6665 8.08301 19.6665 8.5 19.4165 8.75L9.6665 19.25C9.58311 19.4166 9.33313 19.5 9.1665 19.5C8.99995 19.5 8.83306 19.4996 8.6665 19.333C8.41683 19.0829 8.41661 18.5829 8.6665 18.333L18.4165 7.83301ZM17.0005 4.25C17.2505 4.00016 17.7505 4.00005 18.0005 4.25C18.2503 4.49998 18.2503 4.91676 18.0005 5.25L8.3335 15.667C7.91682 16.1669 7.25008 16.5 6.5835 16.5H6.50049C5.83382 16.5 5.16715 16.2497 4.75049 15.833L0.333496 11.417C0.0835503 11.167 0.0836587 10.667 0.333496 10.417C0.583496 10.167 1.0835 10.167 1.3335 10.417L5.75049 14.833C5.91715 14.9997 6.25049 15.083 6.50049 15.083C6.83366 15.0829 7.08388 14.9166 7.25049 14.75L17.0005 4.25Z" fill="#200040"/>
</svg>
