<svg width="20" height="20" viewBox="0 0 20 20" fill="none" xmlns="http://www.w3.org/2000/svg">
<g clip-path="url(#clip0_31_31)">
<path d="M9.99951 0.0833435C15.4162 0.0833435 19.8335 4.50034 19.8335 10.0003C19.8333 15.5002 15.4161 19.9164 9.99951 19.9164C4.5831 19.9162 0.166679 15.5001 0.166504 10.0003C0.166504 4.50045 4.58299 0.0835203 9.99951 0.0833435ZM9.99951 1.58334C5.33299 1.58352 1.49951 5.41711 1.49951 10.0003C1.49969 14.5834 5.3331 18.4162 9.99951 18.4164C14.6661 18.4164 18.4993 14.5835 18.4995 10.0003C18.4995 5.417 14.6662 1.58334 9.99951 1.58334ZM14.3335 6.75034C14.5835 6.50034 15.0002 6.49968 15.3335 6.66635C15.6667 6.91631 15.6663 7.41631 15.4165 7.66635L10.6665 12.9164C10.3332 13.2497 9.99951 13.4164 9.49951 13.4164C8.99987 13.4163 8.58348 13.2501 8.3335 13.0003L5.896 10.5628C5.646 10.3128 5.646 9.81284 5.896 9.56284C6.146 9.31284 6.646 9.31284 6.896 9.56284L9.3335 12.0003C9.41672 12.0833 9.50027 12.0836 9.5835 12.0003L14.3335 6.75034Z" fill="#200040"/>
</g>
<defs>
<clipPath id="clip0_31_31">
<rect width="20" height="20" fill="white"/>
</clipPath>
</defs>
</svg>
