<svg width="20" height="20" viewBox="0 0 20 20" fill="none" xmlns="http://www.w3.org/2000/svg">
<path d="M18.4165 3.99963C18.6664 3.74974 19.1664 3.74996 19.4165 3.99963C19.6665 4.24962 19.6665 4.66631 19.4165 4.99963L9.6665 15.4166C9.58311 15.5832 9.33313 15.6666 9.1665 15.6666C8.99995 15.6666 8.83306 15.6662 8.6665 15.4996C8.41683 15.2495 8.41661 14.7495 8.6665 14.4996L18.4165 3.99963ZM18.3335 13.4996C18.7502 13.4996 19.0005 13.8333 19.0005 14.1666C19.0005 14.5 18.7502 14.8336 18.3335 14.8336H13.5835C13.2502 14.8336 12.9165 14.5 12.9165 14.1666C12.9165 13.8333 13.1668 13.4996 13.5835 13.4996H18.3335ZM17.0005 0.416626C17.2505 0.166787 17.7505 0.16668 18.0005 0.416626C18.2503 0.666605 18.2503 1.08339 18.0005 1.41663L8.3335 11.8336C7.91682 12.3335 7.25008 12.6666 6.5835 12.6666H6.50049C5.83382 12.6666 5.16715 12.4163 4.75049 11.9996L0.333496 7.58362C0.0835503 7.33367 0.0836587 6.83367 0.333496 6.58362C0.583496 6.33362 1.0835 6.33362 1.3335 6.58362L5.75049 10.9996C5.91715 11.1663 6.25049 11.2496 6.50049 11.2496C6.83366 11.2495 7.08388 11.0832 7.25049 10.9166L17.0005 0.416626Z" fill="#200040"/>
</svg>
