<svg width="20" height="20" viewBox="0 0 20 20" fill="none" xmlns="http://www.w3.org/2000/svg">
<path d="M17.8335 3.91653C18.0836 3.66671 18.5836 3.5833 18.8335 3.91653C19.0834 4.1665 19.1665 4.6665 18.8335 4.91653L9.0835 15.4165C8.66689 15.9165 8.08334 16.1665 7.3335 16.1665C6.66683 16.1665 6.0835 15.9162 5.5835 15.4995L1.1665 11.0835C0.916537 10.8336 0.916603 10.3336 1.1665 10.0835C1.4165 9.83353 1.9165 9.83353 2.1665 10.0835L6.5835 14.4995C6.75016 14.6662 7.00016 14.8329 7.3335 14.7495C7.58346 14.7494 7.9169 14.5831 8.0835 14.4165L17.8335 3.91653Z" fill="#200040"/>
</svg>
