<svg width="20" height="20" viewBox="0 0 20 20" fill="none" xmlns="http://www.w3.org/2000/svg">
<g clip-path="url(#clip0_31_30)">
<path d="M13.2505 0.0833435C13.5837 0.0835596 13.9165 0.416812 13.9165 0.833344C13.9165 1.2499 13.667 1.58317 13.2505 1.58334H4.1665C2.75009 1.58352 1.58368 2.74994 1.5835 4.16635V15.7503C1.58367 17.1667 2.75009 18.3332 4.1665 18.3333H15.8335C17.3334 18.3333 18.5003 17.1669 18.5005 15.7503V7.00034C18.5005 6.58378 18.75 6.25051 19.1665 6.25034C19.5832 6.25034 19.8335 6.58367 19.8335 7.00034V15.7503C19.8333 18.0002 18.0834 19.8333 15.8335 19.8333H4.1665C1.91676 19.8332 0.0836722 18.0001 0.0834961 15.7503V4.16635C0.0836732 1.91661 1.91676 0.0835207 4.1665 0.0833435H13.2505ZM17.2505 2.08334C17.5005 1.75017 18.0005 1.75037 18.2505 2.00034C18.5835 2.25043 18.5834 2.75043 18.3335 3.00034L10.5835 11.4164C10.2502 11.7497 9.83317 11.9164 9.4165 11.9164C9.00006 11.9163 8.66669 11.8334 8.3335 11.5003L5.0835 8.25034C4.83355 8.00039 4.83366 7.50039 5.0835 7.25034C5.3335 7.00034 5.8335 7.00034 6.0835 7.25034L9.3335 10.5003C9.41678 10.5835 9.50049 10.5833 9.50049 10.5833L17.2505 2.08334Z" fill="#200040"/>
</g>
<defs>
<clipPath id="clip0_31_30">
<rect width="20" height="20" fill="white"/>
</clipPath>
</defs>
</svg>
