<svg width="20" height="20" viewBox="0 0 20 20" fill="none" xmlns="http://www.w3.org/2000/svg">
<path d="M2.5 2C2.83333 1.75 3.25 1.75 3.5 2L9.91699 8.41699C10.8332 9.33354 10.8332 10.6665 9.91699 11.583L3.5 18C3.33333 18.0833 3.16667 18.167 3 18.167C2.83333 18.167 2.66667 18.1667 2.5 18C2.25 17.75 2.25 17.25 2.5 17L8.91699 10.5C9.25001 10.25 9.24993 9.75025 8.91699 9.41699L2.5 3C2.25 2.75 2.25 2.33333 2.5 2ZM9.58301 2C9.83295 1.75005 10.333 1.75016 10.583 2L17 8.41699C17.9165 9.33365 17.9166 10.6667 17 11.5L10.583 17.917C10.4165 18.0003 10.2495 18.083 10.083 18.083C9.91645 18.083 9.74957 18.0835 9.58301 17.917C9.33312 17.6671 9.33333 17.1671 9.58301 16.917L16 10.5C16.3333 10.25 16.3332 9.75033 16 9.41699L9.58301 3C9.33322 2.75 9.33322 2.25 9.58301 2Z" fill="#200040"/>
</svg>
