<svg width="20" height="20" viewBox="0 0 20 20" fill="none" xmlns="http://www.w3.org/2000/svg">
<path d="M16.917 9.58301C17.2502 9.33332 17.6668 9.33322 18 9.58301C18.2499 9.83295 18.2498 10.333 18 10.583L11.583 17C11.1664 17.4166 10.5833 17.667 10 17.667C9.41674 17.667 8.83365 17.4166 8.41699 17L2 10.583C1.75016 10.333 1.75005 9.83295 2 9.58301C2.25 9.33322 2.75 9.33322 3 9.58301L9.41699 16C9.66703 16.3332 10.1667 16.3333 10.5 16L16.917 9.58301ZM17 2.5C17.25 2.25 17.75 2.25 18 2.5C18.25 2.75 18.25 3.25 18 3.5L11.583 9.91699C11.1664 10.3335 10.5832 10.583 10 10.583C9.41682 10.583 8.83364 10.3335 8.41699 9.91699L2 3.5C1.75 3.25 1.75 2.75 2 2.5C2.33326 2.25005 2.74971 2.25016 3.08301 2.5L9.5 8.91699C9.74997 9.25001 10.2497 9.24993 10.583 8.91699L17 2.5Z" fill="#200040"/>
</svg>
