<svg width="20" height="20" viewBox="0 0 20 20" fill="none" xmlns="http://www.w3.org/2000/svg">
<path d="M8.50037 10.083C9.33369 9.25005 10.7501 9.24995 11.5834 10.083L18.0004 16.5C18.2502 16.75 18.2502 17.25 18.0004 17.5C17.8338 17.5833 17.6669 17.6669 17.5004 17.667C17.3338 17.667 17.167 17.6665 17.0004 17.5L10.5834 11.083C10.3334 10.75 9.83363 10.7501 9.50037 11.083L3.08337 17.5C2.83337 17.75 2.33337 17.75 2.08337 17.5C1.83337 17.25 1.83337 16.75 2.08337 16.5L8.50037 10.083ZM8.50037 3C9.33372 2.16683 10.7501 2.16672 11.5834 3L18.0004 9.41699C18.25 9.6671 18.2503 10.1671 18.0004 10.417C17.8338 10.5003 17.6669 10.5829 17.5004 10.583C17.3338 10.583 17.1669 10.5833 17.0004 10.417L10.5834 4C10.3334 3.66672 9.8337 3.66683 9.50037 4L3.08337 10.417C2.75014 10.6668 2.33335 10.6668 2.08337 10.417C1.83343 10.167 1.83354 9.66705 2.08337 9.41699L8.50037 3Z" fill="#200040"/>
</svg>
