<svg width="20" height="20" viewBox="0 0 20 20" fill="none" xmlns="http://www.w3.org/2000/svg">
<path d="M9.41638 2C9.66633 1.75005 10.1663 1.75016 10.4164 2C10.6664 2.25 10.6664 2.75 10.4164 3L4.00037 9.41699C3.8337 9.58366 3.75037 9.75 3.75037 10C3.75037 10.25 3.8337 10.4163 4.00037 10.583L10.4164 17C10.6664 17.25 10.6664 17.75 10.4164 18C10.2498 18.0833 10.083 18.167 9.91638 18.167C9.74982 18.167 9.58294 18.1666 9.41638 18L3.00037 11.583C2.5837 11.1663 2.33337 10.5833 2.33337 10C2.33337 9.41667 2.5837 8.83366 3.00037 8.41699L9.41638 2ZM16.5004 2C16.7504 1.75016 17.2504 1.75005 17.5004 2C17.7502 2.25 17.7502 2.75 17.5004 3L11.0834 9.5C10.7501 9.74996 10.7502 10.2497 11.0834 10.583L17.5004 16.917C17.75 17.1671 17.7503 17.6671 17.5004 17.917C17.3338 18.0003 17.1669 18.0829 17.0004 18.083C16.8338 18.083 16.6669 18.0833 16.5004 17.917L10.0834 11.5C9.2501 10.6667 9.2502 9.25035 10.0834 8.41699L16.5004 2Z" fill="#200040"/>
</svg>
