<svg width="20" height="20" viewBox="0 0 20 20" fill="none" xmlns="http://www.w3.org/2000/svg">
<path d="M11.583 15.0837C11.9163 15.0837 12.333 15.417 12.333 15.8337C12.3328 16.2502 11.9996 16.5837 11.583 16.5837H8.5C8.08344 16.5837 7.75017 16.2502 7.75 15.8337C7.75 15.417 8.08333 15.0837 8.5 15.0837H11.583ZM17.5 12.6667C17.75 12.4167 18.25 12.4167 18.5 12.6667C18.75 12.9167 18.75 13.4167 18.5 13.6667L17.667 14.4997L18.5 15.3337C18.7498 15.5837 18.7499 16.0837 18.5 16.3337C18.3334 16.417 18.1666 16.4997 18 16.4997C17.8334 16.4997 17.6666 16.5002 17.5 16.3337L16.667 15.4997L15.833 16.3337C15.6665 16.4169 15.4995 16.4997 15.333 16.4997C15.1665 16.4997 14.9996 16.5002 14.833 16.3337C14.5831 16.0838 14.5833 15.5838 14.833 15.3337L15.667 14.4997L14.833 13.6667C14.5832 13.4167 14.5832 12.9167 14.833 12.6667C15.083 12.4167 15.583 12.4169 15.833 12.6667L16.667 13.4997L17.5 12.6667ZM14.667 9.24969C15.0834 9.24987 15.4168 9.58329 15.417 9.99969C15.417 10.4163 15.1666 10.6663 14.75 10.7497H5.25C4.83333 10.7497 4.5 10.4164 4.5 9.99969C4.50017 9.58318 4.83344 9.2497 5.25 9.24969H14.667ZM18 3.41669C18.4167 3.41669 18.75 3.75002 18.75 4.16669C18.75 4.58323 18.5002 4.83328 18.167 4.91669H2C1.58333 4.91669 1.25 4.58335 1.25 4.16669C1.25 3.75002 1.50033 3.41669 1.91699 3.41669H18Z" fill="#200040"/>
</svg>
