<svg width="20" height="20" viewBox="0 0 20 20" fill="none" xmlns="http://www.w3.org/2000/svg">
<g clip-path="url(#clip0_11_711)">
<path d="M2.24999 6.83344C2.49997 6.58345 2.91666 6.58348 3.24999 6.83344L8.91698 12.5834C9.00029 12.75 9.08397 12.9168 9.08397 13.0834V16.3334L11 17.7504V15.6664C11.0001 15.3332 11.2504 15.0004 11.667 15.0004C12.0835 15.0005 12.4169 15.25 12.417 15.6664V19.0834C12.4169 19.4167 12.25 19.6671 12 19.7504C11.9166 19.8334 11.7503 19.8334 11.667 19.8334C11.5003 19.8334 11.3333 19.7498 11.25 19.6664L7.91698 17.2504C7.75031 17.0838 7.66698 16.9164 7.66698 16.6664V13.3334L2.24999 7.83344C2.00007 7.58348 2.00014 7.08347 2.24999 6.83344ZM0.333973 0.333435C0.584033 0.083614 1.08403 0.0834947 1.33397 0.333435L3.49999 2.50043C3.8333 2.25044 4.75006 1.83348 5.74999 1.83344H14.334C15.9171 1.83362 17.2504 2.74998 17.917 4.16644C18.5003 5.58311 18.25 7.16677 17.25 8.33344L13.5 12.5004L19.667 18.6664C20.0002 18.9164 20.0001 19.4164 19.667 19.6664C19.5004 19.7498 19.3336 19.8334 19.167 19.8334C19.0003 19.8334 18.8336 19.8331 18.667 19.6664L0.333973 1.33344C0.0839729 1.08344 0.0839729 0.583435 0.333973 0.333435ZM5.74999 3.25043C5.44188 3.25046 5.13376 3.34112 4.85936 3.4223C4.76286 3.45085 4.67067 3.47874 4.58397 3.50043L12.5 11.5834L16.167 7.41644C16.9999 6.50007 16.9171 5.41709 16.584 4.75043C16.2507 4.00053 15.5004 3.25063 14.334 3.25043H5.74999Z" fill="#200040"/>
</g>
<defs>
<clipPath id="clip0_11_711">
<rect width="20" height="20" fill="white"/>
</clipPath>
</defs>
</svg>
