<svg width="20" height="20" viewBox="0 0 20 20" fill="none" xmlns="http://www.w3.org/2000/svg">
<path d="M8.25 0.166727H11.75C12.9167 0.166727 13.833 0.916731 14.083 1.91673C15.9163 2.25006 17.2503 3.91705 17.167 5.83372V15.8337C17.1668 18.0001 15.4167 19.8335 13.167 19.8337H6.75C4.58346 19.8337 2.75022 18.0835 2.75 15.8337V5.83372C2.75 3.91705 4.08366 2.25006 5.91699 1.91673C6.25033 0.833407 7.16667 0.0833943 8.25 0.166727ZM14 3.33372C13.6666 4.2502 12.7499 4.91673 11.75 4.91673H8.25C7.25013 4.91673 6.33344 4.2502 6 3.33372C4.91673 3.66709 4.16699 4.66709 4.16699 5.83372V15.8337C4.16721 17.2502 5.33347 18.4167 6.75 18.4167H13.25C14.6665 18.4167 15.8328 17.2502 15.833 15.8337V5.83372C15.833 4.66709 15.0833 3.66709 14 3.33372ZM8.25 1.49973C7.75007 1.49973 7.25014 1.91653 7.25 2.49973C7.25 3.08307 7.75 3.49973 8.25 3.49973H11.75C12.3333 3.49973 12.75 3.08307 12.75 2.49973C12.7499 1.91653 12.3332 1.49973 11.75 1.49973H8.25Z" fill="#200040"/>
</svg>
