<svg width="20" height="20" viewBox="0 0 20 20" fill="none" xmlns="http://www.w3.org/2000/svg">
<g clip-path="url(#clip0_11_527)">
<path d="M10 0.083374C15.4165 0.0835547 19.916 4.58381 19.916 10.0004C19.9158 15.4168 15.4164 19.9162 10 19.9164C4.58344 19.9164 0.0831884 15.4169 0.0830078 10.0004C0.0830078 4.5837 4.58333 0.083374 10 0.083374ZM10 1.50037C5.33333 1.50037 1.5 5.3337 1.5 10.0004C1.50018 14.6669 5.33344 18.5004 10 18.5004C14.6664 18.5002 18.4998 14.6668 18.5 10.0004C18.5 5.33381 14.6665 1.50054 10 1.50037ZM10.083 4.33337C10.4163 4.33337 10.75 4.5837 10.75 5.00037V9.33337H13.333C13.7497 9.33337 13.9997 9.58337 14.083 10.0834C14.083 10.4167 13.8327 10.7504 13.416 10.7504H10.25C9.83333 10.7504 9.41602 10.4164 9.41602 9.91638V5.08337C9.41602 4.66671 9.66634 4.33337 10.083 4.33337Z" fill="#200040"/>
</g>
<defs>
<clipPath id="clip0_11_527">
<rect width="20" height="20" fill="white"/>
</clipPath>
</defs>
</svg>
