<svg width="20" height="20" viewBox="0 0 20 20" fill="none" xmlns="http://www.w3.org/2000/svg">
<g clip-path="url(#clip0_18_902)">
<path d="M0.333252 0.333008C0.583171 0.08314 1.08317 0.0833028 1.33325 0.333008L3.83325 2.75C4.33324 2.33335 4.83361 2.00031 5.50024 1.66699C7.00014 1.00037 8.75 0.833128 10.3333 1.33301C13.4999 2.33301 14.4172 5.08366 14.6672 6.16699C17.0838 6.75047 19.7502 8.75056 19.7502 12.417C19.7502 14.2502 19.1668 15.8334 18.0002 17L19.6672 18.667C20.0001 18.9171 20.0003 19.4171 19.6672 19.667C19.5007 19.7503 19.3338 19.8329 19.1672 19.833C19.0007 19.833 18.8338 19.8333 18.6672 19.667L16.4172 17.417C16.3339 17.417 16.3333 17.333 16.3333 17.333L0.333252 1.33301C0.0835343 1.08291 0.0833461 0.582914 0.333252 0.333008ZM1.83325 6.58301C1.91669 6.24976 2.25067 5.91669 2.66724 6C3.00036 6.08347 3.33331 6.41665 3.25024 6.83301C3.0836 7.99951 3.33339 9.24967 3.83325 10.083C4.08325 10.4163 4.08358 10.8337 4.00024 11.167C3.83359 11.5002 3.58347 11.8334 3.25024 12C2.50024 12.3333 1.58325 13.0833 1.58325 14.75C1.58325 15.5 1.8339 16.1667 2.41724 16.75C3.00053 17.3332 3.91677 17.6669 4.83325 17.667H13.2502C13.6669 17.6671 14.0002 18.1667 14.0002 18.5C14.0002 18.8333 13.7499 19.167 13.3333 19.167H4.91724C3.5839 19.167 2.41691 18.6663 1.50024 17.833C0.666991 16.9997 0.250246 15.9166 0.250244 14.75C0.250244 12.1667 1.75057 11.0837 2.66724 10.667C1.91724 9.58366 1.66659 7.99967 1.83325 6.58301ZM9.91724 2.66699C8.66724 2.25033 7.24992 2.33366 6.08325 2.91699C5.58342 3.16696 5.16651 3.49976 4.83325 3.83301L17.0002 16.083C17.8335 15.0831 18.3333 13.9166 18.3333 12.5C18.3333 8.6668 14.7504 7.66672 14.0002 7.5C13.6669 7.41667 13.4166 7.08333 13.3333 6.75C13.2499 6.16664 12.7501 3.50047 9.91724 2.66699Z" fill="#200040"/>
</g>
<defs>
<clipPath id="clip0_18_902">
<rect width="20" height="20" fill="white"/>
</clipPath>
</defs>
</svg>
