<svg width="20" height="20" viewBox="0 0 20 20" fill="none" xmlns="http://www.w3.org/2000/svg">
<g clip-path="url(#clip0_18_900)">
<path d="M6.91644 12.9996C7.08318 12.6664 7.50017 12.5 7.83344 12.6666C8.16675 12.8333 8.3331 13.2503 8.16644 13.5836L5.66644 19.4166C5.49986 19.6664 5.25027 19.8334 5.00043 19.8336C4.97967 19.8336 4.95869 19.8277 4.93793 19.8199L4.81293 19.7633C4.79208 19.7554 4.77127 19.7497 4.75043 19.7496C4.4172 19.583 4.25003 19.1669 4.41644 18.8336L6.91644 12.9996ZM10.1664 12.9996C10.3332 12.6664 10.7502 12.5 11.0834 12.6666C11.5001 12.8333 11.6664 13.2503 11.4164 13.5836L8.91644 19.4166C8.74986 19.6664 8.50027 19.8334 8.25043 19.8336C8.22967 19.8336 8.20869 19.8277 8.18793 19.8199L8.06293 19.7633C8.04208 19.7554 8.02127 19.7497 8.00043 19.7496C7.6672 19.583 7.50003 19.1669 7.66644 18.8336L10.1664 12.9996ZM13.5004 12.9996C13.6672 12.6667 14.0833 12.5002 14.4164 12.6666C14.8331 12.8333 15.0004 13.2503 14.7504 13.5836L12.2504 19.4166C12.0838 19.6666 11.8334 19.8336 11.5834 19.8336C11.5626 19.8336 11.5418 19.8277 11.5209 19.8199L11.3959 19.7633C11.3751 19.7554 11.3543 19.7496 11.3334 19.7496C11.0002 19.5829 10.8338 19.1669 11.0004 18.8336L13.5004 12.9996ZM5.50043 0.666595C7.08365 6.79344e-05 8.75022 -0.0830474 10.3334 0.333588C13.4163 1.25016 14.4163 3.66608 14.6664 4.7496C16.0831 5.08294 19.7501 6.41692 19.8334 10.5836C19.8334 11.7501 19.583 12.833 18.9164 13.7496C18.6664 14.0829 18.2498 14.1666 17.9164 13.9166C17.5833 13.6666 17.5005 13.2499 17.7504 12.9166C18.167 12.25 18.4164 11.4162 18.4164 10.4996C18.4162 7.08345 14.8337 6.25031 14.0834 6.08359C13.7501 6.00025 13.4998 5.74993 13.4164 5.4166C13.3331 4.91638 12.8333 2.49963 10.0004 1.7496C8.75049 1.41629 7.33339 1.49967 6.08344 1.9996C4.2501 2.83294 3.58344 4.08359 3.33344 5.08359C3.08353 6.33343 3.3333 7.66661 4.16644 8.4166C4.33305 8.5832 4.41661 8.9164 4.33344 9.2496C4.16677 9.58294 3.99978 9.83326 3.66644 9.9166C2.91648 10.1666 1.66663 10.7501 1.66644 12.4996C1.66644 13.1663 1.91709 13.7496 2.50043 14.2496C2.8336 14.4995 2.8332 14.9163 2.58344 15.2496C2.50011 15.4162 2.2501 15.4996 2.08344 15.4996C1.91682 15.4996 1.75005 15.4169 1.58344 15.3336C0.666768 14.5836 0.250427 13.5829 0.250427 12.4996C0.250558 10.8331 1.08358 9.50021 2.58344 8.83359C1.83344 7.75025 1.66709 6.16627 2.00043 4.7496C2.4172 2.91649 3.66725 1.49986 5.50043 0.666595Z" fill="#200040"/>
</g>
<defs>
<clipPath id="clip0_18_900">
<rect width="20" height="20" fill="white"/>
</clipPath>
</defs>
</svg>
