<svg width="20" height="20" viewBox="0 0 20 20" fill="none" xmlns="http://www.w3.org/2000/svg">
<g clip-path="url(#clip0_18_898)">
<path d="M4.99994 17.667C5.33315 17.667 5.66669 17.9998 5.66693 18.333V19.167C5.75005 19.5835 5.41651 19.833 4.99994 19.833C4.58352 19.8329 4.33406 19.5001 4.33392 19.167V18.333C4.33412 17.9166 4.66678 17.6671 4.99994 17.667ZM9.99994 17.667C10.3331 17.667 10.6667 17.9998 10.6669 18.333V19.167C10.6668 19.5835 10.4165 19.833 9.99994 19.833C9.58352 19.8329 9.33406 19.5001 9.33392 19.167V18.333C9.33412 17.9166 9.66678 17.6671 9.99994 17.667ZM14.9999 17.667C15.3331 17.667 15.6667 17.9998 15.6669 18.333V19.167C15.6668 19.5835 15.4165 19.833 14.9999 19.833C14.5835 19.8329 14.3341 19.5001 14.3339 19.167V18.333C14.3341 17.9166 14.6668 17.6671 14.9999 17.667ZM5.58295 0.749969C7.08295 0.0833027 8.8336 0.000294954 10.4169 0.416962C13.5832 1.25041 14.4999 3.75001 14.7499 4.74997C17.1666 5.33332 19.8329 7.1667 19.8329 10.5C19.8329 12.8333 18.5833 14.7503 16.2499 15.917C15.9166 16.0836 15.4996 15.9163 15.3329 15.583C15.1666 15.2497 15.3337 14.8336 15.6669 14.667C16.9169 14.0836 18.4999 12.8332 18.4999 10.5C18.4999 7.08392 14.9178 6.16658 14.1669 6.08298C13.8337 5.99967 13.5001 5.75015 13.4999 5.41696C13.4898 5.38644 13.4775 5.34864 13.4638 5.30466C13.2531 4.62799 12.5769 2.45428 9.91693 1.74997C8.66697 1.41665 7.24991 1.50001 5.99994 1.99997C4.25011 2.7499 3.583 4.08301 3.33295 5.08298C2.99961 6.33298 3.33327 7.66664 3.99994 8.49997C4.1665 8.74981 4.25001 9.08303 4.16693 9.33298C4.08361 9.66628 3.83322 9.91661 3.49994 9.99997C2.74999 10.25 1.50011 10.8333 1.49994 12.583C1.49994 13.2495 1.74984 13.833 2.33295 14.333C2.83295 14.7496 3.50026 15.0003 4.16693 15.167C4.58332 15.2505 4.83324 15.5838 4.74994 15.917C4.83303 16.25 4.58322 16.4998 4.16693 16.5H4.08295C3.08313 16.3333 2.16654 16.0001 1.49994 15.417C0.666606 14.667 0.166931 13.6663 0.166931 12.583C0.167054 10.9165 1.00006 9.58358 2.49994 8.91696C1.83327 7.7503 1.66661 6.16664 1.99994 4.74997C2.41661 2.91672 3.6664 1.49998 5.58295 0.749969ZM7.49994 12.667C7.83315 12.667 8.16669 12.9998 8.16693 13.333V14.167C8.16682 14.5835 7.91651 14.833 7.49994 14.833C7.08352 14.8329 6.83406 14.5001 6.83392 14.167V13.333C6.83412 12.9166 7.16678 12.6671 7.49994 12.667ZM12.4999 12.667C12.8331 12.667 13.1667 12.9998 13.1669 13.333V14.167C13.2501 14.5835 12.9165 14.833 12.4999 14.833C12.0835 14.8329 11.8341 14.5001 11.8339 14.167V13.333C11.8341 12.9166 12.1668 12.6671 12.4999 12.667Z" fill="#200040"/>
</g>
<defs>
<clipPath id="clip0_18_898">
<rect width="20" height="20" fill="white"/>
</clipPath>
</defs>
</svg>
