<svg width="20" height="20" viewBox="0 0 20 20" fill="none" xmlns="http://www.w3.org/2000/svg">
<g clip-path="url(#clip0_18_904)">
<path d="M5.00043 14.3329C5.33363 14.3331 5.66637 14.6667 5.66644 14.9999V19.1669C5.66634 19.5001 5.41684 19.8328 5.00043 19.8329C4.58385 19.8329 4.33354 19.5001 4.33344 19.1669V14.9999C4.3335 14.5833 4.66712 14.3329 5.00043 14.3329ZM11.6664 14.3329C11.9997 14.3329 12.3334 14.6666 12.3334 14.9999V19.1669C12.4166 19.5001 12.083 19.8329 11.6664 19.8329C11.25 19.8328 11.0005 19.5001 11.0004 19.1669V14.9999C11.0005 14.5834 11.3332 14.333 11.6664 14.3329ZM8.33344 12.6669C8.66653 12.6671 8.99916 12.9998 8.99945 13.3329V17.4999C8.99945 17.8332 8.74994 18.1667 8.33344 18.1669C7.91677 18.1669 7.66644 17.8332 7.66644 17.4999V13.3329C7.66668 12.9165 8.00022 12.6669 8.33344 12.6669ZM15.0004 12.6669C15.3335 12.6671 15.6661 12.9998 15.6664 13.3329V17.4999C15.6664 17.8331 15.3337 18.1667 15.0004 18.1669C14.5838 18.1669 14.3334 17.8332 14.3334 17.4999V13.3329C14.3337 12.9165 14.6672 12.6669 15.0004 12.6669ZM5.58344 0.749893C7.08334 0.0832686 8.83319 0.000307873 10.4164 0.416885C13.5828 1.25013 14.5003 3.74938 14.7504 4.8329C16.0838 5.16629 19.8332 6.50007 19.8334 10.5829C19.8334 11.7496 19.4998 12.8332 18.9164 13.7499C18.6664 14.0831 18.2497 14.1669 17.9164 13.9169C17.5832 13.6669 17.5005 13.2502 17.7504 12.9169C18.2504 12.2502 18.4164 11.4166 18.4164 10.4999C18.4164 7.08332 14.8334 6.16623 14.0834 6.0829C13.7502 5.99955 13.4166 5.75006 13.4164 5.41689C13.3331 4.91689 12.7498 2.49989 9.91644 1.74989C8.66663 1.4167 7.25023 1.50004 6.00043 1.99989C4.25066 2.74979 3.58351 4.08295 3.33344 5.0829C3.0001 6.3329 3.33376 7.66656 4.00043 8.49989C4.16701 8.74979 4.24961 9.08295 4.16644 9.3329C4.08313 9.66614 3.83362 9.91649 3.50043 9.99989C2.75049 10.2499 1.50064 10.8332 1.50043 12.5829C1.50043 13.2495 1.75028 13.8329 2.33344 14.3329C2.66663 14.5828 2.75005 14.9996 2.50043 15.3329C2.33376 15.4996 2.16644 15.5829 1.91644 15.5829C1.7499 15.5828 1.58298 15.5002 1.41644 15.4169C0.583171 14.6669 0.0834351 13.6662 0.0834351 12.5829C0.0835818 10.9166 0.916822 9.58355 2.41644 8.91689C1.83311 7.75022 1.66709 6.16656 2.00043 4.74989C2.41713 2.91664 3.66683 1.49987 5.58344 0.749893Z" fill="#200040"/>
</g>
<defs>
<clipPath id="clip0_18_904">
<rect width="20" height="20" fill="white"/>
</clipPath>
</defs>
</svg>
