<svg width="20" height="20" viewBox="0 0 20 20" fill="none" xmlns="http://www.w3.org/2000/svg">
<g clip-path="url(#clip0_18_903)">
<path d="M10.0835 8.49956C10.5834 8.4996 11.0835 8.74993 11.3335 9.16655C11.5834 9.49977 11.6669 9.99973 11.5005 10.4996L11.0005 11.8335H12.5835C13.0833 11.8336 13.5834 12.0831 13.8335 12.4996C14.0834 12.9994 14.0834 13.5829 13.7505 13.9996L10.2505 19.1665C10.0005 19.5832 9.58341 19.8335 9.08347 19.8335C8.88571 19.8335 8.7399 19.7813 8.56393 19.7183C8.5175 19.7017 8.46865 19.6839 8.41647 19.6665C7.74994 19.3332 7.4165 18.5832 7.66647 17.9165L8.16647 16.4996H6.58347C6.1668 16.4996 5.66647 16.3332 5.41647 15.9165C5.16656 15.4999 5.08383 15.0001 5.25046 14.5835L6.91647 9.58354C7.16647 8.91687 7.83379 8.49956 8.50046 8.49956H10.0835ZM8.50046 9.83354C8.33408 9.83354 8.25075 9.91637 8.25046 9.99956L6.58347 14.9996L6.66647 15.0835H9.08347C9.33342 15.0836 9.58382 15.1666 9.75046 15.4165C9.917 15.6665 9.91674 15.9166 9.83347 16.1665L9.08347 18.4165L12.6665 13.1665L10.3335 13.0835C10.0001 13.0835 9.75013 12.9996 9.58347 12.7496C9.41696 12.4996 9.41715 12.1665 9.50046 11.9165L10.1665 9.91655V9.83354H8.50046ZM5.50046 0.66655C7.08366 4.78476e-05 8.75027 -0.0830873 10.3335 0.333542C13.4162 1.25012 14.4163 3.66603 14.6665 4.74956C16.0831 5.08288 19.7499 6.41656 19.8335 10.4996C19.8335 12.8328 18.5835 14.7499 16.2505 15.9165C16.0838 15.9999 15.9998 15.9996 15.9165 15.9996C15.5834 15.9995 15.3339 15.8333 15.2505 15.5835C15.0838 15.2502 15.2501 14.8332 15.5835 14.6665C16.9168 13.9999 18.4165 12.7495 18.4165 10.4996C18.4162 7.08351 14.8338 6.25029 14.0835 6.08354C13.7501 6.00021 13.4998 5.74988 13.4165 5.41655C13.3331 4.91627 12.8333 2.49959 10.0005 1.74956C8.75055 1.41625 7.3334 1.49965 6.08347 1.99956C4.25013 2.83289 3.58347 4.08354 3.33347 5.08354C3.08354 6.33341 3.33331 7.66656 4.16647 8.41655C4.33307 8.58314 4.41662 8.91637 4.33347 9.24956C4.1668 9.58289 3.99981 9.83322 3.66647 9.91655C2.91652 10.1666 1.66668 10.75 1.66647 12.4996C1.66647 13.1662 1.91712 13.7496 2.50046 14.2496C2.58378 14.4162 2.74983 14.5002 2.91647 14.5835C3.24981 14.8335 3.33314 15.2502 3.16647 15.5835C2.91645 15.9167 2.49973 16.0002 2.16647 15.8335C2.10666 15.7937 2.04724 15.7579 1.98972 15.7242C1.80697 15.6169 1.64689 15.5235 1.58347 15.3335C0.666799 14.5835 0.250458 13.5829 0.250458 12.4996C0.250601 10.8331 1.08359 9.50015 2.58347 8.83354C1.83347 7.75021 1.66712 6.16622 2.00046 4.74956C2.41724 2.91647 3.66729 1.49981 5.50046 0.66655Z" fill="#200040"/>
</g>
<defs>
<clipPath id="clip0_18_903">
<rect width="20" height="20" fill="white"/>
</clipPath>
</defs>
</svg>
