<svg width="20" height="20" viewBox="0 0 20 20" fill="none" xmlns="http://www.w3.org/2000/svg">
<g clip-path="url(#clip0_18_896)">
<path d="M6 1.41652C7.24988 0.99992 8.58313 0.83327 9.83301 1.16652C13.4163 1.99985 14.3337 4.91684 14.667 6.08351C17.0835 6.7503 19.75 8.6671 19.75 12.3335C19.7499 14.9165 18.4999 16.9995 16.167 18.2495C15.3337 18.8328 14.3333 19.0835 13.25 19.0835H4.83301C3.49976 19.0835 2.33362 18.5828 1.41699 17.7495C0.583659 16.9162 0.166016 15.9165 0.166016 14.6665C0.166074 12.1668 1.66634 11.0836 2.58301 10.5835C1.74968 9.16685 1.58367 7.08351 2.16699 5.33351C2.75033 3.58351 4.16667 2.16652 6 1.41652ZM9.58301 2.41652C9.16656 2.49978 8.83339 2.41658 8.41699 2.41652C7.75034 2.41652 7.16633 2.49954 6.58301 2.74953C4.58301 3.49953 3.83333 4.83351 3.5 5.83351C2.91672 7.50014 3.33367 9.16687 3.91699 10.0835C4.08355 10.4167 4.16631 10.7503 4.08301 11.0835C3.99965 11.4166 3.7501 11.6669 3.41699 11.8335C2.58368 12.1668 1.66704 12.9166 1.66699 14.6665C1.66699 15.4999 1.91667 16.1665 2.5 16.6665C3.08333 17.2498 4.00033 17.5835 4.91699 17.5835H13.333C14.1663 17.5835 14.9163 17.4162 15.583 16.9995C16.9163 16.3329 18.4169 14.9167 18.417 12.3335C18.417 8.50018 14.833 7.50018 14.083 7.33351C13.7498 7.25017 13.5004 6.99997 13.417 6.58351C13.3337 6.00018 12.7497 3.16652 9.58301 2.41652Z" fill="#200040"/>
</g>
<defs>
<clipPath id="clip0_18_896">
<rect width="20" height="20" fill="white"/>
</clipPath>
</defs>
</svg>
