<svg width="20" height="20" viewBox="0 0 20 20" fill="none" xmlns="http://www.w3.org/2000/svg">
<g clip-path="url(#clip0_11_614)">
<path d="M8.08333 0.666992C9.24995 0.000351012 10.7497 8.62181e-05 11.9163 0.75L17.0833 3.66699C18.3331 4.33365 19.0832 5.66657 19.0833 7.08301V12.917C19.0832 14.3334 18.3331 15.6663 17.0833 16.333L12.0003 19.25C11.4171 19.5833 10.6669 19.7499 10.0003 19.75C9.33379 19.75 8.5836 19.5832 8.00032 19.25L2.91634 16.333C1.66659 15.6663 0.916439 14.3334 0.916336 12.917V7.08301C0.916477 5.66658 1.7499 4.33365 2.91634 3.66699L8.08333 0.666992ZM2.50032 6.5C2.41703 6.66659 2.41634 6.83321 2.41634 7.08301V12.917C2.41642 13.8335 2.83309 14.667 3.66634 15.167L8.75032 18.083C8.91697 18.2496 9.08367 18.2497 9.25032 18.333L9.33333 10.417H9.25032L2.50032 6.5ZM10.9163 10.417H10.8333L10.7503 18.333C10.917 18.2498 11.1668 18.1663 11.3333 18.083L16.4163 15.167C17.1663 14.667 17.6662 13.8335 17.6663 12.917L17.8333 7.08301C17.8333 6.9164 17.8335 6.66655 17.7503 6.5L10.9163 10.417ZM10.0003 1.58301C9.58376 1.58301 9.16688 1.75037 8.75032 1.91699L3.66634 4.83301C3.49967 4.99967 3.333 5.08333 3.16634 5.25L9.91634 9.16699H10.0833L16.8333 5.25C16.6667 5.08333 16.5 4.91634 16.3333 4.83301L11.1663 1.91699C10.8331 1.66709 10.4168 1.58307 10.0003 1.58301Z" fill="#200040"/>
</g>
<defs>
<clipPath id="clip0_11_614">
<rect width="20" height="20" fill="white"/>
</clipPath>
</defs>
</svg>
