<svg width="20" height="20" viewBox="0 0 20 20" fill="none" xmlns="http://www.w3.org/2000/svg">
<g clip-path="url(#clip0_11_613)">
<path d="M8.0835 0.66687C9.25012 0.000308171 10.7499 -4.75198e-05 11.9165 0.749878L17.0835 3.66687C18.3332 4.33352 19.0833 5.66652 19.0835 7.08289V12.9169C19.0834 14.3333 18.3332 15.6662 17.0835 16.3329L11.9995 19.2499C11.4162 19.5831 10.6661 19.7499 9.99951 19.7499C9.33293 19.7498 8.58275 19.5832 7.99951 19.2499L2.9165 16.3329C1.66667 15.6662 0.916571 14.3334 0.916504 12.9169V7.08289C0.916685 5.66642 1.75001 4.33348 2.9165 3.66687L8.0835 0.66687ZM2.49951 6.41687C2.41632 6.66657 2.4165 6.83323 2.4165 7.08289V12.9169C2.41656 13.8335 2.83323 14.6669 3.6665 15.1669L8.74951 18.0829C8.91603 18.2494 9.08299 18.2498 9.24951 18.3329V15.4169C9.1661 15.4167 8.99988 15.3331 8.8335 15.2499L6.1665 13.6669C5.4165 13.2502 4.9165 12.4162 4.9165 11.5829V8.49988C4.91653 8.25005 4.99945 8.08344 4.99951 7.91687L2.49951 6.41687ZM15.0835 7.83289C15.1668 8.08289 15.1665 8.2502 15.1665 8.41687V11.4999C15.1665 12.3331 14.6664 13.1662 13.9165 13.5829L11.2495 15.1669C11.0828 15.2501 10.8331 15.3336 10.6665 15.4169V18.3329C10.9165 18.2496 11.1669 18.1662 11.3335 18.0829L16.4165 15.1669C17.1665 14.6669 17.6664 13.8335 17.6665 12.9169V6.99988C17.6665 6.83331 17.6667 6.58349 17.5835 6.41687L15.0835 7.83289ZM6.3335 11.4999C6.3335 11.9165 6.50016 12.2502 6.8335 12.4169L9.24951 13.8329V10.4169L6.3335 8.66687V11.4999ZM10.6665 10.4169V13.8329L13.1665 12.4169C13.4998 12.2502 13.6665 11.9162 13.6665 11.5829V8.74988L10.6665 10.4169ZM10.4165 6.08289C10.1665 5.91636 9.74944 5.91627 9.49951 6.08289L7.0835 7.49988L9.99951 9.16687L12.9165 7.49988L10.4165 6.08289ZM9.99951 1.58289C9.58295 1.58297 9.16607 1.75025 8.74951 1.91687L3.6665 4.83289C3.49984 4.99955 3.33284 5.08354 3.24951 5.16687L5.74951 6.66687C5.83283 6.58355 5.99986 6.50019 6.1665 6.41687L8.74951 4.83289C9.49951 4.41622 10.3335 4.41622 11.0835 4.83289L13.8335 6.33289C14.0001 6.4162 14.083 6.58352 14.2495 6.66687L16.8335 5.24988C16.6669 5.08324 16.5001 4.91623 16.3335 4.83289L11.1665 1.91687C10.8332 1.66687 10.4162 1.58289 9.99951 1.58289Z" fill="#200040"/>
</g>
<defs>
<clipPath id="clip0_11_613">
<rect width="20" height="20" fill="white"/>
</clipPath>
</defs>
</svg>
