<svg width="20" height="20" viewBox="0 0 20 20" fill="none" xmlns="http://www.w3.org/2000/svg">
<g clip-path="url(#clip0_11_615)">
<path d="M15.8335 0.166626C18.0833 0.166796 19.8335 1.91674 19.8335 4.16663V15.8336C19.8333 18 18.0832 19.8334 15.8335 19.8336H4.1665C1.99994 19.8336 0.166682 18.0835 0.166504 15.8336V4.16663C0.166504 1.91663 1.9165 0.166626 4.1665 0.166626H15.8335ZM4.1665 1.58362C2.74984 1.58362 1.5835 2.74996 1.5835 4.16663V15.8336C1.58368 17.2501 2.74995 18.4166 4.1665 18.4166H15.8335C17.2499 18.4164 18.4163 17.25 18.4165 15.8336V4.16663C18.4165 2.75007 17.25 1.5838 15.8335 1.58362H4.1665ZM7.8335 4.91663C8.08355 4.66679 8.58355 4.66668 8.8335 4.91663C9.08328 5.16663 9.08328 5.66663 8.8335 5.91663L5.4165 9.33362C5.08333 9.66698 5.08322 10.2503 5.4165 10.5836L8.8335 14.1666C9.08328 14.4166 9.08328 14.9166 8.8335 15.1666C8.66694 15.2499 8.50005 15.3335 8.3335 15.3336C8.16694 15.3336 8.00005 15.2501 7.8335 15.0836L4.4165 11.5836C3.49989 10.667 3.5 9.25029 4.4165 8.33362L7.8335 4.91663ZM11.1665 4.91663C11.4165 4.66663 11.9165 4.66663 12.1665 4.91663L15.5835 8.24963C16.5001 9.16619 16.4998 10.583 15.5835 11.4996L12.1665 14.9996C11.9998 15.1663 11.8332 15.2496 11.6665 15.2496C11.4999 15.2496 11.3331 15.2501 11.1665 15.0836C10.9166 14.8337 10.9167 14.3337 11.1665 14.0836L14.5835 10.5836C14.9167 10.2504 14.9165 9.66701 14.5835 9.33362L11.1665 5.91663C10.9165 5.66663 10.9165 5.16663 11.1665 4.91663Z" fill="#200040"/>
</g>
<defs>
<clipPath id="clip0_11_615">
<rect width="20" height="20" fill="white"/>
</clipPath>
</defs>
</svg>
