<svg width="20" height="20" viewBox="0 0 20 20" fill="none" xmlns="http://www.w3.org/2000/svg">
<path d="M14.1671 6.66699C14.8336 6.66715 15.5003 6.99988 16.0001 7.58301C16.5 8.16626 16.6667 8.83314 16.5001 9.58301L16.4171 10.083H17.5831C18.3331 10.083 19.0004 10.4167 19.4171 11C19.8336 11.5832 19.9996 12.3331 19.8331 12.833C19.4165 14.4163 17.9998 15.583 16.3331 15.583H14.6671C13.5005 17.1663 11.7501 18.083 9.75012 18.083H6.91711C4.00045 18.083 1.9998 16.083 1.33313 14.083C1.03858 13.2583 0.910308 12.8497 0.654419 12.0332C0.548439 11.695 0.420906 11.2867 0.250122 10.75C-0.0832113 9.5 0.0837809 8.33333 0.667114 7.5C1.08373 7.00017 1.66663 6.66705 2.33313 6.66699H14.1671ZM2.33313 8.16699C2.22216 8.16707 2.11109 8.24048 2.00012 8.31445C1.94457 8.35149 1.88869 8.38921 1.83313 8.41699C1.58324 8.83368 1.41718 9.50057 1.66711 10.417C1.70221 10.5457 1.7345 10.6675 1.76575 10.7822C2.17953 12.3011 2.27976 12.6654 2.66711 13.75C3.16716 15.1666 4.50054 16.75 6.91711 16.75H9.75012C11.9999 16.7499 13.9163 15.1667 14.3331 12.917L15.0831 9.33301C15.1663 8.9999 15.0836 8.74986 14.9171 8.5C14.7505 8.33341 14.5002 8.16715 14.1671 8.16699H2.33313ZM15.8331 13.25C15.7498 13.6665 15.6667 13.9998 15.5001 14.333H16.3331C17.333 14.333 18.25 13.6668 18.5001 12.667C18.5001 12.417 18.4998 12.083 18.3331 11.833C18.1666 11.5834 17.9169 11.5001 17.6671 11.5H16.1671L15.8331 13.25ZM5.00012 1.83301C5.3334 1.83308 5.66711 2.0834 5.66711 2.5V4.16699C5.66694 4.50017 5.41655 4.83293 5.00012 4.83301C4.6669 4.83301 4.33336 4.50021 4.33313 4.16699V2.5C4.33313 2.16667 4.66679 1.83301 5.00012 1.83301ZM8.33313 1.83301C8.66646 1.83301 9.00012 2.08333 9.00012 2.5V4.16699C8.99995 4.50021 8.74965 4.83301 8.33313 4.83301C7.99997 4.83289 7.66735 4.50015 7.66711 4.16699V2.5C7.66711 2.16672 7.99985 1.83312 8.33313 1.83301ZM11.6671 1.83301C12.0003 1.83325 12.3331 2.08353 12.3331 2.5V4.16699C12.333 4.50008 12.0833 4.83275 11.6671 4.83301C11.3339 4.83301 11.0004 4.50021 11.0001 4.16699V2.5C11.0001 2.16667 11.3338 1.83301 11.6671 1.83301Z" fill="#200040"/>
</svg>
