<svg width="20" height="20" viewBox="0 0 20 20" fill="none" xmlns="http://www.w3.org/2000/svg">
<g clip-path="url(#clip0_5692_353)">
<path d="M10.0003 0.833313C15.0628 0.833489 19.1663 4.9378 19.1663 10.0003C19.1661 15.0627 15.0627 19.1661 10.0003 19.1663C4.9378 19.1663 0.833489 15.0628 0.833313 10.0003C0.833313 4.93769 4.93769 0.833313 10.0003 0.833313ZM10.0003 2.50031C5.85817 2.50031 2.50031 5.85817 2.50031 10.0003C2.50048 14.1423 5.85828 17.5003 10.0003 17.5003C14.1422 17.5001 17.5001 14.1422 17.5003 10.0003C17.5003 7.71164 16.4748 5.66212 14.8587 4.28644C13.3373 6.16163 11.0366 6.99124 10.2552 7.13702C8.35685 7.47702 8.05938 8.25678 8.07355 9.05011C8.44184 8.54017 9.31981 8.11466 10.3255 8.11456C12.3088 8.11456 13.7962 9.54579 13.7962 11.5433C13.7962 13.569 12.2101 15.1984 10.1136 15.1985C7.74787 15.1985 6.20358 13.5835 6.20343 10.4671C6.20343 8.07294 6.86964 6.07529 9.63214 5.46613C10.4715 5.2821 12.223 4.71011 13.6468 3.44464C12.5674 2.84296 11.3237 2.50036 10.0003 2.50031ZM10.0706 10.0276C9.2491 10.0277 8.35646 10.4523 8.03058 11.2737C8.08724 12.6053 8.99405 13.2854 10.0706 13.2855C11.1615 13.2855 11.9974 12.6766 11.9974 11.6566C11.9973 10.6791 11.1331 10.0276 10.0706 10.0276Z" fill="#200040"/>
</g>
<defs>
<clipPath id="clip0_5692_353">
<rect width="20" height="20" fill="white"/>
</clipPath>
</defs>
</svg>
