<svg width="20" height="20" viewBox="0 0 20 20" fill="none" xmlns="http://www.w3.org/2000/svg">
<g clip-path="url(#clip0_11_713)">
<path d="M17.4995 0.083374C18.0828 0.166707 18.7498 0.416707 19.1665 0.833374C20.0831 1.74999 20.083 3.2497 19.1665 4.16638L16.9995 6.50037C16.6664 6.83368 16.4166 7.41662 16.4165 7.91638C16.4165 8.41632 16.583 8.91674 16.9995 9.33337C17.4161 9.74996 17.6664 10.3332 17.6665 10.9164C17.6665 11.4997 17.4162 12.0837 16.9995 12.5004C16.4996 12.9169 15.9997 13.1664 15.4165 13.1664C14.8333 13.1664 14.2501 12.9168 13.8335 12.5004L12.6665 11.3334L5.8335 18.2504C5.33357 18.7503 4.58339 19.0833 3.8335 19.0834C3.3335 19.0834 2.83317 18.9164 2.4165 18.6664L1.4165 19.6664C1.24984 19.7497 1.08317 19.8334 0.916504 19.8334C0.749837 19.8334 0.583171 19.833 0.416504 19.6664C0.166668 19.4163 0.166559 18.9163 0.416504 18.6664L1.4165 17.6664C0.750008 16.5831 0.916897 15.167 1.8335 14.2504L8.6665 7.33337L7.49951 6.16638C6.66656 5.33306 6.66645 3.91662 7.49951 3.08337C8.33284 2.25004 9.75016 2.25004 10.5835 3.08337C11.4168 3.83316 12.6662 3.83316 13.4995 3.08337L15.8335 0.750366C16.2501 0.333767 16.833 0.0834546 17.4995 0.083374ZM2.74951 15.1664C2.16629 15.7496 2.1665 16.5831 2.74951 17.1664C2.99945 17.4163 3.333 17.5833 3.74951 17.5834C4.16618 17.5834 4.49951 17.4997 4.74951 17.1664L11.5835 10.2504L9.5835 8.25037L2.74951 15.1664ZM17.4995 1.50037C17.2496 1.50051 16.9994 1.66678 16.7495 1.83337L14.4165 4.16638C13.0832 5.49972 10.9168 5.49971 9.5835 4.16638C9.41683 3.99972 9.16618 3.91638 8.99951 3.91638C8.83295 3.91649 8.66607 3.99982 8.49951 4.16638C8.16623 4.41639 8.1662 4.91705 8.49951 5.25037L14.8335 11.5834C15.1668 11.9165 15.5832 11.9167 15.9165 11.5834C16.0831 11.4168 16.1664 11.167 16.1665 11.0004C16.1665 10.7504 16.0832 10.583 15.9165 10.4164C15.2499 9.74974 14.8335 8.91662 14.8335 7.83337C14.8335 6.91671 15.1668 6.08305 15.8335 5.41638L18.1665 3.08337C18.4998 2.75009 18.4997 2.16702 18.1665 1.75037C17.9998 1.5837 17.7495 1.50037 17.4995 1.50037Z" fill="#200040"/>
</g>
<defs>
<clipPath id="clip0_11_713">
<rect width="20" height="20" fill="white"/>
</clipPath>
</defs>
</svg>
