<svg width="20" height="20" viewBox="0 0 20 20" fill="none" xmlns="http://www.w3.org/2000/svg">
<path d="M15.8335 1.83368C18.0833 1.83385 19.8335 3.58379 19.8335 5.83368V14.1667C19.8335 16.3332 18.0833 18.1665 15.8335 18.1667H4.1665C1.99984 18.1667 0.166504 16.4167 0.166504 14.1667V5.83368C0.166504 3.58368 1.9165 1.83368 4.1665 1.83368H15.8335ZM1.5835 7.33368V14.1667C1.5835 15.5834 2.74984 16.7497 4.1665 16.7497H9.3335V7.33368H1.5835ZM10.7495 7.33368V16.7497H15.8335C17.25 16.7495 18.4162 15.5832 18.4995 14.1667V7.33368H10.7495ZM4.1665 3.24969C2.74984 3.24969 1.5835 4.41701 1.5835 5.83368V5.91669H18.4165V5.83368C18.4165 4.41712 17.25 3.24987 15.8335 3.24969H4.1665Z" fill="#200040"/>
</svg>
