<svg width="20" height="20" viewBox="0 0 20 20" fill="none" xmlns="http://www.w3.org/2000/svg">
<g clip-path="url(#clip0_11_611)">
<path d="M3.8335 0.166687C5.83323 0.166859 7.41633 1.74996 7.4165 3.74969V5.99969H12.6665V3.83368C12.6665 1.83379 14.2497 0.249866 16.2495 0.249695C18.2495 0.249695 19.8335 1.83368 19.8335 3.83368C19.8333 5.83353 18.2494 7.41669 16.2495 7.41669H14.0835V12.6667H16.2495C18.2494 12.6667 19.8333 14.2498 19.8335 16.2497C19.8335 18.2497 18.2495 19.8337 16.2495 19.8337C14.2497 19.8335 12.5835 18.2499 12.5835 16.1667V13.9997H7.3335V16.1667C7.33349 18.1667 5.74951 19.7497 3.74951 19.7497C1.74967 19.7495 0.166505 18.1666 0.166504 16.1667C0.166504 14.1668 1.74967 12.5839 3.74951 12.5837H5.9165V7.33368H3.74951C1.74967 7.33351 0.166504 5.74959 0.166504 3.74969C0.166685 1.74985 1.8336 0.166687 3.8335 0.166687ZM3.74951 14.0837C2.58309 14.0838 1.58367 15 1.5835 16.2497C1.5835 17.4997 2.66683 18.4167 3.8335 18.4167C5.00002 18.4165 5.99951 17.4996 5.99951 16.2497H5.9165V14.0837H3.74951ZM13.9165 13.9997V16.0837C13.9166 16.6669 14.1669 17.2501 14.5835 17.6667C15.0002 18.0833 15.5832 18.3337 16.1665 18.3337C17.3332 18.3337 18.3335 17.3334 18.3335 16.1667C18.3335 15 17.4165 13.9997 16.1665 13.9997H13.9165ZM7.4165 7.41669V12.6667H12.6665V7.41669H7.4165ZM3.74951 1.58368C2.49979 1.58384 1.58366 2.49997 1.5835 3.74969C1.5835 4.99959 2.49968 5.99952 3.74951 5.99969H5.99951V3.74969C5.99934 2.49986 4.9994 1.58368 3.74951 1.58368ZM16.1665 1.58368C14.9999 1.58368 13.9997 2.49986 13.9995 3.74969H14.0835V5.99969H16.2495C17.4995 5.99969 18.3335 4.91636 18.3335 3.74969C18.3333 2.58317 17.4164 1.58368 16.1665 1.58368Z" fill="#200040"/>
</g>
<defs>
<clipPath id="clip0_11_611">
<rect width="20" height="20" fill="white"/>
</clipPath>
</defs>
</svg>
