<svg width="20" height="20" viewBox="0 0 20 20" fill="none" xmlns="http://www.w3.org/2000/svg">
<g clip-path="url(#clip0_11_525)">
<path d="M10 0.0833282C15.4165 0.0835089 19.916 4.58376 19.916 10.0003C19.9158 15.4167 15.4164 19.9162 10 19.9163C4.58344 19.9163 0.0831885 15.4168 0.0830078 10.0003C0.0830078 4.58365 4.58333 0.0833282 10 0.0833282ZM10 1.50032C5.33333 1.50032 1.5 5.33365 1.5 10.0003C1.50018 14.6668 5.33344 18.5003 10 18.5003C14.6664 18.5001 18.4998 14.6667 18.5 10.0003C18.5 5.33376 14.6665 1.5005 10 1.50032ZM6.16699 6.16634C6.41694 5.91654 6.83355 5.83315 7.25 5.91634L11.334 7.33333C11.9172 7.58334 12.417 8.00009 12.667 8.58333L14.167 12.6663C14.3336 12.9996 14.1669 13.4163 13.917 13.6663C13.5838 13.9996 13.4171 14.0833 13.084 14.0833C13.0007 14.0833 12.8333 14.0837 12.75 14.0003L8.66699 12.5003C8.08376 12.2504 7.58375 11.8335 7.41699 11.2503L5.91699 7.16634C5.83378 6.83305 5.91707 6.41626 6.16699 6.16634ZM8.75 10.7503C8.83333 11.0001 9.00017 11.167 9.25 11.2503L12.417 12.4163L11.25 9.16634C11.1666 8.9998 10.9998 8.83359 10.75 8.75032L7.58398 7.58333L8.75 10.7503Z" fill="#200040"/>
</g>
<defs>
<clipPath id="clip0_11_525">
<rect width="20" height="20" fill="white"/>
</clipPath>
</defs>
</svg>
