<svg width="20" height="20" viewBox="0 0 20 20" fill="none" xmlns="http://www.w3.org/2000/svg">
<g clip-path="url(#clip0_11_523)">
<path d="M19.167 4.33362C19.5002 4.33362 19.8338 4.58316 19.834 4.99963V15.7496C19.834 17.9162 18.0838 19.7495 15.834 19.7496H5C4.66688 19.7494 4.3342 19.4167 4.33398 19.0836C4.33398 18.7504 4.58353 18.4168 5 18.4166H15.917C17.3336 18.4166 18.4998 17.2501 18.5 15.8336V4.99963C18.5002 4.66641 18.7505 4.33362 19.167 4.33362ZM12.584 0.166626C14.7505 0.166801 16.584 1.91674 16.584 4.16663V12.4996C16.584 14.7496 14.75 16.583 12.5 16.4996H4.16699C2.00033 16.4996 0.166992 14.7496 0.166992 12.4996V4.16663C0.166992 1.91663 1.91699 0.166626 4.16699 0.166626H12.584ZM4.16699 1.58362C2.75033 1.58362 1.58398 2.74996 1.58398 4.16663V12.4996C1.58398 13.9996 2.75033 15.1669 4.16699 15.0836H12.5C13.9167 15.0836 15.084 13.9163 15.084 12.4996V4.16663C15.084 2.74996 13.9167 1.58362 12.5 1.58362H4.16699Z" fill="#200040"/>
</g>
<defs>
<clipPath id="clip0_11_523">
<rect width="20" height="20" fill="white"/>
</clipPath>
</defs>
</svg>
