<svg width="20" height="20" viewBox="0 0 20 20" fill="none" xmlns="http://www.w3.org/2000/svg">
<path d="M14.0836 1.66669C14.3337 1.41685 14.8337 1.41674 15.0836 1.66669L17.6666 4.24969C18.0832 4.74961 18.3335 5.33316 18.3336 5.99969C18.3336 6.66636 18.0836 7.33368 17.5836 7.83368L14.9996 10.4167C14.8331 10.5 14.6662 10.5837 14.4996 10.5837C14.3331 10.5836 14.1662 10.5002 13.9996 10.3337C13.7497 10.0838 13.75 9.58379 13.9996 9.33368L16.6666 6.66669H3.66663C3.33329 6.66669 2.99963 7.00035 2.99963 7.33368V17.8337C2.99942 18.1668 2.66673 18.4995 2.33362 18.4997C2.00037 18.4997 1.6668 18.2501 1.66663 17.8337V7.33368C1.66663 6.16701 2.58329 5.24969 3.66663 5.24969H16.6666L14.0836 2.66669C13.8336 2.41669 13.8336 1.91669 14.0836 1.66669Z" fill="#200040"/>
</svg>
