<svg width="20" height="20" viewBox="0 0 20 20" fill="none" xmlns="http://www.w3.org/2000/svg">
<path d="M17.8336 1.66669C18.2501 1.66686 18.4996 2.00043 18.4996 2.33368C18.4995 2.66682 18.25 2.99952 17.8336 2.99969H7.33362C7.00029 2.99969 6.66663 3.33335 6.66663 3.66669L6.74963 16.7497L6.83362 16.6667L9.33362 13.9997C9.58373 13.75 10.0837 13.7498 10.3336 13.9997C10.5835 14.2496 10.5833 14.7496 10.3336 14.9997L7.74963 17.5837C7.33295 18.0834 6.66614 18.3337 5.99963 18.3337C5.3331 18.3336 4.74955 18.0833 4.24963 17.6667L1.66663 15.0837C1.41668 14.8337 1.41679 14.3337 1.66663 14.0837C1.91663 13.8337 2.41663 13.8337 2.66663 14.0837L5.24963 16.6667V3.66669C5.24963 2.58335 6.16695 1.66669 7.33362 1.66669H17.8336Z" fill="#200040"/>
</svg>
