<svg width="20" height="20" viewBox="0 0 20 20" fill="none" xmlns="http://www.w3.org/2000/svg">
<path d="M4.91663 1.66669C5.24996 1.41669 5.66663 1.41669 5.91663 1.66669C6.16663 1.91669 6.16663 2.41669 5.91663 2.66669L3.33362 5.24969H16.3336C17.4168 5.24988 18.333 6.16713 18.2496 7.33368V17.8337C18.2494 18.1668 17.9167 18.4995 17.5836 18.4997C17.2504 18.4997 16.9168 18.2501 16.9166 17.8337V7.33368C16.9166 6.91701 16.583 6.66669 16.2496 6.66669H3.24963C3.33297 6.75002 3.33362 6.75035 3.33362 6.83368L5.99963 9.24969C6.24963 9.49969 6.24963 9.99969 5.99963 10.2497C5.83297 10.4164 5.6663 10.4997 5.49963 10.4997C5.33308 10.4997 5.16619 10.5002 4.99963 10.3337L2.41663 7.83368C1.91663 7.33368 1.66663 6.66636 1.66663 5.99969C1.66671 5.33316 1.91702 4.74961 2.33362 4.24969L4.91663 1.66669Z" fill="#200040"/>
</svg>
