<svg width="20" height="20" viewBox="0 0 20 20" fill="none" xmlns="http://www.w3.org/2000/svg">
<path d="M14 1.66669C14.6667 1.66669 15.25 1.91701 15.75 2.33368L18.333 4.91669C18.583 5.25002 18.583 5.66701 18.333 5.83368C18.0829 6.08335 17.5829 6.08357 17.333 5.83368L14.75 3.24969V16.2497C14.75 17.4163 13.8335 18.3335 12.667 18.3337H2.16699C1.75046 18.3337 1.50016 17.917 1.5 17.5837C1.5 17.2503 1.75033 16.9167 2.16699 16.9167H12.583C12.9997 16.9167 13.25 16.583 13.25 16.2497V3.24969L13.167 3.33368L10.667 5.91669C10.5004 6.08325 10.3336 6.16658 10.167 6.16669C10.0003 6.16669 9.83366 6.16636 9.66699 5.99969C9.41699 5.74969 9.41699 5.24969 9.66699 4.99969L12.25 2.41669C12.6667 1.91669 13.3333 1.66669 14 1.66669Z" fill="#200040"/>
</svg>
