<svg width="20" height="20" viewBox="0 0 20 20" fill="none" xmlns="http://www.w3.org/2000/svg">
<path d="M5.99963 1.66669C6.6663 1.66669 7.33362 1.91701 7.83362 2.33368L10.4166 4.99969C10.6666 5.24964 10.6665 5.74964 10.4166 5.99969C10.25 6.08303 10.0833 6.16669 9.91663 6.16669C9.74996 6.16669 9.58329 6.08335 9.41663 5.91669L6.83362 3.33368C6.75028 3.33368 6.74996 3.33303 6.66663 3.24969V16.3337C6.66684 16.6669 7.00039 16.9997 7.33362 16.9997H17.8336C18.25 16.9999 18.4995 17.4165 18.4996 17.7497C18.4996 18.0829 18.2501 18.4165 17.8336 18.4167H7.33362C6.16706 18.4167 5.2498 17.5002 5.24963 16.3337V3.33368L2.66663 5.91669C2.41663 6.16669 1.91663 6.16669 1.66663 5.91669C1.41663 5.66669 1.41663 5.25002 1.66663 4.91669L4.24963 2.33368C4.74955 1.91708 5.3331 1.66677 5.99963 1.66669Z" fill="#200040"/>
</svg>
