<svg width="20" height="20" viewBox="0 0 20 20" fill="none" xmlns="http://www.w3.org/2000/svg">
<path d="M12.667 1.58331C13.8334 1.58348 14.7498 2.49992 14.75 3.66632V16.6663L17.333 14.0833C17.583 13.8334 18.083 13.8335 18.333 14.0833C18.583 14.3333 18.583 14.7503 18.333 15.0003L15.75 17.5833C15.3333 18.0833 14.6667 18.3333 14 18.3333C13.3333 18.3333 12.75 18.0833 12.25 17.5833L9.66699 15.0003C9.41699 14.7503 9.41699 14.2503 9.66699 14.0003C9.91699 13.7503 10.417 13.7503 10.667 14.0003L13.333 16.6663V3.66632C13.3328 3.3332 13.0001 3.00052 12.667 3.00031H2.16699C1.83366 3.00031 1.5 2.74998 1.5 2.33331C1.5 1.91665 1.75033 1.66665 2.16699 1.58331H12.667Z" fill="#200040"/>
</svg>
