<svg width="20" height="20" viewBox="0 0 20 20" fill="none" xmlns="http://www.w3.org/2000/svg">
<path d="M2.33362 1.5C2.66684 1.50016 2.99963 1.75046 2.99963 2.16699V12.667C2.99981 13.0835 3.33338 13.333 3.66663 13.333H16.6666L13.9996 10.667C13.7497 10.4171 13.75 9.9171 13.9996 9.66699C14.2496 9.41699 14.7496 9.41699 14.9996 9.66699L17.5836 12.167C18.0834 12.6669 18.333 13.3335 18.4996 14C18.4996 14.6667 18.2496 15.25 17.7496 15.75L15.1666 18.333C15 18.4163 14.8333 18.5 14.6666 18.5C14.5 18.5 14.3333 18.4997 14.1666 18.333C13.9168 18.083 13.9167 17.583 14.1666 17.333L16.7496 14.75H3.74963C2.58323 14.7498 1.6668 13.8334 1.66663 12.667V2.16699C1.66663 1.75033 2.00028 1.5 2.33362 1.5Z" fill="#200040"/>
</svg>
