<svg width="20" height="20" viewBox="0 0 20 20" fill="none" xmlns="http://www.w3.org/2000/svg">
<path d="M17.667 1.5C18.0834 1.50015 18.3337 1.75045 18.417 2.16699V12.667C18.4168 13.8335 17.4996 14.75 16.333 14.75H3.33301L5.91699 17.333C6.16686 17.5829 6.16664 18.0829 5.91699 18.333C5.75045 18.4163 5.58354 18.4999 5.41699 18.5C5.25033 18.5 5.08365 18.4997 4.91699 18.333L2.41699 15.75C1.91699 15.3333 1.66699 14.6667 1.66699 14C1.66699 13.3334 1.91643 12.6667 2.33301 12.25L4.91699 9.66699C5.167 9.41701 5.667 9.417 5.91699 9.66699C6.16664 9.9171 6.16686 10.4171 5.91699 10.667L3.25 13.333H16.333C16.7495 13.333 16.9998 13.0002 17 12.667V2.16699C17 1.83366 17.2503 1.5 17.667 1.5Z" fill="#200040"/>
</svg>
