<svg width="20" height="20" viewBox="0 0 20 20" fill="none" xmlns="http://www.w3.org/2000/svg">
<g clip-path="url(#clip0_18_988)">
<path d="M15 0.166992C15.3332 0.167075 15.6658 0.416618 15.666 0.833008V2.08301C16.6659 2.49961 17.4993 3.33322 17.916 4.33301H19.166C19.5827 4.33301 19.833 4.66667 19.833 5C19.833 5.33333 19.5827 5.66699 19.166 5.66699H18.166V7.58301H19.166C19.5825 7.58301 19.8328 7.99973 19.833 8.33301C19.833 8.66634 19.5827 9 19.166 9V9.16699H18.166V11.083H19.166C19.4993 11.083 19.833 11.4167 19.833 11.75C19.833 12.0833 19.5827 12.417 19.166 12.417H18.166V14.333H19.166C19.4993 14.333 19.833 14.6667 19.833 15C19.833 15.3333 19.5827 15.667 19.166 15.667H17.916C17.4993 16.6668 16.6659 17.5004 15.666 17.917V19.167C15.6658 19.5002 15.3332 19.8329 15 19.833C14.6667 19.833 14.3332 19.5835 14.333 19.167V18.167H12.166V19.167C12.1658 19.5002 11.8332 19.8329 11.5 19.833C11.1667 19.833 10.8332 19.5835 10.833 19.167V18.167H8.91602V19.167C8.91581 19.5002 8.58318 19.8329 8.25 19.833C7.91675 19.833 7.58317 19.5835 7.58301 19.167V18.167H5.66699V19.167C5.66679 19.5002 5.33318 19.8329 5 19.833C4.66675 19.833 4.33317 19.5835 4.33301 19.167V17.917C3.33302 17.5003 2.49967 16.6663 2.08301 15.583H0.833008C0.499831 15.5829 0.16622 15.2502 0.166016 14.917C0.166016 14.5837 0.416439 14.2501 0.833008 14.25H1.83301V12.25H0.833008C0.499729 12.2499 0.166016 11.9163 0.166016 11.583C0.166188 11.2498 0.416582 10.9171 0.833008 10.917H1.83301V9H0.833008C0.499729 8.99989 0.166016 8.66629 0.166016 8.33301C0.166188 7.99983 0.416583 7.66708 0.833008 7.66699H1.83301V5.75H0.833008C0.416439 5.74991 0.166016 5.41661 0.166016 5C0.166024 4.5834 0.416445 4.33307 0.833008 4.33301H2.16602C2.49938 3.33309 3.33307 2.49965 4.33301 2.08301V0.833008C4.33319 0.416549 4.66676 0.166992 5 0.166992C5.33319 0.167074 5.66681 0.416617 5.66699 0.833008V1.83301H7.66602V0.833008C7.6662 0.416616 7.99982 0.167073 8.33301 0.166992C8.66625 0.166992 8.99982 0.416549 9 0.833008V1.83301H10.916V0.833008C10.9162 0.416752 11.3329 0.167236 11.666 0.166992C11.9993 0.166992 12.3328 0.416549 12.333 0.833008V1.83301H14.25V0.833008C14.2502 0.416549 14.6668 0.166992 15 0.166992ZM5.83301 3.25C4.41653 3.25009 3.25019 4.41655 3.25 5.83301V14.167C3.25017 15.5835 4.41652 16.7499 5.83301 16.75H14.166C15.5826 16.75 16.7498 15.5835 16.75 14.167V5.83301C16.7498 4.4165 15.5826 3.25 14.166 3.25H5.83301ZM11.667 5.91699C13 5.91726 14.0828 7 14.083 8.33301V11.667C14.0828 13 13 14.0827 11.667 14.083H8.33301C6.99985 14.0829 5.91716 13.0001 5.91699 11.667V8.33301C5.91718 6.99989 6.99987 5.91708 8.33301 5.91699H11.667ZM8.33301 7.33301C7.74988 7.33309 7.33317 7.74991 7.33301 8.33301V11.667C7.33315 12.2501 7.74986 12.6669 8.33301 12.667H11.667C12.25 12.6668 12.6668 12.25 12.667 11.667V8.33301C12.6668 7.75002 12.25 7.33324 11.667 7.33301H8.33301Z" fill="#200040"/>
</g>
<defs>
<clipPath id="clip0_18_988">
<rect width="20" height="20" fill="white"/>
</clipPath>
</defs>
</svg>
