<svg width="20" height="20" viewBox="0 0 20 20" fill="none" xmlns="http://www.w3.org/2000/svg">
<g clip-path="url(#clip0_1210_48)">
<path d="M10.0832 5.16656C11.1665 4.33323 12.6669 4.16656 14.0002 4.66656L16.9162 5.83356C18.1662 6.33354 19.0832 7.49997 19.3332 8.91656L19.9162 12.7496C19.9995 13.6662 19.9995 14.6666 19.6662 15.4166L19.3332 16.5836C19.1665 17.2501 18.6667 17.8333 18.0002 18.1666C17.6669 18.3332 17.3329 18.4166 16.9162 18.4166H16.6662V18.4996C16.2495 19.5829 15.1662 20.0002 14.1662 19.5836C13.1665 19.1668 12.75 18.0001 13.0832 17.0836L12.4162 16.8336C12.3235 16.8294 9.51928 15.6744 9.50018 15.6666L8.83319 15.4166C8.41652 16.4166 7.33319 16.8332 6.33319 16.4166C5.24999 15.9998 4.83354 14.8332 5.25018 13.9166V13.8336C4.83352 13.5836 4.58287 13.1662 4.4162 12.7496C4.16641 12.083 4.16664 11.333 4.58319 10.6666L5.1662 9.58356C5.58285 8.75025 6.16624 8.08289 6.9162 7.49957L10.0832 5.16656ZM7.1662 9.49957C6.91621 9.83289 6.74985 10.0833 6.58319 10.4166L6.00018 11.4996C5.83356 11.7495 5.83292 12.0833 5.9162 12.4166C5.99953 12.7499 6.24988 12.9169 6.58319 13.0836L10.0832 14.4996C10.0832 14.4996 12.9169 15.5832 13.0002 15.6666L16.5002 17.0836C16.75 17.25 17.0831 17.2499 17.4162 17.0836C17.6662 16.9169 17.9168 16.6668 18.0002 16.3336L18.5832 15.4166C18.6665 15.0833 18.7502 14.6668 18.7502 14.3336L17.1662 13.6666L16.8332 14.4996C16.7499 14.7496 16.4162 14.9166 16.1662 14.9166C16.1247 14.9164 16.0827 14.8953 16.0412 14.8746C15.9997 14.8538 15.9577 14.8336 15.9162 14.8336C15.4998 14.6668 15.3336 14.2498 15.5002 13.9166L15.8332 13.0836L10.0832 10.7496L9.75018 11.5836C9.66678 11.8335 9.33315 11.9996 9.08319 11.9996C9.04158 11.9995 8.9998 11.9794 8.95819 11.9586C8.91654 11.9377 8.87484 11.9166 8.83319 11.9166C8.41666 11.7498 8.24956 11.3329 8.4162 10.9996L8.75018 10.1666L7.1662 9.49957ZM13.3332 5.91656C12.5 5.58333 11.5831 5.66637 10.8332 6.24957L8.08319 8.24957L18.3332 12.4166L17.8332 9.08356C17.6665 8.16697 17.0834 7.41693 16.2502 7.08356L13.3332 5.91656ZM8.6662 0.249573C8.91604 0.0830115 9.16636 0.0833897 9.4162 0.166565C9.6662 0.333232 9.83319 0.583557 9.83319 0.833557V2.49957C9.83319 2.83291 9.49953 3.16656 9.1662 3.16656C8.83303 3.16632 8.50018 2.91604 8.50018 2.49957V2.33356L8.00018 2.74957C7.25018 3.33291 6.1662 3.33291 5.4162 2.74957L4.9162 2.33356V2.74957C4.9162 3.91624 3.99986 4.91656 2.83319 4.91656H2.4162L2.75018 5.16656C3.41675 5.99978 3.41656 7.16627 2.75018 7.99957L2.4162 8.41656H2.50018C2.91672 8.41668 3.2501 8.8333 3.25018 9.16656C3.25018 9.4999 2.99986 9.83356 2.58319 9.83356H0.916199C0.583107 9.8334 0.333476 9.66644 0.250183 9.41656C0.0835251 9.16657 0.166526 8.91656 0.333191 8.66656L1.58319 7.16656C1.83319 6.91656 1.83319 6.4999 1.58319 6.16656L0.333191 4.66656C0.16659 4.41666 -0.000281639 4.16647 0.166199 3.91656C0.33283 3.66662 0.583244 3.49964 0.833191 3.49957H2.83319C3.16652 3.49957 3.50018 3.16624 3.50018 2.74957V0.916565C3.50023 0.583428 3.6664 0.332995 3.9162 0.249573C4.1662 0.166239 4.41652 0.16689 4.58319 0.333557L6.25018 1.66656C6.50016 1.83318 6.83322 1.83318 7.08319 1.66656L8.6662 0.249573Z" fill="#200040"/>
</g>
<defs>
<clipPath id="clip0_1210_48">
<rect width="20" height="20" fill="white"/>
</clipPath>
</defs>
</svg>
