<svg width="20" height="20" viewBox="0 0 20 20" fill="none" xmlns="http://www.w3.org/2000/svg">
<path d="M15.834 2.66699C18.0838 2.66716 19.834 4.4171 19.834 6.66699V13.333C19.834 15.4996 18.0838 17.3328 15.834 17.333H4.16699C2.00033 17.333 0.166992 15.583 0.166992 13.333V6.66699C0.166992 4.41699 1.91699 2.66699 4.16699 2.66699H15.834ZM1.58398 13.333C1.58398 14.7497 2.75033 15.917 4.16699 15.917H15.834C17.2505 15.9168 18.4167 14.7496 18.5 13.333V8.25H1.58398V13.333ZM4.58398 11.833C5.25046 11.8332 5.66699 12.3338 5.66699 12.917C5.66682 13.5001 5.16708 13.9998 4.58398 14C4.00075 14 3.50017 13.5002 3.5 12.917C3.5 12.3337 4.00065 11.833 4.58398 11.833ZM4.16699 4.08301C2.75033 4.08301 1.58398 5.25033 1.58398 6.66699V6.83301H18.417V6.66699C18.417 5.25044 17.2505 4.08319 15.834 4.08301H4.16699Z" fill="#200040"/>
</svg>
