<svg width="20" height="20" viewBox="0 0 20 20" fill="none" xmlns="http://www.w3.org/2000/svg">
<g clip-path="url(#clip0_11_738)">
<path d="M5.08301 0.166992C5.41627 0.166992 5.74985 0.416512 5.75 0.833008V4.33301H13.333C14.583 4.33301 15.666 5.33366 15.666 6.66699V14.25H19.166C19.5827 14.25 19.833 14.6667 19.833 15C19.833 15.3333 19.5827 15.667 19.166 15.667H15.666V19.167C15.6658 19.5001 15.3332 19.8329 15 19.833C14.6668 19.833 14.3332 19.5834 14.333 19.167V15.667H6.66602C5.41622 15.6667 4.33301 14.6662 4.33301 13.333V5.75H0.833008C0.416452 5.74991 0.166032 5.41659 0.166016 5C0.166016 4.58339 0.416439 4.33307 0.833008 4.33301H4.33301V0.833008C4.3332 0.41658 4.74978 0.167073 5.08301 0.166992ZM5.75 5.75V13.333C5.75 13.8328 6.16623 14.2497 6.66602 14.25V14.333H14.333V6.66699C14.333 6.16699 13.916 5.75 13.416 5.75H5.75Z" fill="#200040"/>
</g>
<defs>
<clipPath id="clip0_11_738">
<rect width="20" height="20" fill="white"/>
</clipPath>
</defs>
</svg>
