<svg width="20" height="20" viewBox="0 0 20 20" fill="none" xmlns="http://www.w3.org/2000/svg">
<path d="M10.0003 1.00037C15.0002 1.00054 19.0003 5.00047 19.0003 10.0004C19.0001 15.0001 15 19.0002 10.0003 19.0004C5.00044 19.0004 1.00052 15.0002 1.00032 10.0004C1.00032 5.00037 5.00032 1.00037 10.0003 1.00037ZM10.6663 5.00037C10.6661 5.33347 10.3334 5.66617 10.0003 5.66638C9.66708 5.66638 9.33352 5.41681 9.33333 5.00037V2.41638C5.66666 2.74972 2.74967 5.5837 2.41634 9.25037H5.00032C5.4168 9.25058 5.66634 9.66712 5.66634 10.0004C5.66615 10.3335 5.41664 10.6662 5.00032 10.6664H2.50032C2.83364 14.3329 5.74982 17.2499 9.41634 17.5834V15.0004C9.41634 14.667 9.75 14.3334 10.0833 14.3334C10.4167 14.3334 10.7503 14.5837 10.7503 15.0004V17.5834C14.3335 17.2499 17.25 14.3332 17.5833 10.5834H15.0003C14.667 10.5834 14.3333 10.2497 14.3333 9.91638C14.3335 9.58314 14.5838 9.25037 15.0003 9.25037H17.5003C17.167 5.66703 14.2497 2.74972 10.6663 2.41638V5.00037Z" fill="#200040"/>
</svg>
