<svg width="20" height="20" viewBox="0 0 20 20" fill="none" xmlns="http://www.w3.org/2000/svg">
<path d="M9.99951 2.16663C10.4162 2.16663 10.7502 2.33362 11.0835 2.58362L14.9995 6.49963L17.2495 4.24963C17.6662 3.83297 18.3332 3.66663 18.9165 3.91663C19.4998 4.16663 19.8335 4.75029 19.8335 5.33362V14.1666C19.8335 16.4165 18.0833 18.2495 15.8335 18.2496H4.1665C1.9165 18.2496 0.166504 16.4163 0.166504 14.2496V5.41663C0.166504 4.74996 0.583496 4.24963 1.0835 3.99963C1.66674 3.74988 2.33294 3.91705 2.74951 4.33362L4.99951 6.49963L8.9165 2.58362C9.16644 2.33368 9.58295 2.16671 9.99951 2.16663ZM4.99951 8.41663L4.49951 7.99963L1.8335 5.24963H1.74951C1.58317 5.24974 1.5835 5.33335 1.5835 5.41663V14.1666C1.5835 15.5833 2.74984 16.7496 4.1665 16.7496H15.8335C17.25 16.7495 18.4165 15.5832 18.4165 14.1666V5.33362C18.4165 5.33362 18.4165 5.24985 18.3335 5.24963H18.1665L14.9995 8.41663L14.4165 7.91663L9.99951 3.49963H9.9165L4.99951 8.41663Z" fill="#200040"/>
</svg>
