<svg width="20" height="20" viewBox="0 0 20 20" fill="none" xmlns="http://www.w3.org/2000/svg">
<g clip-path="url(#clip0_11_216)">
<path d="M10.0002 14.2504C12.75 14.2505 14.9161 16.4166 14.9163 19.1664C14.9163 19.583 14.5829 19.9164 14.1663 19.9164C13.7497 19.9162 13.4163 19.5829 13.4163 19.1664C13.4161 17.25 11.9166 15.7505 10.0002 15.7504C8.08369 15.7504 6.58342 17.2499 6.58325 19.1664C6.58325 19.583 6.24992 19.9164 5.83325 19.9164C5.41659 19.9164 5.08325 19.583 5.08325 19.1664C5.08342 16.4165 7.25035 14.2504 10.0002 14.2504ZM5.00024 7.58337C5.41676 7.58355 5.75024 7.91682 5.75024 8.33337C5.75024 8.74993 5.41676 9.0832 5.00024 9.08337C3.08358 9.08337 1.58325 10.5837 1.58325 12.5004C1.58308 12.9169 1.24981 13.2504 0.833252 13.2504C0.416694 13.2504 0.0834258 12.9169 0.083252 12.5004C0.083252 9.75037 2.25024 7.58337 5.00024 7.58337ZM10.0002 6.75037C11.7501 6.75054 13.2502 8.16715 13.2502 10.0004C13.2501 11.8334 11.8333 13.2502 10.0002 13.2504C8.16702 13.2504 6.75042 11.7502 6.75024 10.0004C6.75024 8.25037 8.25024 6.75037 10.0002 6.75037ZM15.0002 7.58337C17.7501 7.58354 19.9163 9.75047 19.9163 12.5004C19.9161 12.9169 19.5828 13.2504 19.1663 13.2504C18.7499 13.2502 18.4164 12.9168 18.4163 12.5004C18.4163 10.5838 16.9168 9.08354 15.0002 9.08337C14.5836 9.08337 14.2502 8.75004 14.2502 8.33337C14.2502 7.91671 14.5836 7.58337 15.0002 7.58337ZM10.0002 8.25037C9.00024 8.25037 8.25024 9.0837 8.25024 10.0004C8.25044 10.9169 9.08369 11.7504 10.0002 11.7504C10.9167 11.7502 11.75 10.9168 11.7502 10.0004C11.7502 9.0838 11.0001 8.25055 10.0002 8.25037ZM5.00024 0.083374C6.7501 0.0835495 8.25024 1.50015 8.25024 3.33337C8.25024 5.16659 6.7501 6.5832 5.00024 6.58337C3.25024 6.58337 1.75024 5.08337 1.75024 3.33337C1.75024 1.58337 3.25024 0.083374 5.00024 0.083374ZM15.0002 0.083374C16.7501 0.083549 18.2502 1.50015 18.2502 3.33337C18.2502 5.16659 16.7501 6.5832 15.0002 6.58337C13.2502 6.58337 11.7502 5.08337 11.7502 3.33337C11.7502 1.58337 13.2502 0.083374 15.0002 0.083374ZM5.00024 1.58337C4.00024 1.58337 3.25024 2.33337 3.25024 3.33337C3.25024 4.33337 4.00024 5.08337 5.00024 5.08337C6.00008 5.08319 6.75024 4.24994 6.75024 3.33337C6.75024 2.41681 6.00008 1.58355 5.00024 1.58337ZM15.0002 1.58337C14.0002 1.58337 13.2502 2.41671 13.2502 3.33337C13.2502 4.25004 14.0836 5.08337 15.0002 5.08337C15.9168 5.08318 16.7502 4.24993 16.7502 3.33337C16.7502 2.41681 16.0001 1.58355 15.0002 1.58337Z" fill="#200040"/>
</g>
<defs>
<clipPath id="clip0_11_216">
<rect width="20" height="20" fill="white"/>
</clipPath>
</defs>
</svg>
