<svg width="20" height="20" viewBox="0 0 20 20" fill="none" xmlns="http://www.w3.org/2000/svg">
<path d="M9.99968 1.00031C15.082 1.00031 17.0826 2.49945 17.7497 3.16632C17.9996 3.49954 18.1666 3.8331 18.1667 4.16632V15.5833C18.1667 16.25 17.8337 16.8336 17.3337 17.2503C16.3337 18.0836 14.2501 19.0003 10.0837 19.0003C5.91706 19.0003 3.75002 18.0836 2.66667 17.2503C2.16667 16.917 1.83366 16.25 1.83366 15.5833V4.16632C1.83378 3.83308 1.9998 3.41624 2.24968 3.16632C2.83299 2.49968 4.9167 1.0004 9.99968 1.00031ZM3.24968 15.5833C3.24968 15.8331 3.33328 15.9999 3.49968 16.0833C4.24968 16.6666 6.08366 17.5833 10.0837 17.5833C13.9999 17.5833 15.8329 16.6663 16.4997 16.1663C16.6663 16.083 16.7497 15.833 16.7497 15.6663V11.9163C15.6663 12.4996 13.5833 13.1663 10.0837 13.1663C6.50033 13.1663 4.41635 12.5 3.24968 11.8333V15.5833ZM16.7497 5.91632C15.6663 6.58295 13.6667 7.33329 10.0837 7.33331C6.33366 7.33331 4.33301 6.66697 3.24968 6.00031V10.1663C3.74968 10.4997 5.417 11.7503 10.0837 11.7503C14.6666 11.7503 16.3329 10.583 16.7497 10.1663V5.91632ZM9.99968 2.33331C5.33338 2.33341 3.66633 3.74967 3.24968 4.16632C3.24968 4.16632 4.58366 5.91632 10.0837 5.91632C15.2502 5.91629 16.583 4.41632 16.7497 4.16632C16.3323 3.74913 14.6648 2.33331 9.99968 2.33331Z" fill="#200040"/>
</svg>
