<svg width="20" height="20" viewBox="0 0 20 20" fill="none" xmlns="http://www.w3.org/2000/svg">
<g clip-path="url(#clip0_11_546)">
<path d="M15.833 1.83325C18.083 1.83325 19.9163 3.66659 19.833 5.83325V14.1663C19.833 16.3329 18.083 18.1663 15.833 18.1663H8.25C7.08333 18.1663 5.91699 17.5829 5.16699 16.6663L0 10.0002L0.333008 9.58325L5.16699 3.33325C5.91699 2.33336 7.00007 1.83325 8.25 1.83325H15.833ZM8.25 3.25024C7.50001 3.25024 6.83301 3.58294 6.33301 4.16626L1.83301 10.0002L6.33301 15.8333C6.74967 16.4166 7.5 16.7502 8.25 16.7502H15.917C17.3335 16.7501 18.5 15.5828 18.5 14.1663H18.417V5.83325C18.417 4.41659 17.2497 3.25024 15.833 3.25024H8.25ZM13.25 7.41626C13.5 7.16648 14 7.16648 14.25 7.41626C14.4999 7.66621 14.4998 8.16621 14.25 8.41626L12.667 10.0002L14.25 11.5833C14.5 11.8333 14.5 12.3333 14.25 12.5833C14.0833 12.6666 13.9167 12.7502 13.75 12.7502C13.5834 12.7502 13.4166 12.6668 13.25 12.5002L11.667 10.9163L10.083 12.5002C9.91645 12.6667 9.74957 12.7502 9.58301 12.7502C9.41645 12.7502 9.24957 12.7498 9.08301 12.5833C8.83322 12.3333 8.83322 11.8333 9.08301 11.5833L10.667 10.0002L9.08301 8.41626C8.83333 8.16615 8.83312 7.66615 9.08301 7.41626C9.3329 7.16637 9.8329 7.16658 10.083 7.41626L11.667 9.00024L13.25 7.41626Z" fill="#200040"/>
</g>
<defs>
<clipPath id="clip0_11_546">
<rect width="20" height="20" fill="white"/>
</clipPath>
</defs>
</svg>
