<svg width="20" height="20" viewBox="0 0 20 20" fill="none" xmlns="http://www.w3.org/2000/svg">
<g clip-path="url(#clip0_8434_254)">
<path fill-rule="evenodd" clip-rule="evenodd" d="M15.1877 1.30072C15.1896 1.3008 15.1925 1.30167 15.1945 1.3017C15.5924 1.30434 15.9668 1.45588 16.2531 1.71381L16.38 1.84076C16.3934 1.85579 16.4082 1.8701 16.4211 1.88568L19.6369 5.789L19.6789 5.8476L19.6798 5.84955C20.0911 6.39882 20.1069 7.14571 19.7238 7.70892L19.6388 7.82318L11.2013 18.1474L11.1544 18.2011L11.1525 18.2001C10.4964 18.9349 9.33072 18.9116 8.70718 18.1386L8.36246 17.7109C8.34631 17.6908 8.33031 17.6688 8.31656 17.6474L0.353669 7.75385L0.354645 7.75287L0.352692 7.75189C-0.127044 7.15407 -0.114988 6.30459 0.372223 5.72064L3.61441 1.84076C3.92419 1.46966 4.37814 1.26366 4.84781 1.26361H4.85172L15.1877 1.30072ZM8.82047 16.4902L5.60757 7.32513L1.48648 7.31146L8.82047 16.4902ZM11.258 16.3095L18.5099 7.37299L14.507 7.35834L11.258 16.3095ZM10.0099 15.6874L13.0353 7.35248L7.08023 7.33099L10.0099 15.6874ZM14.5207 5.97064L18.1945 5.98431L15.4933 2.6806C15.409 2.57693 15.2824 2.5149 15.1486 2.51459L13.5714 2.50873L14.5207 5.97064ZM8.01382 2.60052L7.05972 5.94427L13.0832 5.96576L12.1584 2.59369C12.1501 2.5636 12.1449 2.53284 12.1427 2.50287L8.02847 2.48822C8.02706 2.5258 8.02426 2.56376 8.01382 2.60052ZM4.88492 2.47748C4.75084 2.47748 4.6233 2.53673 4.53726 2.64056L1.81265 5.9267L5.61832 5.93939L6.60367 2.48334L4.88492 2.47748Z" fill="#200040"/>
</g>
<defs>
<clipPath id="clip0_8434_254">
<rect width="20" height="20" fill="white"/>
</clipPath>
</defs>
</svg>
