<svg width="20" height="20" viewBox="0 0 20 20" fill="none" xmlns="http://www.w3.org/2000/svg">
<g clip-path="url(#clip0_18_983)">
<path d="M9.99951 0.083313C15.4162 0.083313 19.9165 4.58364 19.9165 10.0003C19.9163 15.4168 15.4161 19.9163 9.99951 19.9163C4.58316 19.9161 0.0836651 15.4167 0.0834961 10.0003C0.0834961 4.58379 4.58305 0.0835718 9.99951 0.083313ZM9.99951 1.50031C5.33306 1.50056 1.49951 5.33379 1.49951 10.0003C1.49968 14.6667 5.33316 18.5 9.99951 18.5003C14.6661 18.5003 18.4993 14.6668 18.4995 10.0003C18.4995 5.33364 14.6662 1.50031 9.99951 1.50031ZM9.99951 6.00031C12.2495 6.00031 13.9995 7.83364 13.9995 10.0003C13.9993 12.1668 12.1661 14.0003 9.99951 14.0003C7.83315 14 5.99968 12.1667 5.99951 10.0003C5.99951 7.83379 7.74974 6.00056 9.99951 6.00031ZM9.99951 7.41632C8.58306 7.41658 7.4165 8.58379 7.4165 10.0003C7.41667 11.4167 8.58316 12.5831 9.99951 12.5833C11.4161 12.5833 12.5833 11.4168 12.5835 10.0003C12.5835 8.58364 11.4162 7.41632 9.99951 7.41632ZM9.99951 9.25031C10.4137 9.25031 10.7495 9.58609 10.7495 10.0003C10.7493 10.4144 10.4136 10.7503 9.99951 10.7503C9.58561 10.7501 9.24968 10.4142 9.24951 10.0003C9.24951 9.58625 9.58551 9.25056 9.99951 9.25031Z" fill="#200040"/>
</g>
<defs>
<clipPath id="clip0_18_983">
<rect width="20" height="20" fill="white"/>
</clipPath>
</defs>
</svg>
