<svg width="20" height="20" viewBox="0 0 20 20" fill="none" xmlns="http://www.w3.org/2000/svg">
<path d="M9.91667 0.166992C10.2498 0.167157 10.5825 0.416686 10.5827 0.833008V1.75H11.4997C12.583 1.75 13.6667 2.16699 14.4167 2.91699C15.1664 3.75017 15.5826 4.74995 15.5827 5.83301C15.5827 6.16623 15.2499 6.49978 14.9167 6.5C14.5833 6.5 14.2497 6.24967 14.2497 5.83301C14.2496 5.08323 13.9995 4.4169 13.4997 3.91699C12.9997 3.41699 12.3327 3.16699 11.5827 3.16699H10.6667V9.5L12.9167 10.25C14.5832 10.8334 15.6664 12.3338 15.7497 14.167C15.7495 16.4167 13.9164 18.2498 11.6667 18.25H10.7497V19.167C10.7495 19.5002 10.4159 19.833 10.0827 19.833C9.74954 19.8328 9.41684 19.5833 9.41667 19.167V18.083H8.49968C6.24968 18.083 4.41667 16.25 4.41667 14C4.41668 13.6668 4.74947 13.3332 5.08269 13.333C5.41602 13.333 5.74967 13.5833 5.74968 14C5.74968 15.5 6.91667 16.667 8.41667 16.667H9.33269V10.417L7.08269 9.66699C5.41614 9.16692 4.33269 7.58293 4.33269 5.83301C4.33288 3.58317 6.16679 1.75 8.41667 1.75H9.33269V0.833008C9.33286 0.49979 9.58345 0.166992 9.91667 0.166992ZM10.7497 16.75H11.6667C13.0832 16.7498 14.2494 15.5829 14.3327 14.083C14.3325 12.9998 13.5829 11.9163 12.4997 11.583L10.7497 11V16.75ZM8.33269 3.25C6.83284 3.25017 5.66667 4.4171 5.66667 5.91699C5.66681 7.00022 6.41645 8.08369 7.49968 8.41699L9.24968 9.08301V3.25H8.33269Z" fill="#200040"/>
</svg>
