<svg width="20" height="20" viewBox="0 0 20 20" fill="none" xmlns="http://www.w3.org/2000/svg">
<path d="M8.33301 1.83362C8.74967 1.83362 9.08333 2.16695 9 2.58362V17.4996C9 17.833 8.66634 18.1666 8.33301 18.1666C7.99978 18.1665 7.66699 17.9162 7.66699 17.4996V10.6666H4.58301L6.33301 12.4166C6.58301 12.6666 6.58301 13.1666 6.33301 13.4166C6.16638 13.5832 5.99963 13.6666 5.83301 13.6666C5.66645 13.6666 5.49957 13.6662 5.33301 13.4996L3.33301 11.4996C2.99984 11.083 2.75 10.5828 2.75 9.99963C2.75008 9.41647 2.91644 8.9162 3.33301 8.49963L5.25 6.49963C5.5 6.24991 6 6.24991 6.25 6.49963C6.49993 6.74957 6.4998 7.24957 6.25 7.49963L4.58301 9.16663H7.66699V2.49963C7.6672 2.16652 7.91671 1.83379 8.33301 1.83362ZM11.75 1.91663C12.0833 1.91663 12.417 2.16695 12.417 2.58362V9.24963H15.5L13.75 7.49963C13.5002 7.24957 13.5001 6.74957 13.75 6.49963C14 6.24991 14.5 6.2499 14.75 6.49963L16.75 8.49963C17.0833 8.83295 17.333 9.33333 17.333 9.91663C17.333 10.4998 17.0832 11.083 16.75 11.4996L14.75 13.4996C14.5833 13.583 14.4167 13.6666 14.25 13.6666C14.0833 13.6666 13.9167 13.5833 13.75 13.4166C13.5 13.1666 13.5 12.6666 13.75 12.4166L15.5 10.6666H12.417V17.4996C12.417 17.833 12.0833 18.1666 11.75 18.1666C11.4167 18.1666 11.083 17.9163 11.083 17.4996V2.58362C11.083 2.25028 11.4167 1.91663 11.75 1.91663Z" fill="#200040"/>
</svg>
