<svg width="20" height="20" viewBox="0 0 20 20" fill="none" xmlns="http://www.w3.org/2000/svg">
<g clip-path="url(#clip0_11_542)">
<path d="M19.167 13.4166C19.5003 13.4166 19.834 13.75 19.834 14.1666V17.4996C19.834 18.7496 18.8333 19.8336 17.5 19.8336H2.5C1.25014 19.8334 0.166992 18.8329 0.166992 17.4996V14.1666C0.166992 13.75 0.583659 13.4166 0.916992 13.4166C1.25033 13.4166 1.58398 13.667 1.58398 14.0836V17.4166C1.58399 17.9165 2.00015 18.3334 2.5 18.3336H17.584C18.0838 18.3334 18.5 17.9165 18.5 17.4166V14.0836C18.5 13.7503 18.7503 13.4166 19.167 13.4166ZM10.084 0.166626C10.4172 0.166789 10.75 0.417087 10.75 0.833618V13.9996L10.834 13.9166L13.334 11.3336C13.584 11.0836 14.084 11.0836 14.334 11.3336C14.5837 11.5837 14.5839 12.0837 14.334 12.3336L11.75 14.9166C11.3333 15.4165 10.6666 15.6666 10 15.6666C9.33347 15.6665 8.74992 15.4165 8.25 14.9166L5.66699 12.3336C5.41705 12.0837 5.41715 11.5837 5.66699 11.3336C5.91699 11.0836 6.41699 11.0836 6.66699 11.3336L9.41699 13.9166V0.833618C9.41699 0.500285 9.66732 0.166626 10.084 0.166626Z" fill="#200040"/>
</g>
<defs>
<clipPath id="clip0_11_542">
<rect width="20" height="20" fill="white"/>
</clipPath>
</defs>
</svg>
