<svg width="20" height="20" viewBox="0 0 20 20" fill="none" xmlns="http://www.w3.org/2000/svg">
<path d="M12.5004 10.5834C12.8335 10.5837 13.1664 10.917 13.1664 11.3334V17.9164L14.9164 16.1664C15.2497 15.9164 15.6664 15.9171 15.9164 16.2504C16.1663 16.5005 16.1663 17.0005 15.9164 17.2504L13.9164 19.2504C13.4998 19.5836 12.9996 19.8334 12.4164 19.8334C11.9166 19.8334 11.4169 19.6667 11.0004 19.2504L9.00037 17.2504C8.75037 17.0004 8.75037 16.5004 9.00037 16.2504C9.25037 16.0005 9.75037 16.0004 10.0004 16.2504L11.8334 17.8334V11.2504C11.8334 10.9171 12.0837 10.5834 12.5004 10.5834ZM6.08337 1.50043C7.25002 1.00044 8.6664 0.917115 9.91638 1.25043C13.4996 2.08373 14.5003 4.99969 14.7504 6.16644C17.1669 6.8332 19.7497 8.75062 19.9164 12.5004C19.9163 14.0002 19.5002 15.2502 18.7504 16.3334C18.5005 16.6666 18.0836 16.75 17.7504 16.5004C17.4171 16.2505 17.3336 15.8337 17.5834 15.5004C18.1666 14.6672 18.5003 13.6669 18.5004 12.5004C18.5004 8.58376 14.9164 7.66709 14.1664 7.50043C13.8333 7.4171 13.5838 7.08357 13.5004 6.75043C13.4886 6.70922 13.4743 6.65631 13.4584 6.59418C13.2489 5.77657 12.6092 3.28041 9.66638 2.58344C8.66642 2.33348 7.58332 2.41711 6.58337 2.75043C4.66676 3.50041 3.83371 4.83344 3.50037 5.83344C2.91706 7.50003 3.3334 9.16643 3.83337 10.1664C4.08329 10.4164 4.08362 10.8332 4.00037 11.1664C3.91705 11.4997 3.6666 11.7498 3.33337 11.9164C2.58337 12.2498 1.58337 13.0004 1.58337 14.7504C1.58347 15.5003 1.83316 16.1672 2.41638 16.7504C2.99972 17.3337 3.91677 17.6664 4.83337 17.6664H6.66638C7.08297 17.6664 7.33328 17.9999 7.33337 18.4164C7.33337 18.8331 7.08305 19.1664 6.66638 19.1664H4.83337C3.50004 19.1664 2.33305 18.6668 1.41638 17.8334C0.583178 17.0002 0.166482 15.9169 0.166382 14.7504C0.166382 12.2504 1.66671 11.0831 2.58337 10.6664C1.7501 9.16646 1.58306 7.1664 2.16638 5.41644C2.74975 3.58319 4.16676 2.16708 6.08337 1.50043Z" fill="#200040"/>
</svg>
