<svg width="20" height="20" viewBox="0 0 20 20" fill="none" xmlns="http://www.w3.org/2000/svg">
<path d="M14.1667 12.5004C14.1667 12.0401 14.5404 11.6664 15.0007 11.6664C15.4608 11.6666 15.8337 12.0402 15.8337 12.5004C15.8335 12.9603 15.4606 13.3332 15.0007 13.3334C14.5405 13.3334 14.1669 12.9605 14.1667 12.5004ZM14.1667 7.50037C14.1667 7.04013 14.5404 6.66638 15.0007 6.66638C15.4608 6.66657 15.8337 7.04024 15.8337 7.50037C15.8335 7.96034 15.4606 8.33319 15.0007 8.33337C14.5405 8.33337 14.1669 7.96045 14.1667 7.50037ZM9.16669 12.5004C9.16669 12.0401 9.54043 11.6664 10.0007 11.6664C10.4608 11.6666 10.8337 12.0402 10.8337 12.5004C10.8335 12.9603 10.4606 13.3332 10.0007 13.3334C9.54054 13.3334 9.16687 12.9605 9.16669 12.5004ZM9.16669 7.50037C9.16669 7.04013 9.54043 6.66638 10.0007 6.66638C10.4608 6.66657 10.8337 7.04024 10.8337 7.50037C10.8335 7.96034 10.4606 8.33319 10.0007 8.33337C9.54054 8.33337 9.16687 7.96045 9.16669 7.50037ZM4.16669 12.5004C4.16669 12.0401 4.54043 11.6664 5.00067 11.6664C5.46075 11.6666 5.83368 12.0402 5.83368 12.5004C5.8335 12.9603 5.46064 13.3332 5.00067 13.3334C4.54054 13.3334 4.16687 12.9605 4.16669 12.5004ZM4.16669 7.50037C4.16669 7.04013 4.54043 6.66638 5.00067 6.66638C5.46075 6.66657 5.83368 7.04024 5.83368 7.50037C5.8335 7.96034 5.46064 8.33319 5.00067 8.33337C4.54054 8.33337 4.16687 7.96045 4.16669 7.50037Z" fill="#200040"/>
</svg>
