<svg width="20" height="20" viewBox="0 0 20 20" fill="none" xmlns="http://www.w3.org/2000/svg">
<path d="M7.50066 14.1667C7.96065 14.1669 8.33351 14.5397 8.33366 14.9997C8.33366 15.4598 7.96074 15.8335 7.50066 15.8337C7.04042 15.8337 6.66667 15.4599 6.66667 14.9997C6.66682 14.5396 7.04051 14.1667 7.50066 14.1667ZM12.5007 14.1667C12.9606 14.1669 13.3335 14.5397 13.3337 14.9997C13.3337 15.4598 12.9607 15.8335 12.5007 15.8337C12.0404 15.8337 11.6667 15.4599 11.6667 14.9997C11.6668 14.5396 12.0405 14.1667 12.5007 14.1667ZM7.50066 9.16667C7.96065 9.16685 8.33351 9.53968 8.33366 9.99968C8.33366 10.4598 7.96074 10.8335 7.50066 10.8337C7.04042 10.8337 6.66667 10.4599 6.66667 9.99968C6.66682 9.53957 7.04051 9.16667 7.50066 9.16667ZM12.5007 9.16667C12.9606 9.16685 13.3335 9.53968 13.3337 9.99968C13.3337 10.4598 12.9607 10.8335 12.5007 10.8337C12.0404 10.8337 11.6667 10.4599 11.6667 9.99968C11.6668 9.53957 12.0405 9.16667 12.5007 9.16667ZM7.50066 4.16667C7.96065 4.16685 8.33351 4.53968 8.33366 4.99968C8.33366 5.45981 7.96074 5.83349 7.50066 5.83366C7.04042 5.83366 6.66667 5.45992 6.66667 4.99968C6.66682 4.53957 7.04051 4.16667 7.50066 4.16667ZM12.5007 4.16667C12.9606 4.16685 13.3335 4.53968 13.3337 4.99968C13.3337 5.45981 12.9607 5.83349 12.5007 5.83366C12.0404 5.83366 11.6667 5.45992 11.6667 4.99968C11.6668 4.53957 12.0405 4.16667 12.5007 4.16667Z" fill="#200040"/>
</svg>
