<svg width="20" height="20" viewBox="0 0 20 20" fill="none" xmlns="http://www.w3.org/2000/svg">
<g clip-path="url(#clip0_773_72)">
<path d="M4.08317 5.24996H15.8332C16.2498 5.24996 16.4998 4.91663 16.4998 4.58329C16.4998 4.24996 16.1665 3.91663 15.8332 3.91663H4.08317C3.74984 3.83329 3.4165 4.16663 3.4165 4.58329C3.4165 4.99996 3.74984 5.24996 4.08317 5.24996Z" fill="#200040"/>
<path d="M16.5832 7.91663C16.5832 7.49996 16.2498 7.24996 15.9165 7.24996H4.08317C3.74984 7.16663 3.4165 7.49996 3.4165 7.91663C3.4165 8.33329 3.74984 8.58329 4.08317 8.58329H15.8332C16.2498 8.58329 16.5832 8.24996 16.5832 7.91663Z" fill="#200040"/>
<path fill-rule="evenodd" clip-rule="evenodd" d="M4.1665 0.166626H15.8332C18.0832 0.166626 19.8332 1.91663 19.8332 4.16663V13.9166C19.8332 16.0833 16.1665 19.8333 13.9165 19.8333H4.1665C1.99984 19.8333 0.166504 18.0833 0.166504 15.8333V4.16663C0.166504 1.91663 1.9165 0.166626 4.1665 0.166626ZM1.58317 4.16663V15.8333C1.58317 17.25 2.74984 18.4166 4.1665 18.4166H12.5832V15C12.5832 13.6666 13.6665 12.5833 14.9998 12.5833H18.4165V4.16663C18.4165 2.74996 17.2498 1.58329 15.8332 1.58329H4.1665C2.74984 1.58329 1.58317 2.74996 1.58317 4.16663ZM14.0832 15V18.4166C15.4998 18.3333 18.3332 15.5 18.4998 14H15.0832C14.4998 14 14.0832 14.5 14.0832 15Z" fill="#200040"/>
</g>
<defs>
<clipPath id="clip0_773_72">
<rect width="20" height="20" fill="white"/>
</clipPath>
</defs>
</svg>
