<svg width="20" height="20" viewBox="0 0 20 20" fill="none" xmlns="http://www.w3.org/2000/svg">
<path d="M15.833 1.83325C18.083 1.83325 19.833 3.58325 19.833 5.83325V14.1663C19.833 16.3329 18.083 18.1663 15.833 18.1663H4.16602C1.99956 18.166 0.166016 16.4161 0.166016 14.1663V5.83325C0.166016 3.58341 1.91625 1.8335 4.16602 1.83325H15.833ZM6.16602 12.2502C4.91636 12.2507 4.16607 13.8335 4.16602 16.6663V16.7502H8.16602V16.6663C8.16596 13.9165 7.41597 12.2502 6.16602 12.2502ZM4.16602 3.25024C2.74957 3.25051 1.58301 4.41675 1.58301 5.83325V14.0833C1.58301 15.0832 2.08307 15.8333 2.83301 16.3333C2.91634 11.4166 5.25 10.8333 6.25 10.8333C7.00021 10.8333 9.66689 11.2503 9.66699 16.6663V16.7502H15.833C17.2497 16.7502 18.416 15.5829 18.416 14.1663V5.83325C18.416 4.41659 17.2497 3.25024 15.833 3.25024H4.16602ZM16.166 12.5002C16.5825 12.5002 16.8328 12.833 16.833 13.1663C16.833 13.4996 16.5827 13.8333 16.166 13.8333H11.75C11.4167 13.8333 11.083 13.4996 11.083 13.1663C11.0832 12.833 11.3335 12.5002 11.75 12.5002H16.166ZM16.166 9.25024C16.5825 9.25024 16.8328 9.58303 16.833 9.91626C16.833 10.2496 16.5827 10.5833 16.166 10.5833H11.75C11.4167 10.5833 11.083 10.2496 11.083 9.91626C11.0832 9.58303 11.3335 9.25024 11.75 9.25024H16.166ZM6.25 5.25024C7.58327 5.25033 8.75 6.33364 8.75 7.75024C8.74983 9.1667 7.66648 10.2502 6.25 10.2502C4.83344 10.2502 3.75017 9.16675 3.75 7.75024C3.75 6.33358 4.91667 5.25024 6.25 5.25024ZM6.25 6.66626C5.66678 6.66626 5.16718 7.0831 5.16699 7.66626C5.16699 8.24959 5.66667 8.75024 6.25 8.75024C6.83316 8.75017 7.33282 8.33335 7.33301 7.75024C7.33301 7.16697 6.83326 6.66635 6.25 6.66626ZM16.166 6.08325C16.5827 6.08325 16.833 6.49992 16.833 6.83325C16.833 7.16659 16.5827 7.50024 16.166 7.50024H11.75C11.4168 7.50024 11.0832 7.08352 11.083 6.75024C11.083 6.41691 11.3333 6.08325 11.75 6.08325H16.166Z" fill="#200040"/>
</svg>
