<svg width="20" height="20" viewBox="0 0 20 20" fill="none" xmlns="http://www.w3.org/2000/svg">
<g clip-path="url(#clip0_11_731)">
<path d="M14.8333 1.08374C15.9166 -0.0829263 17.7497 -0.0829263 18.9163 1.08374C20.0829 2.16709 20.0829 4.00012 18.9163 5.16675L5.50031 18.8337C4.75031 19.5837 3.74965 19.9998 2.66632 19.9998H1.50031C1.1671 19.9998 0.833281 19.8336 0.583313 19.5837C0.333339 19.3338 0.166355 19 0.166321 18.6667V17.4998C0.166373 16.3333 0.58345 15.3337 1.33331 14.5837L14.8333 1.08374ZM2.41632 15.4998C1.83299 15.9998 1.58331 16.6667 1.58331 17.4167V18.4167H2.58331C3.24987 18.4167 3.91637 18.1666 4.41632 17.6667L14.7503 7.24976L12.6663 5.16675L2.41632 15.4998ZM16.9163 1.66675C16.4997 1.6668 16.0833 1.83378 15.8333 2.08374L13.6663 4.16675L15.8333 6.33374L17.9163 4.16675C18.4995 3.58357 18.4999 2.6671 18.0003 2.08374C17.667 1.83374 17.333 1.66675 16.9163 1.66675Z" fill="#200040"/>
</g>
<defs>
<clipPath id="clip0_11_731">
<rect width="20" height="20" fill="white"/>
</clipPath>
</defs>
</svg>
