<svg width="20" height="20" viewBox="0 0 20 20" fill="none" xmlns="http://www.w3.org/2000/svg">
<g clip-path="url(#clip0_11_727)">
<path d="M8.0835 0.166687C9.50004 0.166777 10.8336 0.749772 11.8335 1.74969L15.9995 5.91669C16.4161 6.33332 16.5834 6.91672 16.3335 7.41669C16.1669 7.91659 15.6667 8.24957 15.0835 8.24969H10.7495C9.49976 8.16621 8.41668 7.16673 8.4165 5.83368V1.58368H4.1665C2.74984 1.58368 1.5835 2.75002 1.5835 4.16669V15.8337C1.58368 17.2502 2.74995 18.4167 4.1665 18.4167H6.6665C7.08317 18.4167 7.3335 18.8334 7.3335 19.1667C7.3335 19.5 7.08317 19.8337 6.6665 19.8337H4.1665C1.99994 19.8337 0.166682 18.0835 0.166504 15.8337V4.16669C0.166504 1.91669 1.9165 0.166687 4.1665 0.166687H8.0835ZM15.8335 9.99969C16.7501 9.08341 18.2499 9.0833 19.1665 9.99969C19.6665 10.4164 19.9168 11 19.8335 11.6667C19.8335 12.25 19.5832 12.917 19.1665 13.3337L13.4165 18.9997C12.9165 19.4997 12.1665 19.8337 11.4165 19.8337H10.1665C9.99995 19.8337 9.75016 19.7501 9.5835 19.5837C9.41683 19.417 9.3335 19.2497 9.3335 18.9997V17.7497C9.33357 16.9998 9.58326 16.2499 10.1665 15.6667L15.8335 9.99969ZM17.4995 10.6667C17.2497 10.6668 17.0001 10.7502 16.8335 10.9167L11.1665 16.5837C10.9166 16.9169 10.7495 17.2501 10.7495 17.6667V18.4167H11.4995C11.8328 18.4167 12.2495 18.2497 12.4995 17.9997L18.1665 12.3337C18.3331 12.1671 18.4997 11.9169 18.4165 11.5837C18.4165 11.3337 18.3332 11.0834 18.1665 10.9167C17.9998 10.75 17.7495 10.6667 17.4995 10.6667ZM9.9165 5.83368C9.91669 6.33357 10.3336 6.83368 10.8335 6.83368H15.0835L10.9165 2.74969C10.5832 2.41644 10.2498 2.16633 9.9165 1.99969V5.83368Z" fill="#200040"/>
</g>
<defs>
<clipPath id="clip0_11_727">
<rect width="20" height="20" fill="white"/>
</clipPath>
</defs>
</svg>
