<svg width="20" height="20" viewBox="0 0 20 20" fill="none" xmlns="http://www.w3.org/2000/svg">
<g clip-path="url(#clip0_11_729)">
<path d="M10.0005 0.083374C15.417 0.0835547 19.9165 4.58381 19.9165 10.0004C19.9163 15.4168 15.4169 19.9162 10.0005 19.9164C4.58393 19.9164 0.0836767 15.4169 0.0834961 10.0004C0.0834961 4.5837 4.58382 0.083374 10.0005 0.083374ZM10.0005 1.50037C5.33382 1.50037 1.50049 5.3337 1.50049 10.0004C1.50067 14.6669 5.33393 18.5004 10.0005 18.5004C14.6669 18.5002 18.5003 14.6668 18.5005 10.0004C18.5005 5.33381 14.667 1.50054 10.0005 1.50037ZM11.0835 5.58337C12.0001 4.66676 13.4998 4.66687 14.4165 5.58337C15.3332 6.50004 15.3332 7.99972 14.4165 8.91638L9.50049 13.8334C8.83389 14.5 7.91706 14.917 7.00049 15.0004L5.8335 15.0834H5.75049C5.58382 15.0834 5.33317 15 5.1665 14.8334C4.99995 14.6667 4.9165 14.4163 4.9165 14.1664L5.00049 13.0004C5.08381 12.0838 5.50003 11.167 6.1665 10.5004L11.0835 5.58337ZM7.25049 11.5004C6.83392 12.0003 6.58387 12.5832 6.50049 13.1664L6.4165 13.6664L6.9165 13.5834C7.49984 13.5 8.08382 13.25 8.50049 12.8334L11.5005 9.91638L10.1665 8.58337L7.25049 11.5004ZM12.6665 6.33337C12.4167 6.33345 12.1671 6.41689 12.0005 6.58337L11.0835 7.50037L12.5005 8.91638L13.4165 7.91638C13.5831 7.74979 13.5835 7.50026 13.5835 7.25037C13.5835 7.00037 13.5002 6.75004 13.3335 6.58337C13.1668 6.41671 12.9165 6.33337 12.6665 6.33337Z" fill="#200040"/>
</g>
<defs>
<clipPath id="clip0_11_729">
<rect width="20" height="20" fill="white"/>
</clipPath>
</defs>
</svg>
