<svg width="20" height="20" viewBox="0 0 20 20" fill="none" xmlns="http://www.w3.org/2000/svg">
<path d="M9.16666 4.24966C9.58303 4.24987 9.83255 4.66646 9.83267 4.99966C9.83267 5.33291 9.58313 5.66649 9.16666 5.66666H4.16666C3.58332 5.66666 3.16666 6.08332 3.16666 6.66666V15.7497C3.16666 16.333 3.58332 16.7497 4.16666 16.7497H13.3327C13.916 16.7497 14.3327 16.333 14.3327 15.7497V10.7497C14.3328 10.4164 14.5831 10.0837 14.9997 10.0836C15.4163 10.0836 15.7493 10.417 15.8327 10.8336V15.8336C15.8325 17.1667 14.7497 18.2495 13.4167 18.2497H4.24966C2.91647 18.2497 1.83289 17.1668 1.83267 15.8336V6.66666C1.83267 5.33332 2.83332 4.24966 4.16666 4.24966H9.16666ZM15.9167 1.83365C16.583 1.83373 17.1661 2.08324 17.5827 2.49966C17.9993 2.91633 18.25 3.49999 18.1667 4.16666V7.58365C18.1665 7.91685 17.9162 8.24966 17.4997 8.24966C17.1664 8.16631 16.8327 7.9163 16.8327 7.49966V4.16666L8.83267 12.1667C8.6661 12.2499 8.49924 12.3336 8.33267 12.3336C8.16612 12.3336 7.99923 12.3332 7.83267 12.1667C7.58287 11.9167 7.58292 11.4167 7.83267 11.1667L15.8327 3.16666H12.4997C12.1663 3.16665 11.8327 2.91633 11.8327 2.49966C11.8328 2.16642 12.0831 1.83365 12.4997 1.83365H15.9167Z" fill="#200040"/>
</svg>
