<svg width="20" height="20" viewBox="0 0 20 20" fill="none" xmlns="http://www.w3.org/2000/svg">
<path d="M10 2.33337C14.9167 2.33337 19.917 6.75037 19.917 10.0004C19.9167 13.167 14.9165 17.6664 10 17.6664C5.08355 17.6663 0.0833413 13.2503 0.0830078 10.0004C0.0830078 7.08373 4.75007 2.33347 10 2.33337ZM10 3.75037C5.41674 3.75046 1.5 7.91706 1.5 10.0004C1.50043 12.0005 5.50031 16.2503 10 16.2504C14.4164 16.2504 18.4996 12.0005 18.5 10.0004C18.5 7.91703 14.5833 3.75037 10 3.75037ZM10 5.91638C12.25 5.91638 14.084 7.75037 14.084 10.0004C14.0838 12.2502 12.2499 14.0834 10 14.0834C7.75018 14.0833 5.91717 12.2502 5.91699 10.0004C5.91699 7.75042 7.75007 5.91647 10 5.91638ZM10 7.33337C8.50008 7.33346 7.33398 8.50042 7.33398 10.0004C7.33417 11.5002 8.5835 12.6663 10 12.6664C11.4166 12.6664 12.6668 11.5002 12.667 10.0004C12.667 8.50037 11.5 7.33337 10 7.33337Z" fill="#200040"/>
</svg>
