<svg width="20" height="20" viewBox="0 0 20 20" fill="none" xmlns="http://www.w3.org/2000/svg">
<path d="M8.58383 8.74963C12.0003 8.74981 14.0005 11.5003 14.3338 12.0836C14.5835 12.3336 14.5832 12.7497 14.4168 12.9996C14.0835 13.583 12.1668 16.4166 8.66684 16.4166C5.0835 16.4166 3.16716 13.583 2.83383 12.9996C2.66726 12.7496 2.6672 12.3336 2.83383 12.0836C3.16716 11.5836 5.25049 8.74963 8.58383 8.74963ZM8.58383 10.1666C6.25049 10.1666 4.75017 11.8336 4.16684 12.5836C4.75025 13.3337 6.25064 14.9996 8.58383 14.9996C11.0001 14.9995 12.4168 13.3337 12.9168 12.5836C12.3335 11.8337 10.8336 10.1668 8.58383 10.1666ZM8.58383 10.7496C9.58352 10.7498 10.3336 11.5 10.3338 12.4996C10.3338 13.4995 9.58366 14.2495 8.58383 14.2496C7.58383 14.2496 6.83383 13.4996 6.83383 12.4996C6.83404 11.4998 7.58397 10.7496 8.58383 10.7496ZM8.58383 12.2496C8.41716 12.2496 8.24984 12.417 8.24984 12.5836V12.7496L8.33383 12.8336C8.41707 12.9167 8.50059 12.9166 8.58383 12.9166C8.71096 12.9165 8.78914 12.819 8.85629 12.736C8.87704 12.7103 8.89718 12.6863 8.91684 12.6666V12.5836C8.91684 12.4171 8.75038 12.2499 8.58383 12.2496ZM16.1668 3.74963C16.4168 3.58311 16.6669 3.58332 16.9168 3.66663C17.1668 3.83329 17.3335 4.08362 17.1668 4.33362V10.4996C17.1668 10.833 16.9998 11.0833 16.7498 11.1666C16.6665 11.2498 16.5001 11.2496 16.4168 11.2496C16.2502 11.2496 16.0832 11.167 15.9998 11.0836L12.9168 8.83362C12.9167 9.16688 12.6664 9.49963 12.2498 9.49963C11.9166 9.49942 11.5838 9.16617 11.5838 8.74963V5.91663C11.5838 5.74999 11.5002 5.58295 11.4168 5.49963C11.3334 5.41637 11.1664 5.33362 10.9998 5.33362H6.08383C5.66734 5.33362 5.41705 5.66644 5.41684 5.99963V8.83362C5.41672 9.16688 5.16642 9.49963 4.74984 9.49963C4.41662 9.49942 4.08383 9.16617 4.08383 8.74963V5.91663C4.08388 4.75001 5.0002 3.8333 6.16684 3.91663H11.0838C11.5836 3.9167 12.0833 4.08333 12.4998 4.49963C12.8332 4.83295 13.0838 5.33333 13.0838 5.91663V5.99963L16.1668 3.74963ZM13.6668 7.33362L15.9168 8.99963V5.66663L13.6668 7.33362Z" fill="#200040"/>
</svg>
