<svg width="20" height="20" viewBox="0 0 20 20" fill="none" xmlns="http://www.w3.org/2000/svg">
<g clip-path="url(#clip0_11_726)">
<path d="M18.667 0.33313C18.917 0.0833067 19.417 0.0831973 19.667 0.33313C19.9169 0.583072 19.9168 1.08307 19.667 1.33313L16.334 4.66711C18.417 6.25038 19.917 8.25059 19.917 9.91711C19.9165 13.0838 14.9164 17.5831 10 17.5831C8.16684 17.5831 6.4172 16.9997 4.83398 16.0831L1.33398 19.5831C1.16732 19.6665 0.999674 19.7501 0.833008 19.7501C0.666555 19.7501 0.500437 19.7495 0.333984 19.5831C0.0839844 19.3331 0.0839844 18.8331 0.333984 18.5831L3.58398 15.3331C1.50071 13.8332 0.0830849 11.7501 0.0830078 10.0001C0.0830078 7.08349 4.75007 2.33323 10 2.33313C11.75 2.33313 13.5837 2.91646 15.167 3.83313L18.667 0.33313ZM13.333 7.66711C13.833 8.33377 14.083 9.16682 14.083 10.0001C14.0829 12.2501 12.25 14.0831 10 14.0831C9.08342 14.0831 8.33361 13.7498 7.66699 13.3331L5.91699 15.0831C7.16693 15.7498 8.58341 16.2501 10 16.2501C14.4163 16.2501 18.4994 12.0006 18.5 9.91711C18.5 8.75045 17.2503 6.99979 15.417 5.58313L13.333 7.66711ZM10 3.75012C5.41674 3.75022 1.5 7.91681 1.5 10.0001C1.50012 11.0835 2.83374 12.9165 4.66699 14.3331L6.66699 12.3331C6.16704 11.6665 5.91702 10.8334 5.91699 10.0001C5.91699 7.75018 7.75007 5.9172 10 5.91711C10.8333 5.91711 11.6673 6.25045 12.334 6.66711L14.167 4.91711C12.917 4.16711 11.5 3.75012 10 3.75012ZM8.75 12.3331C9.0833 12.4998 9.50007 12.6671 10 12.6671C11.4999 12.6671 12.6669 11.4167 12.667 10.0001C12.667 9.50028 12.5006 9.0834 12.334 8.75012L8.75 12.3331ZM10 7.33313C8.50008 7.33322 7.33301 8.58351 7.33301 10.0001C7.33304 10.5001 7.50002 10.9168 7.75 11.2501L11.334 7.66711C10.9173 7.50045 10.5 7.33313 10 7.33313Z" fill="#200040"/>
</g>
<defs>
<clipPath id="clip0_11_726">
<rect width="20" height="20" fill="white"/>
</clipPath>
</defs>
</svg>
