<svg width="20" height="20" viewBox="0 0 20 20" fill="none" xmlns="http://www.w3.org/2000/svg">
<path d="M16.6663 1.16663C17.0829 1.16663 17.4163 1.41695 17.4163 1.83362V18.4166C17.4163 18.75 17.0829 19.0836 16.6663 19.0836C16.2497 19.0835 15.9163 18.8332 15.9163 18.4166V1.83362C15.9163 1.50037 16.2497 1.1668 16.6663 1.16663ZM2.66626 4.99963C2.99945 4.74974 3.41622 4.74996 3.66626 4.99963L7.50024 8.83362C7.83327 9.16681 8.00016 9.58321 8.00024 9.99963C8.00024 10.4163 7.83358 10.7503 7.50024 11.0836L3.58325 14.9996C3.41659 15.083 3.24992 15.1666 3.08325 15.1666C2.91659 15.1666 2.74992 15.1666 2.58325 14.9166C2.33325 14.6666 2.33325 14.1666 2.58325 13.9166L6.50024 9.99963C6.58309 9.99942 6.58325 9.91695 6.58325 9.91663L2.66626 5.99963C2.41659 5.74953 2.41637 5.24953 2.66626 4.99963ZM8.58325 4.99963C8.83325 4.74985 9.33325 4.74985 9.58325 4.99963L13.4163 8.91663C13.7495 9.16656 13.9162 9.58308 13.9163 9.99963C13.9163 10.4163 13.7496 10.7503 13.4163 11.0836L9.50024 14.9996C9.33369 15.0829 9.1668 15.1665 9.00024 15.1666C8.8336 15.1666 8.58361 15.1665 8.50024 14.9166C8.25024 14.6666 8.25024 14.1666 8.50024 13.9166L12.4163 9.99963C12.4995 9.99963 12.5002 9.9169 12.5002 9.91663L8.58325 5.99963C8.33342 5.74958 8.33331 5.24958 8.58325 4.99963Z" fill="#200040"/>
</svg>
