<svg width="20" height="20" viewBox="0 0 20 20" fill="none" xmlns="http://www.w3.org/2000/svg">
<path d="M14.1663 1.58337C14.5829 1.58337 14.9163 1.91671 14.9163 2.33337V17.6664C14.9163 18.083 14.5829 18.4164 14.1663 18.4164C13.7499 18.4162 13.4165 18.0835 13.4163 17.7504V2.33337C13.4163 1.91682 13.7497 1.58355 14.1663 1.58337ZM5.41626 4.25037C5.66626 4.00037 6.16626 4.00037 6.41626 4.25037L11.0002 8.83337C11.3335 9.16668 11.5002 9.58377 11.5002 10.0004C11.5002 10.4168 11.3333 10.8332 11.0002 11.1664L6.33325 15.8334C6.16659 16 5.99992 16.0834 5.83325 16.0834C5.66659 16.0834 5.49992 15.9997 5.33325 15.9164C5.08341 15.6663 5.08331 15.1663 5.33325 14.9164L10.0833 10.1664C10.1634 10.0862 10.1662 10.0061 10.1663 10.0004C10.1663 10.0004 10.1666 9.91671 10.0833 9.83337L5.41626 5.25037C5.16637 5.00047 5.16659 4.50047 5.41626 4.25037Z" fill="#200040"/>
</svg>
