<svg width="20" height="20" viewBox="0 0 20 20" fill="none" xmlns="http://www.w3.org/2000/svg">
<path d="M5.83368 1.58337C6.25015 1.5836 6.58368 1.91685 6.58368 2.33337V17.6664C6.50037 18.0829 6.25009 18.4162 5.83368 18.4164C5.41701 18.4164 5.08368 18.083 5.08368 17.6664V2.33337C5.08368 1.91671 5.41701 1.58337 5.83368 1.58337ZM13.4997 4.25037C13.7497 4.00037 14.2497 4.00037 14.4997 4.25037C14.7496 4.50038 14.7497 5.00038 14.4997 5.25037L9.99969 9.83337C9.91647 9.91667 9.91669 10.0004 9.91669 10.0004C9.91679 10.0061 9.91967 10.0862 9.99969 10.1664L14.7497 14.9164C14.9997 15.1664 14.9996 15.6664 14.7497 15.9164C14.5831 15.9997 14.3333 16.0833 14.1667 16.0834C14 16.0834 13.8334 15.9997 13.6667 15.9164L8.91669 11.1664C8.58352 10.8332 8.41677 10.4169 8.41669 10.0004C8.41669 9.5837 8.58335 9.16671 8.91669 8.83337L13.4997 4.25037Z" fill="#200040"/>
</svg>
