<svg width="20" height="20" viewBox="0 0 20 20" fill="none" xmlns="http://www.w3.org/2000/svg">
<g clip-path="url(#clip0_11_722)">
<path d="M16.0834 0.083313C17.3333 0.0834056 18.3335 0.750055 18.8334 1.83331C19.3334 3.08328 19.1667 4.33366 18.3334 5.25031L12.3334 11.9163V19.0833C12.3334 19.3333 12.1664 19.5836 11.9164 19.7503C11.916 19.8333 11.7497 19.8333 11.6664 19.8333C11.4998 19.8333 11.3328 19.7496 11.2494 19.6663L7.91644 17.2503C7.74977 17.0836 7.66644 16.9163 7.66644 16.6663V11.9163L1.66644 5.25031C0.833177 4.33372 0.666601 3.08357 1.16644 2.00031C1.66643 0.916993 2.74979 0.16635 3.91644 0.166321L16.0834 0.083313ZM3.91644 1.58331C3.2498 1.58334 2.74943 2 2.49944 2.58331C2.16628 3.16653 2.33294 3.83338 2.74944 4.33331L8.83343 11.1663C8.91671 11.3329 8.99933 11.4998 8.99944 11.6663V16.3333L10.9164 17.7503V11.6663C10.9165 11.4998 11.0001 11.3329 11.0834 11.1663L17.2494 4.25031C17.6661 3.75034 17.7494 3.08361 17.4994 2.50031C17.2494 1.91697 16.6661 1.58331 15.9994 1.58331H3.91644Z" fill="#200040"/>
</g>
<defs>
<clipPath id="clip0_11_722">
<rect width="20" height="20" fill="white"/>
</clipPath>
</defs>
</svg>
