<svg width="20" height="20" viewBox="0 0 20 20" fill="none" xmlns="http://www.w3.org/2000/svg">
<g clip-path="url(#clip0_1210_47)">
<path d="M9.9165 0.083374C11.8332 0.083374 19.1668 5.50037 19.0835 10.7504C19.0833 15.1669 15.4164 19.9164 9.9165 19.9164C7.33323 19.9163 5.00013 18.9163 3.3335 17.1664C1.58354 15.3331 0.666832 12.8333 0.833496 10.0834C1.00015 8.16687 1.9999 6.50039 2.9165 5.50037C3.24973 5.16714 3.74967 5.00047 4.24951 5.00037C4.7495 5.00037 5.16618 5.33371 5.49951 5.75037L6.0835 6.75037C8.00001 0.084241 9.3331 0.0833741 9.9165 0.083374ZM9.99951 9.83337C9.49984 9.83353 9.16641 10.0832 8.9165 10.4164L8.6665 10.8334C7.74985 12.25 6.74951 13.6667 6.74951 14.8334C6.74951 16.9165 8.0831 18.4161 9.99951 18.4164C11.9162 18.4164 13.2495 16.9997 13.2495 14.9164C13.2493 13.7498 12.3331 12.2496 11.4165 10.9164L11.0835 10.4164C10.8335 9.99983 10.4161 9.83337 9.99951 9.83337ZM9.9165 1.58337C9.58306 1.66703 8.666 3.00041 7.49951 7.16638C7.33287 7.66632 6.91671 8.08297 6.3335 8.16638C5.75023 8.24971 5.24984 8.00026 4.9165 7.50037L4.24951 6.50037C4.24951 6.41703 4.1665 6.41638 4.1665 6.41638L4.0835 6.50037C3.41688 7.33365 2.49994 8.66658 2.4165 10.1664C2.24985 12.4995 2.99978 14.6664 4.49951 16.1664C4.91615 16.6663 5.41654 17.0001 5.9165 17.3334C5.49987 16.6667 5.3335 15.833 5.3335 14.9164C5.33364 13.3332 6.4163 11.6665 7.49951 10.0834L7.74951 9.66638C8.24943 8.91652 9.08303 8.50051 9.99951 8.50037C10.916 8.50037 11.7495 8.91666 12.2495 9.66638L12.5835 10.1664C13.5834 11.7496 14.6664 13.3332 14.6665 14.9164C14.6665 15.7497 14.4998 16.5837 14.1665 17.2504C16.4165 15.7504 17.7495 13.1667 17.7495 10.8334C17.7495 6.41671 11.2498 1.58337 9.9165 1.58337Z" fill="#200040"/>
</g>
<defs>
<clipPath id="clip0_1210_47">
<rect width="20" height="20" fill="white"/>
</clipPath>
</defs>
</svg>
