<svg width="20" height="20" viewBox="0 0 20 20" fill="none" xmlns="http://www.w3.org/2000/svg">
<g clip-path="url(#clip0_11_539)">
<path d="M18.334 0.166748C18.9171 0.166872 19.4999 0.500066 19.75 0.999756C20 1.49976 19.9173 2.08374 19.584 2.58374L16.834 6.24976L19.584 9.99976C20.0007 10.4164 20 11.0837 19.75 11.5837C19.4167 12.0834 18.917 12.4166 18.334 12.4167H1.5V19.1667C1.5 19.5 1.16721 19.8335 0.833984 19.8337C0.500652 19.8337 0.166993 19.5834 0.166992 19.1667V4.16675C0.166992 1.91675 1.91699 0.166748 4.16699 0.166748H18.334ZM4.16699 1.58374C2.75033 1.58374 1.58398 2.75008 1.58398 4.16675V10.9167H18.334C18.3396 10.9169 18.4168 10.9198 18.417 10.9998V10.8337L15.584 6.99976C15.334 6.58311 15.2507 6.08338 15.584 5.66675L18.417 1.83374V1.66675C18.417 1.58352 18.417 1.58374 18.334 1.58374H4.16699Z" fill="#200040"/>
</g>
<defs>
<clipPath id="clip0_11_539">
<rect width="20" height="20" fill="white"/>
</clipPath>
</defs>
</svg>
