<svg width="20" height="20" viewBox="0 0 20 20" fill="none" xmlns="http://www.w3.org/2000/svg">
<path d="M10.4163 3.50024C10.6662 3.33364 10.9164 3.41671 11.1663 3.58325L17.5003 8.50024C17.9167 8.8335 18.2502 9.33324 18.2503 9.91626C18.2503 10.4996 18 10.9999 17.5833 11.3333L11.2503 16.3333C11.0006 16.4997 10.8337 16.583 10.7503 16.5833C10.667 16.5833 10.4997 16.5836 10.4163 16.5002C10.1664 16.3336 10.0003 16.0832 10.0003 15.8333V9.91626C10.0003 10.4996 9.74997 10.9999 9.33331 11.3333L3.00031 16.3333C2.83374 16.4998 2.66687 16.5831 2.50031 16.5833C2.41697 16.5833 2.24965 16.5836 2.16632 16.5002C1.91645 16.4168 1.75031 16.1665 1.75031 15.8333V4.16626C1.75048 3.91651 1.91665 3.66682 2.16632 3.50024C2.41623 3.41694 2.66641 3.41677 2.91632 3.58325L9.25031 8.50024C9.66673 8.8335 10.0002 9.33324 10.0003 9.91626V4.16626C10.0005 3.91651 10.1667 3.66682 10.4163 3.50024ZM3.16632 14.3333L8.41632 10.2502C8.58299 10.1669 8.58331 9.99959 8.58331 9.91626C8.58331 9.8328 8.58272 9.66645 8.41632 9.58325L3.16632 5.58325V14.3333ZM11.4163 14.3333L16.6663 10.2502C16.833 10.1669 16.8333 9.99959 16.8333 9.91626C16.8333 9.8328 16.8327 9.66645 16.6663 9.58325L11.4163 5.58325V14.3333Z" fill="#200040"/>
</svg>
