<svg width="20" height="20" viewBox="0 0 20 20" fill="none" xmlns="http://www.w3.org/2000/svg">
<g clip-path="url(#clip0_18_1019)">
<path fill-rule="evenodd" clip-rule="evenodd" d="M9.99998 2.49998C5.85784 2.49998 2.49998 5.85784 2.49998 9.99998C2.49998 14.1421 5.85784 17.5 9.99998 17.5C14.1421 17.5 17.5 14.1421 17.5 9.99998C17.5 5.85784 14.1421 2.49998 9.99998 2.49998ZM0.833313 9.99998C0.833313 4.93737 4.93737 0.833313 9.99998 0.833313C15.0626 0.833313 19.1666 4.93737 19.1666 9.99998C19.1666 15.0626 15.0626 19.1666 9.99998 19.1666C4.93737 19.1666 0.833313 15.0626 0.833313 9.99998ZM6.66665 7.49998C6.66665 7.03974 7.03974 6.66665 7.49998 6.66665H7.50831C7.96855 6.66665 8.34165 7.03974 8.34165 7.49998C8.34165 7.96022 7.96855 8.33331 7.50831 8.33331H7.49998C7.03974 8.33331 6.66665 7.96022 6.66665 7.49998ZM11.6666 7.49998C11.6666 7.03974 12.0397 6.66665 12.5 6.66665H12.5083C12.9685 6.66665 13.3416 7.03974 13.3416 7.49998C13.3416 7.96022 12.9685 8.33331 12.5083 8.33331H12.5C12.0397 8.33331 11.6666 7.96022 11.6666 7.49998Z" fill="#200040"/>
<path d="M9.99998 10.8333C8.7287 10.8333 7.72687 11.3424 7.06192 11.826C6.72784 12.069 6.46958 12.3119 6.29285 12.4963C6.20414 12.5889 6.04885 12.7751 5.99998 12.8333C5.72384 13.2015 5.79846 13.7238 6.16665 14C6.53368 14.2753 7.05424 14.2015 7.33105 13.8363C7.35868 13.8034 7.43514 13.7132 7.49617 13.6495C7.61892 13.5214 7.80337 13.3476 8.0422 13.1739C8.52309 12.8242 9.18792 12.5 9.99998 12.5C10.812 12.5 11.4769 12.8242 11.9578 13.1739C12.1966 13.3476 12.381 13.5214 12.5038 13.6495C12.5648 13.7132 12.6416 13.8039 12.6693 13.8368C12.9461 14.202 13.4663 14.2753 13.8333 14C14.2015 13.7238 14.2761 13.2015 14 12.8333C13.9511 12.7751 13.7958 12.5889 13.7071 12.4963C13.5304 12.3119 13.2721 12.069 12.938 11.826C12.2731 11.3424 11.2713 10.8333 9.99998 10.8333Z" fill="#200040"/>
</g>
<defs>
<clipPath id="clip0_18_1019">
<rect width="20" height="20" fill="white"/>
</clipPath>
</defs>
</svg>
