<svg width="20" height="20" viewBox="0 0 20 20" fill="none" xmlns="http://www.w3.org/2000/svg">
<g clip-path="url(#clip0_18_1018)">
<path d="M12.9165 0.166687C13.9998 0.166687 14.9165 0.750099 15.4165 1.66669C15.9165 2.50002 15.8338 3.50035 15.2505 4.33368H16.6665C18.4164 4.33368 19.9169 5.74986 19.7505 7.49969V9.16669C19.7505 9.99991 19.0837 10.6665 18.2505 10.6667H18.0835V15.8337C18.0833 18.0002 16.3334 19.8337 14.0835 19.8337H5.75049C3.58393 19.8337 1.75067 18.0835 1.75049 15.8337V10.6667H1.5835C0.750163 10.6667 0.0834966 10 0.0834961 9.16669V7.49969C0.0836819 5.74985 1.5836 4.33368 3.3335 4.33368H4.8335C4.25016 3.50035 4.16683 2.50002 4.5835 1.66669C5.0835 0.750021 6.00016 0.166687 7.0835 0.166687C8.5835 0.166687 9.50049 1.33368 10.0005 2.58368C10.5005 1.33377 11.4167 0.166857 12.9165 0.166687ZM3.25049 10.6667V15.8337C3.25067 17.2502 4.41694 18.4167 5.8335 18.4167H14.1665C15.5831 18.4167 16.7503 17.2502 16.7505 15.8337H16.8335V10.6667H3.25049ZM3.3335 5.66669C2.3336 5.66669 1.50067 6.49984 1.50049 7.49969V9.16669C1.50049 9.25002 1.50016 9.24969 1.5835 9.24969L18.5005 9.16669V7.49969C18.5003 6.49984 17.6664 5.66669 16.6665 5.66669H3.3335ZM7.00049 1.58368C6.25078 1.58368 5.91699 1.99966 5.8335 2.24969C5.66683 2.66636 5.66716 3.16636 6.00049 3.49969C6.33382 3.99969 6.91715 4.25035 7.75049 4.33368H8.9165C8.74985 3.33377 8.25025 1.58398 7.00049 1.58368ZM13.0005 1.49969C11.6672 1.58303 11.1672 3.33333 11.0005 4.16669H12.2505C13.0837 4.08332 13.7502 3.8333 14.0835 3.41669C14.3335 3.08335 14.4165 2.58335 14.1665 2.16669C14.0831 1.99991 13.7501 1.49984 13.0005 1.49969Z" fill="#200040"/>
</g>
<defs>
<clipPath id="clip0_18_1018">
<rect width="20" height="20" fill="white"/>
</clipPath>
</defs>
</svg>
