<svg width="20" height="20" viewBox="0 0 20 20" fill="none" xmlns="http://www.w3.org/2000/svg">
<path d="M14.9997 1.74969C16.8329 1.74969 18.2495 3.24983 18.2497 4.99969C18.2497 6.58303 17.0833 7.83335 15.6667 8.16669C15.4167 12.1667 12.1667 15.4167 8.16667 15.6667C7.83333 17.1667 6.583 18.2497 4.99968 18.2497C3.1665 18.2495 1.74968 16.7496 1.74968 14.9997C1.74983 13.4165 2.91709 12.167 4.33366 11.8337V2.49969C4.33387 2.16657 4.66655 1.83389 4.99968 1.83368C5.33293 1.83368 5.66651 2.08321 5.66667 2.49969V11.8337C6.8333 12.0837 7.75034 13 8.08366 14.1667C11.4167 13.9999 13.9995 11.3334 14.2497 8.08368C12.8331 7.75027 11.8337 6.49962 11.8337 4.99969C11.8338 3.24993 13.1666 1.74987 14.9997 1.74969ZM4.99968 13.1667C3.99992 13.1669 3.16684 13.9999 3.16667 14.9997C3.16667 15.9996 3.99982 16.8335 4.99968 16.8337C5.99968 16.8337 6.83366 15.9997 6.83366 14.9997C6.8335 13.9998 5.99958 13.1667 4.99968 13.1667ZM14.9997 3.16669C13.9999 3.16686 13.1668 3.99994 13.1667 4.99969C13.1667 5.99959 13.9998 6.8335 14.9997 6.83368C15.9997 6.83368 16.8337 5.99969 16.8337 4.99969C16.8335 3.99983 15.9996 3.16669 14.9997 3.16669Z" fill="#200040"/>
</svg>
