<svg width="20" height="20" viewBox="0 0 20 20" fill="none" xmlns="http://www.w3.org/2000/svg">
<path d="M9.99968 6.00031C11.9997 6.00031 13.6663 7.41668 13.9997 9.33331H19.1667C19.5 9.33331 19.8337 9.66697 19.8337 10.0003C19.8335 10.3335 19.5832 10.6663 19.1667 10.6663H14.0837C13.7503 12.5829 12.0835 14.0001 10.0837 14.0003C8.08366 14.0003 6.417 12.583 6.08366 10.6663H0.916672C0.58344 10.6663 0.249882 10.3335 0.24968 10.0003C0.24968 9.66697 0.500005 9.33331 0.916672 9.33331H5.99968C6.33299 7.41675 7.99982 6.00046 9.99968 6.00031ZM9.99968 7.33331C8.49983 7.33348 7.33366 8.50041 7.33366 10.0003C7.33383 11.5 8.58324 12.6661 9.99968 12.6663C11.4163 12.6663 12.6665 11.5002 12.6667 10.0003C12.6667 8.5003 11.4997 7.33331 9.99968 7.33331Z" fill="#200040"/>
</svg>
