<svg width="20" height="20" viewBox="0 0 20 20" fill="none" xmlns="http://www.w3.org/2000/svg">
<path d="M4.99968 1.74969C6.83291 1.74969 8.24951 3.24983 8.24968 4.99969C8.24968 6.49961 7.16689 7.75026 5.83366 8.08368C6.0005 11.4168 8.6668 13.9997 11.9167 14.2497C12.2501 12.8333 13.4999 11.8338 14.9997 11.8337C16.7497 11.8337 18.1667 13.0834 18.1667 14.9167C18.1667 16.75 16.6667 18.1667 14.9167 18.1667C13.3334 18.1667 11.9998 17.0835 11.7497 15.5837C9.16664 15.4169 6.91698 14.0834 5.58366 12.0837V17.4997C5.58366 17.833 5.25 18.1667 4.91667 18.1667C4.58334 18.1667 4.24968 17.9164 4.24968 17.4997V8.16669C2.83316 7.83324 1.74968 6.49959 1.74968 4.99969C1.74984 3.24993 3.16661 1.74987 4.99968 1.74969ZM14.9997 13.1667C13.9999 13.1669 13.1668 13.9999 13.1667 14.9997C13.1667 15.9996 13.9998 16.8335 14.9997 16.8337C15.9997 16.8337 16.8337 15.9997 16.8337 14.9997C16.8335 13.9998 15.9996 13.1667 14.9997 13.1667ZM4.99968 3.16669C3.99992 3.16687 3.16684 3.99994 3.16667 4.99969C3.16667 5.99959 3.99982 6.8335 4.99968 6.83368C5.99968 6.83368 6.83366 5.99969 6.83366 4.99969C6.83349 3.99983 5.99958 3.16669 4.99968 3.16669Z" fill="#200040"/>
</svg>
