<svg width="20" height="20" viewBox="0 0 20 20" fill="none" xmlns="http://www.w3.org/2000/svg">
<path d="M4.99966 1.74969C6.74966 1.74969 8.25031 3.25002 8.08365 4.91669C8.08364 6.49993 7.0002 7.75027 5.58365 8.08368V17.4997C5.58365 17.833 5.24999 18.1667 4.91666 18.1667C4.58333 18.1667 4.24966 17.9164 4.24966 17.4997V8.16669C2.83315 7.83323 1.74966 6.49958 1.74966 4.99969C1.74984 3.24994 3.24991 1.74989 4.99966 1.74969ZM13.3336 4.24969C14.6668 4.24987 15.7497 5.33346 15.7497 6.66669V11.9167C17.1663 12.25 18.2503 13.5 18.3336 14.9167C18.3336 16.7499 16.9168 18.1665 15.0836 18.1667C13.2503 18.1667 11.8337 16.6667 11.8336 14.9167C11.8336 13.3334 12.917 12.083 14.3336 11.7497V6.58368C14.3336 6.00045 13.9168 5.58383 13.3336 5.58368H10.8336C10.5003 5.58368 10.1667 5.25001 10.1667 4.91669C10.1667 4.58335 10.417 4.24969 10.8336 4.24969H13.3336ZM14.9997 13.1667C13.9999 13.1669 13.1668 13.9999 13.1667 14.9997C13.1667 15.9996 13.9998 16.8335 14.9997 16.8337C15.9997 16.8337 16.8336 15.9997 16.8336 14.9997C16.8335 13.9998 15.9996 13.1667 14.9997 13.1667ZM4.99966 3.16669C3.99992 3.16687 3.16683 3.99994 3.16666 4.99969C3.16666 5.99958 3.99981 6.83349 4.99966 6.83368C5.99966 6.83368 6.83365 5.99969 6.83365 4.99969C6.83348 3.99983 5.99956 3.16669 4.99966 3.16669Z" fill="#200040"/>
</svg>
