<svg width="20" height="20" viewBox="0 0 20 20" fill="none" xmlns="http://www.w3.org/2000/svg">
<g clip-path="url(#clip0_11_488)">
<path d="M16.667 0.083252C18.417 0.083253 19.834 1.58325 19.834 3.33325V15.9163C19.834 18.0828 18.0005 19.9161 15.834 19.9163C13.6673 19.9163 11.834 18.1663 11.834 15.9163C11.8338 14.9164 10.9999 14.0833 10 14.0833C9.00014 14.0834 8.16699 14.8334 8.16699 15.8333C8.16699 17.9999 6.33366 19.8333 4.16699 19.8333C2.00033 19.8333 0.166993 18.0833 0.166992 15.8333V3.33325C0.166992 1.58325 1.58398 0.16626 3.33398 0.16626C5.08383 0.166436 6.5 1.58336 6.5 3.33325C6.5 3.74992 6.00033 4.00024 5.66699 4.00024C5.33366 4.00024 5 3.74992 5 3.33325C5 2.41659 4.16667 1.58325 3.25 1.58325C2.33346 1.58343 1.5 2.33337 1.5 3.33325V12.6663C2.16667 12.0829 3.08398 11.6663 4.08398 11.6663C5.50046 11.6664 6.75005 12.4168 7.5 13.5833C8.08333 12.9166 8.91699 12.5002 9.91699 12.5002C10.917 12.5002 11.7507 12.9166 12.334 13.5833C13.0839 12.4168 14.3335 11.6664 15.75 11.6663C16.75 11.6663 17.6673 12.0829 18.334 12.6663V3.25024C18.334 2.33369 17.5005 1.50044 16.584 1.50024C15.6673 1.50024 14.834 2.25024 14.834 3.25024C14.8338 3.58347 14.5002 3.91626 14.167 3.91626C13.8337 3.91626 13.5002 3.66672 13.5 3.25024C13.5 1.50024 14.917 0.083252 16.667 0.083252ZM4.16699 13.2502C2.75033 13.2502 1.58398 14.4166 1.58398 15.8333C1.58398 17.2499 2.75033 18.4163 4.16699 18.4163C5.58366 18.4163 6.75 17.2499 6.75 15.8333C6.75 14.4166 5.58366 13.2502 4.16699 13.2502ZM15.834 13.1663C14.4173 13.1663 13.25 14.3336 13.25 15.7502C13.2502 17.2501 14.4174 18.4163 15.834 18.4163C17.2504 18.4161 18.4168 17.1667 18.417 15.7502C18.417 14.3337 17.2505 13.1664 15.834 13.1663Z" fill="#200040"/>
</g>
<defs>
<clipPath id="clip0_11_488">
<rect width="20" height="20" fill="white"/>
</clipPath>
</defs>
</svg>
