<svg width="20" height="20" viewBox="0 0 20 20" fill="none" xmlns="http://www.w3.org/2000/svg">
<g clip-path="url(#clip0_11_553)">
<path d="M10 0.0833282C15.4998 0.0835062 19.916 4.58376 19.916 10.0003C19.9158 15.4167 15.4997 19.8328 10 19.9163C4.50011 19.9163 0.0831851 15.4168 0.0830078 10.0003C0.0830078 4.58365 4.5 0.0833282 10 0.0833282ZM7 14.0833C7.91667 16.0833 9.33335 17.5837 10 18.2503C10.75 17.5836 12.0833 16.0833 13 14.0833H7ZM14.583 14.0833C13.9163 15.8333 12.8333 17.2503 12 18.2503C14.3332 17.6669 16.3334 16.0833 17.5 14.0833H14.583ZM2.58301 14.0003C3.66636 16.0835 5.66647 17.6663 8.08301 18.1663C7.24976 17.2497 6.16664 15.75 5.5 14.0003H2.58301ZM1.91602 7.33333C1.66603 8.16664 1.5 9.08369 1.5 10.0003C1.50004 10.9167 1.66611 11.8332 1.91602 12.6663L5 12.5833C4.75 11.75 4.66602 10.9167 4.66602 10.0833C4.66602 9.16666 4.83301 8.16666 5.08301 7.33333H1.91602ZM6.58301 7.33333C6.33301 8.16666 6.16602 9.08333 6.16602 10.0833C6.16602 11 6.25 11.8333 6.5 12.5833H13.5C13.6667 11.75 13.833 10.9166 13.833 10.0833C13.833 9.16666 13.666 8.16666 13.416 7.33333H6.58301ZM14.916 7.33333C15.166 8.25 15.333 9.16666 15.333 10.0833C15.333 11 15.1667 11.8333 15 12.5833H18C18.25 11.8334 18.416 10.9168 18.416 10.0003C18.416 9.08369 18.25 8.16664 18 7.33333H14.916ZM8.25 1.75032C5.7501 2.2503 3.74969 3.83312 2.58301 5.91634H5.58301C6.33299 4.16645 7.33338 2.66694 8.25 1.75032ZM10 1.83333C9.33335 2.58331 7.99935 3.99975 7.16602 5.91634H12.916C11.9994 4.00001 10.6667 2.50003 10 1.83333ZM11.75 1.66634C12.6666 2.66626 13.666 4.1665 14.416 5.91634H17.416C16.2494 3.83326 14.2497 2.24968 11.75 1.66634Z" fill="#200040"/>
</g>
<defs>
<clipPath id="clip0_11_553">
<rect width="20" height="20" fill="white"/>
</clipPath>
</defs>
</svg>
