<svg width="20" height="20" viewBox="0 0 20 20" fill="none" xmlns="http://www.w3.org/2000/svg">
<g clip-path="url(#clip0_11_712)">
<path d="M10.8335 0.083374C11.75 0.083374 12.4998 0.583283 12.9165 1.41638C13.2498 1.16644 13.6666 1.00044 14.1665 1.00037C15.3331 1.00037 16.2504 1.83316 16.5005 2.91638C16.8337 2.74985 17.1673 2.66638 17.5005 2.66638C18.8337 2.66654 19.9172 3.66714 20.0005 5.00037V12.3334C20.0005 16.4999 16.5837 19.8332 12.5005 19.8334H11.1665C8.24996 19.8333 5.49976 18.7496 3.4165 16.6664L0.833496 14.1664C-0.083007 13.2497 -0.0831161 11.75 0.833496 10.8334C1.25016 10.3334 1.83382 10.0834 2.50049 10.0834C3.16702 10.0835 3.74991 10.3338 4.1665 10.7504L5.1665 11.7504V4.16638C5.16668 2.8332 6.25059 1.75037 7.50049 1.75037C7.917 1.75041 8.25055 1.83374 8.50049 2.00037C8.75049 0.917033 9.66683 0.0833741 10.8335 0.083374ZM10.6665 1.50037C10.0833 1.50055 9.6665 2.00046 9.6665 2.50037V8.33337C9.6665 8.6666 9.33371 9.00015 9.00049 9.00037C8.66716 9.00037 8.3335 8.75004 8.3335 8.33337V4.16638C8.33331 3.66653 7.9164 3.25037 7.4165 3.25037C6.91676 3.25055 6.50067 3.66664 6.50049 4.16638V13.2504C6.50038 13.5835 6.33363 13.8338 6.00049 14.0004C5.66715 14.167 5.3335 14.0834 5.0835 13.8334L3.0835 11.8334C2.91683 11.6667 2.6665 11.5834 2.4165 11.5834C2.16669 11.5834 1.91708 11.6669 1.75049 11.8334C1.41716 12.1667 1.41716 12.833 1.75049 13.1664L4.3335 15.7504C6.16681 17.5003 8.58357 18.5004 11.0835 18.5004H12.4165C15.7498 18.5004 18.5005 15.7497 18.5005 12.4164V5.17029C18.5005 4.50045 18.0002 4.08357 17.4204 4.08337C16.8404 4.08337 16.3335 4.50029 16.3335 5.17029V8.33337C16.3335 8.66671 15.9998 9.00037 15.6665 9.00037C15.3333 9.0002 15.0005 8.7499 15.0005 8.33337V3.33337C15.0005 2.75015 14.5837 2.33353 14.0005 2.33337C13.4172 2.33337 13.0005 2.83337 13.0005 3.33337V8.33337C13.0005 8.66671 12.6668 9.00037 12.3335 9.00037C12.0002 9.00037 11.6665 8.75004 11.6665 8.33337V2.50037C11.6665 1.91703 11.1665 1.50037 10.6665 1.50037Z" fill="#200040"/>
</g>
<defs>
<clipPath id="clip0_11_712">
<rect width="20" height="20" fill="white"/>
</clipPath>
</defs>
</svg>
