<svg width="20" height="20" viewBox="0 0 20 20" fill="none" xmlns="http://www.w3.org/2000/svg">
<path d="M15.0003 0.166687C17.2502 0.166845 19.0003 1.91679 19.0003 4.16669V15.8337C19.0001 18.0001 17.25 19.8335 15.0003 19.8337H5.00031C2.83374 19.8337 1.00048 18.0835 1.00031 15.8337V4.16669C1.00031 1.91669 2.7503 0.166687 5.00031 0.166687H15.0003ZM2.41632 15.8337C2.4165 17.2502 3.58375 18.4167 5.00031 18.4167H15.0003C16.4167 18.4165 17.5828 17.2501 17.6663 15.8337V13.9997H2.41632V15.8337ZM12.0833 15.1667C12.6665 15.1667 13.1661 15.6665 13.1663 16.2497C13.1663 16.833 12.6666 17.3337 12.0833 17.3337C11.5 17.3337 11.0003 16.833 11.0003 16.2497C11.0005 15.6665 11.5001 15.1667 12.0833 15.1667ZM15.4163 15.1667C15.9995 15.1667 16.5001 15.6665 16.5003 16.2497C16.5003 16.833 15.9997 17.3337 15.4163 17.3337C14.8331 17.3335 14.3333 16.8329 14.3333 16.2497C14.3335 15.6666 14.8332 15.1669 15.4163 15.1667ZM5.00031 1.58368C3.58364 1.58368 2.41665 2.75002 2.33331 4.16669V12.5837H17.5833V4.16669C17.5833 2.75012 16.4168 1.58385 15.0003 1.58368H5.00031Z" fill="#200040"/>
</svg>
