<svg width="20" height="20" viewBox="0 0 20 20" fill="none" xmlns="http://www.w3.org/2000/svg">
<path d="M8.58301 1.83295C8.91626 1.83295 9.24912 2.16642 9.16602 2.58295L8.66602 6.83295H12.25L12.75 2.41693C12.75 2.0836 13.0833 1.74961 13.5 1.83295C13.8331 1.83316 14.166 2.16659 14.083 2.58295L13.583 6.83295H16.666C16.9992 6.83295 17.3328 7.16646 17.333 7.58295C17.333 7.91628 17.0827 8.24994 16.666 8.24994H13.416L13 11.8329H16.666C17.0827 11.8329 17.4163 12.1669 17.083 12.4169C17.0829 12.7502 16.8326 13.0829 16.416 13.0829H12.583L12.083 17.4999C12.083 17.9166 11.7493 18.1669 11.416 18.1669H11.333C10.9997 18.1669 10.6668 17.8335 10.75 17.4169L11.25 13.1669H7.66602L7.16602 17.5829C7.16602 17.9995 6.83322 18.2498 6.5 18.2499H6.41602C6.08279 18.2497 5.7497 17.9165 5.83301 17.4999L6.33301 13.2499H3.25C2.91667 13.2499 2.58301 12.9166 2.58301 12.4999C2.58304 12.1666 2.83336 11.8329 3.25 11.8329H6.5L6.91602 8.24994H3.25C2.91667 8.24994 2.58301 7.91661 2.58301 7.49994C2.58304 7.0833 2.91636 6.74994 3.33301 6.74994H7.16602L7.66602 2.41693C7.66602 2.00028 7.99971 1.74964 8.58301 1.83295ZM8.41602 8.16693L8 11.7499H11.583L12 8.16693H8.41602Z" fill="#200040"/>
</svg>
