<svg width="20" height="20" viewBox="0 0 20 20" fill="none" xmlns="http://www.w3.org/2000/svg">
<path d="M10.0801 1.83365C14.08 1.83378 17.4131 5.16675 17.4131 9.16666V10.2106C19.0188 10.8227 19.9131 12.1873 19.9131 14.1667C19.9131 16.2499 18.5802 17.6669 16.2471 18.0836C16.2467 18.1666 16.0804 18.1667 15.9971 18.1667C15.5804 18.1667 15.2464 17.9997 14.9131 17.7497C14.4967 17.4163 14.3301 16.9165 14.3301 16.4167V11.6667C14.3301 11.1668 14.5799 10.667 14.9131 10.3336C15.1906 10.0562 15.5838 9.8936 15.9961 9.89517V9.16666C15.9961 5.91675 13.33 3.2498 10.0801 3.24966C6.83008 3.24966 4.1631 5.91667 4.16309 9.16666V9.98697C4.51362 10.0231 4.84012 10.1767 5.08008 10.4167C5.41332 10.7499 5.66297 11.2498 5.66309 11.7497V16.4997C5.66309 16.9997 5.41341 17.5003 5.08008 17.8336C4.91334 18.0835 4.49662 18.1666 4.08008 18.1667H3.74707C1.41374 17.75 0.0800781 16.333 0.0800781 14.2497C0.0801901 12.2738 1.03619 10.8355 2.74609 10.2389V9.16666C2.7461 5.08333 6.08008 1.83365 10.0801 1.83365ZM15.9971 11.4997C15.9137 11.4997 15.8301 11.5003 15.8301 11.5836C15.8267 11.5871 15.7471 11.6705 15.7471 11.8336V16.5836C15.7472 16.6252 15.7673 16.6671 15.7881 16.7086C15.8089 16.7503 15.8301 16.792 15.8301 16.8336C15.8345 16.838 15.918 16.9167 16.0801 16.9167C17.7467 16.6666 18.5801 15.8333 18.5801 14.4167C18.4967 12.6668 17.6635 11.7497 15.9971 11.4997ZM4.08008 11.4997C2.41341 11.7497 1.58008 12.667 1.58008 14.3336C1.5802 15.6668 2.41354 16.5003 4.08008 16.8336C4.16339 16.8336 4.24677 16.833 4.33008 16.7497C4.3347 16.7449 4.41309 16.6614 4.41309 16.4997V11.7497C4.41297 11.7081 4.39285 11.6662 4.37207 11.6247C4.35126 11.583 4.33008 11.5413 4.33008 11.4997H4.08008Z" fill="#200040"/>
</svg>
