<svg width="20" height="20" viewBox="0 0 20 20" fill="none" xmlns="http://www.w3.org/2000/svg">
<path d="M5.83324 2.1671C7.24982 2.16716 8.58329 2.75048 9.58324 3.6671L9.99925 4.08311L10.2493 3.75011C10.7492 3.25018 11.3327 2.83313 11.9993 2.58311C13.3326 2.08311 14.7499 2.08311 16.0832 2.58311C16.7498 2.83312 17.3333 3.25014 17.8332 3.75011C18.3331 4.25008 18.7493 4.91685 18.9993 5.50011C19.2493 6.08344 19.4162 6.83344 19.4162 7.50011C19.4162 8.16672 19.2492 8.83349 18.9993 9.50011C18.7492 10.1667 18.3329 10.7502 17.9162 11.2501L11.3332 17.3331C10.5832 17.9998 9.49925 17.9998 8.74925 17.3331L2.16624 11.2501C1.16628 10.2501 0.583277 8.91672 0.583237 7.50011C0.583237 6.08344 1.16657 4.75011 2.08324 3.75011C3.08323 2.75013 4.41659 2.1671 5.83324 2.1671ZM5.83324 3.58311C4.83324 3.58311 3.83291 4.00011 3.16624 4.75011C2.41632 5.50009 1.99925 6.50016 1.99925 7.50011C1.99929 8.58338 2.41628 9.50014 3.16624 10.2501L9.24925 16.0001C9.41582 16.25 9.7493 16.333 9.99925 16.3331C10.2491 16.3331 10.4994 16.1667 10.7493 16.0001L16.8332 10.2501C17.2498 9.83355 17.4993 9.41666 17.7493 9.00011C17.9992 8.50016 18.0832 8.00006 18.0832 7.50011C18.0832 7.00011 17.9159 6.5001 17.7493 6.00011C17.5826 5.50012 17.2496 5.08344 16.9162 4.75011C16.5829 4.41679 16.1662 4.08377 15.6662 3.9171C14.6662 3.50043 13.5829 3.50043 12.6662 3.9171C12.1663 4.08379 11.7495 4.41682 11.4162 4.75011L10.4993 5.6671C10.2491 5.91664 9.74911 5.91692 9.49925 5.6671L8.58324 4.75011C7.83329 4.00016 6.83316 3.58318 5.83324 3.58311Z" fill="#200040"/>
</svg>
