<svg width="20" height="20" viewBox="0 0 20 20" fill="none" xmlns="http://www.w3.org/2000/svg">
<path d="M5.83324 2.1671C7.24982 2.16716 8.58329 2.75048 9.58324 3.6671L9.99925 4.08311L10.2493 3.75011C10.7492 3.25018 11.3327 2.83313 11.9993 2.58311C13.3326 2.08311 14.7499 2.08311 16.0832 2.58311C16.7498 2.83312 17.3333 3.25014 17.8332 3.75011C18.3331 4.25008 18.7493 4.91685 18.9993 5.50011C19.2493 6.08344 19.4162 6.83344 19.4162 7.50011C19.4162 8.16672 19.2492 8.83349 18.9993 9.50011C18.7492 10.1667 18.3329 10.7502 17.9162 11.2501L11.3332 17.3331C10.5832 17.9998 9.49925 17.9998 8.74925 17.3331L2.16624 11.2501C1.16628 10.2501 0.583277 8.91672 0.583237 7.50011C0.583237 6.08344 1.16657 4.75011 2.08324 3.75011C3.08323 2.75013 4.41659 2.1671 5.83324 2.1671Z" fill="#200040"/>
</svg>
