<svg width="20" height="20" viewBox="0 0 20 20" fill="none" xmlns="http://www.w3.org/2000/svg">
<g clip-path="url(#clip0_3431_374)">
<path d="M10.0005 0.0834961C15.417 0.0836767 19.9165 4.58393 19.9165 10.0005C19.9163 15.4169 15.4169 19.9163 10.0005 19.9165C4.58393 19.9165 0.0836767 15.417 0.0834961 10.0005C0.0834961 4.58382 4.58382 0.0834961 10.0005 0.0834961ZM9.99951 14.3335C9.58309 14.3336 9.33368 14.6663 9.3335 14.9995C9.3335 15.4161 9.66623 15.6664 9.99951 15.6665C10.4162 15.6665 10.6665 15.3328 10.6665 14.9995C10.6664 14.5831 10.4161 14.3335 9.99951 14.3335ZM10.5835 4.3335C9.66683 4.16683 8.6665 4.41683 7.9165 5.0835C7.24996 5.66676 6.8336 6.58299 6.8335 7.49951C6.8335 7.91611 7.16623 8.16642 7.49951 8.1665C7.83284 8.1665 8.24951 7.91618 8.24951 7.49951C8.24963 6.99963 8.49994 6.49976 8.9165 6.1665C9.33315 5.83323 9.83322 5.66619 10.4165 5.74951C11.0831 5.83291 11.6662 6.49989 11.7495 7.1665C11.9162 7.91642 11.5 8.6668 10.8335 9.0835C9.8335 9.58349 9.24952 10.6665 9.24951 11.9165V12.4995C9.24951 12.9162 9.58317 13.2495 9.9165 13.2495C10.333 13.2494 10.5833 12.9167 10.5835 12.5835V11.9995C10.5836 11.333 10.9166 10.7498 11.4165 10.4165C12.5831 9.74981 13.2495 8.41612 12.9995 6.99951C12.916 5.66652 11.9164 4.58366 10.5835 4.3335Z" fill="#200040"/>
</g>
<defs>
<clipPath id="clip0_3431_374">
<rect width="20" height="20" fill="white"/>
</clipPath>
</defs>
</svg>
