<svg width="20" height="20" viewBox="0 0 20 20" fill="none" xmlns="http://www.w3.org/2000/svg">
<path d="M9.91705 0.250122C10.5836 0.250236 11.2505 0.500236 11.6671 1.00012C11.9166 1.25023 11.833 1.75023 11.5831 2.00012C11.333 2.24987 10.833 2.16607 10.5831 1.91614C10.4165 1.66659 10.1668 1.58323 9.91705 1.58313C9.41705 1.58313 9.00006 2.00012 9.00006 2.50012V3.58313C9.00006 3.91644 8.83335 4.16677 8.50006 4.25012C7.41678 4.50011 6.50004 5.08319 5.75006 5.83313C5.58342 5.99977 5.16707 6.0827 4.91705 5.91614L4.00006 5.41614C3.50009 5.16619 2.91705 5.3335 2.66705 5.75012C2.58373 6.0001 2.49974 6.25014 2.58307 6.50012C2.66642 6.75004 2.83343 6.91649 3.00006 7.08313L4.00006 7.58313C4.24995 7.74975 4.41619 8.08294 4.33307 8.41614C4.1664 8.91614 4.08307 9.50012 4.08307 10.0001C4.08309 10.5001 4.16709 11.0832 4.41705 11.5831C4.50037 11.9164 4.33303 12.2495 4.08307 12.4161L3.16705 12.9161C2.75039 13.2495 2.58307 13.8335 2.83307 14.2501C2.99973 14.4168 3.16706 14.5828 3.41705 14.6661C3.66696 14.7494 3.91715 14.7497 4.16705 14.5831L5.08307 14.0831C5.33307 13.9165 5.66705 13.9161 5.91705 14.1661C6.66705 14.9161 7.58373 15.5001 8.66705 15.7501C8.91679 15.8336 9.16684 16.0832 9.16705 16.4161V17.5001C9.16718 18 9.58323 18.416 10.0831 18.4161C10.3331 18.4161 10.5834 18.3328 10.7501 18.1661C10.9165 17.9995 11 17.7499 11.0001 17.5001V16.3331C11.0001 15.9998 11.1668 15.7495 11.5001 15.6661C12.5833 15.4161 13.5001 14.8331 14.2501 14.0831C14.4168 13.9165 14.8331 13.8335 15.0831 14.0001L16.0001 14.5001C16.25 14.5834 16.5001 14.6664 16.7501 14.5831C17 14.5831 17.1664 14.4161 17.3331 14.1661C17.4996 13.9162 17.5836 13.583 17.4171 13.3331C17.2504 12.9998 17.4167 12.5828 17.7501 12.4161C18.0833 12.2497 18.4998 12.4169 18.5831 12.7501C18.9163 13.4166 18.9165 14.2496 18.5001 14.9161C18.1667 15.4161 17.6664 15.8335 17.0831 16.0001C16.4166 16.1667 15.8333 16.0833 15.2501 15.7501L14.7501 15.5001C14.0834 16.1668 13.2497 16.5828 12.3331 16.9161V17.5001C12.333 18.0832 12.0834 18.7495 11.6671 19.1661C11.2504 19.5828 10.6667 19.8331 10.0001 19.8331C8.75013 19.8331 7.66717 18.8333 7.66705 17.5001V17.0001C6.75047 16.6668 5.917 16.2497 5.16705 15.5831L4.66705 15.8331C4.1671 16.1664 3.50035 16.2494 2.91705 15.9161C2.33372 15.7495 1.83339 15.4165 1.50006 14.8331C0.833432 13.6665 1.16649 12.2498 2.33307 11.5831L2.83307 11.3331C2.74974 10.9165 2.66705 10.3328 2.66705 9.91614C2.66711 9.49963 2.74978 8.99987 2.83307 8.50012L2.33307 8.25012C1.74979 8.00011 1.41672 7.49976 1.25006 6.83313C1.08342 6.24982 1.16707 5.58343 1.41705 5.00012C2.08373 3.91682 3.5004 3.49948 4.66705 4.16614L5.16705 4.50012C5.91698 3.83355 6.74982 3.33281 7.58307 3.16614V2.58313C7.58312 1.33317 8.58376 0.250122 9.91705 0.250122ZM10.0001 6.75012C11.75 6.75019 13.2501 8.16683 13.2501 10.0001C13.2499 11.8333 11.8333 13.2501 10.0001 13.2501C8.1668 13.2501 6.75018 11.75 6.75006 10.0001C6.75006 8.25012 8.25006 6.75012 10.0001 6.75012ZM10.0001 8.16614C9.00006 8.16614 8.16705 9.00012 8.16705 10.0001C8.16718 11 9.00013 11.8331 10.0001 11.8331C10.9999 11.8331 11.8329 11 11.8331 10.0001C11.8331 9.00016 11 8.16621 10.0001 8.16614ZM16.6671 10.2501C17.0001 10.2503 17.3328 10.4999 17.3331 10.9161C17.3331 11.2493 17.0834 11.5829 16.6671 11.5831C16.2504 11.5831 16.0001 11.2495 16.0001 10.9161C16.0003 10.5829 16.2506 10.2501 16.6671 10.2501ZM14.5831 0.916138C15.3331 0.332852 16.3334 0.0834618 17.2501 0.250122C18.5833 0.500165 19.583 1.49992 19.8331 2.83313C20.0831 4.16646 19.4167 5.50012 18.0001 6.25012C17.5001 6.58344 17.1671 7.16651 17.1671 7.83313V8.41614C17.1671 8.74944 16.9166 9.08306 16.5001 9.08313C16.1667 9.08313 15.8331 8.7498 15.8331 8.33313V7.75012C15.8331 6.50012 16.4171 5.41614 17.4171 4.91614C18.0834 4.49944 18.4996 3.74987 18.3331 3.00012C18.2498 2.33358 17.6669 1.74992 16.9171 1.58313C16.3338 1.49981 15.8337 1.66688 15.4171 2.00012C15.0004 2.33343 14.7501 2.83316 14.7501 3.33313C14.7501 3.66646 14.4164 4.00012 14.0831 4.00012C13.7498 4.00002 13.4171 3.74972 13.4171 3.33313C13.4171 2.4165 13.8331 1.49945 14.5831 0.916138Z" fill="#200040"/>
</svg>
