<svg width="20" height="20" viewBox="0 0 20 20" fill="none" xmlns="http://www.w3.org/2000/svg">
<path d="M13.1661 1.00008C14.5827 1.00008 15.9161 1.74994 16.6661 3.08308L19.4161 8.16707C20.0827 9.33371 20.0827 10.8335 19.4161 12.0001L16.6661 17.0831C15.9161 18.2498 14.5828 19.0001 13.1661 19.0001H6.8331C5.41656 19.0001 4.08314 18.1669 3.3331 16.9171L0.583099 11.8331C-0.0834715 10.6665 -0.0835212 9.25001 0.583099 8.00008L3.3331 3.08308C3.99981 1.83321 5.33319 1.00008 6.8331 1.00008H13.1661ZM6.8331 2.41707C5.91643 2.41707 4.99977 2.91674 4.5831 3.75008L1.8331 8.83308C1.41643 9.58308 1.41643 10.5001 1.8331 11.2501L4.5831 16.3331C4.99977 17.1664 5.91643 17.6671 6.8331 17.6671H13.1661C14.0828 17.6671 14.9161 17.1664 15.4161 16.3331L18.1661 11.2501C18.5828 10.5001 18.5828 9.58341 18.1661 8.75008L15.4161 3.66707C14.9994 2.83374 14.0828 2.33308 13.1661 2.33308H6.8331V2.41707Z" fill="#200040"/>
</svg>
