<svg width="20" height="20" viewBox="0 0 20 20" fill="none" xmlns="http://www.w3.org/2000/svg">
<g clip-path="url(#clip0_11_470)">
<path d="M10 0.083374C12.8332 0.0834642 15.4997 1.25012 17.333 3.33337V0.833374C17.333 0.500041 17.5833 0.166382 18 0.166382C18.3332 0.166546 18.666 0.416844 18.666 0.833374V3.66638C18.666 4.24964 18.4996 4.74975 18.083 5.16638C17.6663 5.49971 17.1663 5.75036 16.583 5.75037H13.75C13.4168 5.66706 13.0832 5.41684 13.083 5.00037C13.083 4.66703 13.3333 4.33337 13.75 4.33337H16.25C14.6667 2.50012 12.4165 1.50046 10 1.50037C5.33333 1.50037 1.5 5.3337 1.5 10.0004C1.50018 14.6669 5.33344 18.5004 10 18.5004C14.6664 18.5002 18.4998 14.6668 18.5 10.0004C18.5 9.66712 18.7495 9.33355 19.166 9.33337C19.5827 9.33337 19.916 9.5837 19.916 10.0004C19.9158 15.4168 15.4164 19.9162 10 19.9164C4.58344 19.9164 0.0831884 15.4169 0.0830078 10.0004C0.0830078 4.5837 4.58333 0.083374 10 0.083374ZM10.083 4.33337C10.4163 4.33337 10.75 4.5837 10.75 5.00037V9.75037L13.25 12.0004C13.4997 12.2505 13.4999 12.7505 13.25 13.0004C13.0834 13.1669 12.9166 13.2503 12.75 13.2504C12.5834 13.2504 12.4166 13.2499 12.25 13.0834L9.83301 10.7504C9.58301 10.5004 9.41602 10.1667 9.41602 9.83337V5.08337C9.41602 4.66671 9.66634 4.33337 10.083 4.33337Z" fill="#200040"/>
</g>
<defs>
<clipPath id="clip0_11_470">
<rect width="20" height="20" fill="white"/>
</clipPath>
</defs>
</svg>
