<svg width="20" height="20" viewBox="0 0 20 20" fill="none" xmlns="http://www.w3.org/2000/svg">
<g clip-path="url(#clip0_11_519)">
<path d="M10.0007 0.0835838C11.0839 0.0836726 12.1668 0.500349 12.9167 1.33358L19.1667 7.66659C19.5834 8.08326 19.834 8.66692 20.0007 9.33358V17.4996C20.0007 18.8329 18.917 19.9166 17.5837 19.9166H2.58368C1.25035 19.9166 0.166687 18.8329 0.166687 17.4996V9.33358C0.166687 8.66692 0.417013 8.08326 0.833679 7.66659L7.08368 1.33358C7.83368 0.500251 8.91734 0.0835838 10.0007 0.0835838ZM9.91669 1.4996C9.16684 1.49969 8.5006 1.83368 8.00067 2.33358L1.75067 8.66659C1.584 8.83326 1.50067 9.08358 1.50067 9.33358V17.4996C1.50067 18.0829 2.00067 18.4996 2.50067 18.4996H5.83368V13.9996C5.83389 12.3331 7.16715 10.9996 8.83368 10.9996H11.0007C12.667 10.9998 14.0005 12.3332 14.0007 13.9996V18.4996H17.4167C18 18.4996 18.4167 17.9996 18.4167 17.4996H18.3337V9.33358C18.3337 9.08358 18.2503 8.83326 18.0837 8.66659L11.8337 2.33358C11.3337 1.75025 10.6667 1.4996 9.91669 1.4996ZM8.91669 12.3336C8.00021 12.3338 7.33372 13.0834 7.33368 13.9166V18.4166H12.6667V13.9166C12.6666 13 11.917 12.3336 11.0837 12.3336H8.91669Z" fill="#200040"/>
</g>
<defs>
<clipPath id="clip0_11_519">
<rect width="20" height="20" fill="white"/>
</clipPath>
</defs>
</svg>
