<svg width="20" height="20" viewBox="0 0 20 20" fill="none" xmlns="http://www.w3.org/2000/svg">
<path d="M15.917 1.25C18.0001 1.25018 19.7498 2.99993 19.75 5.08301V14.917C19.7498 17.0001 18.0001 18.7498 15.917 18.75H4.08301C1.99993 18.7498 0.250183 17.0001 0.25 14.917V5.08301C0.250182 2.99993 1.99993 1.25018 4.08301 1.25H15.917ZM8.58301 9.41699C7.91634 8.83368 6.91666 8.83367 6.25 9.41699L1.66699 14V14.917C1.66717 16.2501 2.74993 17.3328 4.08301 17.333H15.917C15.9515 17.3329 16.0006 17.3194 16.0576 17.3027C16.1384 17.2791 16.2356 17.2501 16.333 17.25L8.58301 9.41699ZM4.08301 2.66699C2.74993 2.66717 1.66717 3.74993 1.66699 5.08301V12L5.25 8.41699C6.5 7.25033 8.41634 7.25033 9.58301 8.41699L17.667 16.583C18.0834 16.0832 18.3329 15.5833 18.333 14.917V5.08301C18.3328 3.74993 17.2501 2.66717 15.917 2.66699H4.08301ZM14.167 4C15.5001 4.00016 16.4998 4.99995 16.5 6.33301C16.5 7.66623 15.4169 8.66682 14.167 8.66699C12.8337 8.66699 11.833 7.58301 11.833 6.33301C11.8332 4.99984 12.9171 4 14.167 4ZM14.167 5.41699C13.7503 5.41699 13.3333 5.83333 13.25 6.25C13.25 6.75 13.667 7.16699 14.167 7.16699C14.6668 7.16685 15.083 6.8329 15.083 6.33301C15.0828 5.83326 14.6667 5.41717 14.167 5.41699Z" fill="#200040"/>
</svg>
