<svg width="20" height="20" viewBox="0 0 20 20" fill="none" xmlns="http://www.w3.org/2000/svg">
<g clip-path="url(#clip0_11_549)">
<path d="M2.75 0.0830078C3.16667 0.166341 3.41732 0.500326 3.33398 0.916992L1.66699 10H5C5.83323 10 6.5838 10.6665 6.58398 11.583C6.58398 12.5829 7.33348 13.3328 8.25 13.333H11.75C12.6666 13.333 13.4168 12.5835 13.417 11.667C13.417 10.8338 14.0835 10.0832 15 10.083H18.417L16.75 1C16.6667 0.58337 16.9173 0.25032 17.334 0.166992C17.7505 0.0838135 18.0837 0.333428 18.167 0.75L19.834 10.083V15.833C19.834 17.9996 18.0838 19.8328 15.834 19.833H4.16699C2.00033 19.833 0.166992 18.083 0.166992 15.833V10L1.91699 0.666992C2.0003 0.250452 2.33351 -9.85935e-05 2.75 0.0830078ZM15 11.417C14.9169 11.4172 14.8342 11.4999 14.834 11.583C14.834 13.333 13.5 14.75 11.75 14.75H8.25C6.58357 14.7498 5.16716 13.4167 5.16699 11.667C5.16699 11.5837 5.08333 11.5 5 11.5H1.58398V15.833C1.58398 17.2497 2.75033 18.417 4.16699 18.417H15.834C17.2505 18.4168 18.417 17.2496 18.417 15.833V11.417H15ZM4.83398 6.91699H15.25C15.5832 6.91699 15.9168 7.24979 15.917 7.58301C15.917 7.91634 15.6667 8.25 15.25 8.25H4.83398C4.41732 8.25 4.08398 7.91667 4.08398 7.5C4.08399 7.08334 4.41732 6.83366 4.83398 6.91699ZM14.584 3.5C15.0005 3.50022 15.25 3.91676 15.25 4.25C15.25 4.58325 15.0005 4.91682 14.584 4.91699H5.41699C5.00043 4.91699 4.66716 4.58351 4.66699 4.16699C4.66699 3.75033 5.00033 3.5 5.41699 3.5H14.584ZM6 0.25H14C14.3333 0.25 14.667 0.583659 14.667 0.916992C14.6668 1.25022 14.4165 1.58301 14 1.58301H6C5.58353 1.58283 5.33398 1.24957 5.33398 0.833008C5.33412 0.416652 5.58364 0.166879 6 0.25Z" fill="#200040"/>
</g>
<defs>
<clipPath id="clip0_11_549">
<rect width="20" height="20" fill="white"/>
</clipPath>
</defs>
</svg>
