<svg width="20" height="20" viewBox="0 0 20 20" fill="none" xmlns="http://www.w3.org/2000/svg">
<g clip-path="url(#clip0_11_461)">
<path d="M10 0.083252C15.4165 0.0834326 19.916 4.58369 19.916 10.0002C19.9158 15.4167 15.4164 19.9161 10 19.9163C4.58344 19.9163 0.0831885 15.4168 0.0830078 10.0002C0.0830078 4.58358 4.58333 0.083252 10 0.083252ZM10 1.50024C5.33333 1.50024 1.5 5.33358 1.5 10.0002C1.50018 14.6668 5.33344 18.5002 10 18.5002C14.6664 18.5001 18.4998 14.6667 18.5 10.0002C18.5 5.33369 14.6665 1.50042 10 1.50024ZM10 8.91626C10.3332 8.91648 10.666 9.25003 10.666 9.58325V14.9163C10.666 15.3328 10.4165 15.6661 10 15.6663C9.66675 15.6663 9.33318 15.4167 9.33301 15.0002V9.66626C9.2499 9.24974 9.58344 8.91626 10 8.91626ZM10 4.25024C10.6664 4.25041 11.1659 4.74986 11.166 5.41626C11.166 6.08282 10.6665 6.58309 10 6.58325C9.33333 6.58325 8.83301 6.08293 8.83301 5.41626C8.83317 4.74976 9.33344 4.25024 10 4.25024Z" fill="#200040"/>
</g>
<defs>
<clipPath id="clip0_11_461">
<rect width="20" height="20" fill="white"/>
</clipPath>
</defs>
</svg>
