<svg width="20" height="20" viewBox="0 0 20 20" fill="none" xmlns="http://www.w3.org/2000/svg">
<path d="M15.8333 2.50079C16.25 2.50079 16.5003 2.91746 16.5003 3.25079C16.5001 3.58398 16.2498 3.91681 15.8333 3.91681H13.0003L8.50032 15.8338H11.6663C11.9997 15.8338 12.3333 16.1675 12.3333 16.5008C12.3331 16.834 12.0828 17.1668 11.6663 17.1668H4.16634C3.83326 17.1666 3.50061 16.8339 3.50032 16.5008C3.50032 16.1675 3.74987 15.834 4.16634 15.8338H7.00032L11.5003 3.91681H8.33333C8.00011 3.91681 7.66657 3.6672 7.66634 3.25079C7.66634 2.83413 8 2.50079 8.33333 2.50079H15.8333Z" fill="#200040"/>
</svg>
