<svg width="20" height="20" viewBox="0 0 20 20" fill="none" xmlns="http://www.w3.org/2000/svg">
<g clip-path="url(#clip0_18_1017)">
<path d="M14.7495 1.00006C15.8328 -0.166605 17.5835 -0.249939 18.8335 0.750061C19.4167 1.25006 19.8332 2.0005 19.9165 2.91705C19.9164 3.8335 19.6667 4.66682 19.0835 5.25006L18.2495 6.16705C17.9996 6.41685 17.666 6.58307 17.2495 6.58307H15.9165C15.8332 6.58307 15.7495 6.66673 15.7495 6.75006V7.33307C15.7495 8.24973 14.9998 8.91705 14.1665 8.91705H13.3335L13.2495 9.00006C13.2081 9.00006 13.1876 9.00041 13.1772 9.0108C13.1669 9.02121 13.1665 9.04162 13.1665 9.08307V10.3331C13.1665 10.7497 12.9995 11.1671 12.7495 11.4171C12.7079 11.4794 12.6563 11.5422 12.5991 11.6046L12.2339 11.9796C12.1767 12.0419 12.1251 12.1047 12.0835 12.1671C12.2501 12.667 12.3335 13.2502 12.3335 13.7501C12.3335 15.4167 11.6662 16.9164 10.4995 18.0831C9.41618 19.2497 7.83283 19.8331 6.24951 19.8331H6.1665C2.9165 19.8331 0.249837 17.0831 0.166504 13.8331C0.166565 12.2498 0.749924 10.6667 1.9165 9.50006C3.08309 8.33347 4.58298 7.66714 6.24951 7.66705C6.91618 7.66705 7.3335 7.6664 7.8335 7.83307L14.7495 1.00006ZM18.0835 1.83307C17.4168 1.24974 16.4168 1.33372 15.8335 1.91705L8.74951 9.00006C8.49949 9.2499 8.08276 9.33337 7.74951 9.25006C7.33302 9.16676 6.91652 9.0831 6.3335 9.08307C5.0835 9.08307 3.91618 9.5834 2.99951 10.5001C2.16635 11.3333 1.66657 12.5833 1.6665 13.8331C1.6665 16.2496 3.74966 18.4169 6.24951 18.4171C7.49951 18.4171 8.66683 17.9997 9.5835 17.0831C10.5 16.1665 10.9995 14.9999 10.9995 13.7501C10.9995 13.4168 10.9261 13.0833 10.8521 12.7501C10.815 12.5834 10.7773 12.4167 10.7495 12.2501C10.6662 12.0001 10.7499 11.75 10.9165 11.5001C11.0832 11.4167 11.5835 10.9164 11.8335 10.5831V9.25006C11.8335 8.83355 11.9165 8.50027 12.2495 8.16705C12.4995 7.83372 12.9168 7.66705 13.3335 7.66705H14.1665C14.2498 7.66705 14.3334 7.58337 14.3335 7.50006V6.75006C14.3335 5.91673 14.9998 5.16705 15.9165 5.16705H17.2495L18.0835 4.25006C18.3279 4.00557 18.4374 3.67089 18.5444 3.34576C18.5833 3.22773 18.6221 3.111 18.6665 3.00006C18.6665 2.50008 18.4168 2.16639 18.0835 1.83307ZM5.24951 13.7501C5.83276 13.7501 6.33335 14.2498 6.3335 14.8331C6.3335 15.4164 5.83285 15.9171 5.24951 15.9171C4.66632 15.9169 4.1665 15.4163 4.1665 14.8331C4.16665 14.25 4.6664 13.7502 5.24951 13.7501Z" fill="#200040"/>
</g>
<defs>
<clipPath id="clip0_18_1017">
<rect width="20" height="20" fill="white"/>
</clipPath>
</defs>
</svg>
