<svg width="20" height="20" viewBox="0 0 20 20" fill="none" xmlns="http://www.w3.org/2000/svg">
<g clip-path="url(#clip0_11_730)">
<path d="M18.8335 13.0836C19.1668 12.8336 19.5832 12.917 19.6665 13.3336C19.8331 13.667 19.7498 14.167 19.4165 14.3336L10.5835 19.6666C10.4168 19.75 10.1665 19.8336 9.9165 19.8336C9.66676 19.8336 9.50026 19.8331 9.25049 19.6666L0.416504 14.3336C0.0833446 14.0837 0.000106148 13.6669 0.166504 13.3336C0.416471 13.0003 0.833192 12.917 1.1665 13.0836L10.0005 18.3336L18.8335 13.0836ZM18.8335 9.24963C19.1668 9.08307 19.5838 9.16645 19.7505 9.49963C19.9171 9.83284 19.8335 10.3328 19.5005 10.4996L10.6665 15.8336C10.4999 15.9169 10.2502 15.9996 10.0005 15.9996C9.75054 15.9996 9.58341 16.0002 9.3335 15.8336L0.500488 10.4996C0.167155 10.2496 0.0838216 9.83297 0.250488 9.49963C0.41722 9.16676 0.833366 9.08329 1.1665 9.24963L10.0005 14.5836L18.8335 9.24963ZM8.75049 0.666626C9.41714 0.250106 10.3336 0.250008 11.0835 0.666626L19.5005 5.66663C19.667 5.75005 19.8334 5.99987 19.8335 6.24963C19.8335 6.49961 19.7504 6.66697 19.5005 6.83362L10.6665 12.1666C10.4999 12.2499 10.2502 12.3335 10.0005 12.3336C9.75049 12.3336 9.5835 12.3333 9.3335 12.1666L0.500488 6.83362C0.250488 6.75029 0.0834961 6.49963 0.0834961 6.24963C0.0836409 5.99987 0.249996 5.75005 0.416504 5.66663L8.75049 0.666626ZM10.5005 1.83362C10.1672 1.66695 9.8335 1.66695 9.5835 1.83362L2.25049 6.24963L10.0005 10.9166L17.8335 6.24963L10.5005 1.83362Z" fill="#200040"/>
</g>
<defs>
<clipPath id="clip0_11_730">
<rect width="20" height="20" fill="white"/>
</clipPath>
</defs>
</svg>
