<svg width="20" height="20" viewBox="0 0 20 20" fill="none" xmlns="http://www.w3.org/2000/svg">
<path d="M15.8327 1.83368C18.0827 1.83368 19.8327 3.58368 19.8327 5.83368V14.1667C19.8327 16.3333 18.0827 18.1667 15.8327 18.1667H4.16667C2.00001 18.1667 0.16669 16.4167 0.166668 14.1667V5.83368C0.166668 3.58368 1.91667 1.83368 4.16667 1.83368H15.8327ZM1.58268 7.33368V14.1667C1.58271 15.5833 2.75002 16.7497 4.16667 16.7497H5.99968V7.33368H1.58268ZM7.41667 7.33368V16.7497H15.8327C17.2493 16.7497 18.4163 15.5833 18.4997 14.1667V7.33368H7.41667ZM4.16667 3.24969C2.75 3.24969 1.58268 4.41701 1.58268 5.83368V5.91669H18.4167V5.83368C18.4167 4.41701 17.2493 3.24969 15.8327 3.24969H4.16667Z" fill="#200040"/>
</svg>
