<svg width="20" height="20" viewBox="0 0 20 20" fill="none" xmlns="http://www.w3.org/2000/svg">
<g clip-path="url(#clip0_18_1015)">
<path d="M10.0005 0.083313C15.417 0.0834936 19.9165 4.58375 19.9165 10.0003C19.9163 15.4167 15.4169 19.9161 10.0005 19.9163C4.58393 19.9163 0.0836767 15.4168 0.0834961 10.0003C0.0834961 4.58364 4.58382 0.083313 10.0005 0.083313ZM12.3335 13.5003C11.6669 13.9169 10.8331 14.2503 9.9165 14.2503C9.00013 14.2502 8.16702 14.0001 7.50049 13.5003L4.50049 16.5003C6.00041 17.7501 7.75033 18.5003 9.8335 18.5003C11.9168 18.5003 13.8335 17.7502 15.3335 16.5003L12.3335 13.5003ZM13.4165 7.58331C13.8332 8.24998 14.1665 9.08364 14.1665 10.0003C14.1664 10.9168 13.9164 11.7497 13.4165 12.4163L16.4165 15.5833C17.6665 14.0833 18.4165 12.1666 18.4165 10.0833C18.4165 7.99998 17.6665 6.08331 16.4165 4.58331L13.4165 7.58331ZM3.50049 4.50031C2.25057 6.00022 1.50057 7.91645 1.50049 9.91632C1.50049 11.9996 2.2505 13.9163 3.50049 15.4163L6.50049 12.4163C6.0839 11.7497 5.75057 10.9168 5.75049 10.0003C5.75049 9.08368 6.08385 8.25028 6.50049 7.50031L3.50049 4.50031ZM10.0005 7.16632C8.41716 7.16632 7.1665 8.41697 7.1665 10.0003C7.16668 11.5835 8.41726 12.8333 10.0005 12.8333C11.5836 12.8331 12.8333 11.5834 12.8335 10.0003C12.8335 8.41708 11.5837 7.16649 10.0005 7.16632ZM10.0005 1.50031C7.91717 1.50031 6.00048 2.25032 4.50049 3.50031L7.5835 6.58331C8.25016 6.08331 9.16683 5.75031 10.0835 5.75031C11.0002 5.75031 11.8338 6.00031 12.5005 6.50031L15.5005 3.50031C14.0006 2.25037 12.0837 1.50038 10.0005 1.50031Z" fill="#200040"/>
</g>
<defs>
<clipPath id="clip0_18_1015">
<rect width="20" height="20" fill="white"/>
</clipPath>
</defs>
</svg>
