<svg width="20" height="20" viewBox="0 0 20 20" fill="none" xmlns="http://www.w3.org/2000/svg">
<path d="M16.5835 8.66699C17.1668 8.66699 17.6668 8.83333 18.0835 9.25C18.5002 9.58333 18.7498 10.1667 18.6665 10.75V13.583C18.6665 13.9163 18.417 14.2498 18.0005 14.25C17.6672 14.1667 17.3335 13.9167 17.3335 13.5V11L11.0835 17.333H13.5835C13.9168 17.333 14.2505 17.5833 14.2505 18C14.2505 18.4167 14.0002 18.75 13.5835 18.75H10.7505C10.1673 18.75 9.66709 18.5834 9.25049 18.167C8.91722 17.7504 8.6666 17.2502 8.6665 16.667V13.833C8.66667 13.4998 8.91697 13.167 9.3335 13.167C9.66674 13.167 10.0003 13.4165 10.0005 13.833V16.333L16.2505 10H13.7505C13.4172 10 13.0835 9.74967 13.0835 9.33301C13.0837 8.99978 13.334 8.66699 13.7505 8.66699H16.5835ZM6.4165 1.5C6.74984 1.58333 7.0835 1.83333 7.0835 2.25C7.0835 2.58333 6.83317 2.91699 6.4165 2.91699H3.9165L10.3335 9.33301V6.83301C10.3336 6.41649 10.5839 6.08301 11.0005 6.08301C11.3337 6.08317 11.6665 6.33347 11.6665 6.75V9.58301C11.6665 10.1663 11.5 10.6664 11.0835 11.083C10.6668 11.4163 10.1668 11.667 9.5835 11.667L6.75049 11.583C6.41724 11.583 6.08367 11.3335 6.0835 10.917C6.0835 10.5837 6.33382 10.25 6.75049 10.25H9.25049L2.9165 3.91699V6.41699C2.91634 6.75013 2.66682 7.08283 2.25049 7.08301C1.91724 7.08301 1.58367 6.83346 1.5835 6.41699V3.58301C1.58357 3.08312 1.75024 2.5829 2.0835 2.08301C2.50013 1.74974 3.00024 1.5 3.5835 1.5H6.4165Z" fill="#200040"/>
</svg>
