<svg width="20" height="20" viewBox="0 0 20 20" fill="none" xmlns="http://www.w3.org/2000/svg">
<path d="M16.666 16.75C17.0827 16.75 17.333 17.0837 17.333 17.417C17.3328 17.7502 17.0825 18.083 16.666 18.083H3.33301C2.99984 18.0829 2.66623 17.7502 2.66602 17.417C2.66602 17.0837 2.91644 16.7501 3.33301 16.75H16.666ZM10 2.75C10.5832 2.75003 11.0834 2.91644 11.5 3.33301L13.583 5.41699C13.8329 5.66702 13.833 6.16702 13.583 6.41699C13.4164 6.50028 13.2496 6.58301 13.083 6.58301C12.9164 6.58295 12.7496 6.49962 12.583 6.33301L10.833 4.58301V13.5L12.583 11.75C12.833 11.5 13.333 11.5001 13.583 11.75C13.833 12 13.833 12.5 13.583 12.75L11.583 14.75C11.1664 15.0833 10.6663 15.333 10.083 15.333C9.49974 15.333 8.99964 15.1666 8.58301 14.75L6.58301 12.75C6.33312 12.5 6.33312 12 6.58301 11.75C6.83298 11.5 7.33298 11.5001 7.58301 11.75L9.33301 13.5V4.58301L7.58301 6.33301C7.33301 6.58301 6.83301 6.58301 6.58301 6.33301C6.33325 6.08293 6.33309 5.58293 6.58301 5.33301L8.58301 3.33301C8.91634 2.99971 9.41671 2.75 10 2.75Z" fill="#200040"/>
</svg>
