<svg width="20" height="20" viewBox="0 0 20 20" fill="none" xmlns="http://www.w3.org/2000/svg">
<path d="M4.16699 2.66699C5.0001 2.66725 5.66699 3.33382 5.66699 4.16699C5.66699 4.3335 5.66622 4.49972 5.58301 4.58301L15.333 14.417C15.4996 14.3337 15.6664 14.333 15.833 14.333C16.6662 14.333 17.3331 14.9998 17.25 15.833C17.25 16.6663 16.5833 17.3329 15.75 17.333C14.9167 17.333 14.25 16.6663 14.25 15.833C14.25 15.6664 14.2497 15.4996 14.333 15.333L4.58301 5.58301C4.49976 5.66626 4.3335 5.66699 4.16699 5.66699C3.33378 5.66699 2.66621 5.00015 2.66602 4.16699C2.66602 3.33366 3.33366 2.66699 4.16699 2.66699Z" fill="#200040"/>
</svg>
