<svg width="20" height="20" viewBox="0 0 20 20" fill="none" xmlns="http://www.w3.org/2000/svg">
<g clip-path="url(#clip0_11_524)">
<path d="M9.83301 5.16626C11.1662 5.16626 12.4161 5.66648 13.416 6.66626C13.5827 6.83293 13.7493 7.00024 13.916 7.25024C14.166 7.50024 14.0827 8.00024 13.666 8.25024C13.3327 8.49991 12.9159 8.41646 12.666 8.08325C12.5827 7.91667 12.4996 7.83288 12.333 7.66626C11.6664 6.99976 10.7498 6.58334 9.75 6.58325C8.75 6.58325 7.83268 6.99959 7.16602 7.66626L2.58301 12.2502C1.16656 13.6669 1.16656 15.9996 2.58301 17.4163C3.33301 18.0829 4.25 18.4163 5.25 18.4163C6.24987 18.4162 7.16641 17.9998 7.83301 17.3333L8.66602 16.5002C8.91602 16.2502 9.41634 16.2502 9.58301 16.5002C9.83284 16.7503 9.83295 17.2503 9.58301 17.5002L8.75 18.3333C7.83333 19.3333 6.49935 19.8333 5.16602 19.8333C3.8328 19.8332 2.58293 19.3332 1.58301 18.3333C-0.416992 16.3333 -0.416992 13.1663 1.58301 11.1663L6.16602 6.58325C7.16602 5.66658 8.49967 5.16626 9.83301 5.16626ZM11.25 1.58325C13.25 -0.416531 16.4161 -0.416532 18.416 1.58325C20.3327 3.58325 20.333 6.83358 18.333 8.75024L13.75 13.3333C12.75 14.3333 11.4993 14.8333 10.166 14.8333C8.8328 14.8332 7.58293 14.3332 6.58301 13.3333C6.41639 13.1666 6.24962 13.0001 6.08301 12.7502C5.83304 12.5003 5.91647 12.0003 6.33301 11.7502C6.66627 11.5003 7.08299 11.5831 7.33301 11.9163C7.41631 12.0829 7.49946 12.1667 7.66602 12.3333C9.08268 13.7499 11.4163 13.7499 12.833 12.3333L17.416 7.75024C18.8327 6.33358 18.8327 3.99992 17.416 2.58325C15.9994 1.1668 13.6666 1.1668 12.25 2.58325L11.416 3.41626C11.166 3.66626 10.666 3.66626 10.416 3.41626C10.1663 3.16615 10.1661 2.66615 10.416 2.41626L11.25 1.58325Z" fill="#200040"/>
</g>
<defs>
<clipPath id="clip0_11_524">
<rect width="20" height="20" fill="white"/>
</clipPath>
</defs>
</svg>
