<svg width="20" height="20" viewBox="0 0 20 20" fill="none" xmlns="http://www.w3.org/2000/svg">
<g clip-path="url(#clip0_11_526)">
<path d="M4.50009 7.3331C4.7502 7.08343 5.2502 7.08321 5.50009 7.3331C5.7499 7.58302 5.74974 8.08302 5.50009 8.3331L2.8331 11.0831C1.16643 12.7498 1.16643 15.5004 2.8331 17.1671C4.49968 18.8334 7.24949 18.8333 8.91611 17.1671L11.5831 14.5001C11.9164 14.1668 12.3328 14.1671 12.6661 14.4171C12.916 14.6671 12.9161 15.1671 12.6661 15.4171L10.0001 18.0831C8.83342 19.1664 7.41611 19.7501 5.91611 19.7501C4.41619 19.75 2.91637 19.1664 1.8331 18.0831C-0.41682 15.9164 -0.416874 12.2501 1.8331 10.0001L4.50009 7.3331ZM12.0001 7.00009C12.2501 6.75026 12.6668 6.75015 13.0001 7.00009C13.2498 7.25012 13.2498 7.75012 13.0001 8.00009L8.00009 13.0001C7.83356 13.0834 7.66662 13.1669 7.50009 13.1671C7.33351 13.1671 7.16668 13.1665 7.00009 13.0001C6.75009 12.7501 6.75009 12.2501 7.00009 12.0001L12.0001 7.00009ZM10.0831 1.75009C12.2497 -0.499882 15.9161 -0.499828 18.1661 1.75009C20.4161 4.00009 20.4161 7.66643 18.1661 9.8331L15.4161 12.5831C15.2495 12.6664 15.0827 12.7501 14.9161 12.7501C14.7495 12.7501 14.5827 12.7497 14.4161 12.5831C14.1664 12.333 14.1662 11.833 14.4161 11.5831L17.1661 8.8331C18.8328 7.16643 18.8328 4.41676 17.1661 2.75009C15.4994 1.08351 12.7497 1.08345 11.0831 2.75009L8.3331 5.50009C8.08313 5.75006 7.58313 5.75001 7.3331 5.50009C7.0831 5.25009 7.0831 4.75009 7.3331 4.50009L10.0831 1.75009Z" fill="#200040"/>
</g>
<defs>
<clipPath id="clip0_11_526">
<rect width="20" height="20" fill="white"/>
</clipPath>
</defs>
</svg>
