<svg width="20" height="20" viewBox="0 0 20 20" fill="none" xmlns="http://www.w3.org/2000/svg">
<path d="M1.58301 14.667C2.33301 14.667 2.91699 15.25 2.91699 16C2.91699 16.75 2.33301 17.333 1.58301 17.333C0.833165 17.3328 0.25 16.7499 0.25 16C0.250001 15.2501 0.833165 14.6672 1.58301 14.667ZM19 15.25C19.4167 15.25 19.75 15.5003 19.75 15.917C19.7499 16.3335 19.4996 16.667 19.083 16.667H6.66699C6.25033 16.667 5.91699 16.4167 5.91699 16C5.91699 15.5835 6.16658 15.2502 6.58301 15.25H19ZM1.58301 8.83301C2.33301 8.83301 2.91699 9.41699 2.91699 10.167C2.91682 10.9168 2.3329 11.5 1.58301 11.5C0.833273 11.4998 0.250168 10.9167 0.25 10.167C0.25 9.4171 0.833164 8.83318 1.58301 8.83301ZM19 9.41699C19.4166 9.41699 19.7498 9.66654 19.75 10.083C19.75 10.4997 19.4997 10.833 19.083 10.833H6.66699C6.25043 10.833 5.91717 10.5835 5.91699 10.167C5.91699 9.75046 6.16659 9.41721 6.58301 9.41699H19ZM1.58301 3C2.3329 3 2.91682 3.58316 2.91699 4.33301C2.91699 5.08301 2.33301 5.66699 1.58301 5.66699C0.833164 5.66682 0.25 5.0829 0.25 4.33301C0.250169 3.58327 0.833273 3.00017 1.58301 3ZM18.917 3.66699C19.3334 3.66709 19.6668 3.91662 19.667 4.33301C19.667 4.74967 19.4167 5.08301 19 5.08301H6.58301C6.24981 5.08267 5.91699 4.66621 5.91699 4.33301C5.91721 3.99982 6.25009 3.66706 6.5 3.66699H18.917Z" fill="#200040"/>
</svg>
