<svg width="20" height="20" viewBox="0 0 20 20" fill="none" xmlns="http://www.w3.org/2000/svg">
<path d="M2.58374 14.5L1.83374 15.417C2.25032 15.5004 2.83357 15.8335 2.83374 16.583C2.83374 17.2496 2.33356 17.8328 1.58374 17.833C1.08374 17.833 0.583089 17.5 0.499756 17.25L0.666748 16.75C0.833415 17.1667 1.16707 17.25 1.58374 17.25C2.00008 17.2499 2.24959 17.0001 2.24976 16.667C2.24976 16.3337 2.00021 16.0831 1.58374 16.083C1.41707 16.083 1.25008 16.0837 1.16675 16.167L1.08374 15.667L1.83374 14.667H0.666748V14H2.58374V14.5ZM19.1667 15.25C19.5001 15.25 19.9167 15.6667 19.9167 16C19.9167 16.3333 19.5834 16.667 19.1667 16.667H6.74976C6.33338 16.6668 5.99997 16.2502 5.99976 15.917C5.99976 15.5837 6.33324 15.2502 6.74976 15.25H19.1667ZM1.49976 8.16699C2.24963 8.16699 2.66661 8.6665 2.66675 9.33301C2.66675 9.91628 2.41664 10.2498 1.91675 10.833L1.33374 11.5H2.74976V12.167H0.416748V11.667L1.49976 10.417C1.5473 10.3576 1.59378 10.3014 1.63745 10.248C1.89974 9.92747 2.0836 9.70255 2.08374 9.41699C2.08374 9.08366 1.91642 8.83301 1.49976 8.83301C1.08341 8.83314 0.833371 9.08315 0.666748 9.33301L0.416748 8.91699C0.500063 8.50042 0.999864 8.16714 1.49976 8.16699ZM19.1667 9.5C19.5001 9.5 19.9167 9.83366 19.9167 10.167C19.9165 10.5002 19.5833 10.833 19.1667 10.833H6.74976C6.33338 10.8328 5.99997 10.5001 5.99976 10.167C5.99976 9.83375 6.33324 9.50017 6.74976 9.5H19.1667ZM2.08374 6.66699H1.33374V3L0.416748 3.66699V2.83301L1.49976 2H2.08374V6.66699ZM19.1667 3.66699C19.5001 3.66699 19.9167 4.08366 19.9167 4.41699C19.9165 4.75022 19.5833 5.08301 19.1667 5.08301H6.74976C6.33324 5.08279 5.99976 4.66625 5.99976 4.33301C5.99997 3.99987 6.33338 3.66717 6.74976 3.66699H19.1667Z" fill="#200040"/>
</svg>
