<svg width="20" height="20" viewBox="0 0 20 20" fill="none" xmlns="http://www.w3.org/2000/svg">
<g clip-path="url(#clip0_11_608)">
<path d="M10.0005 16.7503C10.3336 16.7505 10.6663 17.0832 10.6665 17.4163V19.1663C10.6665 19.5829 10.417 19.9161 10.0005 19.9163C9.66724 19.9163 9.33367 19.6668 9.3335 19.2503V17.5003C9.25016 17.0836 9.58382 16.7503 10.0005 16.7503ZM13.3335 15.8333C13.6668 15.6666 14.1668 15.75 14.3335 16.0833L15.1665 17.5833C15.3332 17.9166 15.2498 18.4166 14.9165 18.5833C14.8331 18.6665 14.6668 18.6663 14.5835 18.6663C14.3335 18.6663 14.1671 18.5832 14.0005 18.3333L13.0835 16.8333C12.9168 16.5 13.0002 16 13.3335 15.8333ZM5.5835 16.0833C5.8335 15.75 6.25016 15.6666 6.5835 15.8333C6.91683 16.0833 7.0835 16.5003 6.8335 16.7503L5.9165 18.2503C5.83304 18.5 5.58337 18.5833 5.3335 18.5833C5.25027 18.5833 5.08393 18.5833 5.00049 18.5003C4.6672 18.3337 4.49995 17.9166 4.6665 17.5833L5.5835 16.0833ZM3.25049 13.1663C3.58363 13 3.99977 13.0834 4.1665 13.4163C4.33315 13.7496 4.25004 14.1663 3.8335 14.4163L2.3335 15.2503C2.25022 15.3334 2.08388 15.3333 2.00049 15.3333C1.75051 15.3333 1.58315 15.2502 1.4165 15.0003C1.24984 14.667 1.33382 14.167 1.75049 14.0003L3.25049 13.1663ZM15.7505 13.4163C16.0005 13.0833 16.4173 12.9997 16.7505 13.1663L18.2505 14.0003C18.5836 14.1672 18.7497 14.6671 18.4165 15.0003C18.333 15.1668 18.0833 15.3333 17.8335 15.3333C17.7503 15.3333 17.5839 15.3333 17.5005 15.2503L16.0005 14.4163C15.6672 14.1663 15.5838 13.7497 15.7505 13.4163ZM2.50049 9.33331C2.91701 9.25021 3.25049 9.58374 3.25049 10.0003C3.25027 10.3335 2.9169 10.6669 2.50049 10.7503H0.750488C0.417155 10.7503 0.0834961 10.5 0.0834961 10.0833C0.0834969 9.66665 0.333822 9.33331 0.750488 9.33331H2.50049ZM19.1665 9.25031C19.583 9.25031 19.8333 9.5831 19.8335 9.91632C19.8335 10.333 19.5832 10.6663 19.1665 10.6663H17.4165C17.0834 10.6662 16.7507 10.4166 16.7505 10.0003C16.7505 9.58375 17 9.25048 17.4165 9.25031H19.1665ZM1.4165 5.00031C1.58315 4.66702 2.08317 4.58373 2.4165 4.75031L3.9165 5.58331C4.24984 5.83331 4.33317 6.24998 4.1665 6.58331C4.08311 6.74994 3.83343 6.91632 3.5835 6.91632C3.41683 6.91632 3.33317 6.91665 3.1665 6.83331L1.6665 6.00031C1.33341 5.83364 1.25012 5.3336 1.4165 5.00031ZM17.5005 4.75031C17.9171 4.50039 18.3338 4.667 18.5005 5.00031C18.7501 5.3336 18.5836 5.83363 18.2505 6.00031L16.7505 6.83331C16.6672 6.91665 16.4998 6.91632 16.4165 6.91632C16.1666 6.91625 15.9168 6.8332 15.8335 6.58331C15.5835 6.24998 15.7505 5.83331 16.0005 5.58331L17.5005 4.75031ZM5.00049 1.50031C5.33368 1.25045 5.74972 1.33333 5.9165 1.66632L6.8335 3.16632C7.00014 3.49961 6.91672 3.99959 6.5835 4.16632C6.50027 4.24955 6.33393 4.25031 6.25049 4.25031C6.00049 4.25031 5.74984 4.16632 5.6665 3.91632L4.75049 2.41632C4.50054 2.083 4.66717 1.66696 5.00049 1.50031ZM14.0005 1.75031C14.2505 1.41697 14.6672 1.33364 15.0005 1.50031C15.3335 1.66709 15.4164 2.08313 15.1665 2.41632L14.2505 3.91632C14.1672 4.16632 13.9165 4.25031 13.6665 4.25031C13.5831 4.25031 13.4167 4.24955 13.3335 4.16632C13.0004 3.91638 12.9171 3.50029 13.0835 3.25031L14.0005 1.75031ZM10.0005 0.083313C10.3337 0.083529 10.6665 0.41708 10.6665 0.750305V2.50031C10.6664 2.91671 10.4169 3.25013 10.0005 3.25031C9.66716 3.25031 9.3335 2.99998 9.3335 2.58331V0.833313C9.25016 0.416647 9.58382 0.083313 10.0005 0.083313Z" fill="#200040"/>
</g>
<defs>
<clipPath id="clip0_11_608">
<rect width="20" height="20" fill="white"/>
</clipPath>
</defs>
</svg>
