<svg width="20" height="20" viewBox="0 0 20 20" fill="none" xmlns="http://www.w3.org/2000/svg">
<path d="M9.99968 19.9166C4.58301 19.9166 0.0830116 15.4166 0.0830116 9.99992C0.0830116 4.58325 4.58301 0.083252 9.99968 0.083252C14.2497 0.083252 17.9997 2.74992 19.333 6.83325C19.4163 7.16658 19.2497 7.58325 18.9163 7.74992C18.583 7.91658 18.1663 7.66658 17.9997 7.33325C16.833 3.91658 13.583 1.58325 9.99968 1.58325C5.33301 1.49992 1.49968 5.33325 1.49968 9.99992C1.49968 14.6666 5.33301 18.4999 9.99968 18.4999C11.9997 18.4999 13.9163 17.8333 15.4163 16.5833C15.7497 16.3333 16.1663 16.4166 16.4163 16.6666C16.6663 16.9999 16.583 17.4166 16.333 17.6666C14.4997 19.0833 12.333 19.9166 9.99968 19.9166Z" fill="#200040"/>
</svg>
