<svg width="20" height="20" viewBox="0 0 20 20" fill="none" xmlns="http://www.w3.org/2000/svg">
<g clip-path="url(#clip0_11_245)">
<path d="M15.4165 0.416321C16.6664 -0.166985 17.9998 0.0834301 18.9165 1.08331C19.8332 1.99997 20.0835 3.41666 19.5835 4.58331L13.7505 18.1663C13.2506 19.3328 12.2504 19.8332 11.2505 19.8333C11.0005 19.8333 10.8332 19.8336 10.6665 19.7503C9.25006 19.5003 8.33364 18.3335 8.3335 17.0003V11.6663H3.00049C1.41716 11.6663 0.416504 10.4997 0.166504 9.41632C-0.0832932 8.08313 0.583645 6.75027 1.8335 6.25031L15.4165 0.416321ZM16.7505 1.50031C16.5006 1.50031 16.2503 1.58304 16.0005 1.66632L2.4165 7.50031C1.58345 7.83368 1.41685 8.50006 1.5835 9.08331C1.66683 9.58331 2.08382 10.2503 3.00049 10.2503H9.75049V17.0003C9.75063 17.8334 10.3336 18.25 10.8335 18.3333C11.3334 18.4166 12.0831 18.3333 12.4165 17.5003L18.2505 3.91632C18.5836 3.08316 18.3331 2.33291 17.9165 1.91632C17.7496 1.7497 17.2501 1.50044 16.7505 1.50031Z" fill="#200040"/>
</g>
<defs>
<clipPath id="clip0_11_245">
<rect width="20" height="20" fill="white"/>
</clipPath>
</defs>
</svg>
