<svg width="20" height="20" viewBox="0 0 20 20" fill="none" xmlns="http://www.w3.org/2000/svg">
<path d="M9.99968 0.166748C13.083 0.16675 15.6667 2.66707 15.6667 5.83374V7.08374C17.1665 7.75048 18.25 9.16722 18.1667 10.8337V15.8337C18.1665 18.0002 16.4164 19.8336 14.1667 19.8337H5.83269C3.66627 19.8336 1.83287 18.0835 1.83269 15.8337V10.8337C1.83269 9.08389 2.8329 7.66717 4.33269 7.08374V5.83374C4.33269 2.66707 6.91635 0.166748 9.99968 0.166748ZM5.83269 8.24976C4.41617 8.24993 3.24968 9.41718 3.24968 10.8337V15.8337C3.24986 17.2502 4.41627 18.4166 5.83269 18.4167H14.2497C15.6662 18.4167 16.8325 17.2503 16.8327 15.8337H16.7497V10.8337C16.7497 9.41718 15.5832 8.24994 14.1667 8.24976H5.83269ZM9.99968 11.8337C10.4162 11.8337 10.6665 12.0833 10.6667 12.4998V14.1667C10.6667 14.5001 10.333 14.8337 9.99968 14.8337C9.66635 14.8337 9.33269 14.5834 9.33269 14.1667V12.4998C9.33285 12.1665 9.58315 11.8337 9.99968 11.8337ZM9.99968 1.58374C7.66635 1.58374 5.74968 3.50041 5.74968 5.83374V6.83374H14.2497V5.83374C14.2497 3.50041 12.333 1.58374 9.99968 1.58374Z" fill="#200040"/>
</svg>
