<svg width="20" height="20" viewBox="0 0 20 20" fill="none" xmlns="http://www.w3.org/2000/svg">
<g clip-path="url(#clip0_11_517)">
<path d="M5.83398 0.166626C6.25046 0.166843 6.5 0.583379 6.5 0.916626C6.5 1.24987 6.25046 1.58344 5.83398 1.58362H4.25C2.75027 1.58379 1.58415 2.7499 1.58398 4.24963V15.7496C1.58398 17.2495 2.75016 18.4165 4.25 18.4166H5.83398C6.25046 18.4168 6.5 18.8334 6.5 19.1666C6.5 19.4999 6.25046 19.8334 5.83398 19.8336H4.25C2.00015 19.8334 0.166992 17.9995 0.166992 15.7496V4.24963C0.167169 1.99989 2.00026 0.166803 4.25 0.166626H5.83398ZM8.5 4.49963C8.74989 4.24974 9.24989 4.24996 9.5 4.49963C9.75 4.74963 9.75 5.24963 9.5 5.49963L6.16699 8.83362C6.00043 9.00023 5.91729 9.16701 5.83398 9.33362H19.167C19.5835 9.33362 19.8339 9.58316 19.834 9.99963C19.834 10.333 19.5837 10.6666 19.167 10.6666H5.91699C6.00033 10.8333 6.08333 10.917 6.25 11.0836L9.58398 14.4166C9.83377 14.6666 9.83377 15.1666 9.58398 15.4166C9.41743 15.5832 9.25054 15.6665 9.08398 15.6666C8.91732 15.6666 8.75065 15.6663 8.58398 15.4996L5.25 12.1666C4.66677 11.5833 4.33398 10.8329 4.33398 9.99963C4.33405 9.16651 4.58385 8.41685 5.16699 7.83362L8.5 4.49963Z" fill="#200040"/>
</g>
<defs>
<clipPath id="clip0_11_517">
<rect width="20" height="20" fill="white"/>
</clipPath>
</defs>
</svg>
