<svg width="20" height="20" viewBox="0 0 20 20" fill="none" xmlns="http://www.w3.org/2000/svg">
<g clip-path="url(#clip0_11_516)">
<path d="M5.83398 0.166626C6.25046 0.166843 6.5 0.583379 6.5 0.916626C6.5 1.24987 6.25046 1.58344 5.83398 1.58362H4.25C2.75027 1.58379 1.58415 2.7499 1.58398 4.24963V15.7496C1.58398 17.2495 2.75016 18.4165 4.25 18.4166H5.83398C6.25046 18.4168 6.5 18.8334 6.5 19.1666C6.5 19.4999 6.25046 19.8334 5.83398 19.8336H4.25C2.00015 19.8334 0.166992 17.9995 0.166992 15.7496V4.24963C0.167169 1.99989 2.00026 0.166803 4.25 0.166626H5.83398ZM14.667 4.49963C14.917 4.24985 15.417 4.24985 15.667 4.49963L19 7.83362C19.5833 8.41687 19.8339 9.16643 19.834 9.99963C19.834 10.833 19.5003 11.5833 18.917 12.1666L15.584 15.4996C15.4174 15.5829 15.2505 15.6665 15.084 15.6666C14.9174 15.6666 14.7506 15.5832 14.584 15.4166C14.334 15.1666 14.334 14.6666 14.584 14.4166L17.917 11.0836C18.0836 11.0003 18.1667 10.8333 18.25 10.6666H5C4.66677 10.6665 4.33398 10.4162 4.33398 9.99963C4.33415 9.6665 4.58366 9.33379 5 9.33362H18.334C18.2507 9.16696 18.1667 9.00028 18 8.83362L14.667 5.49963C14.4172 5.24958 14.417 4.74958 14.667 4.49963Z" fill="#200040"/>
</g>
<defs>
<clipPath id="clip0_11_516">
<rect width="20" height="20" fill="white"/>
</clipPath>
</defs>
</svg>
