<svg width="20" height="20" viewBox="0 0 20 20" fill="none" xmlns="http://www.w3.org/2000/svg">
<path d="M15.834 1C18.0838 1.00017 19.834 2.75011 19.834 5V15C19.834 17.1666 18.0838 18.9998 15.834 19H4.16699C2.00033 19 0.166992 17.25 0.166992 15V5C0.166992 2.75 1.91699 1 4.16699 1H15.834ZM12.834 11.5C12.084 12.25 11 12.667 10 12.667C9.00009 12.6669 7.91691 12.2499 7.16699 11.5L1.58398 5.91699V15C1.58398 16.4167 2.75033 17.583 4.16699 17.583H15.834C17.2505 17.5828 18.417 16.4166 18.417 15V5.91699L12.834 11.5ZM4.16699 2.41699C3.08373 2.41699 2.0834 3.08312 1.75 4.08301L8.16699 10.583C9.16699 11.583 10.834 11.583 11.834 10.583L18.25 4.16699C17.9167 3.16709 17.0005 2.41713 15.834 2.41699H4.16699Z" fill="#200040"/>
</svg>
