<svg width="20" height="20" viewBox="0 0 20 20" fill="none" xmlns="http://www.w3.org/2000/svg">
<g clip-path="url(#clip0_11_240)">
<path d="M12.7495 0.249939C13.3327 0.0833034 13.9163 0.166621 14.4995 0.249939H14.5835L17.5835 1.24994C18.8333 1.66668 19.6668 2.83341 19.5835 4.24994V15.9169C19.5834 16.8335 19.2498 17.6667 18.6665 18.2499C17.8332 18.9999 16.5835 19.3331 15.5835 18.9999L13.5835 18.4169C13.1668 18.3336 12.8328 18.3336 12.4995 18.4169L7.74951 19.7499C7.24965 19.8333 6.83309 19.9169 6.4165 19.9169C5.99984 19.9169 5.58317 19.8333 5.1665 19.7499L2.74951 18.9999C0.999783 18.4999 -0.0833896 17 -0.0834961 15.1669V5.08295C-0.0833612 3.83307 0.583597 2.58353 1.5835 1.91693L2.1665 1.49994C3.41647 0.666636 4.33317 0.916614 4.9165 1.24994L6.5835 1.99994H6.8335L12.7495 0.249939ZM3.74951 2.33295C3.58284 2.33306 3.3329 2.41709 2.9165 2.66693L2.3335 3.08295C1.75026 3.49954 1.33364 4.33305 1.3335 5.08295V15.1669C1.33361 16.3335 2.08325 17.3336 3.1665 17.6669L5.5835 18.3329C5.66683 18.4163 5.83317 18.4169 5.9165 18.4169V3.16693L4.1665 2.41693C4.08317 2.41693 3.91618 2.33295 3.74951 2.33295ZM7.3335 3.24994V18.4169H7.4165L12.1665 17.0829C12.3331 16.9997 12.4999 16.9999 12.6665 16.9999V1.74994L7.3335 3.24994ZM14.1665 17.0829L15.9995 17.6669C16.5828 17.8336 17.2495 17.6665 17.7495 17.2499C18.0828 16.9167 18.2495 16.4168 18.2495 15.9169V4.24994C18.2495 3.50002 17.8334 2.83299 17.0835 2.58295L14.1665 1.58295V17.0829Z" fill="#200040"/>
</g>
<defs>
<clipPath id="clip0_11_240">
<rect width="20" height="20" fill="white"/>
</clipPath>
</defs>
</svg>
