<svg width="20" height="20" viewBox="0 0 20 20" fill="none" xmlns="http://www.w3.org/2000/svg">
<path d="M4.33301 2.50037C7.49964 -0.666269 12.75 -0.583523 16 2.66638C16.6667 3.41638 17.0833 4.00004 17.5 4.83337C18.4166 6.75002 18.4163 8.91706 17.583 11.0004C16.6662 13.1671 14.25 16.7501 13.5 17.8334C12.6667 19 11.4166 19.6664 10 19.6664C8.58336 19.6664 7.33333 19 6.5 17.8334C4.83336 15.3334 3.16669 12.75 2.5 11.0834C1.66667 9.08337 1.74967 6.74971 2.58301 4.91638C3.08292 3.9166 3.6665 3.16693 4.33301 2.50037ZM10 1.58337C8.33333 1.58337 6.58301 2.25037 5.33301 3.50037C4.74987 4.0836 4.33356 4.75024 3.91699 5.58337C3.167 7.00003 3.16635 8.91671 3.83301 10.5834C4.32349 11.8446 5.63952 13.872 6.9375 15.8724C7.18312 16.251 7.42832 16.6291 7.66699 17.0004C8.16706 17.7501 9.08352 18.1664 10 18.1664C10.9165 18.1664 11.833 17.7501 12.333 17.0004C14.2495 14.3339 15.6666 11.9171 16.25 10.5004C17 8.75037 17.0003 6.99972 16.167 5.41638C15.8337 4.74983 15.4169 4.16662 14.917 3.58337C13.5837 2.25006 11.75 1.58339 10 1.58337ZM10 5.08337C11.75 5.08341 13.25 6.50006 13.25 8.33337C13.25 10.1667 11.8333 11.5833 10 11.5834C8.16669 11.5834 6.75003 10.1667 6.75 8.33337C6.75 6.50004 8.25 5.08337 10 5.08337ZM10 6.58337C9.08333 6.58337 8.25 7.41671 8.25 8.33337C8.25003 9.25002 9.00002 10.0834 10 10.0834C10.9999 10.0833 11.75 9.25 11.75 8.33337C11.75 7.41673 10.9166 6.58341 10 6.58337Z" fill="#200040"/>
</svg>
