<svg width="20" height="20" viewBox="0 0 20 20" fill="none" xmlns="http://www.w3.org/2000/svg">
<g clip-path="url(#clip0_11_514)">
<path d="M0.916992 13.5836C1.25024 13.5836 1.58381 13.8332 1.58398 14.2496V15.9166C1.58399 17.3333 2.75033 18.4996 4.16699 18.4996H5.83398C6.25046 18.4998 6.5 18.8334 6.5 19.1666C6.5 19.4999 6.25046 19.8334 5.83398 19.8336H4.16699C2.00043 19.8336 0.16717 18.0835 0.166992 15.8336V14.1666C0.166992 13.8333 0.583659 13.5836 0.916992 13.5836ZM19.167 13.4996C19.5003 13.4996 19.8337 13.8336 19.917 14.0836V15.7496C19.917 17.9163 18.167 19.7496 15.917 19.7496H14.25C13.9169 19.7494 13.5842 19.4167 13.584 19.0836C13.584 18.7504 13.8335 18.4168 14.25 18.4166H15.917C17.3335 18.4166 18.4998 17.2501 18.5 15.8336V14.1666C18.5 13.8333 18.7503 13.4996 19.167 13.4996ZM5.83398 0.166626C6.25046 0.166843 6.5 0.583379 6.5 0.916626C6.5 1.24987 6.25046 1.58344 5.83398 1.58362H4.16699C2.75033 1.58362 1.58398 2.74996 1.58398 4.16663V5.83362C1.58377 6.24995 1.16718 6.49947 0.833984 6.49963C0.500738 6.49963 0.167166 6.25009 0.166992 5.83362V4.16663C0.166992 1.91663 2.00033 0.166626 4.16699 0.166626H5.83398ZM15.834 0.166626C18.0005 0.166803 19.8333 1.91674 19.75 4.16663V5.74963C19.75 6.08286 19.4172 6.41641 19.084 6.41663C18.7507 6.41663 18.417 6.1663 18.417 5.74963V4.08362C18.417 2.66706 17.2505 1.49981 15.834 1.49963H14.167C13.8338 1.49963 13.5002 1.16684 13.5 0.833618C13.5 0.500285 13.7503 0.166626 14.167 0.166626H15.834Z" fill="#200040"/>
</g>
<defs>
<clipPath id="clip0_11_514">
<rect width="20" height="20" fill="white"/>
</clipPath>
</defs>
</svg>
