<svg width="20" height="20" viewBox="0 0 20 20" fill="none" xmlns="http://www.w3.org/2000/svg">
<g clip-path="url(#clip0_11_532)">
<path d="M5.66602 13.3333C5.99935 13 6.5 13.0833 6.75 13.3333C6.99978 13.5833 6.99978 14.0833 6.75 14.3333L2.58301 18.5003H5.08301C5.41625 18.5003 5.74983 18.7498 5.75 19.1663C5.75 19.583 5.49967 19.9163 5.08301 19.9163H2.25C1.66674 19.9163 1.16663 19.7499 0.75 19.3333C0.416667 18.9166 0.166016 18.4166 0.166016 17.8333V15.0003C0.166016 14.667 0.416341 14.3333 0.833008 14.3333C1.16634 14.3333 1.5 14.5836 1.5 15.0003V17.5003L5.66602 13.3333ZM13.416 13.3333C13.666 13.0834 14.166 13.0835 14.416 13.3333L18.583 17.5003V15.0003C18.583 14.667 18.8333 14.3333 19.25 14.3333C19.5832 14.3335 19.916 14.6671 19.916 15.0003V17.8333C19.916 18.4166 19.7497 18.9166 19.333 19.3333C18.9163 19.6666 18.4163 19.9163 17.833 19.9163H15C14.6667 19.833 14.333 19.583 14.333 19.1663C14.4165 18.8331 14.7498 18.5003 15.083 18.5003H17.583L13.416 14.3333C13.1662 14.0833 13.1662 13.5833 13.416 13.3333ZM5 0.083313C5.33323 0.166723 5.66602 0.416774 5.66602 0.833313C5.66602 1.16656 5.41647 1.50013 5 1.50031H2.5L6.66602 5.75031C6.91602 6.00031 6.91602 6.50031 6.66602 6.75031C6.58236 6.83353 6.33247 6.91632 6.16602 6.91632C5.99946 6.91621 5.83284 6.83288 5.58301 6.66632L1.41602 2.50031V5.00031C1.41585 5.33344 1.16634 5.66615 0.75 5.66632C0.416753 5.66632 0.0831815 5.41678 0.0830078 5.00031V2.16632C0.0831163 1.66639 0.332755 1.0829 0.666016 0.666321C1.0826 0.33305 1.58282 0.083406 2.16602 0.083313H5ZM17.75 0.166321C18.3332 0.166383 18.8334 0.333716 19.25 0.750305C19.5832 1.1669 19.833 1.66714 19.833 2.25031V5.08331C19.833 5.41665 19.5827 5.75031 19.166 5.75031C18.8328 5.75014 18.5 5.49984 18.5 5.08331V2.58331L14.333 6.75031C14.1664 6.83362 13.9996 6.91632 13.833 6.91632C13.7111 6.91632 13.5891 6.8723 13.4346 6.81573C13.3781 6.79505 13.3168 6.77259 13.25 6.75031C13 6.50031 13 6.00031 13.25 5.75031L17.416 1.58331H14.916C14.5828 1.58315 14.25 1.33285 14.25 0.916321C14.2501 0.499914 14.4997 0.166494 14.916 0.166321H17.75Z" fill="#200040"/>
</g>
<defs>
<clipPath id="clip0_11_532">
<rect width="20" height="20" fill="white"/>
</clipPath>
</defs>
</svg>
