<svg width="20" height="20" viewBox="0 0 20 20" fill="none" xmlns="http://www.w3.org/2000/svg">
<g clip-path="url(#clip0_18_1013)">
<path fill-rule="evenodd" clip-rule="evenodd" d="M9.99998 2.49998C5.85784 2.49998 2.49998 5.85784 2.49998 9.99998C2.49998 14.1421 5.85784 17.5 9.99998 17.5C14.1421 17.5 17.5 14.1421 17.5 9.99998C17.5 5.85784 14.1421 2.49998 9.99998 2.49998ZM0.833313 9.99998C0.833313 4.93737 4.93737 0.833313 9.99998 0.833313C15.0626 0.833313 19.1666 4.93737 19.1666 9.99998C19.1666 15.0626 15.0626 19.1666 9.99998 19.1666C4.93737 19.1666 0.833313 15.0626 0.833313 9.99998ZM6.66665 7.49998C6.66665 7.03974 7.03974 6.66665 7.49998 6.66665H7.50831C7.96855 6.66665 8.34165 7.03974 8.34165 7.49998C8.34165 7.96022 7.96855 8.33331 7.50831 8.33331H7.49998C7.03974 8.33331 6.66665 7.96022 6.66665 7.49998ZM11.6666 7.49998C11.6666 7.03974 12.0397 6.66665 12.5 6.66665H12.5083C12.9685 6.66665 13.3416 7.03974 13.3416 7.49998C13.3416 7.96022 12.9685 8.33331 12.5083 8.33331H12.5C12.0397 8.33331 11.6666 7.96022 11.6666 7.49998ZM5.83331 12.5C5.83331 12.0397 6.20641 11.6666 6.66665 11.6666H13.3333C13.7935 11.6666 14.1666 12.0397 14.1666 12.5C14.1666 12.9602 13.7935 13.3333 13.3333 13.3333H6.66665C6.20641 13.3333 5.83331 12.9602 5.83331 12.5Z" fill="#200040"/>
</g>
<defs>
<clipPath id="clip0_18_1013">
<rect width="20" height="20" fill="white"/>
</clipPath>
</defs>
</svg>
