<svg width="20" height="20" viewBox="0 0 20 20" fill="none" xmlns="http://www.w3.org/2000/svg">
<path d="M19.1663 15.0837C19.4995 15.0837 19.8328 15.3331 19.6663 15.7497V16.0837C19.6663 16.1669 19.6665 16.2505 19.5833 16.3337C19.4999 16.5002 19.3331 16.5837 19.0833 16.5837H0.833252C0.666639 16.5837 0.499865 16.5002 0.333252 16.3337C0.333252 16.292 0.312093 16.2705 0.29126 16.2497C0.270536 16.229 0.250244 16.2081 0.250244 16.1667V16.0837C0.166911 16.0003 0.16626 15.9164 0.16626 15.7497C0.166423 15.4165 0.416721 15.0837 0.833252 15.0837H19.1663ZM19.0833 9.24969C19.2499 9.24969 19.3329 9.25035 19.4163 9.33368C19.6662 9.417 19.8335 9.66672 19.7502 9.91669C19.7502 10.3334 19.4999 10.6667 19.0833 10.6667H0.750244C0.416911 10.6667 0.083252 10.3334 0.083252 9.91669C0.0832522 9.58335 0.333578 9.24969 0.750244 9.24969H19.0833ZM19.1663 3.41669C19.2079 3.41669 19.2496 3.43787 19.2913 3.45868C19.3328 3.47946 19.3747 3.49959 19.4163 3.49969C19.6663 3.58303 19.8333 3.83335 19.8333 4.16669C19.8333 4.58335 19.5829 4.91669 19.1663 4.91669H0.833252C0.499919 4.91669 0.16626 4.58335 0.16626 4.16669C0.16626 3.83342 0.416471 3.50011 0.91626 3.41669H19.1663Z" fill="#200040"/>
</svg>
