<svg width="20" height="20" viewBox="0 0 20 20" fill="none" xmlns="http://www.w3.org/2000/svg">
<g clip-path="url(#clip0_17_850)">
<path d="M16.6665 0.0833435C18.4165 0.0833435 19.9165 1.50001 19.9165 3.33334V13.2503C19.9163 15.0002 18.4997 16.5003 16.6665 16.5003H14.5835C14.417 16.5003 14.25 16.5831 14.0835 16.6664L10.8335 19.2503C10.5835 19.5003 10.3328 19.5833 9.99951 19.5833C9.66643 19.5833 9.33338 19.5 9.0835 19.2503L5.99951 16.6664C5.83298 16.5831 5.66605 16.5003 5.49951 16.5003H3.4165C1.66661 16.5003 0.166682 15.0835 0.166504 13.2503V3.33334C0.166504 1.58334 1.58317 0.0833436 3.4165 0.0833435H16.6665ZM3.4165 1.58334C2.41661 1.58334 1.58368 2.4165 1.5835 3.41635V13.3333C1.5835 14.3333 2.4165 15.1664 3.4165 15.1664H5.5835C6.08325 15.1664 6.58301 15.3333 6.99951 15.6664L10.0835 18.2503L13.2495 15.6664C13.6662 15.333 14.1665 15.1664 14.6665 15.1664H16.7495C17.7495 15.1664 18.5835 14.3333 18.5835 13.3333V3.33334C18.5835 2.33334 17.7495 1.50034 16.7495 1.50034H3.4165V1.58334Z" fill="#200040"/>
</g>
<defs>
<clipPath id="clip0_17_850">
<rect width="20" height="20" fill="white"/>
</clipPath>
</defs>
</svg>
