<svg width="20" height="20" viewBox="0 0 20 20" fill="none" xmlns="http://www.w3.org/2000/svg">
<g clip-path="url(#clip0_6841_3217)">
<path d="M16.5835 0.166656C18.4167 0.166825 19.8329 1.58375 19.9995 3.33365V13.2497C19.9995 15.083 18.4995 16.4997 16.7495 16.4997H14.6665C14.4998 16.4997 14.3332 16.5833 14.1665 16.6667L10.9995 19.2497C10.6663 19.4996 10.4166 19.5836 10.0835 19.5836C9.75016 19.5836 9.4165 19.4997 9.1665 19.2497L6.0835 16.6667C5.91694 16.5834 5.75005 16.4998 5.5835 16.4997H3.4165C1.58317 16.4997 0.166504 14.9997 0.166504 13.2497V3.33365C0.166504 1.58365 1.58317 0.166656 3.4165 0.166656H16.5835ZM3.4165 1.49966C2.4165 1.49966 1.5835 2.33365 1.5835 3.33365V13.2497C1.5835 14.2497 2.4165 15.0836 3.4165 15.0836H5.49951C5.99951 15.0836 6.49984 15.2503 6.9165 15.5836L9.99951 18.1667L13.0835 15.5836C13.5001 15.2504 13.9996 15.0837 14.4995 15.0836H16.5835C17.5834 15.0835 18.4165 14.2496 18.4165 13.2497H18.4995V3.33365C18.4995 2.33365 17.6665 1.49967 16.6665 1.49966H3.4165ZM9.99951 5.83365C10.4161 5.83365 10.6664 6.08319 10.6665 6.49966V8.33365H12.4995C12.9162 8.33365 13.1665 8.66698 13.1665 9.08365C13.1664 9.50016 12.9161 9.83365 12.4995 9.83365H10.6665V11.6667C10.6665 12 10.3328 12.3336 9.99951 12.3336C9.66629 12.3335 9.3335 12.0832 9.3335 11.6667V9.83365H7.49951C7.16637 9.83343 6.83367 9.50003 6.8335 9.08365C6.8335 8.66709 7.08304 8.33382 7.49951 8.33365H9.3335V6.58365C9.3335 6.16709 9.58304 5.83382 9.99951 5.83365Z" fill="#200040"/>
</g>
<defs>
<clipPath id="clip0_6841_3217">
<rect width="20" height="20" fill="white"/>
</clipPath>
</defs>
</svg>
