<svg width="20" height="20" viewBox="0 0 20 20" fill="none" xmlns="http://www.w3.org/2000/svg">
<path d="M10.7499 1.75C12.8333 1.83334 14.7503 2.75 16.1669 4.25C17.5835 5.83332 18.3333 7.91673 18.2499 10C17.9999 14.0833 15.1666 16.833 10.4999 17.333L2.24994 18.25L1.74994 17.75V17.417C1.83327 16.917 2.16628 13.5833 2.58295 9.5C3.08294 4.66669 6.24997 1.58336 10.7499 1.75ZM10.6669 3.167C7.00026 3.00033 4.41661 5.50033 3.99994 9.667C3.66662 12.7502 3.4166 15.4167 3.24994 16.75L10.3329 16C14.2496 15.5833 16.5829 13.4167 16.8329 10C16.9163 8.25 16.3329 6.5 15.0829 5.25C13.9164 4.00019 12.3334 3.2504 10.6669 3.167Z" fill="#200040"/>
</svg>
