<svg width="20" height="20" viewBox="0 0 20 20" fill="none" xmlns="http://www.w3.org/2000/svg">
<g clip-path="url(#clip0_18_974)">
<path d="M19.1665 10C19.5832 10 19.9165 10.3337 19.9165 10.667C19.9163 15.7502 15.8327 19.833 10.7495 19.833H9.3335C4.25026 19.833 0.166667 15.7502 0.166504 10.667C0.166504 10.3337 0.416829 10 0.833496 10C1.24997 10.0002 1.50018 10.3337 1.5835 10.667C1.58366 14.9169 5.0836 18.417 9.3335 18.417H10.7495C14.9994 18.417 18.4993 14.9169 18.4995 10.667C18.4995 10.3337 18.7498 10 19.1665 10ZM9.99951 0.166992C13.5828 0.166992 16.4995 3.08366 16.4995 6.66699V10C16.4995 13.5833 13.5828 16.5 9.99951 16.5C6.41633 16.4998 3.49951 13.5832 3.49951 10V6.66699C3.49951 3.08377 6.41633 0.167169 9.99951 0.166992ZM9.99951 1.58301C7.41633 1.58317 5.24983 3.50012 4.9165 6H7.49951C7.91617 6 8.16649 6.41667 8.1665 6.75C8.1665 7.08333 7.91618 7.41699 7.49951 7.41699H4.9165V9.25H7.49951C7.91618 9.25 8.1665 9.58366 8.1665 9.91699C8.16635 10.2502 7.91605 10.583 7.49951 10.583H4.9165C5.24982 13.0829 7.41632 14.9998 9.99951 15C12.5828 15 14.7502 13.083 15.0835 10.583H12.4995C12.1664 10.5828 11.8337 10.2501 11.8335 9.91699C11.8335 9.58375 12.083 9.25017 12.4995 9.25H15.0835V7.33301H12.4995C12.1664 7.33279 11.8337 7.00011 11.8335 6.66699C11.8335 6.33375 12.083 6.00017 12.4995 6H15.0835C14.7502 3.5 12.5828 1.58301 9.99951 1.58301Z" fill="#200040"/>
</g>
<defs>
<clipPath id="clip0_18_974">
<rect width="20" height="20" fill="white"/>
</clipPath>
</defs>
</svg>
