<svg width="20" height="20" viewBox="0 0 20 20" fill="none" xmlns="http://www.w3.org/2000/svg">
<g clip-path="url(#clip0_18_978)">
<path d="M0.333069 0.333618C0.583046 0.0836411 1.08305 0.0836869 1.33307 0.333618L4.41705 3.33362C5.50032 1.41706 7.66657 0.166773 10.0831 0.166626C13.6664 0.166626 16.583 3.08331 16.5831 6.66663V9.99963C16.5831 11.4996 16.0837 12.917 15.1671 14.0836L16.5831 15.4996C17.7497 13.9996 18.5001 12.083 18.5001 9.99963C18.5003 9.66642 18.8338 9.33362 19.1671 9.33362C19.5002 9.33373 19.8329 9.58328 19.8331 9.99963C19.8331 12.4996 19 14.7497 17.5001 16.4996L19.6671 18.6666C20.0002 18.9166 20.0003 19.4169 19.6671 19.5836C19.5005 19.6669 19.3336 19.7496 19.1671 19.7496C19.0005 19.7496 18.8336 19.75 18.6671 19.5836L16.5001 17.4166C14.9168 18.8332 12.8336 19.6666 10.6671 19.6666H9.25006C4.16678 19.6666 0.0830688 15.3329 0.0830688 9.99963C0.0833088 9.58336 0.499903 9.33383 0.833069 9.33362C1.16631 9.33362 1.49987 9.58318 1.50006 9.99963C1.50006 14.5828 4.99993 18.3334 9.33307 18.3336H10.7501C12.5001 18.3336 14.1667 17.6663 15.5001 16.4996L0.333069 1.33362C0.0832569 1.08371 0.0834501 0.583715 0.333069 0.333618ZM4.16705 8.49963C4.58362 8.49972 4.91639 8.75003 4.83307 9.16663V9.99963C4.83307 12.7496 7.08372 15.0836 9.91705 15.0836C9.97957 15.0836 10.042 15.0778 10.1046 15.0699L10.4796 15.0133C10.542 15.0055 10.6046 14.9996 10.6671 14.9996C11.0836 14.9165 11.4167 15.167 11.5001 15.5836C11.5832 16.0001 11.3335 16.3332 10.9171 16.4166C10.5837 16.5 10.3334 16.4996 10.0001 16.4996C6.41677 16.4996 3.50006 13.5829 3.50006 9.99963V9.16663C3.50008 8.8333 3.7504 8.49963 4.16705 8.49963ZM10.0001 1.58362C8.08347 1.58366 6.2504 2.66672 5.41705 4.41663L14.0001 12.9166C14.5833 12.25 14.9167 11.4169 15.0001 10.5836H12.5001C12.1668 10.5836 11.8331 10.2499 11.8331 9.91663C11.8331 9.58333 12.0835 9.24969 12.5001 9.24963H15.0831V7.33362H12.5001C12.1668 7.33355 11.8331 6.99993 11.8331 6.66663C11.8331 6.33333 12.0835 5.99969 12.5001 5.99963H15.0831C14.7496 3.49983 12.5833 1.58362 10.0001 1.58362Z" fill="#200040"/>
</g>
<defs>
<clipPath id="clip0_18_978">
<rect width="20" height="20" fill="white"/>
</clipPath>
</defs>
</svg>
