<svg width="20" height="20" viewBox="0 0 20 20" fill="none" xmlns="http://www.w3.org/2000/svg">
<g clip-path="url(#clip0_11_511)">
<path d="M19.167 13.4167C19.5837 13.4167 19.75 13.8334 19.75 14.1667C19.75 14.4999 19.5005 14.8335 19.084 14.8337H17.417C16.0003 14.8337 14.834 16 14.834 17.4167V19.0837C14.8338 19.4169 14.5002 19.7497 14.167 19.7497C13.8337 19.7497 13.5002 19.5001 13.5 19.0837V17.4167C13.5 15.2501 15.2502 13.4169 17.5 13.4167H19.167ZM2.5 13.4167C4.75 13.4167 6.58366 15.2503 6.41699 17.3337V18.9997C6.41699 19.333 6.08333 19.6667 5.75 19.6667C5.41677 19.6665 5.08398 19.4162 5.08398 18.9997V17.3337C5.08398 15.917 3.91667 14.7497 2.5 14.7497H0.833984C0.50076 14.7497 0.16721 14.4169 0.166992 14.0837C0.166992 13.7503 0.417318 13.4167 0.833984 13.4167H2.5ZM5.83398 0.166687C6.2505 0.166817 6.58331 0.417121 6.5 0.833679V2.49969C6.5 4.66636 4.75 6.49969 2.5 6.49969H0.833984C0.417426 6.49969 0.167122 6.25015 0.166992 5.83368C0.166992 5.41701 0.417318 5.08368 0.833984 5.08368H2.58398C4.0005 5.0835 5.16699 3.91625 5.16699 2.49969V0.833679C5.16699 0.417013 5.50065 0.166687 5.83398 0.166687ZM14.25 0.166687C14.5833 0.166687 14.917 0.417012 14.917 0.833679V2.49969C14.917 3.91625 16.0835 5.0835 17.5 5.08368H19.167C19.5837 5.08368 19.834 5.50035 19.834 5.83368C19.8338 6.1669 19.5835 6.49969 19.167 6.49969H17.5C15.2501 6.49953 13.417 4.74959 13.417 2.49969V0.833679C13.417 0.417148 13.9167 0.166849 14.25 0.166687Z" fill="#200040"/>
</g>
<defs>
<clipPath id="clip0_11_511">
<rect width="20" height="20" fill="white"/>
</clipPath>
</defs>
</svg>
