<svg width="20" height="20" viewBox="0 0 20 20" fill="none" xmlns="http://www.w3.org/2000/svg">
<g clip-path="url(#clip0_11_512)">
<path d="M4.83301 13.0833C5.33289 13.0833 5.91663 13.3331 6.25 13.6663C6.58327 14.0829 6.83291 14.5831 6.83301 15.1663V18.0003C6.83285 18.3335 6.58341 18.6662 6.16699 18.6663C5.83375 18.6663 5.50017 18.4168 5.5 18.0003V15.5003L1.33301 19.6663C1.16642 19.7496 0.999597 19.8333 0.833008 19.8333C0.666492 19.8333 0.499523 19.8328 0.333008 19.6663C0.0834188 19.4162 0.0832016 18.9162 0.333008 18.6663L4.5 14.5003H2C1.66671 14.5002 1.33301 14.2499 1.33301 13.8333C1.33301 13.4167 1.58341 13.0834 2 13.0833H4.83301ZM18 13.0833C18.3333 13.1666 18.667 13.4166 18.667 13.8333C18.667 14.1666 18.4167 14.5003 18 14.5003H15.5L19.583 18.6663C19.833 18.9163 19.833 19.4163 19.583 19.6663C19.4164 19.7496 19.2496 19.8333 19.083 19.8333C18.9165 19.8333 18.7495 19.8328 18.583 19.6663L14.417 15.5003V18.0003C14.4168 18.3335 14.1665 18.6663 13.75 18.6663C13.4168 18.6663 13.0832 18.4167 13.083 18.0003V15.1663C13.0831 14.5831 13.2504 14.0829 13.667 13.6663C14.0836 13.3331 14.5838 13.0833 15.167 13.0833H18ZM0.25 0.333313C0.583258 5.53504e-05 0.999712 0.000206672 1.33301 0.333313L5.5 4.50031V2.00031C5.5 1.66697 5.83366 1.33331 6.16699 1.33331C6.58357 1.33342 6.91699 1.66702 6.91699 2.00031V4.83331C6.91699 5.41665 6.66634 5.91665 6.33301 6.33331C5.9164 6.66654 5.41621 6.91632 4.83301 6.91632H2C1.66673 6.83294 1.33301 6.5829 1.33301 6.16632C1.33317 5.8331 1.58377 5.50031 1.91699 5.50031H4.41699L0.25 1.33331C5.19492e-05 1.00002 -0.0832379 0.666604 0.25 0.333313ZM18.667 0.333313C18.917 0.0834112 19.417 0.0833457 19.667 0.333313C19.9169 0.583313 19.9169 1.08331 19.667 1.33331L15.5 5.50031H18C18.3332 5.50031 18.6668 5.74985 18.667 6.16632C18.667 6.58299 18.4167 6.91632 18 6.91632H15.167C14.667 6.91632 14.0833 6.66665 13.75 6.33331C13.4167 5.91666 13.167 5.41662 13.167 4.83331V2.00031C13.167 1.66709 13.4166 1.33356 13.833 1.33331C14.1663 1.33331 14.5 1.58364 14.5 2.00031V4.50031L18.667 0.333313Z" fill="#200040"/>
</g>
<defs>
<clipPath id="clip0_11_512">
<rect width="20" height="20" fill="white"/>
</clipPath>
</defs>
</svg>
