<svg width="20" height="20" viewBox="0 0 20 20" fill="none" xmlns="http://www.w3.org/2000/svg">
<path d="M15.8169 2.58365C18.0668 2.58377 19.8169 4.41706 19.8169 6.58365V11.6667C19.8169 13.8332 18.0668 15.6665 15.8169 15.6667H10.6499V16.8336H13.3169C13.65 16.8338 13.9827 17.1665 13.9829 17.4997C13.9829 17.8329 13.7334 18.1665 13.3169 18.1667H6.6499C6.3166 18.1666 5.98291 17.833 5.98291 17.4997C5.98307 17.1665 6.23342 16.8337 6.6499 16.8336H9.23291V15.6667H4.1499C1.98328 15.6666 0.149909 13.9166 0.149902 11.6667V6.58365C0.149902 4.41701 1.89995 2.5837 4.1499 2.58365H15.8169ZM4.1499 3.99966C2.73328 3.99972 1.56689 5.16701 1.56689 6.58365V11.6667C1.5669 13.0833 2.73328 14.2496 4.1499 14.2497H15.8169C17.2335 14.2495 18.3999 13.0832 18.3999 11.6667V6.58365C18.3999 5.16706 17.2335 3.99979 15.8169 3.99966H4.1499Z" fill="#200040"/>
</svg>
