<svg width="20" height="20" viewBox="0 0 20 20" fill="none" xmlns="http://www.w3.org/2000/svg">
<path d="M12.4168 0.25C13.4166 0.250042 14.4163 0.41705 15.3328 0.666992C15.8328 0.833659 16.1662 1.16699 16.3328 1.66699C16.4994 2.16695 16.4161 2.75038 16.0828 3.16699C15.5829 3.75028 15.083 4.50045 14.4998 5.16699C12.3333 7.91698 12.5002 11.8334 14.9168 14.5C15.5834 15.2499 16.2499 16 16.7498 16.5C17.0831 16.9167 17.2495 17.417 17.0828 17.917C16.9994 18.4167 16.6665 18.8333 16.1668 19C15.0836 19.5833 13.75 19.833 12.4168 19.833C11.9168 19.833 11.4998 19.8333 10.9998 19.75C6.6666 19.1667 3.16696 15.5002 2.66681 11.167C2.41681 8.33372 3.24958 5.58332 5.08282 3.5C6.91616 1.41667 9.58348 0.25 12.4168 0.25ZM12.4168 1.58301C10.0001 1.58301 7.75014 2.58366 6.16681 4.41699C4.58348 6.25032 3.83283 8.58334 4.08282 11C4.49949 14.75 7.50014 17.833 11.1668 18.333C12.75 18.5829 14.2502 18.3333 15.6668 17.75C15.7468 17.7498 15.7497 17.6726 15.7498 17.667C15.7498 17.667 15.75 17.5833 15.6668 17.5C15.1668 16.9167 14.4995 16.25 13.8328 15.5C10.9163 12.4167 10.7495 7.66629 13.3328 4.33301C13.9161 3.58304 14.4168 2.91632 14.9168 2.33301C14.9964 2.25295 14.9225 2.17294 14.9168 2.16699C14.9168 2.08366 14.8328 2.08301 14.8328 2.08301C14.1663 1.74984 13.3332 1.58305 12.4168 1.58301Z" fill="#200040"/>
</svg>
