<svg width="20" height="20" viewBox="0 0 20 20" fill="none" xmlns="http://www.w3.org/2000/svg">
<path d="M4.16699 8.33331C5.08732 8.33349 5.83301 9.07994 5.83301 10.0003C5.83286 10.9205 5.08723 11.6661 4.16699 11.6663C3.24661 11.6663 2.50014 10.9207 2.5 10.0003C2.5 9.07983 3.24652 8.33331 4.16699 8.33331ZM10 8.33331C10.9205 8.33331 11.667 9.07983 11.667 10.0003C11.6668 10.9207 10.9204 11.6663 10 11.6663C9.07961 11.6663 8.33315 10.9207 8.33301 10.0003C8.33301 9.07983 9.07953 8.33331 10 8.33331ZM15.833 8.33331C16.7535 8.33331 17.5 9.07983 17.5 10.0003C17.4999 10.9207 16.7534 11.6663 15.833 11.6663C14.9128 11.6661 14.1671 10.9205 14.167 10.0003C14.167 9.07994 14.9127 8.33349 15.833 8.33331Z" fill="#200040"/>
</svg>
