<svg width="20" height="20" viewBox="0 0 20 20" fill="none" xmlns="http://www.w3.org/2000/svg">
<path d="M10.0003 14.167C10.9205 14.1672 11.6661 14.9128 11.6663 15.833C11.6663 16.7534 10.9206 17.4998 10.0003 17.5C9.07983 17.5 8.33331 16.7535 8.33331 15.833C8.33349 14.9127 9.07994 14.167 10.0003 14.167ZM10.0003 8.33301C10.9206 8.33322 11.6663 9.07965 11.6663 10C11.6663 10.9203 10.9206 11.6668 10.0003 11.667C9.07983 11.667 8.33331 10.9205 8.33331 10C8.33331 9.07953 9.07983 8.33301 10.0003 8.33301ZM10.0003 2.5C10.9206 2.50021 11.6663 3.24665 11.6663 4.16699C11.6661 5.08719 10.9205 5.8328 10.0003 5.83301C9.07994 5.83301 8.33349 5.08732 8.33331 4.16699C8.33331 3.24652 9.07983 2.5 10.0003 2.5Z" fill="#200040"/>
</svg>
