<svg width="20" height="20" viewBox="0 0 20 20" fill="none" xmlns="http://www.w3.org/2000/svg">
<path d="M2.50018 2.50012C3.25018 1.75024 4.33358 1.50048 5.25018 1.91711L16.4162 6.16711C16.8328 6.33374 17.0831 6.66662 17.0832 7.08313C17.0832 7.49967 16.9166 7.91636 16.5002 8.08313L13.1662 9.83313L17.5832 14.2501C18.4998 15.1667 18.4997 16.6664 17.5832 17.5831C17.1665 18.0831 16.4995 18.2501 15.9162 18.2501C15.3329 18.25 14.6668 17.9997 14.2502 17.5831L9.83319 13.1671L8.08319 16.5001C7.91652 16.8335 7.49986 17.0831 7.08319 17.0831C6.66658 17.0831 6.33288 16.8337 6.1662 16.4171L1.9162 5.25012C1.49962 4.33348 1.75022 3.25008 2.50018 2.50012ZM4.75018 3.25012C4.33358 3.08348 3.83352 3.16692 3.50018 3.50012C3.16685 3.83346 3.08352 4.33346 3.25018 4.75012L7.25018 15.1671L8.83319 12.1671C8.99982 11.8339 9.33295 11.6665 9.6662 11.5831H9.75018C10.0834 11.5832 10.3333 11.6672 10.5832 11.9171L15.2502 16.5831C15.5835 16.9165 16.2499 16.9165 16.5832 16.5831C16.7497 16.4165 16.8331 16.1669 16.8332 15.9171C16.8332 15.6671 16.7499 15.4168 16.5832 15.2501L11.9162 10.5831C11.6665 10.3332 11.5832 9.99961 11.5832 9.58313C11.6665 9.24999 11.8332 8.91678 12.1662 8.75012L15.1662 7.16711L4.75018 3.25012Z" fill="#200040"/>
</svg>
