<svg width="20" height="20" viewBox="0 0 20 20" fill="none" xmlns="http://www.w3.org/2000/svg">
<path d="M9.91634 1.16632C10.4996 1.16632 10.9997 1.33371 11.4163 1.75031L13.4163 3.75031C13.6663 4.00031 13.6663 4.50031 13.4163 4.75031C13.2498 4.83355 13.0828 4.91632 12.9163 4.91632C12.7498 4.91616 12.5828 4.83283 12.4163 4.66632L10.6663 2.91632V9.33331H17.0833L15.3333 7.58331C15.0835 7.3333 15.0834 6.8333 15.3333 6.58331C15.5833 6.33335 16.0833 6.33341 16.3333 6.58331L18.3333 8.58331C18.75 8.91664 18.9173 9.49999 18.9173 10.0833C18.9173 10.6666 18.75 11.1666 18.3333 11.5833L16.3333 13.5833C16.1667 13.6666 16 13.7503 15.8333 13.7503C15.6667 13.7503 15.4999 13.6669 15.3333 13.5003C15.0834 13.2504 15.0836 12.7504 15.3333 12.5003L17.2503 10.7503H10.8333V17.1663L12.5833 15.4163C12.8333 15.1665 13.3333 15.1666 13.5833 15.4163C13.8333 15.6663 13.8332 16.1663 13.5833 16.4163L11.5833 18.4163C11.1667 18.7497 10.6667 19.0003 10.0833 19.0003C9.50007 19.0003 8.99996 18.8329 8.58334 18.4163L6.58334 16.4163C6.3336 16.1662 6.33342 15.6662 6.58334 15.4163C6.83328 15.1665 7.33328 15.1666 7.58334 15.4163L9.33334 17.1663V10.7503H2.91634L4.66634 12.5003C4.91634 12.7503 4.91634 13.2503 4.66634 13.5003C4.49981 13.6667 4.33288 13.7503 4.16634 13.7503C3.99984 13.7503 3.83285 13.7498 3.66634 13.5833L1.66634 11.5833C1.33312 11.1667 1.08334 10.6665 1.08334 10.0833C1.08334 9.5001 1.24985 8.99993 1.66634 8.58331L3.66634 6.58331C3.91626 6.3334 4.41626 6.33358 4.66634 6.58331C4.91634 6.83331 4.91634 7.33331 4.66634 7.58331L2.91634 9.33331H9.33334V2.91632L7.58334 4.66632C7.33334 4.91632 6.83334 4.91632 6.58334 4.66632C6.3336 4.41623 6.33342 3.91623 6.58334 3.66632L8.41634 1.75031C8.83289 1.41706 9.33322 1.16646 9.91634 1.16632Z" fill="#200040"/>
</svg>
