<svg width="20" height="20" viewBox="0 0 20 20" fill="none" xmlns="http://www.w3.org/2000/svg">
<g clip-path="url(#clip0_11_186)">
<path d="M16.7498 0.416382C17.4998 0.249715 18.3334 0.500366 18.9167 1.00037C19.4999 1.50029 19.8329 2.24985 19.7498 2.91638V13.9164C19.7498 15.6663 18.3336 17.0832 16.5837 17.0834C14.8337 17.0834 13.4167 15.6664 13.4167 13.9164C13.4169 12.1665 14.8339 10.7504 16.5837 10.7504C17.2503 10.7504 17.9168 11.0001 18.4167 11.3334V5.66638L6.49976 7.91638V15.6664C6.49976 15.7496 6.41697 15.8332 6.41675 15.9164C6.50008 16.083 6.49976 16.3337 6.49976 16.5004C6.49959 18.2501 5.08349 19.6662 3.33374 19.6664C1.58384 19.6664 0.166917 18.2502 0.166748 16.5004C0.166748 14.7504 1.58374 13.3334 3.33374 13.3334C4.00023 13.3335 4.66685 13.5832 5.16675 13.9164V4.83337C5.16675 3.50005 6.08374 2.41638 7.33374 2.16638L16.7498 0.416382ZM3.33374 14.6664C2.33374 14.6664 1.49976 15.5004 1.49976 16.5004C1.49993 17.5002 2.33384 18.3334 3.33374 18.3334C4.33349 18.3332 5.16657 17.5001 5.16675 16.5004C5.16675 15.5005 4.3336 14.6666 3.33374 14.6664ZM16.6667 12.1664C15.6667 12.1664 14.8337 13.0004 14.8337 14.0004C14.8339 15.0002 15.6669 15.8334 16.6667 15.8334C17.6666 15.8334 18.4996 15.0002 18.4998 14.0004C18.4998 13.0004 17.6667 12.1664 16.6667 12.1664ZM17.9167 2.08337C17.6667 1.83338 17.2501 1.75004 16.9167 1.83337L7.49976 3.58337C6.91658 3.75012 6.49976 4.25015 6.49976 4.83337V6.50037L18.3337 4.33337V3.08337C18.3337 2.66671 18.1667 2.33337 17.9167 2.08337Z" fill="#200040"/>
</g>
<defs>
<clipPath id="clip0_11_186">
<rect width="20" height="20" fill="white"/>
</clipPath>
</defs>
</svg>
