<svg width="20" height="20" viewBox="0 0 20 20" fill="none" xmlns="http://www.w3.org/2000/svg">
<g clip-path="url(#clip0_11_243)">
<path d="M10.0005 0.083313C15.417 0.0834936 19.9165 4.58375 19.9165 10.0003C19.9163 15.4167 15.4169 19.9161 10.0005 19.9163C4.58393 19.9163 0.0836767 15.4168 0.0834961 10.0003C0.0834961 4.58364 4.58382 0.083313 10.0005 0.083313ZM10.0005 1.58331C5.33382 1.58331 1.5835 5.33364 1.5835 10.0003C1.58367 14.6668 5.33393 18.4163 10.0005 18.4163C14.6669 18.4161 18.4163 14.6667 18.4165 10.0003C18.4165 5.33375 14.667 1.58349 10.0005 1.58331ZM11.5005 5.41632C12.4169 4.99997 13.4999 5.24999 14.1665 5.91632C14.8331 6.58292 15 7.58304 14.5835 8.41632L12.5005 14.2503C12.1671 15.1669 11.4164 15.7503 10.4165 15.7503C9.49998 15.7502 8.7498 15.2496 8.4165 14.4163L7.8335 12.1663L5.6665 11.5833C4.75002 11.2499 4.25049 10.4999 4.25049 9.58331C4.25049 8.66679 4.83338 7.83374 5.6665 7.50031L11.5005 5.41632ZM13.0835 6.91632C12.9168 6.66651 12.5002 6.49992 12.0005 6.66632L6.1665 8.75031C5.83343 8.91704 5.6665 9.2504 5.6665 9.50031C5.66661 9.66706 5.75049 9.99974 6.0835 10.1663L8.1665 10.7503C8.6665 10.917 8.99984 11.2503 9.1665 11.7503L9.75049 13.9163C9.91705 14.2494 10.2497 14.3332 10.4165 14.3333C10.7497 14.3333 10.9998 14.0834 11.1665 13.7503L13.2505 7.91632C13.5002 7.41649 13.2501 6.99963 13.0835 6.91632Z" fill="#200040"/>
</g>
<defs>
<clipPath id="clip0_11_243">
<rect width="20" height="20" fill="white"/>
</clipPath>
</defs>
</svg>
