<svg width="20" height="20" viewBox="0 0 20 20" fill="none" xmlns="http://www.w3.org/2000/svg">
<g clip-path="url(#clip0_11_246)">
<path d="M10 -0.103516C11.3333 -0.103516 12.5 0.646495 13 1.89648L18.5 15.6465C19 16.9798 18.5836 18.3135 17.417 19.0635C16.917 19.3968 16.4163 19.4795 15.833 19.4795C15.0831 19.4794 14.3329 19.1464 13.833 18.6465L10 14.8135L6.16699 18.6465C5.00033 19.8132 3.58301 19.6462 2.58301 18.9795C1.41675 18.2295 1.00024 16.8966 1.5 15.5635L7 1.89648C7.49999 0.6465 8.66669 -0.103496 10 -0.103516ZM10 1.31348C9.41667 1.3135 8.66633 1.64651 8.33301 2.39648L2.83301 16.1465C2.49979 16.8964 2.91702 17.5635 3.41699 17.8135C3.91695 18.1466 4.58349 18.2297 5.25 17.6465L10 12.8135L14.833 17.6465C15.4163 18.2298 16.167 18.1465 16.667 17.8965C17.0836 17.6464 17.5002 16.9796 17.167 16.1465L11.667 2.39648C11.3337 1.56315 10.5833 1.31348 10 1.31348Z" fill="#200040"/>
</g>
<defs>
<clipPath id="clip0_11_246">
<rect width="20" height="20" fill="white"/>
</clipPath>
</defs>
</svg>
