<svg width="20" height="20" viewBox="0 0 20 20" fill="none" xmlns="http://www.w3.org/2000/svg">
<g clip-path="url(#clip0_11_530)">
<path d="M12.5 0.083374C13.4999 0.0834646 14.5001 0.500448 15.25 1.25037L18.75 4.75037C19.4998 5.50031 19.916 6.41719 19.916 7.50037V12.5004C19.9159 13.5003 19.4999 14.5004 18.75 15.2504L15.25 18.7504C14.5001 19.5003 13.5832 19.8333 12.5 19.8334H7.5C6.5 19.8334 5.5 19.4164 4.75 18.6664L1.25 15.1664C0.500001 14.4164 0.0830078 13.4997 0.0830078 12.4164V7.50037C0.0830078 6.50037 0.5 5.50037 1.25 4.75037L4.75 1.25037C5.5 0.500366 6.41667 0.083374 7.5 0.083374H12.5ZM7.58301 1.58337C6.91634 1.58337 6.24967 1.8337 5.83301 2.25037L2.33301 5.75037C1.83312 6.25033 1.58301 6.83377 1.58301 7.50037V12.5004C1.58309 13.1669 1.83309 13.7504 2.33301 14.2504L5.83301 17.7504C6.33297 18.2503 6.91641 18.5004 7.58301 18.5004H12.583C13.2496 18.5004 13.833 18.2503 14.333 17.7504L17.833 14.2504C18.3329 13.7504 18.5829 13.1669 18.583 12.5004V7.50037C18.583 6.83377 18.3329 6.25033 17.833 5.75037L14.333 2.25037C13.833 1.75037 13.2497 1.50037 12.583 1.50037H7.58301V1.58337Z" fill="#200040"/>
</g>
<defs>
<clipPath id="clip0_11_530">
<rect width="20" height="20" fill="white"/>
</clipPath>
</defs>
</svg>
