<svg width="20" height="20" viewBox="0 0 20 20" fill="none" xmlns="http://www.w3.org/2000/svg">
<g clip-path="url(#clip0_11_172)">
<path d="M17.4998 0.083252C17.8331 0.083252 18.1667 0.416911 18.1667 0.750244V4.25024C18.1666 4.99998 17.5835 5.58308 16.8337 5.58325H13.3337C12.9171 5.58325 12.6667 5.24959 12.6667 4.91626C12.667 4.58303 13.0005 4.25024 13.3337 4.25024L16.2498 4.33325C14.6664 2.58335 12.4163 1.58325 9.99976 1.58325C5.33324 1.58343 1.49976 5.41669 1.49976 10.0833C1.49976 14.7498 5.33324 18.5831 9.99976 18.5833C14.4163 18.5833 18.0833 15.1668 18.4167 10.7502C18.4167 10.3336 18.7501 10.0833 19.1667 10.0833C19.5834 10.0833 19.8337 10.4166 19.8337 10.8333C19.4171 15.9166 15.0831 19.9163 9.99976 19.9163C4.58324 19.9161 0.166748 15.4998 0.166748 10.0833C0.166748 4.66658 4.66707 0.083252 10.0837 0.083252C12.6669 0.0833361 15.0005 1.08365 16.8337 2.75024V0.750244C16.8337 0.333712 17.1665 0.0834131 17.4998 0.083252ZM9.83374 6.08325C10.0005 5.91669 10.3338 5.83363 10.5837 6.00024C10.8334 6.16684 10.9996 6.41649 10.9998 6.66626V14.6663C10.9998 14.9996 10.6664 15.3333 10.2498 15.3333C9.83324 15.3331 9.49976 14.9998 9.49976 14.5833V8.00024L8.41675 8.83325C8.08342 9.08325 7.66675 8.99959 7.41675 8.66626C7.16694 8.33296 7.25048 7.91621 7.58374 7.66626L9.83374 6.08325Z" fill="#200040"/>
</g>
<defs>
<clipPath id="clip0_11_172">
<rect width="20" height="20" fill="white"/>
</clipPath>
</defs>
</svg>
