<svg width="20" height="20" viewBox="0 0 20 20" fill="none" xmlns="http://www.w3.org/2000/svg">
<path d="M8.74966 1.25009C9.49966 0.833425 10.4167 0.833425 11.1667 1.25009L16.9997 4.5831C17.7496 4.99972 18.1666 5.74987 18.1667 6.5831V13.3331C18.1667 14.1664 17.7496 14.9164 16.9997 15.3331L11.1667 18.6671C10.8333 18.9171 10.4163 19.0001 9.99966 19.0001C9.583 19.0001 9.166 18.9171 8.83267 18.6671L2.99966 15.3331C2.24974 14.9164 1.83267 14.1664 1.83267 13.3331V6.5831C1.83276 5.74987 2.25006 4.99972 2.91666 4.5831L8.74966 1.25009ZM10.7497 10.4171L10.6667 17.4171L16.3327 14.1671C16.5827 14.0004 16.8327 13.6664 16.8327 13.3331V6.91708L10.7497 10.4171ZM3.24966 13.4171C3.24984 13.667 3.41679 14.0005 3.66666 14.1671L9.24966 17.3331L9.33267 10.4171L3.24966 6.91708V13.4171ZM3.91666 5.66708L9.99966 9.16708L12.2497 7.8331L6.24966 4.3331L3.91666 5.66708ZM9.99966 2.3331C9.833 2.3331 9.66633 2.41676 9.49966 2.50009L7.66666 3.50009L13.7497 7.00009L16.0827 5.66708L10.4997 2.50009C10.333 2.41676 10.1663 2.3331 9.99966 2.3331Z" fill="#200040"/>
</svg>
