<svg width="20" height="20" viewBox="0 0 20 20" fill="none" xmlns="http://www.w3.org/2000/svg">
<path fill-rule="evenodd" clip-rule="evenodd" d="M7.16683 8.25004C7.16683 6.66671 8.50016 5.41671 10.0002 5.41671C11.5002 5.41671 12.8335 6.66671 12.8335 8.25004C12.8335 9.83337 11.5835 11.0834 10.0002 11.0834C8.41683 11.0834 7.16683 9.83337 7.16683 8.25004ZM8.5835 8.16671C8.5835 9.00004 9.25016 9.58337 10.0002 9.58337C10.7502 9.58337 11.4168 9.00004 11.4168 8.16671C11.4168 7.33337 10.8335 6.75004 10.0002 6.75004C9.16683 6.75004 8.5835 7.33337 8.5835 8.16671Z" fill="#200040"/>
<path fill-rule="evenodd" clip-rule="evenodd" d="M5.8335 0.083374H14.1668C16.4168 0.083374 18.1668 1.91671 18.1668 4.16671V15.8334C18.1668 18 16.4168 19.8334 14.1668 19.8334H5.8335C3.66683 19.8334 1.8335 18.0834 1.8335 15.8334V4.16671C1.8335 1.91671 3.5835 0.083374 5.8335 0.083374ZM8.66683 14.0834C7.91683 14.8334 7.50016 16.3334 7.50016 18.4167H12.5835C12.5002 15.8334 11.9168 14.5834 11.4168 14.0834C11.0835 13.6667 10.5835 13.5 10.0835 13.5C9.50016 13.5 9.0835 13.6667 8.66683 14.0834ZM14.1668 18.4167C15.5835 18.4167 16.7502 17.25 16.7502 15.8334V4.16671C16.7502 2.75004 15.5835 1.58337 14.1668 1.58337H5.8335C4.41683 1.58337 3.25016 2.75004 3.25016 4.16671V15.8334C3.25016 17.25 4.41683 18.4167 5.8335 18.4167H6.0835C6.16683 15.9167 6.66683 14.0834 7.66683 13.0834C8.3335 12.4167 9.16683 12.0834 10.0835 12.0834C11.0002 12.0834 11.8335 12.4167 12.4168 13.0834C13.4168 14.0834 13.9168 15.9167 13.9168 18.4167H14.1668Z" fill="#200040"/>
</svg>
