<svg width="20" height="20" viewBox="0 0 20 20" fill="none" xmlns="http://www.w3.org/2000/svg">
<path d="M5.49969 1C6.99969 1 8.24969 2.25 8.24969 3.75V16.25C8.24969 17.75 6.99969 19 5.49969 19C3.99983 18.9998 2.74969 17.7499 2.74969 16.25V3.75C2.74969 2.2501 3.99983 1.00017 5.49969 1ZM14.4997 1C15.9997 1 17.2497 2.25 17.2497 3.75V16.25C17.2497 17.75 15.9997 19 14.4997 19C12.9998 18.9998 11.7497 17.7499 11.7497 16.25V3.75C11.7497 2.2501 12.9998 1.00017 14.4997 1ZM5.49969 2.41699C4.74984 2.41715 4.16669 3.0001 4.16669 3.75V16.25C4.16669 16.9999 4.74984 17.5828 5.49969 17.583C6.24969 17.583 6.83368 17 6.83368 16.25V3.75C6.83368 3 6.24969 2.41699 5.49969 2.41699ZM14.4997 2.41699C13.7498 2.41715 13.1667 3.0001 13.1667 3.75V16.25C13.1667 16.9999 13.7498 17.5828 14.4997 17.583C15.2497 17.583 15.8337 17 15.8337 16.25V3.75C15.8337 3 15.2497 2.41699 14.4997 2.41699Z" fill="#200040"/>
</svg>
