<svg width="20" height="20" viewBox="0 0 20 20" fill="none" xmlns="http://www.w3.org/2000/svg">
<g clip-path="url(#clip0_11_194)">
<path d="M10.0002 0.083252C15.4168 0.0834326 19.9163 4.58369 19.9163 10.0002C19.9161 15.4167 15.4167 19.9161 10.0002 19.9163C4.58369 19.9163 0.0834326 15.4168 0.083252 10.0002C0.083252 4.58358 4.58358 0.083252 10.0002 0.083252ZM10.0002 1.50024C5.33358 1.50024 1.50024 5.33358 1.50024 10.0002C1.50042 14.6668 5.33369 18.5002 10.0002 18.5002C14.6667 18.5001 18.5001 14.6667 18.5002 10.0002C18.5002 5.33369 14.6668 1.50042 10.0002 1.50024ZM8.33325 6.83325C8.74992 6.83325 8.99992 7.16691 9.08325 7.50024V12.5002C9.08303 12.8335 8.74978 13.1663 8.33325 13.1663C7.91669 13.1663 7.58343 12.9167 7.58325 12.5002V7.50024C7.58325 7.16691 7.91658 6.83325 8.33325 6.83325ZM11.6663 6.83325C12.0829 6.83325 12.4163 7.16691 12.4163 7.50024V12.5002C12.416 12.8335 12.0828 13.1663 11.6663 13.1663C11.2499 13.1661 10.9164 12.9166 10.9163 12.5002V7.50024C10.9163 7.167 11.2497 6.83343 11.6663 6.83325Z" fill="#200040"/>
</g>
<defs>
<clipPath id="clip0_11_194">
<rect width="20" height="20" fill="white"/>
</clipPath>
</defs>
</svg>
