<svg width="20" height="20" viewBox="0 0 20 20" fill="none" xmlns="http://www.w3.org/2000/svg">
<g clip-path="url(#clip0_11_725)">
<path d="M12.833 0.333252C13.083 0.083282 13.583 0.0833421 13.833 0.333252C14.083 0.583252 14.083 1.08325 13.833 1.33325L11.833 3.33325L16.667 8.16626L18.667 6.16626C18.9171 5.91666 19.4171 5.91639 19.667 6.16626C20.0001 6.4162 19.9999 6.91642 19.667 7.08325L17.25 9.50024L15.417 14.4163C15.0003 15.6662 13.9999 16.5829 12.75 16.9163L2.91699 19.7502C2.75033 19.8336 2.49967 19.8333 2.33301 19.8333C1.74975 19.8332 1.24963 19.5829 0.833008 19.1663C0.249863 18.6662 3.76254e-05 17.8331 0.25 17.0833L3.08301 7.25024C3.41632 6.00033 4.33314 5.00028 5.58301 4.50024L10.417 2.75024L12.833 0.333252ZM6.08301 5.83325C5.24981 6.08328 4.667 6.75003 4.41699 7.58325L1.66699 17.3333L6.91699 12.0833C6.75033 11.5833 6.83333 10.9999 7.25 10.5833C7.83334 9.99999 8.83368 9.99994 9.41699 10.5833C10.0001 11.1666 10.0002 12.167 9.41699 12.7502C9.00044 13.0835 8.4169 13.2497 7.91699 13.0833L2.58301 18.4163L12.417 15.5833C13.2501 15.3332 13.8337 14.6661 14.167 13.9163L15.833 9.33325L10.667 4.16626L6.08301 5.83325Z" fill="#200040"/>
</g>
<defs>
<clipPath id="clip0_11_725">
<rect width="20" height="20" fill="white"/>
</clipPath>
</defs>
</svg>
