<svg width="20" height="20" viewBox="0 0 20 20" fill="none" xmlns="http://www.w3.org/2000/svg">
<g clip-path="url(#clip0_11_508)">
<path d="M18.666 0.333252C18.916 0.083306 19.416 0.0834141 19.666 0.333252C19.9993 0.583252 19.9993 1.08325 19.666 1.33325L1.33301 19.6663C1.16634 19.7496 0.999674 19.8333 0.833008 19.8333C0.666341 19.8333 0.499674 19.8329 0.333008 19.6663C0.0831709 19.4162 0.0830622 18.9162 0.333008 18.6663L18.666 0.333252ZM15.833 12.5833C17.583 12.5833 19 14.0002 19 15.7502C18.9998 17.5001 17.5829 18.9163 15.833 18.9163C14.0831 18.9163 12.6662 17.5001 12.666 15.7502C12.666 14.0002 14.083 12.5833 15.833 12.5833ZM15.833 14.0833C14.9163 14.0833 14.083 14.8333 14.083 15.8333C14.083 16.7499 14.833 17.5833 15.833 17.5833C16.833 17.5833 17.583 16.8333 17.583 15.8333C17.583 14.9166 16.833 14.0833 15.833 14.0833ZM4.16602 1.00024C5.91602 1.00024 7.33301 2.50024 7.33301 4.25024C7.33283 6.00009 5.91591 7.41626 4.16602 7.41626C2.41617 7.41607 1 5.91615 1 4.16626C1.00018 2.41652 2.41627 1.00042 4.16602 1.00024ZM4.16602 2.41626C3.16629 2.41642 2.41618 3.16653 2.41602 4.16626C2.41602 5.08283 3.16618 5.91608 4.16602 5.91626C5.08268 5.91626 5.91602 5.16626 5.91602 4.16626C5.91584 3.24972 5.1659 2.41626 4.16602 2.41626Z" fill="#200040"/>
</g>
<defs>
<clipPath id="clip0_11_508">
<rect width="20" height="20" fill="white"/>
</clipPath>
</defs>
</svg>
