<svg width="20" height="20" viewBox="0 0 20 20" fill="none" xmlns="http://www.w3.org/2000/svg">
<g clip-path="url(#clip0_17_847)">
<path d="M4.41644 0.166237C5.08311 0.24957 5.66677 0.583229 6.08344 1.08323L7.66644 3.16624C8.41637 3.99949 8.33293 5.24959 7.66644 6.16624L6.49945 7.58323C6.83278 8.24989 7.66615 9.9169 8.99945 11.2502C10.3328 12.5836 11.7498 13.2502 12.4164 13.5002L13.8334 12.3332C14.7501 11.6668 15.9999 11.6667 16.9164 12.3332L18.9164 13.9162C19.4164 14.3329 19.7501 14.9166 19.8334 15.5832C19.9168 16.2498 19.75 16.8333 19.3334 17.3332L18.7495 18.0002C17.7495 19.1667 16.2493 19.8332 14.7495 19.8332H14.1664C11.9998 19.5832 8.66642 18.5832 5.16644 15.0832C1.66649 11.5833 0.499774 8.16622 0.166443 5.91624C-0.0833768 4.08308 0.66664 2.16681 2.16644 1.00022L2.66644 0.583229C3.16642 0.249926 3.83314 0.0829331 4.41644 0.166237ZM4.16644 1.50022C3.91646 1.50023 3.74944 1.58356 3.49945 1.75022L2.99945 2.16624C1.91623 2.99949 1.41691 4.33304 1.58344 5.66624C1.91677 7.74956 2.99982 10.8333 6.16644 14.0832C9.41644 17.3332 12.4168 18.2502 14.3334 18.5002C15.5833 18.6668 16.8332 18.1661 17.6664 17.1662L18.2495 16.5002C18.4161 16.2502 18.4995 15.9996 18.4995 15.6662C18.4162 15.4165 18.333 15.1668 18.0834 15.0002L16.0834 13.4162C15.6668 13.0829 15.1661 13.0829 14.7495 13.4162L12.9995 14.7502C12.8327 14.9167 12.4993 14.9995 12.2495 14.9162C11.8319 14.8325 9.83217 14.0829 7.99945 12.2502C6.08294 10.417 5.16619 8.16707 4.99945 7.75022C4.91614 7.50028 4.99986 7.16693 5.16644 7.00022L6.58344 5.25022C6.83344 4.83355 6.91677 4.3329 6.58344 3.91624L4.99945 1.91624C4.83286 1.66671 4.58317 1.58347 4.33344 1.50022H4.16644ZM17.4995 1.50022C17.7494 1.25024 18.2494 1.25028 18.4995 1.50022C18.7495 1.75022 18.7495 2.25022 18.4995 2.50022L16.6664 4.33323L18.4995 6.16624C18.7494 6.41622 18.7494 6.91622 18.4995 7.16624C18.3328 7.24955 18.1661 7.33323 17.9995 7.33323C17.8329 7.33323 17.666 7.33279 17.4995 7.16624L15.6664 5.33323L13.8334 7.16624C13.6669 7.24952 13.5 7.33313 13.3334 7.33323C13.1668 7.33323 13.0001 7.3329 12.8334 7.16624C12.5835 6.91622 12.5835 6.41622 12.8334 6.16624L14.6664 4.33323L12.8334 2.50022C12.5834 2.25022 12.5834 1.75022 12.8334 1.50022C13.0834 1.25026 13.5834 1.25023 13.8334 1.50022L15.6664 3.33323L17.4995 1.50022Z" fill="#200040"/>
</g>
<defs>
<clipPath id="clip0_17_847">
<rect width="20" height="20" fill="white"/>
</clipPath>
</defs>
</svg>
