<svg width="20" height="20" viewBox="0 0 20 20" fill="none" xmlns="http://www.w3.org/2000/svg">
<g clip-path="url(#clip0_17_849)">
<path d="M4.41647 0.16713C5.08313 0.25047 5.66681 0.583154 6.08347 1.08315L7.66647 3.16713C8.41624 4.00046 8.33307 5.25055 7.66647 6.16713L6.49948 7.58315C6.83281 8.24979 7.66621 9.91682 8.99948 11.2501C10.3328 12.5835 11.7498 13.2501 12.4165 13.5001L13.8335 12.3331C14.7501 11.6667 15.9999 11.6666 16.9165 12.3331L18.9165 13.9171C19.4164 14.3338 19.8332 14.8336 19.9165 15.5001C19.9997 16.1666 19.75 16.8332 19.3335 17.3331L18.7495 18.0001C17.7495 19.1666 16.2494 19.8331 14.7495 19.8331H14.1665C11.9998 19.5831 8.66645 18.5831 5.16647 15.0831C1.66679 11.5834 0.499892 8.16711 0.166473 5.91713C-0.0835221 4.08383 0.666527 2.16681 2.16647 1.00014L2.66647 0.583145C3.16647 0.249843 3.83317 0.0838001 4.41647 0.16713ZM4.16647 1.50014C3.91649 1.50014 3.74947 1.58348 3.49948 1.75014L2.99948 2.16713C1.91645 3.00049 1.41682 4.33398 1.58347 5.66713C1.91689 7.75043 3.00014 10.8334 6.16647 14.0831C9.41647 17.3331 12.4168 18.2501 14.3335 18.5001C15.5832 18.6667 16.8332 18.1669 17.6665 17.1671L18.2495 16.5001C18.4161 16.2503 18.4994 16.0002 18.4995 15.6671C18.4162 15.4172 18.3333 15.1668 18.0835 15.0001L16.0835 13.4171C15.6668 13.0838 15.1661 13.0838 14.7495 13.4171L12.9995 14.7501C12.8327 14.9166 12.4994 15.0004 12.2495 14.9171C11.8323 14.8336 9.83245 14.0831 7.99948 12.2501C6.08289 10.4168 5.16614 8.1668 4.99948 7.75014C4.91616 7.50018 4.99986 7.16683 5.16647 7.00014L6.58347 5.25014C6.83336 4.83362 6.91639 4.3337 6.58347 3.91713L4.99948 1.91713C4.83288 1.66723 4.58336 1.58344 4.33347 1.50014H4.16647ZM11.5835 0.16713C16.0833 0.167293 19.7494 3.83333 19.7495 8.33315C19.7495 8.74969 19.4167 9.08294 19.0835 9.08315C18.7501 9.08315 18.4165 8.74981 18.4165 8.33315C18.4164 4.58323 15.4164 1.58315 11.6665 1.58315C11.3333 1.58313 10.9168 1.33351 10.9165 0.91713C10.9165 0.500463 11.1668 0.16713 11.5835 0.16713ZM11.5835 3.41713C14.25 3.41729 16.4165 5.58357 16.4165 8.25014C16.4164 8.66674 16.0828 9.00014 15.7495 9.00014C15.4163 8.9999 15.0835 8.66659 15.0835 8.25014C15.0835 6.4168 13.5831 4.83315 11.6665 4.83315C11.25 4.83314 10.9167 4.58351 10.9165 4.16713C10.9165 3.75046 11.1668 3.41713 11.5835 3.41713Z" fill="#200040"/>
</g>
<defs>
<clipPath id="clip0_17_849">
<rect width="20" height="20" fill="white"/>
</clipPath>
</defs>
</svg>
