<svg width="20" height="20" viewBox="0 0 20 20" fill="none" xmlns="http://www.w3.org/2000/svg">
<path d="M4.19531 0.158066C4.82865 0.237232 5.38346 0.55416 5.7793 1.02916L7.2832 2.92955C7.91637 3.80036 7.91648 4.98756 7.2832 5.77916L6.1748 7.20396C6.49146 7.83728 7.28321 9.42072 8.5498 10.6874C9.81647 11.954 11.1626 12.5876 11.7959 12.8251L13.1416 11.7167C14.0123 11.0042 15.1995 11.0044 16.0703 11.7167L17.9707 13.2206C18.4457 13.6164 18.7626 14.1712 18.8418 14.8046C18.9208 15.4377 18.6829 16.0709 18.2871 16.5458L17.7334 17.1796C16.8626 18.2877 15.5167 18.9207 14.0127 18.9208H13.458C11.3997 18.6832 8.23307 17.6538 4.9082 14.4081C1.58336 11.0831 0.474876 7.83752 0.158203 5.70006C-0.158464 3.95839 0.554492 2.13749 1.97949 1.02916L2.4541 0.633652C2.92898 0.237916 3.56214 0.0790362 4.19531 0.158066ZM3.95801 1.42467C3.72065 1.42472 3.56261 1.50467 3.3252 1.66295L2.84961 2.05846C1.82061 2.85015 1.26643 4.19619 1.50391 5.46275C1.82061 7.44189 2.85028 10.3706 5.8584 13.3788C8.86654 16.3869 11.7162 17.3375 13.6162 17.5751C14.8037 17.7334 15.9915 17.2584 16.7832 16.3085L17.3379 15.6747C17.496 15.4374 17.5751 15.2 17.5752 14.9628C17.5752 14.7253 17.4162 14.4873 17.1787 14.329L15.2793 12.8251C14.8835 12.5084 14.4085 12.5085 14.0127 12.8251L12.3496 14.0917C12.1913 14.2498 11.8751 14.3289 11.6377 14.2499C11.2419 14.1707 9.34128 13.4583 7.59961 11.7167C5.85804 9.89587 4.90833 7.83715 4.75 7.36217C4.67101 7.12478 4.75003 6.80858 4.9082 6.65025L6.1748 4.98717C6.49136 4.59136 6.49143 4.11635 6.1748 3.72057L4.75 1.82115C4.59167 1.58365 4.35378 1.50383 4.03711 1.42467H3.95801Z" fill="#200040"/>
</svg>
