<svg width="20" height="20" viewBox="0 0 20 20" fill="none" xmlns="http://www.w3.org/2000/svg">
<g clip-path="url(#clip0_17_851)">
<path d="M2.66644 0.58363C3.16643 0.250302 3.83312 -1.20029e-05 4.41644 0.166637C5.08311 0.249971 5.66677 0.58363 6.08344 1.08363L7.66644 3.16664C8.41644 3.99997 8.3331 5.24997 7.66644 6.16664L6.49945 7.58363C6.83279 8.2503 7.66639 9.91644 8.99945 11.2496C10.3327 12.5829 11.7497 13.2496 12.4164 13.4996L13.8334 12.3336C14.7501 11.667 15.9998 11.667 16.9164 12.3336L18.9164 13.9166C19.4164 14.3332 19.833 14.8332 19.9164 15.4996C19.9998 16.1663 19.7501 16.8336 19.3334 17.3336L18.7495 17.9996C17.7495 19.1663 16.2495 19.8336 14.7495 19.8336H14.1664C11.9998 19.5836 8.66639 18.5835 5.16644 15.0836C1.66644 11.5836 0.499776 8.16664 0.166443 5.91664C-0.0835437 4.08331 0.666452 2.1663 2.16644 0.999645L2.66644 0.58363ZM4.16644 1.49965C3.91646 1.49965 3.74944 1.58298 3.49945 1.74965L2.99945 2.16664C1.91626 2.99998 1.41678 4.33339 1.58344 5.66664C1.91677 7.74997 2.99978 10.8336 6.16644 14.0836C9.41639 17.3335 12.4168 18.2496 14.3334 18.4996C15.5834 18.6662 16.8332 18.1666 17.6664 17.1666L18.2495 16.4996C18.4161 16.2497 18.4995 15.9999 18.4995 15.6666C18.4161 15.4167 18.3334 15.1663 18.0834 14.9996L16.0834 13.4166C15.6668 13.0833 15.1661 13.0833 14.7495 13.4166L12.9995 14.7496C12.8328 14.9163 12.4995 15 12.2495 14.9166C11.832 14.833 9.83228 14.0825 7.99945 12.2496C6.08303 10.4164 5.16611 8.16629 4.99945 7.74965C4.91635 7.49969 4.99987 7.16622 5.16644 6.99965L6.58344 5.24965C6.83322 4.8331 6.91654 4.33315 6.58344 3.91664L4.99945 1.91664C4.83282 1.66683 4.58332 1.58294 4.33344 1.49965H4.16644ZM18.5834 0.33363C18.8334 0.0836338 19.3334 0.083631 19.5834 0.33363C19.8331 0.583728 19.8333 1.08373 19.5834 1.33363L14.9164 5.99965H17.4164C17.8331 5.91635 18.1664 6.25 18.1664 6.66664C18.1664 7.0833 17.9161 7.41664 17.4995 7.41664H14.6664C14.0831 7.41663 13.5828 7.16696 13.2495 6.83363C12.9162 6.41703 12.6665 5.91684 12.6664 5.33363V2.49965C12.6666 2.16643 12.9169 1.83363 13.3334 1.83363C13.6666 1.83378 13.9993 2.08332 13.9995 2.49965V4.99965L18.5834 0.33363Z" fill="#200040"/>
</g>
<defs>
<clipPath id="clip0_17_851">
<rect width="20" height="20" fill="white"/>
</clipPath>
</defs>
</svg>
