<svg width="20" height="20" viewBox="0 0 20 20" fill="none" xmlns="http://www.w3.org/2000/svg">
<g clip-path="url(#clip0_17_846)">
<path d="M13.8335 12.3332C14.7501 11.6667 15.9999 11.6667 16.9165 12.3332L18.9165 13.9162C19.4164 14.3328 19.7501 14.9997 19.8335 15.6662C19.9168 16.3329 19.6662 17.0002 19.2495 17.5002L18.6665 18.1662C17.6665 19.3329 16.1665 20.0002 14.6665 20.0002H14.0835C11.8335 19.6669 9.58285 18.7502 7.49951 17.2502C7.16628 17.0002 7.08353 16.5835 7.3335 16.2502C7.5835 15.9169 8.00017 15.8332 8.3335 16.0832C10.7499 17.7497 12.9162 18.3335 14.2495 18.5002C15.4995 18.6669 16.7502 18.1662 17.5835 17.1662L18.1665 16.5002C18.3331 16.3336 18.4165 16.0002 18.4165 15.7502C18.3332 15.5002 18.2495 15.2499 17.9995 15.0832L15.9995 13.5002C15.5829 13.167 15.0831 13.1669 14.6665 13.5002L12.9165 14.8332C12.7498 14.9999 12.4165 15.0835 12.1665 15.0002C12.1228 14.9783 12.0449 14.9444 11.9399 14.8996C11.6447 14.7737 11.1366 14.5575 10.5835 14.2502C10.2502 14.0002 10.1669 13.5835 10.3335 13.2502C10.5835 12.9169 11.0002 12.8335 11.3335 13.0002C11.7501 13.2501 12.1666 13.4169 12.4165 13.5002L13.8335 12.3332ZM18.6665 0.33321C18.9165 0.0832857 19.4165 0.0833025 19.6665 0.33321C19.9998 0.583199 19.9998 1.0832 19.6665 1.33321L1.3335 19.6662C1.16693 19.7495 1.00006 19.8331 0.833496 19.8332C0.666829 19.8332 0.500163 19.8329 0.333496 19.6662C0.0835702 19.4162 0.0835208 18.9162 0.333496 18.6662L4.5835 14.4162C1.58356 11.1663 0.499834 7.99953 0.166504 5.91622C-0.0833075 4.08307 0.6667 2.16678 2.1665 1.0002L2.6665 0.58321C3.16647 0.249912 3.83321 0.0829158 4.4165 0.166218C5.08317 0.249551 5.66683 0.58321 6.0835 1.08321L7.6665 3.16622C8.41643 3.99947 8.33298 5.24958 7.6665 6.16622L6.49951 7.58321C6.74949 8.1665 7.41663 9.49962 8.4165 10.6662L18.6665 0.33321ZM4.24951 1.58321C3.99963 1.50007 3.74939 1.58361 3.49951 1.7502L2.99951 2.16622C1.91629 2.99947 1.41698 4.33302 1.5835 5.66622C1.91681 7.58279 2.83314 10.4997 5.49951 13.4162L7.3335 11.5832C5.91689 9.91661 5.16622 8.16696 4.99951 7.7502C4.9162 7.50026 4.99991 7.16691 5.1665 7.0002L6.5835 5.2502C6.8335 4.83354 6.91683 4.33288 6.5835 3.91622L4.99951 1.91622C4.83284 1.66659 4.58263 1.58321 4.24951 1.58321Z" fill="#200040"/>
</g>
<defs>
<clipPath id="clip0_17_846">
<rect width="20" height="20" fill="white"/>
</clipPath>
</defs>
</svg>
