<svg width="20" height="20" viewBox="0 0 20 20" fill="none" xmlns="http://www.w3.org/2000/svg">
<path d="M7.25 1.25C7.58274 1.25016 7.83239 1.49938 7.91602 1.58301L8.08301 1.75L9 3.58301H15.833C17.9997 3.58301 19.6667 5.25033 19.75 7.41699V14.917C19.7499 15.9167 19.4164 16.8332 18.75 17.583C18.0001 18.3329 16.9999 18.7499 16 18.75H4.16602C2.08293 18.7498 0.33319 17.0001 0.333008 14.917L0.416016 5.08301C0.416198 2.99982 2.16677 1.25 4.25 1.25H7.25ZM8.66602 11.083C7.9994 10.4167 6.99957 10.4166 6.33301 11.083L1.83301 15.583C2.08301 16.583 2.99967 17.333 4.08301 17.333H14.916L8.66602 11.083ZM4.25 2.66699C2.91677 2.66699 1.83318 3.74982 1.83301 5.08301L1.75 13.667L5.33301 10.083C6.5829 8.9166 8.49937 8.91672 9.66602 10.083L16.75 17.167C17.0833 17.0836 17.4161 16.833 17.666 16.583C18.0827 16.1664 18.3333 15.5833 18.25 15V7.41699C18.25 6.00033 17.1663 5 15.833 5H8.75C8.16682 5 7.99937 4.66697 7.91602 4.41699L7 2.66699H4.25ZM14.333 6.58301C15.6663 6.58301 16.666 7.58366 16.666 8.91699C16.6658 10.2502 15.5829 11.25 14.333 11.25C12.9998 11.25 12.0002 10.1669 12 8.91699C12 7.58366 13.083 6.58301 14.333 6.58301ZM14.333 8C13.833 8 13.416 8.41699 13.416 8.91699C13.4162 9.41685 13.8331 9.83301 14.333 9.83301C14.8329 9.83301 15.2498 9.41685 15.25 8.91699C15.25 8.41699 14.833 8 14.333 8Z" fill="#200040"/>
</svg>
