<svg width="20" height="20" viewBox="0 0 20 20" fill="none" xmlns="http://www.w3.org/2000/svg">
<path d="M6.08299 1.83319C6.41622 1.66658 6.83321 1.74988 6.99998 2.1662C7.16665 2.49953 6.99998 2.91685 6.74998 3.25018C4.1667 4.5002 2.49998 7.16688 2.49998 10.0002C2.50009 14.0834 5.83339 17.5002 9.99998 17.5002C12.8333 17.5002 15.3336 15.9162 16.667 13.4162C16.8337 13.0001 17.2498 12.9168 17.583 13.0832C17.9163 13.2499 18.0836 13.6669 17.917 14.0002C16.417 17.0002 13.3333 18.8332 9.99998 18.8332C4.99999 18.8332 0.999985 14.8329 0.999985 9.9162C1.00016 6.49979 2.99992 3.33317 6.08299 1.83319ZM10.667 1.1662C14.0836 1.58305 18.4163 6.00027 18.833 9.50018C18.9163 9.91676 18.7499 10.2499 18.5 10.5832C18.25 10.8332 17.9167 11.0002 17.5 11.0002H11.5C10.25 11.0002 9.16698 9.91619 9.16698 8.6662V2.50018C9.16698 2.08367 9.33314 1.75015 9.58299 1.50018C9.83299 1.25018 10.2503 1.08287 10.667 1.1662ZM10.5 8.6662C10.5 9.1662 10.917 9.58319 11.417 9.58319H17.333C17.0829 6.74987 13.2499 2.91652 10.5 2.58319V8.6662Z" fill="#200040"/>
</svg>
