<svg width="20" height="20" viewBox="0 0 20 20" fill="none" xmlns="http://www.w3.org/2000/svg">
<path d="M11.667 0.833374C12.5836 -0.0832382 14.0833 -0.0831295 15 0.833374L19.167 5.00037C19.6668 5.41696 19.8339 5.99992 19.834 6.66638C19.834 7.24971 19.5837 7.91671 19.167 8.33337C18.2504 9.24998 16.7507 9.24988 15.834 8.33337C15.6674 8.16676 15.5006 8.16687 15.334 8.33337L14 9.66638C13.8333 9.91638 13.6667 10.167 13.75 10.5004L14.167 13.0834C14.3336 13.9999 14.0004 14.9997 13.334 15.6664C12.6673 16.333 11.9167 16.6664 11 16.6664C10.0835 16.6663 9.25026 16.2496 8.66699 15.6664L7.08398 14.0834L1.41699 19.7504C1.25037 19.8337 1.08362 19.9164 0.916992 19.9164C0.75038 19.9164 0.583605 19.9169 0.416992 19.7504C0.167047 19.5004 0.167155 19.0004 0.416992 18.7504L6.08398 13.0834L4.5 11.5004C3.83333 10.8337 3.5 9.99971 3.5 9.16638C3.50008 8.24984 3.83373 7.41664 4.41699 6.83337C5.0836 6.16677 6.0834 5.83381 7 6.00037L9.58398 6.33337C9.91716 6.41658 10.1671 6.3333 10.417 6.08337L11.75 4.75037C11.8332 4.66714 11.834 4.58359 11.834 4.50037C11.834 4.41703 11.8333 4.3337 11.75 4.25037L11.667 4.16638C11.2505 3.74979 11.0001 3.16681 11 2.50037C11 1.8337 11.2503 1.25004 11.667 0.833374ZM14 1.83337C13.6666 1.5002 13.0003 1.5001 12.667 1.83337C12.3337 2.16665 12.3338 2.83299 12.667 3.16638L12.75 3.25037C13.4167 3.91703 13.4167 5.0837 12.75 5.75037L11.417 7.08337C10.917 7.58337 10.167 7.83369 9.41699 7.75037L6.83398 7.33337H6.58398C6.16732 7.33337 5.75033 7.50037 5.41699 7.75037C5.00044 8.0837 4.83398 8.58344 4.83398 9.08337C4.83398 9.58329 5.08374 10.083 5.41699 10.4164L9.58398 14.5834C10.2507 15.2499 11.5004 15.25 12.167 14.5834C12.5837 14.1667 12.7503 13.6664 12.667 13.1664L12.25 10.5834C12.1667 9.83339 12.417 9.08337 12.917 8.58337L14.25 7.25037C14.9167 6.5837 16.0833 6.5837 16.75 7.25037L16.834 7.33337C17.1674 7.66654 17.8337 7.66665 18.167 7.33337C18.3337 7.16671 18.417 6.91638 18.417 6.66638C18.4169 6.41657 18.3335 6.16696 18.167 6.00037L14 1.83337Z" fill="#200040"/>
</svg>
