<svg width="20" height="20" viewBox="0 0 20 20" fill="none" xmlns="http://www.w3.org/2000/svg">
<path d="M3.83301 0.916748C4.08291 0.833447 4.33311 0.833512 4.58301 0.916748L15.5 8.16675C16.0832 8.58335 16.4999 9.24989 16.5 9.99976C16.5 10.7498 16.1667 11.4171 15.5 11.8337L4.58301 19.0837C4.49962 19.1667 4.33333 19.1667 4.16699 19.1667C4.08366 19.1667 3.91634 19.1671 3.83301 19.0837C3.58316 19.0003 3.5 18.7497 3.5 18.4998V1.49976C3.50014 1.24999 3.6665 1.00018 3.83301 0.916748ZM4.91699 17.1667L14.75 10.6667C15 10.5001 15.083 10.2498 15.083 9.99976C15.0829 9.74995 14.9165 9.50033 14.75 9.33374L4.91699 2.83374V17.1667Z" fill="#200040"/>
</svg>
