<svg width="20" height="20" viewBox="0 0 20 20" fill="none" xmlns="http://www.w3.org/2000/svg">
<g clip-path="url(#clip0_11_192)">
<path d="M10.0002 0.083252C15.4168 0.0834326 19.9163 4.58369 19.9163 10.0002C19.9161 15.4167 15.4167 19.9161 10.0002 19.9163C4.58369 19.9163 0.0834326 15.4168 0.083252 10.0002C0.083252 4.58358 4.58358 0.083252 10.0002 0.083252ZM10.0002 1.50024C5.33358 1.50024 1.50024 5.33358 1.50024 10.0002C1.50042 14.6668 5.33369 18.5002 10.0002 18.5002C14.6667 18.5001 18.5001 14.6667 18.5002 10.0002C18.5002 5.33369 14.6668 1.50042 10.0002 1.50024ZM7.66626 6.16626C8.16618 5.83298 8.83299 5.83337 9.41626 6.08325L13.4163 8.08325C14.0829 8.49992 14.5833 9.16691 14.5833 10.0002C14.5831 10.8334 14.1662 11.5836 13.4163 12.0002L9.41626 14.0002C9.1663 14.0835 8.83312 14.1663 8.58325 14.1663C8.24992 14.1663 7.91626 14.0829 7.66626 13.9163C7.16647 13.5829 6.83325 13.0828 6.83325 12.4163V7.66626C6.83338 7.08306 7.16639 6.49954 7.66626 6.16626ZM8.58325 7.33325C8.49992 7.33325 8.41626 7.41626 8.41626 7.41626C8.41606 7.41646 8.25024 7.58368 8.25024 7.75024V12.4163C8.25024 12.5827 8.33303 12.7498 8.41626 12.7502C8.41626 12.7502 8.58358 12.8336 8.75024 12.7502L12.7502 10.7502C13.0001 10.6668 13.1663 10.3332 13.1663 10.0833C13.1663 9.83328 13.0002 9.58293 12.7502 9.41626L8.75024 7.41626C8.66691 7.33293 8.66658 7.33325 8.58325 7.33325Z" fill="#200040"/>
</g>
<defs>
<clipPath id="clip0_11_192">
<rect width="20" height="20" fill="white"/>
</clipPath>
</defs>
</svg>
