<svg width="20" height="20" viewBox="0 0 20 20" fill="none" xmlns="http://www.w3.org/2000/svg">
<g clip-path="url(#clip0_31_25)">
<path d="M15.8335 0.083313C18.0834 0.083313 19.8333 1.91647 19.8335 4.16632V15.7503C19.8333 18.0835 18.0834 19.9163 15.8335 19.9163H4.1665C1.91665 19.9161 0.0834966 18.0832 0.0834961 15.8333V4.16632C0.083673 1.91658 1.91676 0.0834901 4.1665 0.083313H15.8335ZM4.1665 1.58331C2.75009 1.58349 1.58367 2.74991 1.5835 4.16632V15.8333C1.5835 17.2499 2.74998 18.4161 4.1665 18.4163H15.8335C17.3334 18.4163 18.5003 17.2501 18.5005 15.7503V4.16632C18.5003 2.7498 17.2501 1.58331 15.8335 1.58331H4.1665ZM10.0005 5.91632C10.4169 5.91649 10.7503 6.24991 10.7505 6.66632V9.25031H13.3335C13.7502 9.25031 14.0005 9.58364 14.0005 10.0003C14.0004 10.4168 13.7501 10.7503 13.3335 10.7503H10.7505V13.3333C10.7505 13.7499 10.417 14.0831 10.0005 14.0833C9.58382 14.0833 9.25049 13.75 9.25049 13.3333V10.7503H6.6665C6.2501 10.7501 5.91668 10.4167 5.9165 10.0003C5.9165 9.58375 6.24999 9.25048 6.6665 9.25031H9.25049V6.66632C9.25066 6.24981 9.58393 5.91632 10.0005 5.91632Z" fill="#200040"/>
</g>
<defs>
<clipPath id="clip0_31_25">
<rect width="20" height="20" fill="white"/>
</clipPath>
</defs>
</svg>
