<svg width="20" height="20" viewBox="0 0 20 20" fill="none" xmlns="http://www.w3.org/2000/svg">
<g clip-path="url(#clip0_31_26)">
<path d="M9.99951 0.0833435C15.4162 0.0833435 19.8335 4.50034 19.8335 10.0003C19.8333 15.5002 15.4161 19.9164 9.99951 19.9164C4.5831 19.9162 0.166679 15.5001 0.166504 10.0003C0.166504 4.50045 4.58299 0.0835203 9.99951 0.0833435ZM9.99951 1.58334C5.33299 1.58352 1.49951 5.41711 1.49951 10.0003C1.49969 14.5834 5.3331 18.4162 9.99951 18.4164C14.6661 18.4164 18.4993 14.5835 18.4995 10.0003C18.4995 5.417 14.6662 1.58334 9.99951 1.58334ZM9.99951 5.91635C10.4161 5.91635 10.7493 6.24984 10.7495 6.66635V9.25034H13.3335C13.75 9.25051 13.9995 9.58378 13.9995 10.0003C13.9994 10.4167 13.7499 10.7502 13.3335 10.7503H10.7495V13.3333C10.7495 13.75 10.4162 14.0833 9.99951 14.0833C9.583 14.0832 9.24951 13.7499 9.24951 13.3333V10.7503H6.6665C6.24995 10.7503 5.91668 10.4169 5.9165 10.0003C5.9165 9.58367 6.24984 9.25034 6.6665 9.25034H9.24951V6.66635C9.24969 6.24995 9.58311 5.91653 9.99951 5.91635Z" fill="#200040"/>
</g>
<defs>
<clipPath id="clip0_31_26">
<rect width="20" height="20" fill="white"/>
</clipPath>
</defs>
</svg>
