<svg width="20" height="20" viewBox="0 0 20 20" fill="none" xmlns="http://www.w3.org/2000/svg">
<path d="M10.083 2.25C10.4163 2.25 10.75 2.50033 10.75 2.91699V9.33301H17.166C17.5826 9.33301 17.8329 9.66649 17.833 10.083C17.833 10.4163 17.5827 10.75 17.166 10.75H10.75V17.167C10.7499 17.5835 10.4996 17.917 10.083 17.917C9.74967 17.917 9.41602 17.6667 9.41602 17.25V10.833H3C2.66667 10.833 2.33301 10.4997 2.33301 10.083C2.33317 9.74978 2.58347 9.41699 3 9.41699H9.41602V3C9.41602 2.58333 9.66634 2.25 10.083 2.25Z" fill="#200040"/>
</svg>
