<svg width="20" height="20" viewBox="0 0 20 20" fill="none" xmlns="http://www.w3.org/2000/svg">
<path d="M19.1665 1.74969C19.5832 1.7497 19.8335 2.00002 19.8335 2.41669C19.8335 2.83334 19.5832 3.16669 19.1665 3.16669H4.24951C3.99955 3.16676 3.6664 3.25038 3.4165 3.33368C3.08326 3.50037 2.9165 3.8334 2.9165 4.16669C2.91652 4.66668 3.33318 5.16669 3.9165 5.16669H17.4995C18.8328 5.16669 19.8335 6.25035 19.8335 7.58368V15.8337C19.8334 16.4169 19.583 17.0831 19.1665 17.4997C18.7498 17.9164 18.1662 18.1667 17.4995 18.1667H4.24951C1.99978 18.1665 0.166692 16.3334 0.166504 14.0837V5.83368C0.166504 4.08374 1.24959 2.66639 2.74951 1.99969C3.08284 1.83303 3.41683 1.74969 3.8335 1.74969H19.1665ZM1.6665 5.08368C1.58327 5.33358 1.5835 5.58378 1.5835 5.83368V13.9997C1.5835 15.4996 2.74967 16.6665 4.24951 16.6667H17.4995C17.7495 16.6667 17.9998 16.5833 18.1665 16.4167C18.3332 16.25 18.4165 15.9997 18.4165 15.7497V7.49969C18.4164 6.91652 17.9997 6.4997 17.4165 6.49969H3.8335C2.91694 6.49969 1.99994 5.91685 1.6665 5.08368ZM15.9995 10.4997C16.5828 10.4997 17.0835 11.0003 17.0835 11.5837C17.0833 12.1669 16.5827 12.6667 15.9995 12.6667C15.4164 12.6665 14.9167 12.1668 14.9165 11.5837C14.9165 11.0005 15.4163 10.4999 15.9995 10.4997Z" fill="#200040"/>
</svg>
