<svg width="20" height="20" viewBox="0 0 20 20" fill="none" xmlns="http://www.w3.org/2000/svg">
<path d="M4.24951 2.58374C7.41612 -0.582869 12.6665 -0.500071 15.9165 2.74976C16.5832 3.49976 16.9998 4.08341 17.4165 4.91675C18.3332 6.83341 18.4162 9.00009 17.4995 11.1667C16.6661 13.3334 14.1665 16.9168 13.4165 17.9167C12.5832 19.0834 11.3331 19.7498 9.9165 19.7498C8.49987 19.7497 7.24982 19.0834 6.4165 17.9167C4.74985 15.4168 3.08318 12.8334 2.4165 11.1667C1.58317 9.16675 1.66683 6.83309 2.5835 4.99976C3.08335 4.0834 3.58311 3.33352 4.24951 2.58374ZM9.99951 1.74976C8.24965 1.74985 6.49941 2.33384 5.24951 3.58374C4.6664 4.16697 4.25006 4.83363 3.8335 5.66675C3.08351 7.08339 3.08288 9.0001 3.74951 10.6667C4.24 11.928 5.55602 13.9554 6.854 15.9558C7.09964 16.3344 7.34481 16.7125 7.5835 17.0837C8.08354 17.8335 9.00002 18.2497 9.9165 18.2498C10.833 18.2498 11.7494 17.8335 12.2495 17.0837C14.166 14.4173 15.5831 12.0005 16.1665 10.5837C16.9165 8.83385 16.9164 7.08368 16.1665 5.58374C15.8332 4.91707 15.4165 4.33309 14.9165 3.74976C13.5832 2.41654 11.7494 1.74976 9.99951 1.74976ZM9.9165 3.41675C10.3332 3.41675 10.6665 3.75008 10.6665 4.16675V5.24976C11.4165 5.41642 12.1665 5.83342 12.6665 6.41675L13.5835 5.91675C14.0001 5.66688 14.4168 5.83345 14.5835 6.16675C14.7501 6.50006 14.6661 6.91678 14.2495 7.16675L13.3335 7.66675C13.4168 7.99997 13.4995 8.33326 13.4995 8.74976C13.4995 9.16642 13.4168 9.58342 13.3335 9.91675L14.2495 10.4998C14.5828 10.7497 14.6661 11.1664 14.4995 11.4998C14.4162 11.7498 14.1665 11.8337 13.9165 11.8337C13.8331 11.8337 13.6668 11.8331 13.5835 11.7498L12.6665 11.1667C12.1665 11.75 11.4998 12.1671 10.6665 12.3337V13.3337C10.6663 13.7502 10.333 14.0837 9.9165 14.0837C9.50001 14.0837 9.16671 13.7502 9.1665 13.3337V12.3337C8.4165 12.1671 7.6665 11.7501 7.1665 11.1667L6.24951 11.7498C6.1662 11.833 6.08312 11.8337 5.9165 11.8337C5.66655 11.8337 5.50014 11.7497 5.3335 11.4998C5.16691 11.1664 5.2502 10.6664 5.5835 10.4998L6.49951 9.91675C6.48735 9.85596 6.47528 9.79677 6.46338 9.73901C6.39373 9.40094 6.3335 9.10557 6.3335 8.74976C6.33353 8.394 6.39374 8.09855 6.46338 7.7605C6.47523 7.70299 6.48741 7.64425 6.49951 7.58374L5.5835 6.99976C5.25023 6.83313 5.16697 6.41704 5.3335 6.08374C5.5835 5.75041 6.00016 5.66707 6.3335 5.83374L7.24951 6.33374C7.74943 5.7505 8.41637 5.33347 9.24951 5.16675V4.16675C9.24951 3.83344 9.49989 3.41681 9.9165 3.41675ZM9.9165 6.66675C8.74988 6.6668 7.74951 7.6671 7.74951 8.83374C7.74972 10.0002 8.66669 10.9997 9.9165 10.9998C11.1664 10.9998 12.0833 10.0002 12.0835 8.83374C12.0835 7.66707 11.0832 6.66675 9.9165 6.66675Z" fill="#200040"/>
</svg>
