<svg width="20" height="20" viewBox="0 0 20 20" fill="none" xmlns="http://www.w3.org/2000/svg">
<g clip-path="url(#clip0_773_73)">
<path d="M8.3335 11.833C8.74996 11.8331 8.9995 12.0835 8.99951 12.5C8.99951 12.9167 8.66618 13.167 8.24951 13.167C6.33314 13.0837 4.58341 13.6666 3.3335 14.833C2.16691 15.9163 1.4996 17.4165 1.49951 19.083C1.49951 19.4162 1.16672 19.7498 0.833496 19.75C0.500163 19.75 0.166504 19.4997 0.166504 19.083C0.1666 17.0831 0.999919 15.1663 2.4165 13.833C3.91649 12.4164 6.00025 11.6663 8.3335 11.833ZM17.4165 9.25C18.7498 9.25 19.8335 10.3337 19.8335 11.667V17.333C19.8335 18.6663 18.7498 19.75 17.4165 19.75H13.4165C12.0832 19.75 10.9995 18.6663 10.9995 17.333V11.667C10.9995 10.3337 12.0832 9.25 13.4165 9.25H17.4165ZM13.4165 10.75C12.9165 10.75 12.4165 11.1667 12.4165 11.75V17.417C12.4167 17.9169 12.8333 18.417 13.4165 18.417H17.4165C17.9164 18.417 18.4163 18.0002 18.4165 17.417V11.75C18.4165 11.25 17.9998 10.75 17.4165 10.75H13.4165ZM16.6665 15.083C17.0832 15.083 17.3335 15.4167 17.3335 15.75C17.3335 16.0833 17.0832 16.417 16.6665 16.417H14.1665C13.8332 16.417 13.4995 16.0833 13.4995 15.75C13.4995 15.4167 13.7498 15.083 14.1665 15.083H16.6665ZM16.6665 12.583C17.0832 12.583 17.3335 12.9167 17.3335 13.25C17.3335 13.5833 17.0832 13.917 16.6665 13.917H14.1665C13.8332 13.917 13.4995 13.5833 13.4995 13.25C13.4995 12.9167 13.7498 12.583 14.1665 12.583H16.6665ZM7.49951 0.166992C10.1662 0.166992 12.4165 2.25001 12.4165 5C12.4165 7.75 10.1662 9.91699 7.49951 9.91699C4.83299 9.91681 2.6665 7.66656 2.6665 5C2.66651 2.33345 4.833 0.167168 7.49951 0.166992ZM7.49951 1.58301C5.58301 1.58318 4.08351 3.08345 4.0835 5C4.0835 6.91656 5.583 8.58282 7.49951 8.58301C9.41618 8.58301 10.9995 6.99967 10.9995 5.08301C10.9993 3.1665 9.41606 1.58301 7.49951 1.58301Z" fill="#200040"/>
</g>
<defs>
<clipPath id="clip0_773_73">
<rect width="20" height="20" fill="white"/>
</clipPath>
</defs>
</svg>
