<svg width="20" height="20" viewBox="0 0 20 20" fill="none" xmlns="http://www.w3.org/2000/svg">
<g clip-path="url(#clip0_11_607)">
<path d="M12.5835 2.91632C12.7502 2.5 13.1663 2.3338 13.4995 2.50031C16.8327 3.91693 19.0834 7.24978 19.0835 10.9163C19.0835 15.9163 14.9995 20.0003 9.99951 20.0003C4.99966 20.0001 0.916504 15.9165 0.916504 10.8333C0.916504 7.16679 3.08307 3.91706 6.49951 2.50031C6.91616 2.41698 7.33349 2.58302 7.5835 2.91632C7.66683 3.24965 7.49984 3.66665 7.1665 3.83331C4.24994 5.08327 2.41663 7.83312 2.4165 10.9163C2.4165 15.1663 5.8335 18.5833 10.0835 18.5833C14.3333 18.5831 17.7495 15.1662 17.7495 10.9163C17.7494 7.83311 15.8327 4.99994 12.9995 3.83331C12.5831 3.66661 12.4169 3.33289 12.5835 2.91632ZM10.0835 0.083313C10.4167 0.0835303 10.7495 0.416782 10.7495 0.833313V5.91632C10.7495 6.24965 10.4162 6.58331 9.99951 6.58331C9.583 6.58314 9.24988 6.24987 9.4165 5.83331V0.750305C9.4165 0.416972 9.66683 0.083313 10.0835 0.083313Z" fill="#200040"/>
</g>
<defs>
<clipPath id="clip0_11_607">
<rect width="20" height="20" fill="white"/>
</clipPath>
</defs>
</svg>
