<svg width="20" height="20" viewBox="0 0 20 20" fill="none" xmlns="http://www.w3.org/2000/svg">
<g clip-path="url(#clip0_18_972)">
<path d="M12.4995 0.166687C14.3328 0.166687 15.7495 1.66669 15.7495 3.41669V5.08368H15.8335C18.0833 5.08386 19.8335 6.9168 19.8335 9.16669V13.3337C19.8333 15.5001 18.0832 17.3335 15.8335 17.3337H15.6665V17.4997C15.6665 18.7496 14.6667 19.8335 13.3335 19.8337H6.5835C5.3335 19.8337 4.24951 18.833 4.24951 17.4997V17.3337H4.1665C1.99994 17.3337 0.166681 15.5835 0.166504 13.3337V9.16669C0.166504 7.00002 1.9165 5.16669 4.1665 5.16669H4.24951V3.41669C4.24951 1.58347 5.74965 0.166863 7.49951 0.166687H12.4995ZM6.6665 13.2497C6.1665 13.2497 5.74951 13.6667 5.74951 14.1667V17.4997C5.74951 17.9997 6.1665 18.4167 6.6665 18.4167H13.4165C13.9165 18.4167 14.3335 17.9997 14.3335 17.4997H14.2495V14.1667C14.2495 13.6668 13.8334 13.2499 13.3335 13.2497H6.6665ZM4.1665 6.66669C2.74995 6.66669 1.58367 7.83318 1.5835 9.24969V13.4167C1.5835 14.8334 2.74984 15.9997 4.1665 15.9997H4.3335V14.1667C4.3335 12.9167 5.33317 11.8337 6.6665 11.8337H13.4165C14.6665 11.8337 15.7495 12.8334 15.7495 14.1667V15.9167H15.8335C17.2499 15.9165 18.4163 14.7501 18.4165 13.3337V9.24969C18.4163 7.83328 17.2499 6.66687 15.8335 6.66669H4.1665ZM14.9995 8.49969C15.4162 8.49969 15.6665 8.83335 15.6665 9.16669C15.6665 9.50002 15.4162 9.83368 14.9995 9.83368H13.3335C13.0002 9.83368 12.6665 9.50002 12.6665 9.16669C12.6665 8.83335 12.9168 8.49969 13.3335 8.49969H14.9995ZM7.49951 1.58368C6.49966 1.58386 5.6665 2.4168 5.6665 3.41669V5.16669H14.3335V3.41669C14.3335 2.41669 13.4995 1.58368 12.4995 1.58368H7.49951Z" fill="#200040"/>
</g>
<defs>
<clipPath id="clip0_18_972">
<rect width="20" height="20" fill="white"/>
</clipPath>
</defs>
</svg>
