<svg width="20" height="20" viewBox="0 0 20 20" fill="none" xmlns="http://www.w3.org/2000/svg">
<path d="M0.666016 13.5C0.999349 13.5 1.33301 13.7503 1.33301 14.167V15.833C1.33301 17.333 2.58333 18.5 4 18.5H5.66602C6.08265 18.5 6.41596 18.9167 6.41602 19.25C6.41602 19.5833 6.16656 19.9169 5.75 19.917H4.08301C1.83307 19.9169 0 18.083 0 15.833V14.167C0 13.8338 0.332838 13.5003 0.666016 13.5ZM19 13.5C19.4164 13.5001 19.6666 13.8331 19.75 14.083V15.75C19.75 18 17.916 19.833 15.666 19.833H14C13.6667 19.833 13.3332 19.5002 13.333 19.167C13.333 18.8337 13.5833 18.5 14 18.5H15.666C17.166 18.5 18.333 17.2497 18.333 15.833V14.167C18.333 13.8337 18.5833 13.5 19 13.5ZM6.91602 10.917C7.99935 10.917 8.83301 11.8337 8.83301 12.917V14.583C8.83301 15.6663 7.91634 16.583 6.83301 16.583H5.25C4.16667 16.583 3.25 15.6663 3.25 14.583V12.917C3.25 11.8337 4.16667 10.917 5.25 10.917H6.91602ZM11.916 14.333C12.4993 14.333 13 14.8337 13 15.417C12.9999 16.0002 12.4993 16.5 11.916 16.5C11.333 16.4997 10.8331 16.0001 10.833 15.417C10.833 14.8338 11.3329 14.3333 11.916 14.333ZM5.25 12.333C4.91667 12.333 4.66602 12.5837 4.66602 12.917V14.583C4.66602 14.9163 4.91667 15.167 5.25 15.167H6.91602C7.24935 15.167 7.5 14.9163 7.5 14.583H7.41602V12.917C7.41602 12.5837 7.16634 12.333 6.83301 12.333H5.25ZM11.916 11C12.4992 11 12.9998 11.4998 13 12.083C13 12.6663 12.4993 13.167 11.916 13.167C11.3329 13.1667 10.833 12.6662 10.833 12.083C10.8332 11.5 11.333 11.0003 11.916 11ZM15.25 11C15.8331 11.0001 16.3328 11.4999 16.333 12.083C16.333 12.6663 15.8333 13.1669 15.25 13.167C14.6667 13.167 14.166 12.6663 14.166 12.083C14.1662 11.4998 14.6668 11 15.25 11ZM6.91602 3.41699C7.99935 3.41699 8.83301 4.33366 8.83301 5.41699V7.08301C8.83301 8.16634 7.91634 9.08301 6.83301 9.08301H5.25C4.16667 9.08301 3.25 8.16634 3.25 7.08301V5.41699C3.25 4.33366 4.16667 3.41699 5.25 3.41699H6.91602ZM14.333 3.33301C15.4162 3.33301 16.3328 4.24985 16.333 5.33301V7C16.333 8.08333 15.4163 9 14.333 9H12.75C11.6667 9 10.8333 8.16667 10.75 7V5.33301C10.7502 4.24985 11.6668 3.33301 12.75 3.33301H14.333ZM5.25 4.83301C4.91667 4.83301 4.66602 5.08366 4.66602 5.41699V7.08301C4.66602 7.41634 4.91667 7.66699 5.25 7.66699H6.91602C7.24935 7.66699 7.5 7.41634 7.5 7.08301H7.41602V5.41699C7.41602 5.08366 7.16634 4.83301 6.83301 4.83301H5.25ZM12.833 4.83301C12.4997 4.83308 12.25 5.08371 12.25 5.41699V7.08301C12.25 7.41629 12.4997 7.66692 12.833 7.66699H14.416C14.7493 7.66699 15 7.41634 15 7.08301V5.41699C15 5.08366 14.7493 4.83301 14.416 4.83301H12.833ZM5.66602 0.166992C6.08251 0.166992 6.3328 0.49981 6.33301 0.833008C6.33301 1.16634 6.08268 1.5 5.66602 1.5H4C2.5 1.5 1.33301 2.75033 1.33301 4.16699V5.83301C1.33301 6.16634 1.08268 6.5 0.666016 6.5C0.24963 6.49981 0 6.24952 0 5.83301V4.16699C0 1.91699 1.75 0.166992 4 0.166992H5.66602ZM15.666 0.166992C17.916 0.166992 19.666 1.91699 19.666 4.16699V5.83301C19.666 6.16628 19.3333 6.49988 19 6.5C18.6667 6.5 18.333 6.24967 18.333 5.83301V4.16699C18.333 2.66699 17.0827 1.5 15.666 1.5H14C13.6667 1.5 13.333 1.16634 13.333 0.833008C13.3332 0.49981 13.5835 0.166992 14 0.166992H15.666Z" fill="#200040"/>
</svg>
