<svg width="20" height="20" viewBox="0 0 20 20" fill="none" xmlns="http://www.w3.org/2000/svg">
<g clip-path="url(#clip0_11_462)">
<path d="M10 0.083252C15.4165 0.0834326 19.916 4.58369 19.916 10.0002C19.9158 15.4167 15.4164 19.9161 10 19.9163C4.58344 19.9163 0.0831885 15.4168 0.0830078 10.0002C0.0830078 4.58358 4.58333 0.083252 10 0.083252ZM10 1.50024C5.33333 1.50024 1.5 5.33358 1.5 10.0002C1.50018 14.6668 5.33344 18.5002 10 18.5002C14.6664 18.5001 18.4998 14.6667 18.5 10.0002C18.5 5.33369 14.6665 1.50042 10 1.50024ZM10 14.3333C10.4165 14.3334 10.666 14.5837 10.666 15.0002C10.6659 15.3334 10.4163 15.6661 10 15.6663C9.66675 15.6663 9.33318 15.4167 9.33301 15.0002C9.33301 14.6669 9.58333 14.3333 10 14.3333ZM7.91602 5.08325C8.66602 4.41659 9.66634 4.16658 10.583 4.33325C11.9163 4.58325 12.9167 5.66691 13 7.00024C13.2498 8.41677 12.5826 9.74965 11.416 10.4163C10.9161 10.7496 10.583 11.3336 10.583 12.0002V12.5833C10.583 12.9166 10.3327 13.2502 9.91602 13.2502C9.58288 13.25 9.25017 12.9166 9.25 12.5002V11.9163C9.2501 10.6664 9.83309 9.58321 10.833 9.08325C11.4997 8.66658 11.9167 7.91626 11.75 7.16626C11.6665 6.49969 11.0826 5.83357 10.416 5.75024C9.8328 5.667 9.33262 5.83298 8.91602 6.16626C8.49937 6.49959 8.25 7.00026 8.25 7.50024C8.24978 7.91658 7.83319 8.1661 7.5 8.16626C7.16675 8.16626 6.83318 7.91672 6.83301 7.50024C6.83301 6.58366 7.24946 5.66659 7.91602 5.08325Z" fill="#200040"/>
</g>
<defs>
<clipPath id="clip0_11_462">
<rect width="20" height="20" fill="white"/>
</clipPath>
</defs>
</svg>
