<svg width="20" height="20" viewBox="0 0 20 20" fill="none" xmlns="http://www.w3.org/2000/svg">
<g clip-path="url(#clip0_18_971)">
<path d="M17.3335 0.166321C17.7499 -1.25617e-05 18.0829 0.250145 18.2495 0.583313C18.4162 0.999926 18.1668 1.33362 17.8335 1.50031L7.6665 5.16632H15.8335C18.0832 5.16649 19.8333 6.91658 19.8335 9.16632V15.8333C19.8335 17.9999 18.0833 19.8331 15.8335 19.8333H4.1665C1.99984 19.8333 0.16651 18.0833 0.166504 15.8333V9.16632C0.16663 7.49978 1.1666 5.99962 2.6665 5.41632L17.3335 0.166321ZM4.1665 6.58331C2.74994 6.58331 1.58367 7.7498 1.5835 9.16632V15.8333C1.5835 17.25 2.74984 18.4163 4.1665 18.4163H15.8335C17.25 18.4161 18.4165 17.2499 18.4165 15.8333V9.16632C18.4163 7.74991 17.2499 6.58349 15.8335 6.58331H4.1665ZM13.7495 11.4163C15.2494 11.4163 16.4993 12.6665 16.4995 14.1663C16.4995 15.6663 15.2495 16.9163 13.7495 16.9163C12.2497 16.9161 10.9995 15.6662 10.9995 14.1663C10.9997 12.6666 12.2498 11.4165 13.7495 11.4163ZM8.3335 15.1663C8.74997 15.1665 8.99951 15.5001 8.99951 15.8333C8.99951 16.1666 8.74996 16.5001 8.3335 16.5003H4.1665C3.83317 16.5003 3.49952 16.1666 3.49951 15.8333C3.49951 15.5 3.74984 15.1663 4.1665 15.1663H8.3335ZM13.7495 12.8333C12.9998 12.8335 12.4167 13.4166 12.4165 14.1663C12.4165 14.9162 12.9997 15.5001 13.7495 15.5003C14.4995 15.5003 15.0835 14.9163 15.0835 14.1663C15.0833 13.4165 14.4994 12.8333 13.7495 12.8333ZM8.3335 11.7503C8.74984 11.7505 8.99936 12.0832 8.99951 12.4163C8.99951 12.7496 8.74997 13.0831 8.3335 13.0833H4.1665C3.83317 13.0833 3.49951 12.7497 3.49951 12.4163C3.49967 12.0831 3.74997 11.7503 4.1665 11.7503H8.3335Z" fill="#200040"/>
</g>
<defs>
<clipPath id="clip0_18_971">
<rect width="20" height="20" fill="white"/>
</clipPath>
</defs>
</svg>
