<svg width="20" height="20" viewBox="0 0 20 20" fill="none" xmlns="http://www.w3.org/2000/svg">
<g clip-path="url(#clip0_11_506)">
<path d="M19.167 10.1664C19.5837 10.1664 19.9173 10.5003 19.834 11.0003C19.4172 16.1669 15.1666 20.0003 10 20.0003C7.41687 20.0003 5.00023 19.0002 3.16699 17.2503V19.2503C3.16683 19.5836 2.91653 19.9164 2.5 19.9164C2.16686 19.9162 1.83416 19.6667 1.83398 19.2503V16.4164C1.83405 15.8332 2.0004 15.3329 2.41699 14.9164C2.83363 14.5831 3.33373 14.3333 3.91699 14.3333H6.75C7.08333 14.4167 7.41699 14.6667 7.41699 15.0833C7.33366 15.4167 7.08366 15.7503 6.66699 15.7503H3.75C5.33326 17.5002 7.58346 18.5002 10 18.5003C14.4167 18.5003 18.0003 15.25 18.417 10.8333C18.417 10.4167 18.7503 10.1664 19.167 10.1664ZM17.584 0.0833435C17.9172 0.0835075 18.25 0.333806 18.25 0.750336V3.58334C18.25 4.16668 18.0837 4.66668 17.667 5.08334C17.2503 5.41668 16.7503 5.66635 16.167 5.66635H13.334C13.0007 5.58302 12.667 5.33302 12.667 4.91635C12.6672 4.58313 12.9175 4.25034 13.334 4.25034H16.25C14.6667 2.50034 12.4167 1.50034 10 1.50034C5.6668 1.50051 1.91731 4.91711 1.58398 9.25034C1.58381 9.66681 1.25024 9.91635 0.916992 9.91635H0.833984C0.417318 9.91635 0.166992 9.58302 0.166992 9.16635C0.583807 4.08328 4.91691 0.0835141 10 0.0833435C12.5833 0.0833435 15.0003 1.08367 16.917 2.75034V0.750336C16.917 0.417002 17.1673 0.0833435 17.584 0.0833435Z" fill="#200040"/>
</g>
<defs>
<clipPath id="clip0_11_506">
<rect width="20" height="20" fill="white"/>
</clipPath>
</defs>
</svg>
