<svg width="20" height="20" viewBox="0 0 20 20" fill="none" xmlns="http://www.w3.org/2000/svg">
<g clip-path="url(#clip0_11_507)">
<path d="M0.833008 9.25034C1.16634 9.25034 1.5 9.58367 1.5 10.0003C1.50018 14.6669 5.33344 18.5003 10 18.5003C12.8332 18.5002 15.3327 17.1663 16.916 14.9164H14.166C13.8329 14.9162 13.5002 14.6667 13.5 14.2503C13.5 13.8338 13.7495 13.5005 14.166 13.5003H17C17.5831 13.5004 18.0827 13.6669 18.416 14.0833C18.7493 14.5 19 15 19 15.5833V18.4164C19 18.7497 18.7497 19.0833 18.333 19.0833C17.9997 19.0833 17.666 18.833 17.666 18.4164V16.2503C15.8327 18.5834 12.9997 19.9163 10 19.9164C4.50011 19.9164 0.0831841 15.4169 0.0830078 10.0003C0.0830078 9.58367 0.499674 9.25034 0.833008 9.25034ZM10 0.0833435C15.4165 0.0835231 19.9163 4.58378 19.833 10.0003C19.8328 10.4169 19.4993 10.7503 19.166 10.7503C18.8329 10.7501 18.5002 10.4167 18.5 10.0003C18.5 5.33378 14.6665 1.50051 10 1.50034C7.25009 1.50034 4.66635 2.91648 3.08301 5.16635H5.91602C6.24935 5.16635 6.58301 5.41668 6.58301 5.83334C6.58301 6.25001 6.33268 6.58334 5.91602 6.58334H3.08301C2.49975 6.58334 1.99964 6.33361 1.58301 6.00034C1.24974 5.58375 1.00009 5.08353 1 4.50034V1.66635C1.00016 1.33321 1.24968 1.00051 1.66602 1.00034C1.99926 1.00034 2.33283 1.24988 2.33301 1.66635V3.66635C4.24967 1.41647 7.00008 0.0833435 10 0.0833435Z" fill="#200040"/>
</g>
<defs>
<clipPath id="clip0_11_507">
<rect width="20" height="20" fill="white"/>
</clipPath>
</defs>
</svg>
