<svg width="20" height="20" viewBox="0 0 20 20" fill="none" xmlns="http://www.w3.org/2000/svg">
<g clip-path="url(#clip0_11_190)">
<path d="M19.1667 10.0831C19.5833 10.0831 19.9169 10.4166 19.8337 10.8331C19.8337 13.9998 17.2501 16.5001 14.1667 16.5001H2.33374L4.08374 18.2501C4.3335 18.5001 4.33355 19.0001 4.08374 19.2501C3.91718 19.3334 3.7503 19.417 3.58374 19.4171C3.41714 19.4171 3.25034 19.4166 3.08374 19.2501L0.58374 16.7501C0.333761 16.4168 0.166775 16.0834 0.166748 15.7501C0.166748 15.3335 0.33374 15.0001 0.58374 14.7501L3.08374 12.2501C3.33378 12.0002 3.83378 12.0002 4.08374 12.2501C4.3335 12.5001 4.33355 13.0001 4.08374 13.2501L2.33374 15.0001H14.1667C16.5001 15.0001 18.4167 13.0834 18.4167 10.7501C18.4167 10.4168 18.7501 10.0831 19.1667 10.0831ZM15.9998 0.750122C16.2497 0.500163 16.7497 0.500245 16.9998 0.750122L19.4998 3.25012C19.9998 3.75012 20.0001 4.58346 19.4167 5.25012L16.9167 7.75012C16.7501 7.83345 16.5834 7.91711 16.4167 7.91711C16.2501 7.91711 16.0834 7.91675 15.9167 7.75012C15.6668 7.50014 15.6668 7.00014 15.9167 6.75012L17.6667 5.00012H5.83374C3.50041 5.00012 1.58374 6.91679 1.58374 9.25012C1.5837 9.58343 1.33338 9.91711 0.916748 9.91711C0.583524 9.91711 0.249973 9.58359 0.249756 9.16711C0.249756 6.00045 2.83341 3.50012 5.91675 3.50012H17.7498L15.9998 1.75012C15.7499 1.50015 15.75 1.00015 15.9998 0.750122Z" fill="#200040"/>
</g>
<defs>
<clipPath id="clip0_11_190">
<rect width="20" height="20" fill="white"/>
</clipPath>
</defs>
</svg>
