<svg width="20" height="20" viewBox="0 0 20 20" fill="none" xmlns="http://www.w3.org/2000/svg">
<g clip-path="url(#clip0_11_716)">
<path d="M17.5 0.083374C17.8333 0.0834846 18.166 0.417088 18.166 0.750366V4.25037C18.1658 5.00021 17.5829 5.58337 16.833 5.58337H13.333C12.9164 5.58329 12.666 5.24967 12.666 4.91638C12.6662 4.58321 12.9998 4.25047 13.333 4.25037L16.25 4.33337C14.6667 2.58341 12.4166 1.58342 10 1.58337C5.33333 1.58337 1.5 5.41671 1.5 10.0834C1.5 14.75 5.33333 18.5834 10 18.5834C14.4165 18.5833 18.0825 15.1668 18.416 10.7504C18.416 10.3339 18.7496 10.0836 19.166 10.0834C19.5827 10.0834 19.833 10.4167 19.833 10.8334C19.4163 15.9166 15.0833 19.9163 10 19.9164C4.58333 19.9164 0.166016 15.5 0.166016 10.0834C0.166016 4.66676 4.66641 0.0834655 10.083 0.083374C12.6663 0.083374 14.9997 1.0837 16.833 2.75037V0.750366C16.833 0.3337 17.1667 0.083374 17.5 0.083374Z" fill="#200040"/>
</g>
<defs>
<clipPath id="clip0_11_716">
<rect width="20" height="20" fill="white"/>
</clipPath>
</defs>
</svg>
