<svg width="20" height="20" viewBox="0 0 20 20" fill="none" xmlns="http://www.w3.org/2000/svg">
<g clip-path="url(#clip0_11_703)">
<path d="M9.91699 0.083374C15.3334 0.0836488 19.833 4.66687 19.833 10.0834C19.833 15.5 15.4166 19.9163 10 19.9164C4.91668 19.9164 0.583677 15.9167 0.16699 10.8334C0.16699 10.4168 0.416438 10.0835 0.833006 10.0834C1.24967 10.0834 1.58301 10.3337 1.58301 10.7504C1.91649 15.1669 5.58344 18.5834 10 18.5834C14.6666 18.5833 18.5 14.75 18.5 10.0834C18.5 5.41676 14.6666 1.58346 10 1.58337C7.58337 1.58337 5.33333 2.58342 3.75 4.33337L6.66699 4.25037C7.00005 4.25069 7.33279 4.58332 7.33301 4.91638C7.33301 5.24959 7.08336 5.58311 6.66699 5.58337H3.16699C2.4171 5.58337 1.83317 5.00021 1.83301 4.25037V0.750366C1.83301 0.417033 2.16666 0.083374 2.5 0.083374C2.83328 0.0834545 3.16699 0.333767 3.16699 0.750366V2.75037C5.00031 1.08376 7.33371 0.083374 9.91699 0.083374Z" fill="#200040"/>
</g>
<defs>
<clipPath id="clip0_11_703">
<rect width="20" height="20" fill="white"/>
</clipPath>
</defs>
</svg>
