<svg width="20" height="20" viewBox="0 0 20 20" fill="none" xmlns="http://www.w3.org/2000/svg">
<path d="M3.08368 1.16675C3.50015 1.16698 3.83368 1.50052 3.83368 1.83374V18.4167C3.83368 18.8333 3.50015 19.0836 3.08368 19.0837C2.66701 19.0837 2.33368 18.7501 2.33368 18.4167V1.83374C2.33368 1.41707 2.66701 1.16675 3.08368 1.16675ZM10.1667 4.99976C10.4167 4.75001 10.9167 4.74994 11.1667 4.99976C11.4166 5.24968 11.4165 5.74968 11.1667 5.99976L7.24969 9.91675C7.2497 9.91704 7.25049 9.99976 7.33368 9.99976L11.2497 13.9167C11.4997 14.1667 11.4997 14.6667 11.2497 14.9167C11.0831 15.1666 10.9163 15.1667 10.7497 15.1667C10.5831 15.1667 10.4163 15.0831 10.2497 14.9998L6.33368 11.0837C6.00035 10.7504 5.83368 10.3334 5.83368 9.91675C5.83368 9.50008 6.00035 9.08374 6.33368 8.83374L10.1667 4.99976ZM15.9997 4.99976C16.2496 4.7499 16.7496 4.75005 16.9997 4.99976C17.2497 5.24974 17.2496 5.74974 16.9997 5.99976L13.0837 9.91675C13.0837 9.91715 13.0836 9.99976 13.1667 9.99976L17.0837 13.9167C17.3334 14.1667 17.3334 14.6667 17.0837 14.9167C17.0004 15.1667 16.8333 15.1667 16.6667 15.1667C16.5 15.1667 16.3334 15.0831 16.1667 14.9998L12.2497 11.0837C11.9164 10.7504 11.7497 10.4164 11.7497 9.99976C11.7498 9.58326 11.9165 9.1667 12.2497 8.91675L15.9997 4.99976Z" fill="#200040"/>
</svg>
