<svg width="20" height="20" viewBox="0 0 20 20" fill="none" xmlns="http://www.w3.org/2000/svg">
<path d="M8.91632 3.66626C9.16624 3.49965 9.41641 3.5 9.66632 3.58325C9.8329 3.66654 10.0001 3.91639 10.0003 4.16626V15.8333C10.0003 16.0833 9.83331 16.3336 9.58331 16.5002C9.5488 16.5002 9.51438 16.5147 9.47394 16.5315C9.41683 16.5552 9.34772 16.5832 9.25031 16.5833C9.08364 16.5833 8.91665 16.4996 8.83331 16.4163L2.50031 11.4163C2.08371 11.083 1.8334 10.5002 1.83331 10.0002C1.83331 9.50024 2.08331 8.91659 2.58331 8.58325L8.91632 3.66626ZM17.1663 3.66626C17.4162 3.49965 17.6664 3.5 17.9163 3.58325C18.1663 3.66659 18.3333 3.91691 18.3333 4.25024V15.9163C18.3333 16.1663 18.1663 16.4166 17.9163 16.5833C17.7966 16.5235 17.677 16.5501 17.5882 16.5696C17.5537 16.5771 17.5236 16.5832 17.5003 16.5833C17.3336 16.5833 17.1666 16.4996 17.0833 16.4163L10.7503 11.4163C10.3337 11.083 10.0834 10.5002 10.0833 10.0002C10.0833 9.50024 10.3333 8.91658 10.8333 8.58325L17.1663 3.66626ZM3.33331 9.58325C3.1669 9.66646 3.16632 9.8328 3.16632 9.91626C3.16632 9.99959 3.16665 10.1669 3.33331 10.2502L8.58331 14.3333V5.58325L3.33331 9.58325ZM11.5833 9.58325C11.4169 9.66646 11.4163 9.8328 11.4163 9.91626C11.4163 9.99959 11.4166 10.1669 11.5833 10.2502L16.8333 14.3333V5.58325L11.5833 9.58325Z" fill="#200040"/>
</svg>
