<svg width="20" height="20" viewBox="0 0 20 20" fill="none" xmlns="http://www.w3.org/2000/svg">
<g clip-path="url(#clip0_11_188)">
<path d="M9.91699 0.083252C15.3335 0.0833902 19.833 4.66667 19.833 10.0833C19.833 15.4999 15.4167 19.9163 10 19.9163C4.91671 19.9162 0.583667 15.9165 0.166992 10.8333C0.166992 10.4167 0.416585 10.0835 0.833008 10.0833C1.24967 10.0833 1.58301 10.3336 1.58301 10.7502C1.91648 15.1667 5.58347 18.5832 10 18.5833C14.6667 18.5833 18.5 14.7499 18.5 10.0833C18.5 5.41659 14.6667 1.58325 10 1.58325C7.58336 1.58327 5.33332 2.58327 3.75 4.33325L6.66699 4.25024C7.00014 4.25041 7.33279 4.58312 7.33301 4.91626C7.33301 5.24953 7.08351 5.58312 6.66699 5.58325H3.16699C2.4171 5.58325 1.83318 5.00009 1.83301 4.25024V0.750244C1.83301 0.416938 2.16669 0.083306 2.5 0.083252C2.83333 0.083252 3.16699 0.333577 3.16699 0.750244V2.75024C5.00033 1.08358 7.33366 0.083252 9.91699 0.083252Z" fill="#200040"/>
</g>
<defs>
<clipPath id="clip0_11_188">
<rect width="20" height="20" fill="white"/>
</clipPath>
</defs>
</svg>
