<svg width="20" height="20" viewBox="0 0 20 20" fill="none" xmlns="http://www.w3.org/2000/svg">
<g clip-path="url(#clip0_11_241)">
<path d="M1.5835 16.8333C2.41192 16.8333 3.0835 17.5049 3.0835 18.3333C3.0835 19.1617 2.41192 19.8333 1.5835 19.8333C0.755069 19.8333 0.0834961 19.1617 0.0834961 18.3333C0.0834971 17.5049 0.75507 16.8333 1.5835 16.8333ZM16.5835 12.5833C18.4168 12.5833 19.8335 14 19.8335 15.8333C19.8335 17.6666 18.4168 19.0833 16.5835 19.0833H5.75049C5.33382 19.0833 5.00049 18.75 5.00049 18.3333C5.00049 17.9166 5.33382 17.5833 5.75049 17.5833H16.5835C17.5835 17.5833 18.3335 16.8333 18.3335 15.8333C18.3335 14.8333 17.5835 14.0833 16.5835 14.0833H14.0835C13.6668 14.0833 13.3335 13.75 13.3335 13.3333C13.3335 12.9166 13.6668 12.5833 14.0835 12.5833H16.5835ZM10.3335 11.8333C11.1619 11.8333 11.8335 12.5049 11.8335 13.3333C11.8335 14.1617 11.1619 14.8333 10.3335 14.8333C9.50507 14.8333 8.8335 14.1617 8.8335 13.3333C8.8335 12.5049 9.50507 11.8333 10.3335 11.8333ZM10.7505 7.58331C11.167 7.58349 11.5005 7.91675 11.5005 8.33331C11.5005 8.74987 11.167 9.08314 10.7505 9.08331H4.9165C3.91667 9.08348 3.1665 9.83342 3.1665 10.8333C3.1665 11.8332 3.91667 12.5831 4.9165 12.5833H6.5835C7.00016 12.5833 7.3335 12.9166 7.3335 13.3333C7.3335 13.75 7.00016 14.0833 6.5835 14.0833H4.9165C3.08333 14.0831 1.6665 12.6665 1.6665 10.8333C1.6665 9.00009 3.08333 7.58348 4.9165 7.58331H10.7505ZM15.8335 0.083313C16.9168 0.083313 18.0002 0.583314 18.8335 1.58331C19.6667 2.58322 20 3.58311 19.8335 4.66632C19.5835 6.66632 17.6668 8.16697 16.8335 8.75031C16.5003 9.00013 16.0837 9.08326 15.7505 9.08331C15.4173 9.08331 15.0005 9.00005 14.7505 8.75031C12.7505 7.2503 11.7505 5.66632 11.7505 4.16632C11.7507 1.91647 13.5836 0.0833135 15.8335 0.083313ZM15.6665 1.58331C14.2501 1.58349 13.0837 2.74991 13.0835 4.16632C13.0835 5.16632 14.0002 6.33331 15.5835 7.58331C15.6668 7.66665 15.9168 7.66665 16.0835 7.58331C16.1149 7.5582 16.1544 7.52773 16.1997 7.49249C16.7557 7.05982 18.2622 5.88678 18.4165 4.50031C18.4998 3.83364 18.3332 3.16665 17.6665 2.58331C16.9999 1.91675 16.4164 1.58331 15.6665 1.58331ZM15.7505 3.16632C16.2106 3.1665 16.5835 3.54018 16.5835 4.00031C16.5833 4.46028 16.2105 4.83314 15.7505 4.83331C15.2904 4.83331 14.9167 4.46039 14.9165 4.00031C14.9165 3.54007 15.2903 3.16632 15.7505 3.16632Z" fill="#200040"/>
</g>
<defs>
<clipPath id="clip0_11_241">
<rect width="20" height="20" fill="white"/>
</clipPath>
</defs>
</svg>
