<svg width="20" height="20" viewBox="0 0 20 20" fill="none" xmlns="http://www.w3.org/2000/svg">
<g clip-path="url(#clip0_11_606)">
<path d="M0.833496 7.58368C7.25005 7.58368 12.4166 12.8332 12.3335 19.2497C12.3335 19.6664 11.9998 19.9997 11.6665 19.9997C11.3333 19.9995 11.0005 19.6662 11.0005 19.2497C11.0003 13.6665 6.41672 9.08368 0.833496 9.08368C0.500249 9.08368 0.166677 8.75019 0.166504 8.33368C0.166504 7.91701 0.416829 7.58368 0.833496 7.58368ZM0.833496 0.166687C11.3334 0.166687 19.8333 8.66651 19.8335 19.2497C19.8335 19.6664 19.4998 19.9997 19.1665 19.9997C18.8333 19.9995 18.5005 19.6662 18.5005 19.2497C18.5003 9.49984 10.5834 1.58368 0.833496 1.58368C0.416938 1.58368 0.0836696 1.25019 0.0834961 0.833679C0.0834961 0.417013 0.416829 0.166687 0.833496 0.166687ZM2.9165 14.2497C4.49984 14.2497 5.75049 15.5003 5.75049 17.0837C5.75032 18.6669 4.49973 19.9167 2.9165 19.9167C1.33343 19.9165 0.0836677 18.6667 0.0834961 17.0837C0.0834961 15.5005 1.33332 14.2499 2.9165 14.2497ZM2.9165 15.6667C2.08334 15.6668 1.50049 16.2505 1.50049 17.0837C1.50066 17.9167 2.16673 18.4995 2.9165 18.4997C3.66641 18.4997 4.33332 17.9168 4.3335 17.0837C4.3335 16.2503 3.74984 15.6667 2.9165 15.6667Z" fill="#200040"/>
</g>
<defs>
<clipPath id="clip0_11_606">
<rect width="20" height="20" fill="white"/>
</clipPath>
</defs>
</svg>
