<svg width="20" height="20" viewBox="0 0 20 20" fill="none" xmlns="http://www.w3.org/2000/svg">
<path d="M11.25 2.4165C13.4165 2.41667 15.166 4.08361 15.166 6.3335C15.1658 8.58334 13.3326 10.3335 11.166 10.3335H7V13.5005H11.166C11.5826 13.5005 11.8329 13.8333 11.833 14.1665C11.833 14.4998 11.5827 14.8335 11.166 14.8335H7V17.4995C7 17.8328 6.66634 18.1665 6.33301 18.1665C5.99967 18.1665 5.66602 17.9162 5.66602 17.4995V14.8335H4.75C4.33333 14.8335 4.08301 14.4998 4.08301 14.1665C4.08314 13.75 4.41673 13.5005 4.75 13.5005H5.66602V10.3335H4.75C4.41667 10.3335 4.08301 9.99984 4.08301 9.6665C4.08301 9.33317 4.33333 8.99951 4.75 8.99951H5.58301V4.3335C5.58301 3.25016 6.41667 2.4165 7.5 2.4165H11.25ZM7.58301 3.8335C7.33301 3.8335 7.08301 4.0835 7.08301 4.3335V8.99951H11.25C12.5832 8.99932 13.833 7.83306 13.833 6.4165C13.833 4.99995 12.6665 3.83367 11.25 3.8335H7.58301Z" fill="#200040"/>
</svg>
