<svg width="20" height="20" viewBox="0 0 20 20" fill="none" xmlns="http://www.w3.org/2000/svg">
<path d="M5.91635 0.166748H8.24936C8.58258 0.166748 8.91612 0.416358 8.91635 0.832764V0.999756C13.7497 0.999756 17.833 4.66675 18.1664 9.41675C18.333 12 17.4993 14.3331 15.7494 16.2498C14.0827 18.083 11.6663 19.0828 9.16635 19.0828H8.83334V19.1667C8.83323 19.5 8.58293 19.8328 8.16635 19.8328H5.91635C4.99984 19.8327 4.16664 19.5832 3.58334 18.9167C3.00001 18.2501 2.66635 17.4161 2.66635 16.5828V3.33276C2.66659 1.583 4.08324 0.0835054 5.91635 0.166748ZM5.83334 1.49976C4.83349 1.49976 3.9996 2.33296 3.99936 3.33276V4.24976H4.99936C5.41598 4.24976 5.6663 4.66644 5.66635 4.99976C5.66635 5.33309 5.41603 5.66675 4.99936 5.66675H3.99936V7.58276H4.99936C5.41584 7.58276 5.66613 7.9995 5.66635 8.33276C5.66635 8.6661 5.41603 8.99976 4.99936 8.99976H3.99936V10.9167H4.99936C5.41603 10.9167 5.66635 11.3334 5.66635 11.6667C5.66624 12 5.41594 12.3328 4.99936 12.3328H3.99936V14.2498H4.99936C5.41598 14.2498 5.6663 14.6664 5.66635 14.9998C5.66635 15.3331 5.41603 15.6667 4.99936 15.6667H4.08334V16.5828C4.08334 17.0828 4.16668 17.5834 4.58334 17.9167C4.9999 18.2499 5.4165 18.4167 5.91635 18.4167H7.49936V18.3328C7.49958 17.9996 7.74996 17.6668 8.16635 17.6667H9.16635C11.3329 17.6667 13.3327 16.833 14.7494 15.2498C16.166 13.6665 16.916 11.6667 16.7494 9.41675C16.4994 5.4168 12.9999 2.33285 8.83334 2.33276H8.08334C7.75007 2.33276 7.41647 2.08328 7.41635 1.66675V1.49976H5.83334ZM9.49936 5.91675C11.8327 6.25008 13.2494 7.75008 13.2494 10.1667C13.2493 12.2499 11.9164 13.6661 9.58334 14.0828H9.24936C8.83292 14.0826 8.49956 13.9166 8.16635 13.6667C7.83302 13.3334 7.58334 12.8328 7.58334 12.3328V7.58276C7.58344 7.08292 7.74984 6.58299 8.16635 6.24976C8.5829 5.99983 8.99955 5.83358 9.49936 5.91675ZM9.24936 7.24976C9.16911 7.25006 9.08888 7.32733 9.08334 7.33276C9.08334 7.35352 9.07744 7.37451 9.06967 7.39526L9.01303 7.52026C9.00518 7.5411 8.99943 7.56193 8.99936 7.58276V12.2498C8.99936 12.4164 9.08334 12.4998 9.08334 12.4998C9.16667 12.5831 9.25002 12.5828 9.33334 12.5828C10.9999 12.3327 11.8327 11.416 11.7494 10.0828C11.7492 8.41637 10.9159 7.49973 9.24936 7.24976Z" fill="#200040"/>
</svg>
