<svg width="20" height="20" viewBox="0 0 20 20" fill="none" xmlns="http://www.w3.org/2000/svg">
<g clip-path="url(#clip0_11_504)">
<path d="M13.667 0.166748C14.667 0.166749 15.667 0.583741 16.417 1.33374L18.75 3.66675C19.5 4.33341 19.834 5.33374 19.834 6.33374V15.8337C19.8338 18.0002 18.0837 19.8336 15.834 19.8337H4.16699C2.00043 19.8337 0.16717 18.0836 0.166992 15.8337V4.16675C0.166992 1.91675 1.91699 0.166748 4.16699 0.166748H13.667ZM4.16699 1.58374C2.75033 1.58374 1.58398 2.75008 1.58398 4.16675V15.8337C1.58416 17.2503 2.75044 18.4167 4.16699 18.4167H15.834C17.2504 18.4166 18.4168 17.2502 18.417 15.8337H18.5V6.41675C18.5 5.75008 18.1667 5.16675 17.75 4.66675L15.75 2.58374C15.7499 3.66687 15.3338 4.66684 14.584 5.41675C13.834 6.16675 12.8333 6.58374 11.75 6.58374H8.33398C6.0841 6.58374 4.33416 4.75026 4.33398 2.58374V1.58374H4.16699ZM10 8.41675C11.75 8.41675 13.25 9.83341 13.25 11.6667C13.25 13.5001 11.8333 14.9167 10 14.9167C8.16682 14.9166 6.75 13.5 6.75 11.6667C6.75 9.83353 8.25014 8.41692 10 8.41675ZM10 9.74976C9.00014 9.74994 8.16699 10.5838 8.16699 11.5837C8.16717 12.5835 9.00025 13.4166 10 13.4167C10.9999 13.4167 11.8338 12.5836 11.834 11.5837C11.834 10.5837 11 9.74976 10 9.74976ZM5.66699 2.58374C5.66717 4.00015 6.83359 5.16657 8.25 5.16675H11.667C12.3336 5.16675 13 4.91664 13.5 4.41675C13.9999 3.91683 14.2499 3.2503 14.25 2.58374V1.66675C14.0834 1.58354 13.9169 1.58374 13.667 1.58374H5.66699V2.58374Z" fill="#200040"/>
</g>
<defs>
<clipPath id="clip0_11_504">
<rect width="20" height="20" fill="white"/>
</clipPath>
</defs>
</svg>
