<svg width="20" height="20" viewBox="0 0 20 20" fill="none" xmlns="http://www.w3.org/2000/svg">
<g clip-path="url(#clip0_11_724)">
<path d="M16.083 0.333496C16.3329 0.000332586 16.7498 -0.000106305 17.083 0.249512C17.4162 0.499412 17.4167 0.916245 17.167 1.24951L10.917 8.8335L13.833 12.3335C15.4996 11.4169 17.667 11.7497 18.917 13.2495C20.3336 14.9994 20.0835 17.4998 18.417 18.9165C17.667 19.4998 16.7497 19.8335 15.833 19.8335C14.6665 19.8334 13.5832 19.4164 12.75 18.4165C11.5001 16.9165 11.5 14.7495 12.75 13.2495L10 9.9165L7.25 13.2495C8.49999 14.7495 8.49998 16.9165 7.25 18.4165C6.50004 19.3331 5.33359 19.8334 4.16699 19.8335C3.25033 19.8335 2.33301 19.5832 1.58301 18.9165C-0.0832546 17.4999 -0.333256 15.0001 1.08301 13.3335C2.33301 11.8335 4.50033 11.4165 6.16699 12.4165L9.08301 8.9165L2.83301 1.3335C2.58308 1.00018 2.58369 0.583472 2.91699 0.333496C3.167 0.0835077 3.667 0.0831757 3.91699 0.416504L10 7.74951L16.083 0.333496ZM3.91699 13.2495C3.25041 13.3328 2.58367 13.6666 2.16699 14.1665C1.66699 14.6665 1.49967 15.4168 1.58301 16.0835C1.66637 16.7501 2.00003 17.4169 2.5 17.8335C3 18.3335 3.75034 18.4998 4.41699 18.4165C5.08359 18.3331 5.75037 17.9995 6.16699 17.4995C6.66669 16.9996 6.83327 16.3333 6.75 15.5835C6.66667 14.9168 6.33301 14.2502 5.83301 13.8335C5.33312 13.5003 4.75017 13.2496 4.16699 13.2495H3.91699ZM15.833 13.2495C15.2498 13.2496 14.6669 13.417 14.167 13.8335C13.667 14.2502 13.3333 14.9168 13.25 15.5835C13.1668 16.2499 13.4166 16.9996 13.833 17.4995C14.2496 17.9994 14.9165 18.3331 15.583 18.4165C16.2496 18.4998 17 18.2501 17.5 17.8335C18.0833 17.4169 18.4169 16.7501 18.417 16.0835C18.5003 15.4168 18.2497 14.6665 17.833 14.1665C17.4163 13.6667 16.7495 13.3328 16.083 13.2495H15.833Z" fill="#200040"/>
</g>
<defs>
<clipPath id="clip0_11_724">
<rect width="20" height="20" fill="white"/>
</clipPath>
</defs>
</svg>
