<svg width="20" height="20" viewBox="0 0 20 20" fill="none" xmlns="http://www.w3.org/2000/svg">
<path d="M15.833 1.25C17.9162 1.25 19.6668 2.99982 19.667 5.08301V9.58301C19.667 9.91634 19.3333 10.25 19 10.25C18.6667 10.25 18.333 9.99967 18.333 9.58301V5.08301C18.3328 3.74993 17.2501 2.66717 15.917 2.66699H4.08301C2.74993 2.66717 1.66717 3.74993 1.66699 5.08301V12L5.25 8.41699C6.41667 7.25033 8.41634 7.25033 9.58301 8.41699L11.917 10.75C12.5002 10.3335 13.2499 10.0831 14.083 10.083C16.2496 10.083 18.0828 11.8332 18.083 14.083C18.083 14.9997 17.833 15.7503 17.333 16.417C17.4163 16.417 17.5 16.5 17.5 16.5L19.667 18.667C19.9167 18.917 19.9162 19.3335 19.583 19.75C19.4164 19.8333 19.2496 19.917 19.083 19.917C18.9165 19.917 18.7496 19.9166 18.583 19.75L16.5 17.667C16.5 17.6253 16.4788 17.6038 16.458 17.583C16.4373 17.5623 16.417 17.5414 16.417 17.5C15.7503 18 14.9163 18.25 14.083 18.25C11.9165 18.2498 10.083 16.4999 10.083 14.25C10.083 13.3333 10.417 12.4997 10.917 11.833L8.58301 9.5C7.91633 8.91683 6.83328 8.91672 6.25 9.5L1.66699 14.083V15C1.66699 16.3332 2.74982 17.4168 4.08301 17.417H8.83301C9.16623 17.417 9.49978 17.7498 9.5 18.083C9.5 18.4163 9.24967 18.75 8.83301 18.75H4.08301C1.99993 18.7498 0.250182 17.0001 0.25 14.917V5.08301C0.250182 2.99993 1.99993 1.25018 4.08301 1.25H15.833ZM14.167 11.667C13.5003 11.667 12.9167 11.9167 12.5 12.25C12.4197 12.25 12.4171 12.3273 12.417 12.333C12.3753 12.333 12.3538 12.3542 12.333 12.375C12.3122 12.3958 12.2916 12.417 12.25 12.417C11.7501 12.8337 11.5 13.5004 11.5 14.167C11.5002 15.5834 12.6666 16.7498 14.083 16.75C15.583 16.75 16.75 15.6667 16.75 14.25C16.75 12.8334 15.5835 11.6672 14.167 11.667ZM14.333 4C15.6662 4 16.6668 5.08315 16.667 6.33301C16.667 7.58301 15.6663 8.66699 14.333 8.66699C12.9998 8.66682 12 7.58291 12 6.33301C12.0002 4.99995 12.9999 4.00016 14.333 4ZM14.333 5.41699C13.8333 5.41717 13.4172 5.83326 13.417 6.33301C13.417 6.8329 13.8332 7.24982 14.333 7.25C14.833 7.25 15.25 6.83301 15.25 6.33301C15.2498 5.83315 14.8329 5.41699 14.333 5.41699Z" fill="#200040"/>
</svg>
