<svg width="20" height="20" viewBox="0 0 20 20" fill="none" xmlns="http://www.w3.org/2000/svg">
<g clip-path="url(#clip0_11_503)">
<path d="M8.33301 0.083252C10.583 0.083252 12.5837 0.916911 14.167 2.50024C17.1667 5.58359 17.3329 10.4167 14.583 13.5833L19.667 18.6663C19.917 18.9163 19.917 19.4169 19.667 19.7502C19.5004 19.8335 19.3336 19.9162 19.167 19.9163C19.0004 19.9163 18.8336 19.9166 18.667 19.7502L13.583 14.6663C12.1663 15.9162 10.2497 16.5833 8.33301 16.5833C6.08314 16.5832 4.08326 15.7495 2.5 14.1663C-0.66645 10.9163 -0.66645 5.7502 2.5 2.50024C4.08326 1.00032 6.08314 0.0833408 8.33301 0.083252ZM8.33301 1.50024C6.4998 1.50033 4.83325 2.25032 3.5 3.50024C0.83355 6.16687 0.83355 10.4996 3.5 13.1663C4.83325 14.4162 6.4998 15.0832 8.33301 15.0833C10.1663 15.0833 11.917 14.3333 13.167 13.0833C15.8334 10.5 15.8333 6.16688 13.167 3.50024C11.8337 2.16691 10.1663 1.50024 8.33301 1.50024Z" fill="#200040"/>
</g>
<defs>
<clipPath id="clip0_11_503">
<rect width="20" height="20" fill="white"/>
</clipPath>
</defs>
</svg>
