<svg width="20" height="20" viewBox="0 0 20 20" fill="none" xmlns="http://www.w3.org/2000/svg">
<g clip-path="url(#clip0_11_513)">
<path d="M0.833282 0.833191C1.49987 0.0833441 2.49974 -0.0832734 3.41629 0.333191L18.1663 7.4162C19.1661 7.91612 19.8331 8.91635 19.8333 9.9162C19.8333 10.9995 19.2502 12.0002 18.2503 12.5002L3.41629 19.5832C3.08303 19.7498 2.74955 19.8332 2.41629 19.8332C1.83307 19.8331 1.24987 19.5828 0.833282 19.1662C0.166815 18.4995 -0.000322253 17.4997 0.41629 16.5832L3.91629 10.0002L0.500275 3.4162C0.000422016 2.58291 0.166669 1.58313 0.833282 0.833191ZM1.66629 17.2502C1.41684 17.6664 1.74958 18.0823 1.83328 18.1662C1.91662 18.2495 2.25027 18.5832 2.75027 18.3332L17.5833 11.2502C17.8332 11.1669 18.0829 11 18.1663 10.7502L5.08328 10.6662L1.66629 17.2502ZM2.41629 1.58319C2.08327 1.5833 1.91661 1.74986 1.83328 1.83319C1.74995 1.91652 1.41694 2.25018 1.75027 2.75018L5.16629 9.25018L18.2503 9.33319C18.0836 9.08322 17.8333 8.91683 17.5833 8.75018L2.75027 1.6662C2.66692 1.58294 2.4996 1.58319 2.41629 1.58319Z" fill="#200040"/>
</g>
<defs>
<clipPath id="clip0_11_513">
<rect width="20" height="20" fill="white"/>
</clipPath>
</defs>
</svg>
