<svg width="20" height="20" viewBox="0 0 20 20" fill="none" xmlns="http://www.w3.org/2000/svg">
<path d="M16.2505 11.7494C18.2503 11.7496 19.8335 13.3335 19.8335 15.3333C19.8333 17.333 18.2501 18.9161 16.2505 18.9164H3.75049C1.7506 18.9164 0.166676 17.3332 0.166504 15.3333C0.166504 13.3333 1.75049 11.7494 3.75049 11.7494H16.2505ZM3.75049 13.2494C2.58382 13.2494 1.5835 14.2497 1.5835 15.4164C1.5835 16.583 2.50049 17.5833 3.75049 17.5833H16.2505C17.4169 17.5831 18.4165 16.5829 18.4165 15.4164C18.4165 14.2498 17.5002 13.2496 16.2505 13.2494H3.75049ZM16.2505 1.16635C18.2501 1.16661 19.8333 2.74968 19.8335 4.74936C19.8335 6.7492 18.2503 8.33309 16.2505 8.33334H3.75049C1.75049 8.33334 0.166504 6.74936 0.166504 4.74936C0.166676 2.74951 1.7506 1.16635 3.75049 1.16635H16.2505ZM3.75049 2.58334C2.58393 2.58334 1.58368 3.58283 1.5835 4.74936C1.5835 5.91603 2.50049 6.91635 3.75049 6.91635H16.2505C17.4169 6.91607 18.4165 5.91586 18.4165 4.74936C18.4163 3.58298 17.5001 2.5836 16.2505 2.58334H3.75049Z" fill="#200040"/>
</svg>
