<svg width="20" height="20" viewBox="0 0 20 20" fill="none" xmlns="http://www.w3.org/2000/svg">
<path d="M10.0001 0.166992C10.6667 0.16703 11.2504 0.416373 11.6671 0.833008C12.0837 1.24967 12.3331 1.83338 12.3331 2.5V3.16699C13.1664 3.50031 14.0001 3.91639 14.7501 4.58301L15.2501 4.33301C16.4167 3.66654 17.8335 4.00041 18.5001 5.16699C18.8333 5.75024 18.9167 6.41678 18.7501 7C18.5834 7.58326 18.2503 8.08366 17.6671 8.41699L17.1671 8.66699C17.1776 8.73036 17.1879 8.79248 17.1983 8.85352C17.2699 9.27376 17.3331 9.64667 17.3331 10.083C17.3331 10.5195 17.2699 10.8931 17.1983 11.3135C17.1879 11.3745 17.1776 11.4366 17.1671 11.5L17.6671 11.75C18.8335 12.3335 19.1667 13.8338 18.5001 14.917C18.1668 15.4169 17.6664 15.8333 17.0831 16C16.4165 16.1666 15.8333 16.0833 15.2501 15.75L14.7501 15.5C14.0834 16.1667 13.2498 16.5837 12.3331 16.917V17.5C12.3331 18.0833 12.0837 18.7503 11.6671 19.167C11.2504 19.5836 10.6667 19.833 10.0001 19.833C8.75009 19.833 7.66708 18.8333 7.66708 17.5V17C6.75046 16.6667 5.91706 16.2496 5.16708 15.583L4.66708 15.833C4.16722 16.1662 3.5003 16.25 2.91708 15.917C2.33375 15.7503 1.83342 15.4163 1.50009 14.833C0.833573 13.6664 1.1665 12.2496 2.3331 11.583L2.8331 11.333C2.74981 10.9165 2.66712 10.3335 2.66708 9.91699C2.66708 9.50033 2.74977 9 2.8331 8.5L2.3331 8.25C1.74986 7.99998 1.41674 7.49962 1.25009 6.83301C1.08353 6.24974 1.16712 5.58324 1.41708 5C2.08381 3.91684 3.5005 3.50037 4.66708 4.16699L5.16708 4.5C5.91701 3.83346 6.75053 3.33298 7.66708 3.08301V2.5C7.66709 1.25001 8.66677 0.166992 10.0001 0.166992ZM9.91708 1.58301C9.41709 1.58301 9.0001 2.00001 9.00009 2.5V3.58301C9.00009 3.91629 8.83333 4.16663 8.50009 4.25C7.41688 4.49997 6.50005 5.08313 5.75009 5.83301C5.58353 5.99957 5.16714 6.08324 4.91708 5.91699L4.00009 5.41699C3.50018 5.16704 2.91716 5.3335 2.66708 5.75C2.58376 5.99998 2.49981 6.25002 2.5831 6.5C2.66642 6.74995 2.83346 6.91637 3.00009 7.08301L4.00009 7.58301C4.25009 7.74967 4.41643 8.08366 4.3331 8.41699C4.16651 8.91691 4.0831 9.50011 4.0831 10C4.0831 10.5 4.16708 11.0833 4.41708 11.5C4.50036 11.8333 4.33306 12.1663 4.0831 12.333L3.16708 12.833C2.75042 13.1663 2.5831 13.7503 2.8331 14.167C2.99974 14.3336 3.16712 14.4997 3.41708 14.583C3.66698 14.6662 3.91719 14.6666 4.16708 14.5L5.0831 14C5.16643 13.9167 5.33375 13.917 5.41708 13.917C5.58359 13.9172 5.75058 14.0005 5.91708 14.167C6.66701 14.9168 7.58394 15.5 8.66708 15.75C8.91694 15.8335 9.16708 16.0838 9.16708 16.417V17.5C9.16708 17.9999 9.58318 18.4169 10.0831 18.417C10.3331 18.417 10.5834 18.3336 10.7501 18.167C10.9168 18.0003 11.0001 17.75 11.0001 17.5V16.417C11.0001 16.0837 11.1668 15.8333 11.5001 15.75C12.5833 15.5 13.5001 14.9169 14.2501 14.167C14.4167 14.0004 14.8331 13.9166 15.0831 14.083L16.0001 14.583C16.2501 14.6663 16.5001 14.7503 16.7501 14.667C17 14.6669 17.1665 14.4999 17.3331 14.25C17.583 13.7501 17.4166 13.1671 17.0001 12.917L16.0831 12.417C15.8331 12.2503 15.6668 11.9163 15.7501 11.583C15.9167 11.0831 16.0001 10.4999 16.0001 10C16.0001 9.50011 15.9167 8.91691 15.7501 8.41699C15.6668 8.08366 15.8331 7.74967 16.0831 7.58301L17.0001 7.08301C17.1667 6.91642 17.3338 6.74988 17.4171 6.5C17.5004 6.25005 17.4997 5.99995 17.3331 5.75C16.9998 5.3334 16.4167 5.16701 16.0001 5.41699L15.0831 5.91699C14.8331 6.08348 14.5 6.08292 14.2501 5.83301C13.5001 5.08309 12.5 4.50001 11.5001 4.25C11.2501 4.16667 11.0001 3.91634 11.0001 3.58301V2.5C11.0001 2.25001 10.8331 1.99967 10.5831 1.83301C10.4165 1.66662 10.1668 1.58311 9.91708 1.58301ZM10.0001 6.75C11.75 6.75008 13.2501 8.16673 13.2501 10C13.2501 11.8333 11.8334 13.2499 10.0001 13.25C8.16676 13.25 6.75009 11.8333 6.75009 10C6.7501 8.16668 8.2501 6.75 10.0001 6.75ZM10.0001 8.16699C9.0001 8.16699 8.16709 9.00001 8.16708 10C8.16708 11 9.00009 11.833 10.0001 11.833C11 11.8329 11.8331 10.9999 11.8331 10C11.8331 9.00006 11 8.16708 10.0001 8.16699Z" fill="#200040"/>
</svg>
