<svg width="20" height="20" viewBox="0 0 20 20" fill="none" xmlns="http://www.w3.org/2000/svg">
<path d="M8.08301 8.16632C8.49957 8.16632 8.83381 8.49981 8.83398 8.91632V9.91632C9.58375 10.083 10.3331 10.5002 10.833 11.0833L11.917 10.5003C12.2503 10.3337 12.6663 10.5001 12.833 10.8333C12.9997 11.1666 12.8333 11.5836 12.5 11.7503L11.583 12.2503C11.5952 12.311 11.6082 12.3703 11.6201 12.428C11.6897 12.7658 11.75 13.0608 11.75 13.4163C11.75 13.833 11.6667 14.25 11.5 14.5833L12.417 15.1663C12.7502 15.4162 12.9167 15.833 12.667 16.1663C12.5837 16.4163 12.333 16.5003 12.083 16.5003C11.9995 16.5003 11.8332 16.4995 11.75 16.4163L10.833 15.8333C10.3331 16.4164 9.58375 16.8336 8.83398 17.0003V18.0003C8.83381 18.4168 8.49957 18.7503 8.08301 18.7503C7.66668 18.75 7.33416 18.4167 7.33398 18.0003V17.0003C6.58409 16.8337 5.83398 16.4165 5.33398 15.8333L4.33398 16.4163C4.25065 16.4997 4.16667 16.5003 4 16.5003C3.75009 16.5003 3.58362 16.4163 3.41699 16.1663C3.25046 15.833 3.33372 15.333 3.66699 15.1663L4.58398 14.5833C4.57183 14.5225 4.55877 14.4633 4.54688 14.4056C4.47724 14.0675 4.41699 13.7721 4.41699 13.4163C4.41705 13.083 4.50068 12.6665 4.58398 12.3333L3.66699 11.8333C3.33366 11.5833 3.25033 11.1666 3.41699 10.8333C3.667 10.5 4.08368 10.4167 4.41699 10.5833L5.33398 11.0833C5.83396 10.5001 6.50077 10.083 7.33398 9.91632V8.91632C7.33416 8.49997 7.66668 8.16658 8.08301 8.16632ZM8.08301 11.3333C6.91655 11.3336 5.91699 12.3338 5.91699 13.5003C5.91716 14.6667 6.83337 15.6661 8.08301 15.6663C9.33289 15.6663 10.2498 14.6668 10.25 13.5003C10.25 12.3336 9.24967 11.3333 8.08301 11.3333ZM11.667 1.33331C13.8336 1.3334 15.5837 3.08369 15.667 5.25031L17.25 3.66632C17.6667 3.24971 18.3337 3.08333 18.917 3.33331C19.5002 3.50004 19.9167 4.0837 19.75 4.75031V10.8333C19.75 11.5 19.4163 12.0003 18.833 12.2503C18.6663 12.3334 18.4165 12.3333 18.25 12.3333C17.8334 12.3333 17.417 12.1663 17.167 11.9163L15.667 10.4163V11.4163C15.667 12.833 14.9163 14.0833 13.583 14.5833C13.2498 14.6664 12.8336 14.4995 12.667 14.1663C12.5005 13.7497 12.667 13.333 12.917 13.1663C13.6668 12.8329 14.167 12.1666 14.167 11.3333V5.25031C14.167 3.83364 12.9997 2.66632 11.583 2.66632H4.08301C2.66656 2.66659 1.5 3.8338 1.5 5.25031V11.4163C1.5 12.2497 2.00065 13.0003 2.83398 13.2503C3.25018 13.4171 3.41619 13.8332 3.33301 14.1663C3.24969 14.4996 3.00024 14.6663 2.66699 14.6663H2.41699C1.00043 14.2497 0.0831411 13.0002 0.0830078 11.5003V5.41632C0.0831844 3.16647 1.9171 1.33331 4.16699 1.33331H11.667ZM18.2656 4.64386C18.2385 4.62708 18.2183 4.6151 18.167 4.66632L15.667 7.16632H15.583V8.33331H15.667L18.167 10.8333H18.333C18.4133 10.8333 18.4169 10.7559 18.417 10.7503V4.75031C18.417 4.75031 18.4163 4.66632 18.333 4.66632C18.3016 4.6662 18.2823 4.65416 18.2656 4.64386Z" fill="#200040"/>
</svg>
