<svg width="20" height="20" viewBox="0 0 20 20" fill="none" xmlns="http://www.w3.org/2000/svg">
<path d="M16.666 9.25034C17.0827 9.25034 17.416 9.58367 17.416 10.0003V16.6664C17.416 17.9996 16.3332 19.0832 15 19.0833H5C3.66667 19.0833 2.58301 17.9997 2.58301 16.6664V10.0003C2.58301 9.58367 2.99967 9.25034 3.33301 9.25034C3.66624 9.25034 3.99979 9.49992 4 9.91635V16.5833C4 17.1667 4.5 17.5833 5 17.5833H15C15.5832 17.5832 16 17.0833 16 16.5833V9.91635C16.0002 9.58324 16.2497 9.25051 16.666 9.25034ZM10 1.16635C10.6665 1.16643 11.2501 1.41646 11.75 1.91635L14.333 4.50034C14.5829 4.75038 14.583 5.25038 14.333 5.50034C14.1664 5.58365 13.9996 5.66635 13.833 5.66635C13.6663 5.66635 13.4997 5.58302 13.333 5.41635L10.666 2.66635H10.583V12.4164C10.583 12.7497 10.3327 13.0833 9.91602 13.0833C9.58279 13.0832 9.25 12.8329 9.25 12.4164V2.66635C9.25 2.74968 9.16602 2.75034 9.16602 2.75034L6.58301 5.41635C6.33301 5.66635 5.91634 5.66635 5.58301 5.41635C5.33321 5.16629 5.33307 4.66629 5.58301 4.41635L8.25 1.91635C8.66669 1.41661 9.33351 1.16635 10 1.16635Z" fill="#200040"/>
</svg>
