<svg width="20" height="20" viewBox="0 0 20 20" fill="none" xmlns="http://www.w3.org/2000/svg">
<g clip-path="url(#clip0_11_501)">
<path d="M16.167 0.166748C18.2503 0.166748 19.917 1.83342 19.917 3.91675C19.917 6.00008 18.2503 7.66675 16.167 7.66675C14.8337 7.66675 13.6667 7.00008 13 5.91675L7.33398 8.49976C7.58393 8.91633 7.66696 9.49983 7.66699 9.99976C7.66699 10.5829 7.5006 11.0832 7.33398 11.4998L13 14.0837C13.6667 13.0004 14.8337 12.3337 16.167 12.3337C18.167 12.3337 19.917 14.0004 19.917 16.0837C19.9168 18.1669 18.2502 19.8337 16.167 19.8337C14.0838 19.8337 12.4172 18.1669 12.417 16.0837C12.417 15.8339 12.4168 15.5836 12.5 15.3337L6.58398 12.6667C5.91732 13.3334 4.91699 13.7498 3.91699 13.7498C1.83366 13.7498 0.166992 12.0831 0.166992 9.99976C0.167166 7.91657 1.83377 6.24976 3.91699 6.24976C4.91699 6.24976 5.83333 6.66707 6.5 7.33374L12.5 4.58374C12.4167 4.41707 12.417 4.16675 12.417 3.91675C12.417 1.83342 14.0837 0.166748 16.167 0.166748ZM16.167 13.7498C14.917 13.7498 13.834 14.7504 13.834 16.0837C13.8342 17.3336 14.8338 18.4167 16.167 18.4167C17.4169 18.4167 18.4998 17.4169 18.5 16.0837C18.5 14.8337 17.5003 13.7498 16.167 13.7498ZM3.91699 7.66675C2.66709 7.66675 1.58416 8.66658 1.58398 9.99976C1.58398 11.2498 2.58366 12.3337 3.91699 12.3337C5.16699 12.3337 6.25 11.3331 6.25 9.99976C6.24983 8.74989 5.25021 7.66675 3.91699 7.66675ZM16.167 1.58374C14.8337 1.58374 13.7507 2.58341 13.834 3.91675C13.834 5.16675 14.8337 6.24976 16.167 6.24976C17.417 6.24976 18.5 5.25008 18.5 3.91675C18.5 2.66675 17.5003 1.58374 16.167 1.58374Z" fill="#200040"/>
</g>
<defs>
<clipPath id="clip0_11_501">
<rect width="20" height="20" fill="white"/>
</clipPath>
</defs>
</svg>
