<svg width="20" height="20" viewBox="0 0 20 20" fill="none" xmlns="http://www.w3.org/2000/svg">
<g clip-path="url(#clip0_11_605)">
<path d="M0.333252 0.333008C0.583171 0.0831298 1.08317 0.0832926 1.33325 0.333008L3.41724 2.41699C3.54218 2.3337 3.64611 2.27049 3.75024 2.20801C3.8543 2.14558 3.95841 2.08322 4.08325 2L9.08325 0.333008C9.66658 0.166341 10.3339 0.166341 10.9172 0.333008L15.8333 2C17.2499 2.58333 18.2499 4.08366 18.3333 5.66699C18.4166 7.00034 18.4172 9.08354 18.1672 11.5C18.0006 12.75 17.4166 14.083 16.3333 15.333L19.6672 18.667C20.0001 18.9171 20.0003 19.4171 19.6672 19.667C19.5007 19.7503 19.3338 19.8329 19.1672 19.833C19.0007 19.833 18.8338 19.8333 18.6672 19.667L0.333252 1.33301C0.0835267 1.08292 0.0833436 0.582916 0.333252 0.333008ZM2.33325 6.08301C2.6665 6.08301 3.00008 6.41648 3.00024 6.83301C3.00024 8.33301 3.08358 9.91699 3.25024 11.417C3.5839 14.9168 8.91695 17.75 10.0002 18.25H10.0833C10.5832 18 11.5 17.4999 12.5833 16.75C12.9164 16.5834 13.3332 16.6665 13.5833 16.833C13.8331 17.1662 13.7502 17.583 13.4172 17.833C12.3339 18.583 11.2502 19.167 10.7502 19.417C10.5836 19.5003 10.3332 19.583 10.0833 19.583C9.88555 19.583 9.73969 19.5308 9.56372 19.4678C9.51753 19.4512 9.46911 19.4343 9.41724 19.417C7.75061 18.5837 2.25017 15.5835 1.83325 11.417C1.66659 9.917 1.66724 8.33333 1.66724 6.75C1.66724 6.41673 1.91673 6.08314 2.33325 6.08301ZM10.5002 1.75C10.2502 1.66667 9.91658 1.66667 9.58325 1.75L4.58325 3.41699H4.50024L15.3333 14.333C16.1666 13.333 16.6669 12.333 16.7502 11.333C17.0002 8.99984 17.0006 6.99995 16.9172 5.75C16.9172 4.66667 16.2499 3.66634 15.3333 3.33301L10.5002 1.75Z" fill="#200040"/>
</g>
<defs>
<clipPath id="clip0_11_605">
<rect width="20" height="20" fill="white"/>
</clipPath>
</defs>
</svg>
