<svg width="20" height="20" viewBox="0 0 20 20" fill="none" xmlns="http://www.w3.org/2000/svg">
<path d="M9.0835 0.416687C9.66672 0.250052 10.3333 0.250116 10.9165 0.416687L15.8335 2.08368C17.25 2.667 18.25 4.16651 18.3335 5.74969C18.4168 7.08303 18.4165 9.16701 18.1665 11.5837C17.7496 15.7502 12.3331 18.7504 10.6665 19.5837C10.4999 19.6668 10.2502 19.6667 10.0005 19.6667C9.75049 19.6667 9.50016 19.583 9.3335 19.4997C7.66664 18.6663 2.16714 15.6662 1.75049 11.4997C1.50052 9.08315 1.50017 6.99997 1.5835 5.66669C1.66683 4.16674 2.66691 2.66706 4.0835 2.08368L9.0835 0.416687ZM10.5005 1.83368C10.1672 1.75035 9.8335 1.75035 9.5835 1.83368L4.5835 3.41669C3.75018 3.75003 3.08382 4.75036 3.00049 5.83368C2.91718 7.08369 2.91653 9.08356 3.1665 11.4167C3.49979 14.9996 8.83221 17.7492 9.9165 18.2497H10.0005C11.0846 17.7492 16.3339 14.9163 16.7505 11.4167C17.0005 9.08357 16.9165 7.0837 16.9165 5.83368C16.8332 4.75035 16.1668 3.75002 15.3335 3.41669L10.5005 1.83368Z" fill="#200040"/>
</svg>
