<svg width="20" height="20" viewBox="0 0 20 20" fill="none" xmlns="http://www.w3.org/2000/svg">
<g clip-path="url(#clip0_11_499)">
<path d="M10.084 0.166748C12.7504 0.166925 14.9168 2.33335 14.917 4.99976V5.08374H17.5C18.7499 5.08374 19.8338 6.16657 19.834 7.49976V15.8337C19.8338 18.0002 18.0837 19.8336 15.834 19.8337H4.16699C2.00043 19.8337 0.16717 18.0836 0.166992 15.8337V7.49976C0.167168 6.16669 1.25024 5.08393 2.5 5.08374H5.16699V4.99976C5.16718 2.33324 7.41743 0.166748 10.084 0.166748ZM2.58398 6.49976C2.00078 6.49976 1.58417 6.99986 1.58398 7.49976V15.8337C1.58416 17.2503 2.75043 18.4167 4.16699 18.4167H15.834C17.2504 18.4166 18.4168 17.2501 18.417 15.8337H18.5V7.49976C18.4998 6.91659 17.9999 6.49976 17.5 6.49976H14.75V8.33374C14.7498 8.66685 14.4171 8.99954 14.084 8.99976C13.7507 8.99976 13.4172 8.75021 13.417 8.33374V6.49976H6.5V8.33374C6.49978 8.66686 6.1671 8.99954 5.83398 8.99976C5.50074 8.99976 5.16717 8.75021 5.16699 8.33374V6.49976H2.58398ZM10 1.58374C8.16691 1.58392 6.58416 3.08336 6.58398 4.99976V5.08374H13.417V4.99976C13.4168 3.16656 11.8332 1.58374 10 1.58374Z" fill="#200040"/>
</g>
<defs>
<clipPath id="clip0_11_499">
<rect width="20" height="20" fill="white"/>
</clipPath>
</defs>
</svg>
