<svg width="20" height="20" viewBox="0 0 20 20" fill="none" xmlns="http://www.w3.org/2000/svg">
<g clip-path="url(#clip0_11_498)">
<path d="M5.83398 16.833C6.66705 16.8332 7.41675 17.5 7.41699 18.333C7.41699 19.1662 6.66719 19.8328 5.83398 19.833C5.00065 19.833 4.33398 19.1663 4.33398 18.333C4.3342 17.4999 5.00079 16.833 5.83398 16.833ZM14.167 16.833C15.0002 16.833 15.6668 17.4999 15.667 18.333C15.667 19.1663 15.0003 19.833 14.167 19.833C13.3337 19.833 12.667 19.1663 12.667 18.333C12.6672 17.4999 13.3338 16.833 14.167 16.833ZM1 0.166992C2.24985 0.166992 3.24985 1.08324 3.5 2.33301V2.66699H17C17.6667 2.66699 18.334 2.91667 18.834 3.5C19.2506 3.99998 19.5003 4.75008 19.417 5.5L18.75 9.08301C18.4167 10.9997 16.75 12.417 14.75 12.417H4.58398C4.91741 13.5002 5.91711 14.333 7.16699 14.333H15.834C16.1672 14.3332 16.4999 14.6668 16.5 15C16.5 15.3332 16.2505 15.6668 15.834 15.667H7.16699C5.08376 15.667 3.33411 14.1669 3.08398 12.167L2 2.5C1.91662 2.00006 1.49996 1.58301 1 1.58301H0.833984C0.500651 1.58301 0.166992 1.24967 0.166992 0.833008C0.167209 0.416585 0.50076 0.166992 0.833984 0.166992H1ZM4.33398 10.917H14.667C15.917 10.917 17 10 17.25 8.75L17.917 5.16699C18.0003 4.91699 17.917 4.58301 17.667 4.33301C17.5003 4.16641 17.2502 4 16.917 4H3.58398L4.33398 10.917Z" fill="#200040"/>
</g>
<defs>
<clipPath id="clip0_11_498">
<rect width="20" height="20" fill="white"/>
</clipPath>
</defs>
</svg>
