<svg width="20" height="20" viewBox="0 0 20 20" fill="none" xmlns="http://www.w3.org/2000/svg">
<path d="M15.9163 11.5833C16.1662 11.3333 16.6662 11.3334 16.9163 11.5833L19.4163 14.0833C19.9996 14.5833 19.9999 15.5002 19.3333 16.0002L16.8333 18.5002C16.6666 18.5836 16.4999 18.6663 16.3333 18.6663C16.1666 18.6663 15.9999 18.6667 15.8333 18.5002C15.5833 18.2503 15.5834 17.7503 15.8333 17.5002L17.5002 15.8333C13.3339 15.6666 11.5003 13.8334 10.7502 13.0833C10.5002 12.8333 10.5002 12.3333 10.7502 12.0833C11.0835 11.8334 11.5003 11.8333 11.7502 12.0833H11.8333C11.8784 12.1228 11.9277 12.1674 11.9817 12.2161C12.7244 12.8854 14.3376 14.3386 17.8333 14.4163L15.9163 12.5833C15.6665 12.3333 15.6665 11.8333 15.9163 11.5833ZM15.9163 1.58325C16.1662 1.33331 16.6662 1.33342 16.9163 1.58325L19.4163 4.08325C19.6663 4.33325 19.8333 4.66691 19.8333 4.75024C19.8332 5.16676 19.6662 5.50031 19.4163 5.75024L16.9163 8.25024C16.7497 8.33351 16.5828 8.41626 16.4163 8.41626C16.2497 8.41626 16.0828 8.4168 15.9163 8.25024C15.6664 8.00035 15.6666 7.50035 15.9163 7.25024L17.6663 5.50024C14.5831 5.66695 12.6665 6.41673 9.58325 10.3333C6.00014 14.9163 2.50035 15.5832 0.750244 15.5833C0.416911 15.5833 0.083252 15.2496 0.083252 14.9163C0.083414 14.583 0.333713 14.2502 0.750244 14.2502C2.25028 14.2502 5.08326 13.6663 8.16626 10.0002C5.33303 6.66704 3.58339 5.66634 0.750244 5.66626C0.417019 5.66626 0.0834691 5.33347 0.083252 5.00024C0.083252 4.66691 0.333577 4.33325 0.750244 4.33325C4.33338 4.33335 6.41699 5.917 9.00024 9.00024C12.3336 5.08358 14.6669 4.41659 17.7502 4.33325L15.9163 2.58325C15.6665 2.33325 15.6665 1.83325 15.9163 1.58325Z" fill="#200040"/>
</svg>
