<svg width="20" height="20" viewBox="0 0 20 20" fill="none" xmlns="http://www.w3.org/2000/svg">
<path d="M3.41699 1.09619C3.66696 0.92975 4.00038 1.01289 4.16699 1.09619L13.417 8.26318C14.0001 8.67987 14.333 9.34665 14.333 10.0132C14.3329 10.763 14.0001 11.4296 13.417 11.8462L4.16699 19.1792C4.08366 19.2625 3.91667 19.3462 3.75 19.3462H3.41699C3.16699 19.1795 3 18.9292 3 18.6792V1.6792C3.00017 1.42933 3.16712 1.17948 3.41699 1.09619ZM16.75 1.01318C17.1665 1.01318 17.4995 1.26279 17.583 1.6792V18.6792C17.583 19.0125 17.2497 19.3462 16.833 19.3462C16.4165 19.3461 16.083 19.0958 16.083 18.6792V1.6792C16.0832 1.26276 16.3335 1.01318 16.75 1.01318ZM4.41699 17.1792L12.583 10.8462C12.7497 10.5962 12.9163 10.3462 12.833 10.0962C12.833 9.76289 12.75 9.51285 12.5 9.34619L4.41699 3.09619V17.1792Z" fill="#200040"/>
</svg>
