<svg width="20" height="20" viewBox="0 0 20 20" fill="none" xmlns="http://www.w3.org/2000/svg">
<path d="M16.083 1.00037C16.3329 0.833786 16.5831 0.833179 16.833 0.916382C17.083 0.999715 17.25 1.25037 17.25 1.50037V18.5004C17.2499 18.8335 17.0829 19.0831 16.833 19.1664C16.7497 19.2497 16.5833 19.2504 16.5 19.2504C16.378 19.2504 16.3002 19.2054 16.2021 19.1488C16.1663 19.1281 16.1275 19.1056 16.083 19.0834L6.83301 11.7504C6.24971 11.3337 5.91699 10.6664 5.91699 9.91638C5.91709 9.16661 6.24989 8.49999 6.83301 8.08337L16.083 1.00037ZM3.5 0.833374C3.91667 0.833374 4.16699 1.0837 4.16699 1.50037V18.5004C4.16686 18.9168 3.91656 19.1664 3.5 19.1664C3.08344 19.1664 2.75017 18.9168 2.75 18.5004V1.50037C2.75 1.0837 3.08333 0.833374 3.5 0.833374ZM7.75 9.08337C7.58333 9.25004 7.41699 9.58337 7.41699 9.83337C7.41699 10.1667 7.5 10.4167 7.75 10.5834L15.833 17.0004V2.91638L7.75 9.08337Z" fill="#200040"/>
</svg>
