<svg width="20" height="20" viewBox="0 0 20 20" fill="none" xmlns="http://www.w3.org/2000/svg">
<g clip-path="url(#clip0_11_497)">
<path d="M10 0.083252C15.4165 0.0834326 19.916 4.58369 19.916 10.0002C19.9158 15.4167 15.4164 19.9161 10 19.9163C4.58344 19.9163 0.0831884 15.4168 0.0830078 10.0002C0.0830078 4.58358 4.58333 0.083252 10 0.083252ZM3.5 4.50024C2.25002 6.00024 1.5 7.91693 1.5 10.0002C1.50018 14.6667 5.33293 18.4994 9.91602 18.4163C11.9993 18.4163 13.916 17.6662 15.416 16.4163L3.5 4.50024ZM10 1.50024C7.91668 1.50024 6 2.25026 4.5 3.50024L16.5 15.5002C17.7499 14.0003 18.4999 12.0835 18.5 10.0002C18.5 5.33369 14.6665 1.50042 10 1.50024Z" fill="#200040"/>
</g>
<defs>
<clipPath id="clip0_11_497">
<rect width="20" height="20" fill="white"/>
</clipPath>
</defs>
</svg>
