<svg width="20" height="20" viewBox="0 0 20 20" fill="none" xmlns="http://www.w3.org/2000/svg">
<g clip-path="url(#clip0_11_496)">
<path d="M6.08398 13.9163C7.50037 13.9164 8.66656 14.8332 9 16.1663H19.167C19.5837 16.1663 19.834 16.4999 19.834 16.8333C19.834 17.1666 19.5837 17.5002 19.167 17.5002H9C8.66656 18.8333 7.50037 19.8331 6.08398 19.8333C4.66743 19.8333 3.50043 18.8334 3.16699 17.5002H0.833984C0.500651 17.5002 0.166992 17.1666 0.166992 16.8333C0.166993 16.4999 0.417319 16.1663 0.833984 16.1663H3.16699C3.50043 14.9164 4.66743 13.9163 6.08398 13.9163ZM6.08398 15.3333C5.25076 15.3333 4.5002 16.0831 4.5 16.9163C4.5 17.7496 5.16732 18.5002 6.08398 18.5002C7.00048 18.5001 7.66699 17.7495 7.66699 16.9163C7.6668 16.0832 6.91708 15.3334 6.08398 15.3333ZM13.834 7.00024C15.2505 7.00039 16.4167 7.91701 16.75 9.25024H19.167C19.5835 9.25025 19.8338 9.58303 19.834 9.91626C19.834 10.2496 19.5837 10.5833 19.167 10.5833H16.834C16.5007 11.9166 15.3337 12.9163 13.917 12.9163C12.5003 12.9163 11.3333 11.9166 11 10.5833H0.833984C0.500651 10.5833 0.166992 10.2496 0.166992 9.91626C0.167155 9.58303 0.417453 9.25024 0.833984 9.25024H10.917C11.2503 8.00024 12.4173 7.00024 13.834 7.00024ZM13.917 8.41626C13.0837 8.41626 12.334 9.16691 12.334 10.0002C12.3342 10.8334 13.0004 11.5833 13.917 11.5833C14.7502 11.5833 15.4998 10.8334 15.5 10.0002C15.5 9.16691 14.7503 8.41626 13.917 8.41626ZM6.08398 0.083252C7.50037 0.0834052 8.66656 1.08322 9 2.41626H19.167C19.5835 2.41626 19.8338 2.83298 19.834 3.16626C19.834 3.49959 19.5837 3.83325 19.167 3.83325H9C8.66667 5.16644 7.50048 6.16611 6.08398 6.16626C4.66732 6.16626 3.50033 5.16658 3.16699 3.83325H0.833984C0.417318 3.83325 0.166992 3.41659 0.166992 3.08325C0.166992 2.74992 0.417318 2.41626 0.833984 2.41626H3.16699C3.50043 1.08308 4.66743 0.083252 6.08398 0.083252ZM6.08398 1.50024C5.25065 1.50024 4.5 2.16659 4.5 3.08325C4.5 3.99992 5.16732 4.75024 6.08398 4.75024C7.00048 4.75005 7.66699 3.91649 7.66699 3.08325C7.66699 2.25002 7.00048 1.50042 6.08398 1.50024Z" fill="#200040"/>
</g>
<defs>
<clipPath id="clip0_11_496">
<rect width="20" height="20" fill="white"/>
</clipPath>
</defs>
</svg>
