<svg width="20" height="20" viewBox="0 0 20 20" fill="none" xmlns="http://www.w3.org/2000/svg">
<path d="M12.5 0.166656C14.75 0.166656 16.5 1.91666 16.5 4.16666V15.8336C16.4998 18.0002 14.7499 19.8336 12.5 19.8336H7.5C5.33344 19.8336 3.50018 18.0835 3.5 15.8336V4.16666C3.5 1.91666 5.25 0.166656 7.5 0.166656H12.5ZM7.5 1.58365C6.08333 1.58365 4.91699 2.74999 4.91699 4.16666V15.8336C4.91717 17.2502 6.08344 18.4167 7.5 18.4167H12.5C13.9166 18.4167 15.0828 17.2502 15.083 15.8336V4.16666C15.083 2.74999 13.9167 1.58365 12.5 1.58365H7.5ZM10.833 15.0836C11.2495 15.0836 11.4998 15.4164 11.5 15.7497C11.5 16.083 11.2497 16.4167 10.833 16.4167H9.16699C8.83366 16.4167 8.5 16.083 8.5 15.7497C8.50016 15.4164 8.75046 15.0836 9.16699 15.0836H10.833Z" fill="#200040"/>
</svg>
