<svg width="20" height="20" viewBox="0 0 20 20" fill="none" xmlns="http://www.w3.org/2000/svg">
<g clip-path="url(#clip0_18_1011)">
<path d="M10.0005 0.083313C15.417 0.0834936 19.9165 4.58375 19.9165 10.0003C19.9163 15.4167 15.4169 19.9161 10.0005 19.9163C4.58393 19.9163 0.0836767 15.4168 0.0834961 10.0003C0.0834961 4.58364 4.58382 0.083313 10.0005 0.083313ZM10.0005 1.50031C5.33382 1.50031 1.50049 5.33364 1.50049 10.0003C1.50067 14.6668 5.33393 18.5003 10.0005 18.5003C14.6669 18.5001 18.5003 14.6667 18.5005 10.0003C18.5005 5.33375 14.667 1.50048 10.0005 1.50031ZM5.25049 12.0003C5.50049 11.667 5.91715 11.6663 6.25049 11.9163C6.26516 11.9169 6.32502 11.9605 6.42334 12.0316C6.90888 12.3826 8.33994 13.4163 10.0005 13.4163C12.0004 13.4162 13.7505 11.9163 13.7505 11.9163C14.0005 11.6667 14.4173 11.7504 14.7505 12.0003C15.0002 12.3336 14.9997 12.7504 14.6665 13.0003C14.5784 13.0877 12.5804 14.8332 10.0005 14.8333C7.4188 14.8333 5.41922 13.0857 5.3335 13.0003C5.00018 12.7503 5.00053 12.3336 5.25049 12.0003ZM6.6665 7.00031C7.24984 7.00031 7.75049 7.49998 7.75049 8.08331C7.75049 8.66665 7.24984 9.16632 6.6665 9.16632C6 9.16616 5.50018 8.66655 5.5835 8.08331C5.5835 7.50009 6.08331 7.00049 6.6665 7.00031ZM13.3335 7.00031C13.9168 7.00031 14.4165 7.49998 14.4165 8.08331C14.4165 8.66665 13.9168 9.16632 13.3335 9.16632C12.7502 9.16632 12.2505 8.66665 12.2505 8.08331C12.2505 7.49998 12.7502 7.00031 13.3335 7.00031Z" fill="#200040"/>
</g>
<defs>
<clipPath id="clip0_18_1011">
<rect width="20" height="20" fill="white"/>
</clipPath>
</defs>
</svg>
