<svg width="20" height="20" viewBox="0 0 20 20" fill="none" xmlns="http://www.w3.org/2000/svg">
<path d="M19.167 15.083C19.5002 15.0832 19.9168 15.4166 19.917 15.833C19.917 16.2496 19.5835 16.5828 19.167 16.583H3C2.58333 16.583 2.25 16.2497 2.25 15.833C2.25017 15.4165 2.58344 15.083 3 15.083L19.167 15.083ZM19.167 9.25C19.5003 9.25022 19.917 9.58347 19.917 10C19.917 10.4166 19.5835 10.7498 19.167 10.75L9.66699 10.75C9.25033 10.75 8.91699 10.4167 8.91699 10C8.91699 9.58333 9.25033 9.25 9.66699 9.25L19.167 9.25ZM19.167 3.5C19.5003 3.50016 19.917 3.75046 19.917 4.16699C19.9168 4.5834 19.5834 4.91682 19.167 4.91699H14.167C13.7503 4.91699 13.417 4.66667 13.417 4.25C13.417 3.83333 13.7503 3.5 14.167 3.5L19.167 3.5Z" fill="#200040"/>
</svg>
