<svg width="20" height="20" viewBox="0 0 20 20" fill="none" xmlns="http://www.w3.org/2000/svg">
<path d="M15.0837 15.0837C15.4169 15.0839 15.8335 15.4166 15.8337 15.7497C15.8337 16.0829 15.5003 16.4165 15.0837 16.4167H2.66675C2.25008 16.4167 1.91675 16.083 1.91675 15.7497C1.91697 15.4165 2.25022 15.0837 2.66675 15.0837H15.0837ZM14.2498 3.41669C14.8331 3.41669 15.3331 3.66701 15.7498 4.08368L17.8337 6.16669C18.0836 6.49999 18.083 6.91704 17.7498 7.08368C17.4996 7.33335 16.9996 7.33357 16.7498 7.08368L14.9167 5.24969V12.9997C14.9167 13.333 14.6664 13.6667 14.2498 13.6667C13.9165 13.6665 13.5837 13.4162 13.5837 12.9997V5.16669L11.6667 7.08368C11.5001 7.25024 11.3334 7.33368 11.1667 7.33368C11.0001 7.33368 10.8334 7.33335 10.6667 7.16669C10.4167 6.91669 10.4167 6.41669 10.6667 6.16669L12.7498 4.08368C13.1663 3.66709 13.6666 3.41678 14.2498 3.41669ZM10.0837 9.41669C10.5003 9.41686 10.8337 9.75043 10.8337 10.0837C10.8335 10.4168 10.5001 10.7495 10.0837 10.7497H2.66675C2.25022 10.7497 1.91697 10.4169 1.91675 10.0837C1.91675 9.75035 2.25008 9.41669 2.66675 9.41669H10.0837ZM2.66675 3.58368H8.08374C8.50012 3.58385 8.83352 3.91656 8.83374 4.24969C8.83374 4.58294 8.50025 4.91651 8.08374 4.91669H2.66675C2.25008 4.91669 1.91675 4.58335 1.91675 4.16669C1.91675 3.75002 2.25008 3.50035 2.66675 3.58368Z" fill="#200040"/>
</svg>
