<svg width="20" height="20" viewBox="0 0 20 20" fill="none" xmlns="http://www.w3.org/2000/svg">
<path d="M16.1663 15.0837C16.5828 15.0837 17 15.4165 17.0002 15.7497C17.0002 16.0829 16.6668 16.4165 16.2502 16.4167H3.83325C3.41659 16.4167 3.08325 16.083 3.08325 15.7497C3.08346 15.4165 3.41672 15.0837 3.83325 15.0837H16.1663ZM16.1663 9.33368C16.5828 9.33368 17 9.66647 17.0002 9.99969C17.0002 10.3329 16.6668 10.6665 16.2502 10.6667H3.83325C3.41659 10.6667 3.08325 10.333 3.08325 9.99969C3.08346 9.66647 3.41672 9.33368 3.83325 9.33368H16.1663ZM3.83325 3.58368H16.2502C16.6666 3.58385 17 3.91655 17.0002 4.24969C17.0002 4.58294 16.6668 4.91651 16.2502 4.91669H3.83325C3.41659 4.91669 3.08326 4.58335 3.08325 4.16669C3.08325 3.75002 3.41659 3.50035 3.83325 3.58368Z" fill="#200040"/>
</svg>
