<svg width="20" height="20" viewBox="0 0 20 20" fill="none" xmlns="http://www.w3.org/2000/svg">
<path d="M19.167 15.0836C19.5003 15.0838 19.917 15.4171 19.917 15.8336C19.9168 16.25 19.5834 16.5834 19.167 16.5836L14.167 16.5836C13.7504 16.5836 13.4172 16.2501 13.417 15.8336C13.417 15.417 13.7503 15.0836 14.167 15.0836L19.167 15.0836ZM19.167 9.24963C19.5002 9.24985 19.9168 9.58325 19.917 9.99963C19.917 10.4162 19.5835 10.7495 19.167 10.7496L9.66699 10.7496C9.25033 10.7496 8.91699 10.4163 8.91699 9.99963C8.91717 9.58312 9.25043 9.24963 9.66699 9.24963L19.167 9.24963ZM19.083 3.41663C19.4997 3.41663 19.833 3.74996 19.833 4.16663C19.833 4.58316 19.5002 4.91641 19.167 4.91663L3 4.91663C2.58333 4.91663 2.25 4.58329 2.25 4.16663C2.25 3.74996 2.58333 3.49996 3 3.41663L19.083 3.41663Z" fill="#200040"/>
</svg>
