<svg width="20" height="20" viewBox="0 0 20 20" fill="none" xmlns="http://www.w3.org/2000/svg">
<path d="M14.3337 6.24969C14.667 6.24986 14.9998 6.50016 14.9998 6.91669V14.6667L16.8337 12.8337C17.0837 12.5837 17.5837 12.5837 17.8337 12.8337C18.0834 13.0837 18.0836 13.5005 17.8337 13.8337L15.7498 15.9167C15.3331 16.3333 14.833 16.5837 14.2498 16.5837C13.6666 16.5836 13.1663 16.3333 12.7498 15.9167L10.6667 13.8337C10.4168 13.5837 10.4169 13.0837 10.6667 12.8337C10.9167 12.5837 11.4167 12.5837 11.6667 12.8337L13.6667 14.7497V6.91669C13.6667 6.58335 13.9171 6.24969 14.3337 6.24969ZM8.08374 15.0837C8.41691 15.0839 8.83348 15.4166 8.83374 15.7497C8.83374 16.0829 8.50025 16.4165 8.08374 16.4167H2.66675C2.25008 16.4167 1.91675 16.083 1.91675 15.7497C1.91696 15.4165 2.25021 15.0837 2.66675 15.0837H8.08374ZM9.99976 9.33368C10.4163 9.33368 10.7496 9.58322 10.7498 9.99969C10.7498 10.4162 10.417 10.7497 10.0837 10.6667H2.66675C2.25008 10.6667 1.91675 10.333 1.91675 9.99969C1.91696 9.66647 2.25021 9.33368 2.66675 9.33368H9.99976ZM2.66675 3.58368H15.0837C15.5001 3.58385 15.8335 3.91655 15.8337 4.24969C15.8337 4.58294 15.5003 4.91651 15.0837 4.91669H2.66675C2.25008 4.91669 1.91675 4.58335 1.91675 4.16669C1.91675 3.75002 2.25008 3.50035 2.66675 3.58368Z" fill="#200040"/>
</svg>
