<svg width="20" height="20" viewBox="0 0 20 20" fill="none" xmlns="http://www.w3.org/2000/svg">
<path d="M11.583 15.083C11.9163 15.083 12.3328 15.4165 12.333 15.833C12.333 16.2497 11.9997 16.583 11.583 16.583H8.5C8.08333 16.583 7.75 16.2497 7.75 15.833C7.75017 15.4165 8.08344 15.083 8.5 15.083H11.583ZM14.75 9.25C15.1667 9.25 15.5 9.58333 15.5 10C15.5 10.4167 15.1667 10.75 14.75 10.75H5.25C4.83333 10.75 4.5 10.4167 4.5 10C4.5 9.58333 4.83333 9.25 5.25 9.25H14.75ZM18.083 3.5C18.4997 3.5 18.917 3.75033 18.917 4.16699C18.9168 4.5834 18.5834 4.91682 18.167 4.91699H2C1.58344 4.91699 1.25017 4.58351 1.25 4.16699C1.25 3.75033 1.50033 3.5 1.91699 3.5H18.083Z" fill="#200040"/>
</svg>
