<svg width="20" height="20" viewBox="0 0 20 20" fill="none" xmlns="http://www.w3.org/2000/svg">
<path d="M13.333 0.166687C15.4997 0.166687 17.333 2.00002 17.333 4.16669V15.8337C17.3328 18.0002 15.5829 19.8337 13.333 19.8337H6.66602C4.49967 19.8334 2.66619 18.0834 2.66602 15.8337V4.16669C2.66602 2.00018 4.49956 0.166962 6.66602 0.166687H13.333ZM6.66602 1.58368C5.24957 1.58395 4.08301 2.75018 4.08301 4.16669V15.8337C4.08319 17.25 5.24968 18.4164 6.66602 18.4167H13.333C14.7496 18.4167 15.9158 17.2502 15.916 15.8337V4.16669C15.916 2.75002 14.7497 1.58368 13.333 1.58368H6.66602ZM10 8.41669C12.2498 8.41678 14.0828 10.2499 14.083 12.4997C14.083 14.7496 12.2499 16.5836 10 16.5837C7.75 16.5837 5.91699 14.7497 5.91699 12.4997C5.91717 10.2498 7.75011 8.41669 10 8.41669ZM10 9.74969C8.5 9.74969 7.33301 10.9167 7.33301 12.4167C7.33301 13.9167 8.58333 15.0837 10 15.0837C11.4166 15.0836 12.667 13.9166 12.667 12.4167C12.667 10.9167 11.4999 9.74978 10 9.74969ZM10 11.7497C10.414 11.7498 10.7498 12.0857 10.75 12.4997C10.75 12.9139 10.4141 13.2496 10 13.2497C9.58579 13.2497 9.25 12.9139 9.25 12.4997C9.25018 12.0856 9.5859 11.7497 10 11.7497ZM10 3.58368C10.7498 3.58378 11.4168 4.24988 11.417 4.99969C11.417 5.74964 10.7499 6.41659 10 6.41669C9.25 6.41669 8.58301 5.74969 8.58301 4.99969C8.5832 4.24983 9.25011 3.58368 10 3.58368Z" fill="#200040"/>
</svg>
