<svg width="20" height="20" viewBox="0 0 20 20" fill="none" xmlns="http://www.w3.org/2000/svg">
<g clip-path="url(#clip0_11_495)">
<path d="M15.834 0.166626C18.0838 0.166804 19.834 2.00006 19.834 4.16663V15.8336C19.8338 18.0834 18.0837 19.8334 15.834 19.8336H4.16699C1.91711 19.8336 0.167169 18.0001 0.166992 15.8336V4.16663C0.166992 1.91663 2.00033 0.166626 4.16699 0.166626H15.834ZM4.16699 1.58362C2.75033 1.58362 1.58398 2.74996 1.58398 4.16663V15.8336C1.58416 17.2501 2.75043 18.4166 4.16699 18.4166H15.834C17.2504 18.4164 18.4168 17.25 18.417 15.8336V4.16663C18.417 2.75007 17.2505 1.5838 15.834 1.58362H4.16699Z" fill="#200040"/>
</g>
<defs>
<clipPath id="clip0_11_495">
<rect width="20" height="20" fill="white"/>
</clipPath>
</defs>
</svg>
