<svg width="20" height="20" viewBox="0 0 20 20" fill="none" xmlns="http://www.w3.org/2000/svg">
<g clip-path="url(#clip0_11_494)">
<path d="M9.91602 0.583374C10.916 0.583374 11.6667 1.16671 12 2.08337L13.166 5.58337C13.2493 5.83326 13.5828 6.08315 13.916 6.08337H17.583C18.583 6.08337 19.3327 6.66679 19.666 7.58337C19.9993 8.50004 19.666 9.50037 18.916 10.0004L15.916 12.1664C15.6661 12.3331 15.5827 12.6671 15.666 13.0004L16.833 16.5004C17.0828 17.4168 16.7497 18.3331 16 18.9164C15.1667 19.4997 14.166 19.4997 13.416 18.9164L10.416 16.7504C10.3327 16.6671 10.0835 16.5835 10 16.5834C9.91667 16.5834 9.74967 16.667 9.58301 16.7504L6.58301 18.9164C5.74967 19.4997 4.75 19.4997 4 18.9164C3.16681 18.3331 2.83295 17.4169 3.16602 16.5004L4.33301 13.0004C4.49967 12.7504 4.33301 12.333 4.08301 12.1664L1.08301 10.0004C0.249674 9.41703 -0.0833333 8.50004 0.25 7.58337C0.583333 6.66679 1.41641 6.08343 2.33301 6.08337H6.08301C6.41634 6.08337 6.66667 5.91671 6.75 5.58337L7.83301 2.08337C8.16629 1.16685 8.91624 0.583551 9.91602 0.583374ZM10 2.00037C9.66667 2.00037 9.33333 2.16703 9.25 2.50037L8.08301 6.00037C7.74962 6.91678 6.91648 7.50028 6 7.50037H2.33301C1.99974 7.50043 1.74934 7.75008 1.66602 8.08337C1.49967 8.33322 1.6663 8.6665 1.91602 8.91638L4.91602 11.0834C5.74935 11.5834 6.08333 12.5837 5.75 13.5004L4.58301 17.0004C4.41662 17.3336 4.58314 17.6667 4.83301 17.8334C5.08301 18 5.5 18 5.75 17.8334L8.75 15.6664C9.49991 15.0833 10.5831 15.0833 11.333 15.6664L14.333 17.8334C14.4163 17.9167 14.6667 18.0004 14.75 18.0004C14.8333 18.0002 14.9996 17.9166 15.166 17.8334C15.416 17.6667 15.4993 17.3336 15.416 17.0004L14.25 13.5004C14 12.5837 14.3331 11.6667 15.083 11.0834L18.083 8.91638C18.3329 8.66644 18.4995 8.33359 18.333 8.00037C18.2497 7.66703 17.9163 7.50037 17.583 7.50037H13.916C12.9996 7.50017 12.166 6.91677 11.916 6.00037L10.75 2.50037C10.6667 2.1671 10.3333 2.00043 10 2.00037Z" fill="#200040"/>
</g>
<defs>
<clipPath id="clip0_11_494">
<rect width="20" height="20" fill="white"/>
</clipPath>
</defs>
</svg>
