<svg width="20" height="20" viewBox="0 0 20 20" fill="none" xmlns="http://www.w3.org/2000/svg">
<g clip-path="url(#clip0_11_182)">
<path d="M10.0002 0.083252C15.4168 0.0834326 19.9163 4.58369 19.9163 10.0002C19.9161 15.4167 15.4167 19.9161 10.0002 19.9163C4.58369 19.9163 0.0834326 15.4168 0.083252 10.0002C0.083252 4.58358 4.58358 0.083252 10.0002 0.083252ZM10.0002 1.50024C5.33358 1.50024 1.50024 5.33358 1.50024 10.0002C1.50042 14.6668 5.33369 18.5002 10.0002 18.5002C14.6667 18.5001 18.5001 14.6667 18.5002 10.0002C18.5002 5.33369 14.6668 1.50042 10.0002 1.50024ZM11.9163 6.00024C13.0829 6.00024 14.0002 6.91659 14.0002 8.08325V11.9163C14.0002 13.0829 12.9999 14.0833 11.8333 14.0833H8.08325C6.91659 14.0833 5.91626 13.0829 5.91626 11.9163V8.16626C5.91645 6.99973 6.91669 6.00024 8.08325 6.00024H11.9163ZM8.08325 7.33325C7.66659 7.33325 7.33325 7.66659 7.33325 8.08325V11.9163C7.33325 12.3329 7.66659 12.6663 8.08325 12.6663H11.8333C12.2499 12.6663 12.5833 12.3329 12.5833 11.9163V8.08325C12.5833 7.66659 12.2499 7.33325 11.8333 7.33325H8.08325Z" fill="#200040"/>
</g>
<defs>
<clipPath id="clip0_11_182">
<rect width="20" height="20" fill="white"/>
</clipPath>
</defs>
</svg>
