<svg width="20" height="20" viewBox="0 0 20 20" fill="none" xmlns="http://www.w3.org/2000/svg">
<g clip-path="url(#clip0_18_899)">
<path d="M10 16.75C10.3333 16.7501 10.667 17.0837 10.667 17.417V19.167C10.6669 19.5835 10.4165 19.9169 10 19.917C9.66667 19.917 9.33301 19.6667 9.33301 19.25V17.5C9.2497 17.0834 9.58335 16.75 10 16.75ZM4.16699 14.75C4.50027 14.5002 4.91707 14.5004 5.16699 14.667C5.41656 14.9171 5.41677 15.4171 5.16699 15.667L4 16.917C3.83341 17.0836 3.66659 17.1669 3.5 17.167C3.33336 17.167 3.16664 17.1666 3 17C2.75 16.75 2.75 16.25 3 16L4.16699 14.75ZM14.75 14.75C15 14.5001 15.5 14.5 15.75 14.75L17 15.833C17.2499 16.0829 17.2498 16.5829 17 16.833C16.8334 16.9996 16.6666 17.083 16.5 17.083C16.3334 17.083 16.1666 17.0834 16 16.917L14.75 15.75C14.5 15.5 14.5 15 14.75 14.75ZM10 5.08301C12.6666 5.0831 14.916 7.25006 14.916 10C14.916 12.7499 12.7499 14.9169 10 14.917C7.25 14.917 5.08301 12.75 5.08301 10C5.08301 7.25 7.33334 5.08301 10 5.08301ZM10 6.5C8.08334 6.5 6.50001 8.08334 6.5 10C6.5 11.9167 8.08333 13.5 10 13.5C11.9166 13.4999 13.5 11.9166 13.5 10C13.5 8.08339 11.9166 6.50009 10 6.5ZM2.58301 9.33301C2.91634 9.33301 3.24999 9.58334 3.25 10C3.25 10.3333 2.91634 10.6667 2.58301 10.75H0.833008C0.499729 10.7499 0.166016 10.4996 0.166016 10.083C0.16615 9.66655 0.416551 9.33309 0.833008 9.33301H2.58301ZM19.167 9.25C19.5834 9.25026 19.833 9.58379 19.833 9.91699C19.8329 10.3333 19.5833 10.6667 19.167 10.667H17.417C17.0837 10.667 16.75 10.4167 16.75 10C16.75 9.58334 17.0003 9.25 17.417 9.25H19.167ZM3 3C3.25003 2.75009 3.75003 2.75003 4 3L5.25 4.16699C5.49976 4.41707 5.49992 4.91707 5.25 5.16699C5.08341 5.33355 4.91659 5.41694 4.75 5.41699C4.58336 5.41699 4.41664 5.41659 4.25 5.25L3 4C2.66667 3.75 2.66667 3.33333 3 3ZM15.917 2.91699C16.167 2.66708 16.667 2.66702 16.917 2.91699C17.1666 3.1671 17.1668 3.6671 16.917 3.91699L15.75 5.16699C15.5834 5.33355 15.4166 5.41694 15.25 5.41699C15.0834 5.41699 14.9166 5.4167 14.75 5.16699C14.5 4.91702 14.5001 4.41702 14.75 4.16699L15.917 2.91699ZM10 0.0830078C10.3333 0.0830883 10.667 0.333407 10.667 0.75V2.5C10.7503 2.91657 10.4166 3.24991 10 3.25C9.58333 3.25 9.33301 2.91634 9.33301 2.58301V0.833008C9.33314 0.416498 9.58344 0.0830078 10 0.0830078Z" fill="#200040"/>
</g>
<defs>
<clipPath id="clip0_18_899">
<rect width="20" height="20" fill="white"/>
</clipPath>
</defs>
</svg>
