<svg width="20" height="20" viewBox="0 0 20 20" fill="none" xmlns="http://www.w3.org/2000/svg">
<g clip-path="url(#clip0_18_893)">
<path d="M10 9.24966C10.3333 9.24975 10.666 9.50006 10.666 9.91666V13.4167C11.1659 13.5 11.6661 13.667 12.166 13.8336L13.916 10.8336C14.166 10.5004 14.5827 10.4172 14.916 10.5836C15.2493 10.8336 15.3327 11.2503 15.166 11.5836L13.416 14.5836C13.8327 14.917 14.1667 15.25 14.5 15.6667L17.5 13.9167C17.9166 13.7501 18.3334 13.8334 18.5 14.1667C18.6666 14.4999 18.5832 14.9999 18.25 15.1667L15.25 16.9167C15.284 17.0186 15.3183 17.1171 15.3516 17.2135C15.4814 17.5899 15.5997 17.9357 15.666 18.3336C15.6662 18.4168 15.7498 18.4996 15.833 18.4997H19.166C19.5827 18.4997 19.833 18.7503 19.833 19.0836C19.8328 19.4169 19.5825 19.7497 19.166 19.7497H15.833C14.9998 19.7496 14.3333 19.2499 14.25 18.4167C13.9167 16.3334 12.0833 14.7497 10 14.7497C7.91668 14.7497 6.08334 16.3333 5.75 18.4167C5.58333 19.1667 4.91602 19.7497 4.16602 19.7497H0.833008C0.499837 19.7496 0.166231 19.4168 0.166016 19.0836C0.166016 18.7504 0.416439 18.4167 0.833008 18.4167H4.16602C4.24935 18.4167 4.33301 18.333 4.33301 18.2497C4.41636 17.8331 4.58337 17.3332 4.75 16.9167L1.75 15.1667C1.41667 14.9167 1.33333 14.5 1.5 14.1667C1.75001 13.8334 2.16669 13.75 2.5 13.9167L5.5 15.6667C5.83324 15.2501 6.16649 14.9169 6.58301 14.5836L4.83301 11.5836C4.66638 11.2504 4.74989 10.7504 5.08301 10.5836C5.41634 10.417 5.91634 10.5003 6.08301 10.8336L7.83301 13.8336C8.24963 13.667 8.83304 13.5 9.33301 13.4167V9.91666C9.33301 9.58332 9.58333 9.24966 10 9.24966ZM10 0.166656C10.3333 0.166738 10.667 0.41705 10.667 0.833649V5.49966L12.417 3.74966C12.6671 3.50007 13.1671 3.4998 13.417 3.74966C13.6668 3.99956 13.6666 4.49956 13.417 4.74966L11.417 6.74966C11.0837 7.08297 10.5833 7.3336 10 7.33365C9.41667 7.33365 8.91667 7.16633 8.5 6.74966L6.58301 4.74966C6.33325 4.49958 6.33309 3.99958 6.58301 3.74966C6.83295 3.49983 7.33295 3.49994 7.58301 3.74966L9.33301 5.49966V0.833649C9.33301 0.500315 9.58333 0.166656 10 0.166656Z" fill="#200040"/>
</g>
<defs>
<clipPath id="clip0_18_893">
<rect width="20" height="20" fill="white"/>
</clipPath>
</defs>
</svg>
