<svg width="20" height="20" viewBox="0 0 20 20" fill="none" xmlns="http://www.w3.org/2000/svg">
<path d="M14.2451 0.166687C16.4949 0.166887 18.3278 1.91682 18.1611 4.16669V15.8337C18.161 18.0002 16.411 19.8337 14.1611 19.8337H5.82812C3.66156 19.8337 1.8283 18.0835 1.82812 15.8337V4.16669C1.82812 1.91678 3.66126 0.166826 5.91113 0.166687H14.2451ZM3.32812 15.6667V15.8337C3.32831 17.2501 4.4947 18.4165 5.91113 18.4167H14.2451C15.7448 18.4165 16.9113 17.2501 16.8281 15.8337V15.6667H10.7451V16.6667C10.7451 17 10.4114 17.3336 10.0781 17.3337C9.74479 17.3337 9.41113 17.0834 9.41113 16.6667V15.6667H3.32812ZM5.91113 1.58368C4.41126 1.58382 3.24512 2.7501 3.24512 4.16669V14.2497H16.8281V4.16669C16.8281 2.75015 15.6616 1.58389 14.2451 1.58368H5.91113Z" fill="#200040"/>
</svg>
