<svg width="20" height="20" viewBox="0 0 20 20" fill="none" xmlns="http://www.w3.org/2000/svg">
<g clip-path="url(#clip0_11_492)">
<path d="M9.66702 0.166382C10.417 0.0830653 11.167 0.333385 11.667 0.833374L17.917 7.08337C19.4169 8.58328 19.417 10.9997 17.834 12.6664L17.334 13.1664V13.2504C17.3339 14.3336 16.9169 15.3335 16.167 16.0834L13.5 18.7504C12.75 19.5002 11.6669 19.9164 10.667 19.9164C9.66718 19.9164 8.584 19.5001 7.83401 18.7504L1.58401 12.5004C1.16743 12.0005 0.916847 11.4169 1.00003 10.7504L1.66702 4.33337L2.25003 4.16638L8.25003 3.50037C8.91664 3.41704 9.50006 3.58348 10 4.08337L16.25 10.3334C16.5834 10.6667 16.8334 11.0837 17 11.5004C17.4167 11.0004 17.667 10.4167 17.667 9.83337C17.667 9.16672 17.417 8.58337 16.917 8.08337L10.667 1.83337C10.4171 1.66676 10.1672 1.58343 9.83401 1.58337L4.00003 2.25037C3.66682 2.33342 3.33333 2.08289 3.25003 1.66638C3.1669 1.24987 3.41746 0.916685 3.83401 0.833374L9.66702 0.166382ZM3.00003 5.50037L2.41702 10.8334C2.33371 11.0834 2.41735 11.2497 2.58401 11.4164L8.83401 17.6664C9.83401 18.6663 11.5 18.6664 12.5 17.6664L15.167 15.0004C15.667 14.5004 15.917 13.833 15.917 13.1664C15.917 12.4998 15.6669 11.8333 15.167 11.3334L8.91702 5.08337C8.75043 5.00008 8.58382 4.91646 8.33401 4.91638L3.00003 5.50037ZM5.08401 7.50037C5.50068 7.0837 6.16735 7.0837 6.58401 7.50037C7.00032 7.91706 7.00056 8.58382 6.58401 9.00037C6.16747 9.4169 5.5007 9.41667 5.08401 9.00037C4.66735 8.5837 4.66736 7.91703 5.08401 7.50037Z" fill="#200040"/>
</g>
<defs>
<clipPath id="clip0_11_492">
<rect width="20" height="20" fill="white"/>
</clipPath>
</defs>
</svg>
