<svg width="20" height="20" viewBox="0 0 20 20" fill="none" xmlns="http://www.w3.org/2000/svg">
<g clip-path="url(#clip0_11_491)">
<path d="M10 0.083252C15.4165 0.0834326 19.916 4.58369 19.916 10.0002C19.9158 15.4167 15.4164 19.9161 10 19.9163C4.58344 19.9163 0.0831885 15.4168 0.0830078 10.0002C0.0830078 4.58358 4.58333 0.083252 10 0.083252ZM10 1.50024C5.33333 1.50024 1.5 5.33358 1.5 10.0002C1.50018 14.6668 5.33344 18.5002 10 18.5002C14.6664 18.5001 18.4998 14.6667 18.5 10.0002C18.5 5.33369 14.6665 1.50042 10 1.50024ZM10 3.41626C13.5832 3.41644 16.583 6.33369 16.583 10.0002C16.5828 13.6666 13.6664 16.5831 10 16.5833C6.33344 16.5833 3.41619 13.6668 3.41602 10.0002C3.41602 6.33358 6.41667 3.41626 10 3.41626ZM10 4.83325C7.16667 4.83325 4.83301 7.16691 4.83301 10.0002C4.83319 12.8334 7.16678 15.1663 10 15.1663C12.8331 15.1661 15.1658 12.8333 15.166 10.0002C15.166 7.16702 12.8332 4.83343 10 4.83325ZM10 6.83325C11.7499 6.83343 13.166 8.25035 13.166 10.0002C13.1658 11.75 11.7497 13.1661 10 13.1663C8.25011 13.1663 6.83318 11.7501 6.83301 10.0002C6.83301 8.25024 8.25 6.83325 10 6.83325ZM10 8.25024C9.08333 8.25024 8.25 9.08358 8.25 10.0002C8.25018 10.9168 9.00012 11.7502 10 11.7502C10.9997 11.7501 11.7498 10.9167 11.75 10.0002C11.75 9.08369 10.9165 8.25044 10 8.25024Z" fill="#200040"/>
</g>
<defs>
<clipPath id="clip0_11_491">
<rect width="20" height="20" fill="white"/>
</clipPath>
</defs>
</svg>
