<svg width="20" height="20" viewBox="0 0 20 20" fill="none" xmlns="http://www.w3.org/2000/svg">
<g clip-path="url(#clip0_11_602)">
<path d="M15.8335 0.166626C18.0833 0.166796 19.8335 1.91674 19.8335 4.16663V15.8336C19.8333 18 18.0832 19.8334 15.8335 19.8336H4.1665C1.99994 19.8336 0.166682 18.0835 0.166504 15.8336V4.16663C0.166504 1.91663 1.9165 0.166626 4.1665 0.166626H15.8335ZM4.1665 1.58362C2.74984 1.58362 1.5835 2.74996 1.5835 4.16663V15.8336C1.58368 17.2501 2.74995 18.4166 4.1665 18.4166H15.8335C17.2499 18.4164 18.4163 17.25 18.4165 15.8336V4.16663C18.4165 2.75007 17.25 1.5838 15.8335 1.58362H4.1665ZM3.99951 4.91663C4.24946 4.66668 4.74946 4.66679 4.99951 4.91663L8.4165 8.24963C9.33312 9.16625 9.33301 10.583 8.4165 11.4996L4.99951 14.9996C4.83285 15.1663 4.66618 15.2496 4.49951 15.2496C4.33295 15.2496 4.16607 15.2502 3.99951 15.0836C3.74962 14.8337 3.74984 14.3337 3.99951 14.0836L7.4165 10.5836C7.74978 10.2503 7.74967 9.66698 7.4165 9.33362L3.99951 5.91663C3.74973 5.66663 3.74973 5.16663 3.99951 4.91663ZM15.8335 13.4166C16.25 13.4168 16.4995 13.7504 16.4995 14.0836C16.4993 14.4168 16.2498 14.7495 15.8335 14.7496H9.99951C9.6664 14.7494 9.33371 14.4167 9.3335 14.0836C9.3335 13.7504 9.58304 13.4168 9.99951 13.4166H15.8335Z" fill="#200040"/>
</g>
<defs>
<clipPath id="clip0_11_602">
<rect width="20" height="20" fill="white"/>
</clipPath>
</defs>
</svg>
