<svg width="20" height="20" viewBox="0 0 20 20" fill="none" xmlns="http://www.w3.org/2000/svg">
<path d="M9.99982 0.166992C12.1665 0.166992 13.9998 1.91699 13.9998 4.16699V10.167C15.0831 11.2502 15.6667 12.6664 15.6668 14.083C15.6668 15.8329 14.9171 17.4167 13.5838 18.5C12.5838 19.3333 11.3332 19.75 9.99982 19.75C9.66663 19.75 9.2502 19.7502 8.8338 19.667C6.66713 19.2503 4.91648 17.4997 4.49982 15.333C4.08335 13.4167 4.66684 11.5002 5.99982 10.167V4.16699C5.99982 2.00047 7.83333 0.167231 9.99982 0.166992ZM9.99982 1.58301C8.58334 1.58324 7.41681 2.75047 7.41681 4.16699V10.75L7.16681 11C6.00025 12.0833 5.50059 13.5831 5.8338 15.083C6.16713 16.6663 7.50047 17.9997 9.0838 18.333C10.3337 18.583 11.6669 18.3333 12.6668 17.5C13.6667 16.6667 14.2497 15.4169 14.2498 14.167C14.2498 12.9171 13.7504 11.8333 12.8338 11L12.5838 10.75V4.16699C12.5838 2.75033 11.4165 1.58301 9.99982 1.58301ZM9.99982 5.91699C10.3332 5.91699 10.6668 6.25033 10.6668 6.66699V11.917C11.6668 12.2503 12.3338 13.0837 12.3338 14.167C12.3336 15.4169 11.2497 16.5 9.99982 16.5C8.7501 16.4998 7.66699 15.5 7.66681 14.167C7.66681 13.0838 8.3334 12.2504 9.24982 11.917V6.66699C9.24982 6.3338 9.66655 5.91734 9.99982 5.91699Z" fill="#200040"/>
</svg>
