<svg width="20" height="20" viewBox="0 0 20 20" fill="none" xmlns="http://www.w3.org/2000/svg">
<path d="M10.417 1.58333C11.1668 1.58333 11.8333 1.91655 12.25 2.41634C12.6667 2.91633 12.8333 3.66666 12.75 4.33333L12.417 6.16634H15.834C18.0004 6.16652 19.8338 7.99994 19.834 10.1663V10.2503L19.25 14.4163C18.9167 16.9163 17.4167 18.3333 15.25 18.3333H4.16699C2.00033 18.3333 0.166992 16.5833 0.166992 14.3333V10.1663C0.167193 7.99983 1.91712 6.16634 4.16699 6.16634H5.83398C6.25047 6.16625 6.58337 5.99983 6.75 5.58333L8.16699 3.00032C8.58366 2.16699 9.50033 1.58333 10.417 1.58333ZM4.08398 7.66634C2.66732 7.66634 1.5 8.83365 1.5 10.2503V14.4163C1.5 15.833 2.66699 17 4.16699 17.0833H5.83398V7.66634H4.08398ZM10.334 3.08333C9.9175 3.08333 9.50079 3.33322 9.33398 3.66634L8 6.25032C7.83333 6.58354 7.58322 6.91642 7.25 7.16634V17.0833H15.25C16.6667 17.0833 17.584 16.1667 17.834 14.3333L18.417 10.1663C18.4168 8.74995 17.2504 7.58351 15.834 7.58333H11.5C11.3334 7.58322 11.1666 7.49989 11 7.33333C10.8336 7.16675 10.834 6.91692 10.834 6.75032L11.334 4.16634C11.3339 3.91646 11.2506 3.66621 11.084 3.41634C10.9174 3.16653 10.5839 3.0834 10.334 3.08333Z" fill="#200040"/>
</svg>
