<svg width="20" height="20" viewBox="0 0 20 20" fill="none" xmlns="http://www.w3.org/2000/svg">
<path d="M15.25 1.58302C17.4166 1.58302 18.9166 3.00006 19.25 5.50002L19.834 9.66701V9.75002C19.834 11.9166 18.0838 13.7498 15.834 13.75H12.417L12.75 15.583C12.9167 16.2497 12.75 17 12.25 17.5C11.8333 17.9999 11.1666 18.333 10.5 18.333H10.417C9.41709 18.333 8.5837 17.7502 8.16699 16.917L6.83398 14.333C6.66731 13.9999 6.25048 13.7501 5.83398 13.75H4.16699C2.00033 13.75 0.166992 12 0.166992 9.75002V5.58302C0.167181 3.41651 1.91711 1.58302 4.16699 1.58302H15.25ZM7.25 3.00002V12.917C7.49992 13.1669 7.83328 13.4166 8 13.833L9.33398 16.417C9.50077 16.7502 9.91747 17 10.334 17C10.5839 16.9999 10.8341 16.8336 11.084 16.667C11.3338 16.5004 11.4171 16.1669 11.334 15.917L10.917 13.25C10.917 13 10.9173 12.8337 11.084 12.667C11.1673 12.5003 11.4173 12.417 11.584 12.417H15.834C17.2505 12.4168 18.417 11.2499 18.417 9.75002L17.834 5.66701C17.584 3.91701 16.75 3.00002 15.25 3.00002H7.25ZM4.16699 3.00002C2.75033 3.00002 1.58398 4.16701 1.58398 5.66701V9.83302C1.58398 11.2497 2.75033 12.417 4.16699 12.417H5.91699V3.00002H4.16699Z" fill="#200040"/>
</svg>
