<svg width="20" height="20" viewBox="0 0 20 20" fill="none" xmlns="http://www.w3.org/2000/svg">
<path d="M11.5002 0.166748C12.1666 0.16685 12.7496 0.500033 13.1662 0.999756C13.5829 1.58309 13.6662 2.25041 13.4162 2.83374L11.9162 6.74976H14.1662C14.9995 6.74976 15.8335 7.16675 16.2502 7.91675C16.6668 8.66672 16.6662 9.58378 16.1662 10.3337L10.8332 19.0837C10.4998 19.5836 9.91612 19.9167 9.4162 19.9167C9.16631 19.9167 8.91608 19.8331 8.6662 19.7498C7.83317 19.4163 7.50022 18.4999 7.75018 17.6667L9.08319 13.1667H5.83319C5.0832 13.1667 4.41619 12.8331 3.9162 12.2498C3.41645 11.5832 3.33355 10.8333 3.50018 10.1667L6.08319 1.83374C6.41652 0.833746 7.24987 0.166756 8.33319 0.166748H11.5002ZM8.25018 1.58374C7.91685 1.58374 7.58287 1.83341 7.4162 2.16675L4.83319 10.4998C4.74986 10.7498 4.83352 11.0837 5.00018 11.3337C5.25009 11.6668 5.49998 11.7498 5.83319 11.7498H9.83319C10.0832 11.7498 10.3335 11.9171 10.5002 12.0837C10.6667 12.3336 10.7495 12.5839 10.6662 12.8337L9.08319 17.9998C8.99986 18.2498 9.16685 18.3337 9.25018 18.3337C9.33362 18.4168 9.49975 18.4162 9.6662 18.2498L15.0002 9.58374C15.1668 9.25047 15.1668 8.91673 15.0002 8.66675C14.8335 8.33342 14.4995 8.16675 14.1662 8.16675H10.8332C10.5833 8.16674 10.4168 8.08345 10.2502 7.83374C10.0835 7.6671 10.0829 7.41671 10.1662 7.16675L12.0002 2.33374C12.0835 2.16707 12.0829 1.91642 11.9162 1.74976C11.8328 1.66653 11.6659 1.58374 11.4162 1.58374H8.25018Z" fill="#200040"/>
</svg>
