<svg width="20" height="20" viewBox="0 0 20 20" fill="none" xmlns="http://www.w3.org/2000/svg">
<path d="M13.334 3.41635C16.917 3.41653 19.8338 6.41663 19.834 9.91635C19.834 13.4996 16.9172 16.4162 13.334 16.4164H6.66699C3.08366 16.4164 0.166992 13.4997 0.166992 9.91635C0.167208 6.3332 3.08379 3.41635 6.66699 3.41635H13.334ZM6.66699 4.91635C3.91699 4.91635 1.58398 7.167 1.58398 10.0003C1.58412 12.7502 3.83375 15.0833 6.66699 15.0833H13.334C16.1671 15.0832 18.4169 12.8334 18.417 10.0003C18.417 7.25044 16.1672 4.91653 13.334 4.91635H6.66699ZM13.334 6.83334C15.1672 6.83351 16.5833 8.25044 16.5 10.0003C16.4999 10.8336 16.1672 11.6671 15.584 12.2503C15.0007 12.8336 14.2505 13.1663 13.334 13.1664C11.5841 13.1664 10.1671 11.7502 10.167 10.0003C10.167 9.167 10.5007 8.33367 11.084 7.75034C11.6673 7.16702 12.4173 6.83334 13.334 6.83334Z" fill="#200040"/>
</svg>
