<svg width="20" height="20" viewBox="0 0 20 20" fill="none" xmlns="http://www.w3.org/2000/svg">
<path d="M13.334 3.41635C16.917 3.41653 19.8338 6.41663 19.834 9.91635C19.834 13.4996 16.9172 16.4162 13.334 16.4164H6.66699C3.08366 16.4164 0.166992 13.4997 0.166992 9.91635C0.167208 6.3332 3.08379 3.41635 6.66699 3.41635H13.334ZM6.66699 4.91635C3.91699 4.91635 1.58398 7.167 1.58398 10.0003C1.58412 12.7502 3.83375 15.0833 6.66699 15.0833H13.334C16.1671 15.0832 18.4169 12.8334 18.417 10.0003C18.417 7.25044 16.1672 4.91653 13.334 4.91635H6.66699ZM6.66699 6.83334C8.41699 6.83334 9.83398 8.25034 9.83398 10.0003C9.83385 11.7502 8.41691 13.1664 6.66699 13.1664C4.91708 13.1664 3.50014 11.7502 3.5 10.0003C3.5 8.25034 4.91699 6.83334 6.66699 6.83334ZM6.66699 8.25034C5.75033 8.25034 4.91699 9.08367 4.91699 10.0003C4.91713 10.9169 5.66708 11.7503 6.66699 11.7503C7.6669 11.7503 8.41685 10.9169 8.41699 10.0003C8.41699 9.08367 7.66699 8.25034 6.66699 8.25034Z" fill="#200040"/>
</svg>
