<svg width="20" height="20" viewBox="0 0 20 20" fill="none" xmlns="http://www.w3.org/2000/svg">
<g clip-path="url(#clip0_11_485)">
<path d="M8.00015 2.16626C9.58346 0.583133 11.7503 -0.167052 14.0002 0.16626C14.5835 0.249626 15.1665 0.666943 15.3332 1.25024C15.4997 1.83332 15.3334 2.4996 14.9171 2.91626L12.7502 5.00024C12.1669 5.58353 12.167 6.58291 12.7502 7.16626C13.3335 7.74959 14.3338 7.74959 14.9171 7.16626L17.0002 5.08325C17.4168 4.66669 18.0839 4.49961 18.6671 4.66626C19.2502 4.83298 19.6667 5.33321 19.7502 5.91626C20.1668 8.16626 19.4165 10.4169 17.8332 12.0002C16.0832 13.7501 13.4167 14.5001 11.0002 13.7502C10.6668 13.6669 10.3332 13.7502 10.0832 14.0002L5.08316 19.0002C4.58316 19.5835 3.83308 19.9163 3.08316 19.9163C2.33322 19.9162 1.58344 19.6665 1.00015 19.0833C-0.166514 17.9166 -0.166514 16.0829 1.00015 14.9163L6.00015 9.91626C6.24986 9.66635 6.33336 9.33337 6.25015 9.00024C5.58349 6.58358 6.25015 3.99959 8.00015 2.16626ZM12.9171 1.50024C11.4173 1.50024 10.0834 2.08312 9.00015 3.16626C7.5835 4.58291 7.00019 6.6666 7.50015 8.58325C7.75011 9.41644 7.50026 10.2499 6.91714 10.8333L1.91617 15.8333C1.33307 16.4166 1.33304 17.417 1.91617 18.0002C2.49944 18.5835 3.4998 18.5834 4.08316 18.0002L9.08316 13.0002C9.66642 12.417 10.5832 12.1664 11.3332 12.4163C13.2498 12.9163 15.3335 12.4169 16.7502 11.0002C18.0002 9.75024 18.5832 7.91626 18.3332 6.16626C18.333 6.1596 18.3298 6.07996 18.2502 6.00024C18.2502 6.00024 18.0835 6.00006 18.0002 6.08325L15.9171 8.16626C14.8338 9.24959 12.8335 9.24959 11.7502 8.16626C10.5836 6.99959 10.5836 5.16686 11.7502 4.00024L13.8332 1.91626C13.9163 1.83314 13.9171 1.83332 13.9171 1.75024C13.9171 1.75024 13.8334 1.58347 13.7502 1.58325C13.417 1.58325 13.167 1.50035 12.9171 1.50024Z" fill="#200040"/>
</g>
<defs>
<clipPath id="clip0_11_485">
<rect width="20" height="20" fill="white"/>
</clipPath>
</defs>
</svg>
