<svg width="20" height="20" viewBox="0 0 20 20" fill="none" xmlns="http://www.w3.org/2000/svg">
<path d="M9.33267 0.166962H10.8327C12.5826 0.166962 14.0833 1.2497 14.6667 2.83298L14.8327 3.41696V3.49997H17.4997C17.9163 3.49997 18.1667 3.91664 18.1667 4.24997C18.1666 4.58327 17.9163 4.91696 17.4997 4.91696H16.4997V15.833C16.4997 17.9996 14.7497 19.833 12.4997 19.833H7.49966C5.333 19.833 3.49966 18.083 3.49966 15.833V4.91696H2.49966C2.08314 4.91696 1.83284 4.58343 1.83267 4.16696C1.83267 3.75032 2.08305 3.50031 2.49966 3.41696H5.24966V3.33298L5.41666 2.83298C5.91674 1.24989 7.49959 0.0837824 9.33267 0.166962ZM4.91666 4.91696V15.833C4.91666 17.2496 6.083 18.417 7.49966 18.417H12.4997C13.9163 18.417 15.0827 17.2496 15.0827 15.833H15.1667V4.91696H4.91666ZM9.24966 1.49997C8.08308 1.49997 7.08306 2.24976 6.74966 3.33298L6.66666 3.49997H13.3327L13.2497 3.24997C12.833 2.16664 11.833 1.49997 10.7497 1.49997H9.24966Z" fill="#200040"/>
</svg>
