<svg width="20" height="20" viewBox="0 0 20 20" fill="none" xmlns="http://www.w3.org/2000/svg">
<path d="M9.3327 0.166962H10.8327C12.5827 0.166962 14.0833 1.2497 14.6667 2.83298L14.8327 3.41696V3.49997H17.4997C17.9163 3.49998 18.1667 3.91664 18.1667 4.24997C18.1666 4.58327 17.9163 4.91695 17.4997 4.91696H16.4997V15.833C16.4997 17.9996 14.7497 19.833 12.4997 19.833H7.49969C5.33303 19.833 3.49969 18.083 3.49969 15.833V4.91696H2.49969C2.08316 4.91696 1.83287 4.58344 1.8327 4.16696C1.8327 3.75031 2.08306 3.50031 2.49969 3.41696H5.24969V3.33298L5.41669 2.83298C5.91677 1.24989 7.49961 0.0837683 9.3327 0.166962ZM4.91669 4.91696V15.833C4.91669 17.2496 6.08303 18.417 7.49969 18.417H12.4997C13.9164 18.417 15.0827 17.2496 15.0827 15.833H15.1667V4.91696H4.91669ZM8.3327 8.49997C8.66604 8.49997 8.99969 8.75029 8.99969 9.16696V14.167C8.99949 14.5002 8.7492 14.833 8.3327 14.833C7.91636 14.8329 7.66685 14.5833 7.66669 14.167V9.16696C7.66669 8.83373 7.99947 8.50017 8.3327 8.49997ZM11.6667 8.49997C11.9999 8.50014 12.3327 8.75044 12.3327 9.16696V14.167C12.3325 14.5001 12.083 14.8328 11.6667 14.833C11.2502 14.833 10.9999 14.5834 10.9997 14.167V9.16696C10.9997 8.83363 11.3334 8.49997 11.6667 8.49997ZM9.24969 1.49997C8.08311 1.49997 7.0831 2.24977 6.74969 3.33298L6.66669 3.49997H13.3327L13.2497 3.24997C12.833 2.16664 11.833 1.49998 10.7497 1.49997H9.24969Z" fill="#200040"/>
</svg>
