<svg width="20" height="20" viewBox="0 0 20 20" fill="none" xmlns="http://www.w3.org/2000/svg">
<g clip-path="url(#clip0_17_759)">
<path d="M0.916016 0.166687C1.24935 0.166687 1.58301 0.417013 1.58301 0.833679V17.4997C1.58301 17.9997 2 18.4167 2.5 18.4167H19.166C19.4993 18.4167 19.833 18.8334 19.833 19.1667C19.833 19.5 19.5827 19.8337 19.166 19.8337H2.5C1.25 19.8337 0.166016 18.7497 0.166016 17.4997V0.833679C0.166016 0.417216 0.582764 0.166931 0.916016 0.166687ZM3.66602 4.49969C3.91588 4.24983 4.41588 4.2501 4.66602 4.49969L8.5 8.16669C8.83333 8.49994 9.33337 8.49967 9.75 8.24969L11.166 7.24969C12.0825 6.58314 13.3327 6.75003 14.166 7.49969L18.5 11.5837V8.33368C18.5 8.00048 18.7496 7.66695 19.166 7.66669C19.4993 7.66669 19.833 7.91701 19.833 8.33368V11.6667C19.833 12.3334 19.5827 12.917 19.166 13.3337C18.7494 13.7501 18.0831 13.9996 17.5 13.9997H14.166C13.8329 13.9162 13.5 13.6661 13.5 13.2497C13.5002 12.9166 13.7498 12.5839 14.166 12.5837H17.416L13.166 8.49969C12.8327 8.16677 12.3325 8.16679 11.916 8.41669L10.5 9.41669C9.58337 10.0833 8.33333 9.91662 7.5 9.16669L3.66602 5.49969C3.41645 5.24959 3.41623 4.74959 3.66602 4.49969Z" fill="#200040"/>
</g>
<defs>
<clipPath id="clip0_17_759">
<rect width="20" height="20" fill="white"/>
</clipPath>
</defs>
</svg>
