<svg width="20" height="20" viewBox="0 0 20 20" fill="none" xmlns="http://www.w3.org/2000/svg">
<g clip-path="url(#clip0_17_758)">
<path d="M0.916016 0.166687C1.24935 0.166687 1.58301 0.417013 1.58301 0.833679V17.4997C1.58301 17.9997 2 18.4167 2.5 18.4167H19.166C19.4993 18.4167 19.833 18.8334 19.833 19.1667C19.833 19.5 19.5827 19.8337 19.166 19.8337H2.5C1.25 19.8337 0.166016 18.7497 0.166016 17.4997V0.833679C0.166016 0.417216 0.582764 0.166931 0.916016 0.166687ZM17.5 4.33368C18.1664 4.25043 18.7494 4.58324 19.166 4.99969C19.5827 5.41636 19.8333 6.00003 19.75 6.66669V9.99969C19.75 10.333 19.4997 10.6667 19.083 10.6667C18.7497 10.6666 18.416 10.4163 18.416 9.99969V6.74969L14.166 10.9167C13.3327 11.7498 12.0826 11.8333 11.166 11.1667L9.75 10.1667C9.33344 9.91675 8.83333 9.91661 8.5 10.2497L4.66602 13.9167C4.49948 14 4.33255 14.0837 4.16602 14.0837C3.99951 14.0835 3.83252 14.0002 3.66602 13.8337C3.41623 13.5838 3.41645 13.0838 3.66602 12.8337L7.5 9.16669C8.33333 8.33343 9.58336 8.25004 10.5 8.91669L11.916 9.91669C12.3325 10.1666 12.8327 10.1666 13.166 9.83368L17.416 5.74969H14.166C13.8329 5.74945 13.5002 5.49995 13.5 5.08368C13.5 4.66717 13.7496 4.33394 14.166 4.33368H17.5Z" fill="#200040"/>
</g>
<defs>
<clipPath id="clip0_17_758">
<rect width="20" height="20" fill="white"/>
</clipPath>
</defs>
</svg>
