<svg width="20" height="20" viewBox="0 0 20 20" fill="none" xmlns="http://www.w3.org/2000/svg">
<path d="M10 1.91699C11.1667 1.91699 12.2497 2.50007 12.833 3.5L19.5 15C20.0833 16 20.0834 17.25 19.5 18.25C18.9167 19.2499 17.8336 19.8329 16.667 19.833H3.33304C2.16651 19.8329 1.08332 19.2499 0.500031 18.25C-0.0832974 17.25 -0.0832865 16 0.500031 15L7.16702 3.5C7.75037 2.50007 8.83341 1.91699 10 1.91699ZM10 3.25C9.33336 3.25 8.75036 3.58366 8.41702 4.16699L1.75003 15.667C1.41685 16.2503 1.41675 16.9168 1.75003 17.5C2.08331 18.0832 2.66652 18.4169 3.33304 18.417H16.667C17.3335 18.4169 17.9167 18.0832 18.25 17.5C18.5833 16.9168 18.5832 16.2503 18.25 15.667L11.583 4.16699C11.2497 3.58366 10.6667 3.25 10 3.25Z" fill="#200040"/>
</svg>
