<svg width="20" height="20" viewBox="0 0 20 20" fill="none" xmlns="http://www.w3.org/2000/svg">
<path d="M11.667 1C12.9167 1.00026 13.9998 2.00001 14 3.33301V4.25H15.833C18.0829 4.25 19.9168 6.08316 19.917 8.33301V15.667H18.25V16.167C18.2498 17.75 17 18.9997 15.417 19C13.8338 19 12.5832 17.7502 12.583 16.167V15.667H7.41699V16.167C7.41682 17.7502 6.16623 19 4.58301 19C2.99986 18.9999 1.75017 17.7501 1.75 16.167V15.667H0.166016V3.33301C0.166204 2.08315 1.25011 1 2.5 1H11.667ZM3.16699 15.75V16.25C3.16699 16.9999 3.83307 17.6669 4.58301 17.667C5.33301 17.667 6 17 6 16.25V15.75H3.16699ZM14 15.75V16.25C14 17 14.667 17.667 15.417 17.667C16.1668 17.6667 16.833 16.9998 16.833 16.25V15.75H14ZM2.5 2.41699C2.00011 2.41699 1.58319 2.83315 1.58301 3.33301V14.333H12.583V3.33301C12.5828 2.83331 12.1667 2.41726 11.667 2.41699H2.5ZM14.083 5.66699V14.333H18.5V8.33301C18.4998 6.83316 17.3329 5.66699 15.833 5.66699H14.083Z" fill="#200040"/>
</svg>
