<svg width="20" height="20" viewBox="0 0 20 20" fill="none" xmlns="http://www.w3.org/2000/svg">
<g clip-path="url(#clip0_18_989)">
<path d="M5.4165 0.325958C5.6665 0.0759593 6.1665 0.158969 6.4165 0.408966L10.0005 4.82596L13.5835 0.491974C13.8335 0.158827 14.2502 0.159013 14.5835 0.408966C14.8334 0.658984 14.9165 1.0757 14.6665 1.40897L11.5005 5.24197H15.8335C18.0834 5.24206 19.8335 6.99235 19.8335 9.15897V15.826C19.8332 17.9924 18.0833 19.8259 15.8335 19.826H4.1665C2.00006 19.8259 0.166766 18.0757 0.166504 15.826V9.15897C0.166504 6.99235 1.91658 5.15906 4.1665 5.15897H8.50049L5.3335 1.32596C5.08358 1.07604 5.08351 0.576042 5.4165 0.325958ZM4.1665 6.65897C2.74997 6.65906 1.58359 7.82544 1.5835 9.24197V15.909C1.58358 17.3255 2.74996 18.4919 4.1665 18.492H15.8335C17.25 18.4919 18.4164 17.3255 18.4165 15.909V9.24197C18.4164 7.82544 17.25 6.65906 15.8335 6.65897H4.1665ZM10.8335 8.57596C11.6668 8.57604 12.4165 9.24268 12.4165 10.076V15.076C12.4162 15.9923 11.6666 16.6589 10.8335 16.659H5.00049C4.084 16.659 3.41676 15.9091 3.4165 15.076V10.159C3.4165 9.2423 4.16716 8.57596 5.00049 8.57596H10.8335ZM15.4165 13.576C15.9998 13.576 16.5005 14.0756 16.5005 14.659C16.5004 15.2422 15.9998 15.742 15.4165 15.742C14.8333 15.7419 14.3336 15.2422 14.3335 14.659C14.3335 14.0757 14.8332 13.5761 15.4165 13.576ZM5.00049 9.90897C4.91716 9.90897 4.8335 9.99263 4.8335 10.076V15.076C4.83382 15.1591 4.91732 15.242 5.00049 15.242H10.8335C10.9166 15.2419 11.0002 15.1591 11.0005 15.076V10.076C11.0005 9.99268 10.9168 9.90907 10.8335 9.90897H5.00049ZM15.4165 9.40897C15.9998 9.40897 16.5004 9.90871 16.5005 10.492C16.5005 11.0753 15.9998 11.576 15.4165 11.576C14.8332 11.5759 14.3335 11.0753 14.3335 10.492C14.3336 9.90877 14.8333 9.40906 15.4165 9.40897Z" fill="#200040"/>
</g>
<defs>
<clipPath id="clip0_18_989">
<rect width="20" height="20" fill="white"/>
</clipPath>
</defs>
</svg>
