<svg width="20" height="20" viewBox="0 0 20 20" fill="none" xmlns="http://www.w3.org/2000/svg">
<path d="M17.334 2.5L17.25 3.25V5.75C17.25 6.16646 16.9172 6.49967 16.584 6.5C16.2507 6.5 15.917 6.16667 15.917 5.75V3.91699H10.667V15.834H12.5C12.8332 15.834 13.1667 16.1668 13.167 16.5C13.167 16.8333 12.9167 17.167 12.5 17.167H7.5C7.16672 17.1669 6.83398 16.8333 6.83398 16.5C6.83417 16.1668 7.08358 15.8341 7.5 15.834H9.33398V3.91699H4.08398V5.75C4.08398 6.16667 3.58333 6.5 3.25 6.5C2.91672 6.49989 2.58301 6.1666 2.58301 5.75V2.5H17.334Z" fill="#200040"/>
</svg>
