<svg width="20" height="20" viewBox="0 0 20 20" fill="none" xmlns="http://www.w3.org/2000/svg">
<g clip-path="url(#clip0_18_891)">
<path d="M9.99939 0.166687C10.3327 0.166687 10.6664 0.417013 10.6664 0.833679V1.83368C15.7497 2.08368 18.3334 5.16701 19.5834 7.83368C19.9999 8.8336 20 10.0005 19.3334 10.8337C18.75 11.7503 17.7497 12.3337 16.6664 12.3337H10.6664V17.4167C10.6664 18.7499 9.66657 19.8335 8.33337 19.8337C7.66671 19.8337 7.08305 19.5834 6.66638 19.1667C6.24973 18.75 5.99939 18.1663 5.99939 17.4997C5.99956 17.0832 6.33315 16.8337 6.66638 16.8337C6.99963 16.8337 7.3332 17.0832 7.33337 17.4997C7.33337 17.7497 7.49972 18 7.66638 18.1667C7.83305 18.3334 8.08337 18.4167 8.33337 18.4167C8.58319 18.4166 8.83278 18.3332 8.99939 18.1667C9.16606 18 9.24939 17.7497 9.24939 17.4997V12.4167H3.33337C2.25004 12.4167 1.24972 11.8334 0.666382 10.9167C0.0830854 10.0001 0.000124618 8.83364 0.583374 7.83368C1.83337 5.16701 4.33337 2.08368 9.33337 1.83368V0.833679C9.33337 0.500447 9.58295 0.166888 9.99939 0.166687ZM9.99939 3.24969C5.24964 3.24984 2.83269 6.08342 1.74939 8.41669C1.49945 8.99999 1.50007 9.66673 1.83337 10.1667C2.16672 10.6666 2.75009 10.9997 3.33337 10.9997H16.6664C17.333 10.9997 17.833 10.6667 18.1664 10.1667C18.4997 9.58335 18.5827 9.00002 18.2494 8.41669C17.166 6.08338 14.7493 3.24969 9.99939 3.24969Z" fill="#200040"/>
</g>
<defs>
<clipPath id="clip0_18_891">
<rect width="20" height="20" fill="white"/>
</clipPath>
</defs>
</svg>
