<svg width="20" height="20" viewBox="0 0 20 20" fill="none" xmlns="http://www.w3.org/2000/svg">
<path d="M16.666 16.6667C17.0827 16.6667 17.333 17.0004 17.333 17.3337C17.333 17.667 17.0827 18.0007 16.666 18.0007H3.33301C2.99973 18.0006 2.66602 17.667 2.66602 17.3337C2.66603 17.0004 2.91645 16.6668 3.33301 16.6667H16.666ZM15.083 1.75067C15.4162 1.75067 15.7498 2.00023 15.75 2.41669V8.16669C15.75 9.75002 15.1663 11.1673 14.083 12.2507C12.9997 13.3338 11.4998 13.9166 10 13.9167C6.83344 13.9167 4.33317 11.4172 4.33301 8.25067V2.41669C4.33328 2.00023 4.83375 1.75067 5.16699 1.75067C5.50007 1.75092 5.83282 2.00043 5.83301 2.41669V8.25067C5.83317 10.6671 7.74985 12.5836 10.083 12.5837C11.1663 12.5837 12.2497 12.167 13.083 11.3337C13.9163 10.5004 14.3329 9.41722 14.333 8.25067V2.41669C14.3332 2.0003 14.7498 1.75075 15.083 1.75067Z" fill="#200040"/>
</svg>
