<svg width="20" height="20" viewBox="0 0 20 20" fill="none" xmlns="http://www.w3.org/2000/svg">
<g clip-path="url(#clip0_11_471)">
<path d="M3.66602 8.25024C3.91602 8.00024 4.41602 8.00024 4.66602 8.25024C4.91602 8.50024 4.91602 9.00024 4.66602 9.25024L2.83301 11.0833C1.1664 12.7499 1.1665 15.4996 2.83301 17.1663C4.49967 18.8329 7.24935 18.8329 8.91602 17.1663L10.75 15.3333C11.0001 15.0834 11.4997 15.0833 11.833 15.3333C12.083 15.5833 12.083 16.0833 11.833 16.3333L10 18.1663C8.83333 19.2496 7.41602 19.8333 5.91602 19.8333C4.41612 19.8332 2.91626 19.2495 1.83301 18.1663C-0.41683 15.9996 -0.416938 12.3332 1.83301 10.0833L3.66602 8.25024ZM0.333008 0.333252C0.583008 0.083252 1.08301 0.083252 1.33301 0.333252L6.41602 5.41626L10.083 1.91626C12.2496 -0.333463 15.916 -0.333359 18.166 1.91626C20.416 4.08293 20.416 7.75024 18.166 10.0002L14.583 13.5833L19.666 18.6663C19.9993 18.9163 19.9993 19.4163 19.666 19.6663C19.4994 19.7496 19.3326 19.8333 19.166 19.8333C18.9995 19.8333 18.8326 19.8328 18.666 19.6663L0.333008 1.33325C0.0830078 1.08325 0.0830078 0.583252 0.333008 0.333252ZM7.16602 11.8333C7.41596 11.5833 7.91596 11.5834 8.16602 11.8333C8.41602 12.0833 8.41602 12.5833 8.16602 12.8333L7.5 13.5002C7.41672 13.5835 7.16667 13.6662 7 13.6663C6.83344 13.6663 6.66656 13.6666 6.5 13.5002C6.25 13.2502 6.25 12.7502 6.5 12.5002L7.16602 11.8333ZM17.166 2.83325C15.4993 1.16675 12.7496 1.16664 11.083 2.83325L7.41602 6.41626L10 9.00024L12.5 6.50024C12.75 6.25025 13.25 6.25024 13.5 6.50024C13.7497 6.75035 13.7499 7.25035 13.5 7.50024L11 10.0002L13.583 12.5002L17.166 8.91626C18.8327 7.24959 18.8327 4.49992 17.166 2.83325Z" fill="#200040"/>
</g>
<defs>
<clipPath id="clip0_11_471">
<rect width="20" height="20" fill="white"/>
</clipPath>
</defs>
</svg>
