<svg width="20" height="20" viewBox="0 0 20 20" fill="none" xmlns="http://www.w3.org/2000/svg">
<path d="M9.99968 0.083252C12.083 0.083252 13.9997 1.25024 14.9997 3.00024C15.1663 3.33358 15.083 3.8336 14.7497 4.00024C14.3332 4.24988 13.9163 4.08339 13.7497 3.75024C12.9997 2.41691 11.583 1.58325 9.99968 1.58325C7.66649 1.58343 5.74968 3.50002 5.74968 5.83325V6.83325H14.1667C16.4167 6.83326 18.25 8.66659 18.1667 10.8333V15.8333C18.1667 17.9999 16.4167 19.8332 14.1667 19.8333H5.74968C3.58315 19.8331 1.74968 18.0831 1.74968 15.8333V10.8333C1.74968 9.16658 2.83366 7.66659 4.33366 7.08325V5.83325C4.33366 2.66669 6.83316 0.166744 9.99968 0.083252ZM5.83366 8.25024C4.417 8.25024 3.24968 9.41658 3.24968 10.8333V15.8333C3.24968 17.2499 4.417 18.4163 5.83366 18.4163H14.2497C15.6663 18.4163 16.8337 17.2499 16.8337 15.8333H16.7497V10.8333C16.7497 9.41659 15.5833 8.25025 14.1667 8.25024H5.83366ZM9.99968 11.8333C10.4163 11.8333 10.6667 12.0836 10.6667 12.5002V14.1663C10.6667 14.4996 10.333 14.8333 9.99968 14.8333C9.66645 14.8331 9.33366 14.5828 9.33366 14.1663V12.5002C9.33366 12.167 9.58321 11.8334 9.99968 11.8333Z" fill="#200040"/>
</svg>
