<svg width="20" height="20" viewBox="0 0 20 20" fill="none" xmlns="http://www.w3.org/2000/svg">
<path d="M17.5 0.083313C17.8333 0.083313 18.167 0.416972 18.167 0.750305V4.25031C18.1668 5.00004 17.5837 5.58314 16.834 5.58331H13.334C12.9173 5.58331 12.667 5.24965 12.667 4.91632C12.6672 4.5831 13.0008 4.25031 13.334 4.25031L16.25 4.33331C14.6667 2.58341 12.4166 1.58331 10 1.58331C5.33348 1.58349 1.5 5.41675 1.5 10.0833C1.5 14.7499 5.33348 18.5831 10 18.5833C14.4166 18.5833 18.0835 15.1668 18.417 10.7503C18.417 10.3336 18.7503 10.0833 19.167 10.0833C19.5837 10.0833 19.834 10.4166 19.834 10.8333C19.4173 15.9166 15.0833 19.9163 10 19.9163C4.58348 19.9161 0.166992 15.4999 0.166992 10.0833C0.166992 4.66665 4.66732 0.083313 10.084 0.083313C12.6672 0.0833972 15.0007 1.08371 16.834 2.75031V0.750305C16.834 0.333773 17.1668 0.0834741 17.5 0.083313Z" fill="#200040"/>
</svg>
