<svg width="20" height="20" viewBox="0 0 20 20" fill="none" xmlns="http://www.w3.org/2000/svg">
<path d="M12.4166 10.7504C12.9999 10.7504 13.4999 10.9168 13.9166 11.3334L15.9166 13.3334C16.1665 13.5835 16.1665 14.0835 15.9166 14.3334C15.7499 14.4168 15.5832 14.5004 15.4166 14.5004C15.25 14.5004 15.0833 14.4169 14.8336 14.2504L13.0836 12.5004V19.0834C13.0835 19.5 12.8332 19.8334 12.4166 19.8334C12.0832 19.8334 11.7496 19.5831 11.7496 19.1664V12.5834L9.99957 14.3334C9.74951 14.5833 9.24951 14.5834 8.99957 14.3334C8.74971 14.0835 8.74978 13.5835 8.99957 13.3334L10.9996 11.3334C11.3329 11.0001 11.8332 10.7504 12.4166 10.7504ZM6.08356 1.50043C7.25019 1.00049 8.66663 0.91711 9.91656 1.25043C13.4995 2.08374 14.4995 4.99962 14.7496 6.16644C17.1662 6.83311 19.7499 8.75043 19.9166 12.5004C19.9164 15.0834 18.6665 17.1665 16.3336 18.4164C15.9169 18.6664 15.5836 18.5831 15.3336 18.1664C15.0836 17.7498 15.2502 17.3331 15.5836 17.1664C16.8334 16.4164 18.4164 15.0832 18.4166 12.5004C18.4166 8.58456 14.8346 7.66737 14.0836 7.50043C13.7504 7.41713 13.5 7.08362 13.4166 6.75043C13.4048 6.70922 13.3915 6.65631 13.3755 6.59418C13.1661 5.77676 12.5262 3.28058 9.58356 2.58344C8.58356 2.33344 7.49957 2.41709 6.49957 2.75043C4.6665 3.50046 3.83288 4.8335 3.49957 5.83344C2.91633 7.50003 3.33358 9.16648 3.83356 10.1664C4.08344 10.4164 4.08286 10.8332 3.99957 11.1664C3.91627 11.4996 3.66669 11.7498 3.33356 11.9164C2.58356 12.2498 1.58356 13.0004 1.58356 14.7504C1.58365 15.5003 1.83334 16.1672 2.41656 16.7504C2.99991 17.3336 3.91702 17.6664 4.83356 17.6664H9.16656C9.49982 17.6665 9.83344 17.9999 9.83356 18.4164C9.83356 18.8331 9.5832 19.1664 9.16656 19.1664H4.83356C3.50027 19.1664 2.33322 18.6667 1.41656 17.8334C0.583334 17.0002 0.166667 15.9169 0.166565 14.7504C0.166565 12.2504 1.66689 11.0831 2.58356 10.6664C1.75023 9.16644 1.58323 7.16644 2.16656 5.41644C2.74994 3.58322 4.16697 2.16707 6.08356 1.50043Z" fill="#200040"/>
</svg>
