<svg width="20" height="20" viewBox="0 0 20 20" fill="none" xmlns="http://www.w3.org/2000/svg">
<g clip-path="url(#clip0_11_480)">
<path d="M19.167 13.417C19.5003 13.417 19.834 13.7503 19.834 14.167V17.5C19.834 18.75 18.8333 19.833 17.5 19.833H2.5C1.25014 19.8328 0.166992 18.8332 0.166992 17.5V14.167C0.166992 13.7503 0.583659 13.417 0.916992 13.417C1.25024 13.417 1.58381 13.6665 1.58398 14.083V17.417C1.58417 17.9167 2.00025 18.3328 2.5 18.333H17.584C18.0837 18.3328 18.4998 17.9167 18.5 17.417V14.083C18.5002 13.7498 18.7505 13.417 19.167 13.417ZM10 0.25C10.6666 0.25 11.25 0.500108 11.75 1L14.334 3.58301C14.5839 3.8329 14.5837 4.3329 14.334 4.58301C14.1674 4.66629 14.0005 4.74989 13.834 4.75C13.6674 4.75 13.5006 4.66656 13.334 4.5L10.584 1.75V14.917C10.5838 15.2502 10.3335 15.583 9.91699 15.583C9.58375 15.583 9.25017 15.3335 9.25 14.917V1.83301L6.66699 4.41699C6.41702 4.75006 6.00023 4.75009 5.66699 4.41699C5.41704 4.16704 5.41715 3.75029 5.66699 3.41699L8.25 1C8.6666 0.500081 9.33344 0.250081 10 0.25Z" fill="#200040"/>
</g>
<defs>
<clipPath id="clip0_11_480">
<rect width="20" height="20" fill="white"/>
</clipPath>
</defs>
</svg>
