<svg width="20" height="20" viewBox="0 0 20 20" fill="none" xmlns="http://www.w3.org/2000/svg">
<g clip-path="url(#clip0_11_223)">
<path d="M7.5 11.7504C11.5832 11.7504 14.9168 15.0832 14.917 19.1664C14.917 19.5829 14.5835 19.9162 14.167 19.9164C13.7503 19.9164 13.417 19.583 13.417 19.1664C13.4168 15.9166 10.7499 13.2504 7.5 13.2504C4.25011 13.2504 1.58319 15.9165 1.58301 19.1664C1.58301 19.583 1.24967 19.9164 0.833008 19.9164C0.416455 19.9163 0.0830078 19.583 0.0830078 19.1664C0.0831853 15.0832 3.41678 11.7504 7.5 11.7504ZM18.667 7.00037C18.917 6.75041 19.417 6.75038 19.667 7.00037C19.9166 7.25047 19.9168 7.75047 19.667 8.00037L16 11.6664C15.75 11.9164 15.4166 12.0834 15 12.0834C14.5833 12.0834 14.25 11.9164 14 11.6664L12 9.66638C11.7501 9.41634 11.75 8.91634 12 8.66638C12.25 8.41663 12.75 8.41657 13 8.66638L15 10.6664L18.667 7.00037ZM7.5 0.083374C10.1666 0.0834182 12.417 2.25039 12.417 5.00037C12.4168 7.75018 10.1665 9.91634 7.5 9.91638C4.83344 9.91638 2.58319 7.66689 2.58301 5.00037C2.58301 2.3337 4.83333 0.083374 7.5 0.083374ZM7.5 1.58337C5.58333 1.58337 4.08301 3.0837 4.08301 5.00037C4.08319 6.91688 5.66677 8.41638 7.5 8.41638C9.33319 8.41634 10.9168 6.83353 10.917 5.00037C10.917 3.16706 9.41663 1.58342 7.5 1.58337Z" fill="#200040"/>
</g>
<defs>
<clipPath id="clip0_11_223">
<rect width="20" height="20" fill="white"/>
</clipPath>
</defs>
</svg>
