<svg width="20" height="20" viewBox="0 0 20 20" fill="none" xmlns="http://www.w3.org/2000/svg">
<path d="M10 11.7504C14.0832 11.7504 17.4168 15.0832 17.417 19.1664C17.417 19.5829 17.0835 19.9162 16.667 19.9164C16.2503 19.9164 15.917 19.583 15.917 19.1664C15.9168 15.9166 13.2499 13.2504 10 13.2504C6.75011 13.2504 4.08319 15.9165 4.08301 19.1664C4.08301 19.583 3.74967 19.9164 3.33301 19.9164C2.91646 19.9163 2.58301 19.583 2.58301 19.1664C2.58319 15.0832 5.91678 11.7504 10 11.7504ZM10 0.083374C12.6666 0.0834182 14.917 2.25039 14.917 5.00037C14.9168 7.75018 12.6665 9.91634 10 9.91638C7.33344 9.91638 5.08319 7.66689 5.08301 5.00037C5.08301 2.3337 7.33333 0.083374 10 0.083374ZM10 1.58337C8.08333 1.58337 6.58301 3.0837 6.58301 5.00037C6.58319 6.91688 8.16677 8.41638 10 8.41638C11.8332 8.41634 13.4168 6.83353 13.417 5.00037C13.417 3.16706 11.9166 1.58342 10 1.58337Z" fill="#200040"/>
</svg>
