<svg width="20" height="20" viewBox="0 0 20 20" fill="none" xmlns="http://www.w3.org/2000/svg">
<g clip-path="url(#clip0_11_218)">
<path d="M6.33301 12.5834C9.74967 12.5834 12.5833 15.4167 12.75 18.8334C12.75 19.25 12.4166 19.5833 12 19.5834C11.5833 19.5834 11.25 19.25 11.25 18.8334C11.25 16.1668 9.08347 14.0006 6.41699 14.0004C3.75033 14.0004 1.58301 16.1667 1.58301 18.8334C1.58301 19.25 1.24967 19.5834 0.833008 19.5834C0.416455 19.5832 0.0830078 19.25 0.0830078 18.8334C0.0830078 15.3335 2.91645 12.5835 6.33301 12.5834ZM14.083 9.25037C17.333 9.25037 19.9163 11.8337 19.833 15.0004C19.8328 15.4169 19.4996 15.7504 19.083 15.7504C18.6666 15.7502 18.3332 15.4168 18.333 15.0004C18.333 12.5837 16.4166 10.6664 14 10.6664C12.9167 10.6664 11.9163 11.0834 11.083 11.8334C10.833 12.0832 10.333 12.0003 10.083 11.7504C9.83301 11.5004 9.91699 11.0004 10.167 10.7504C11.2503 9.75046 12.6664 9.25042 14.083 9.25037ZM6.25 3.41638C8.24996 3.41643 9.91699 5.0834 9.91699 7.08337C9.91699 9.08335 8.24996 10.7503 6.25 10.7504C4.25 10.7504 2.58301 9.08337 2.58301 7.08337C2.58301 5.08337 4.25 3.41638 6.25 3.41638ZM6.25 4.91638C5 4.91638 4.08301 5.83337 4.08301 7.08337C4.08301 8.33337 5 9.25037 6.25 9.25037C7.49996 9.25032 8.41699 8.25002 8.41699 7.08337C8.41699 5.91673 7.49996 4.91643 6.25 4.91638ZM14.583 0.083374C16.583 0.083374 18.25 1.75037 18.25 3.75037C18.2498 5.75022 16.5829 7.41638 14.583 7.41638C12.5832 7.41625 10.9172 5.75014 10.917 3.75037C10.917 1.75045 12.5831 0.0835086 14.583 0.083374ZM14.583 1.58337C13.3331 1.58349 12.417 2.50045 12.417 3.75037C12.4172 5.00012 13.3332 5.91626 14.583 5.91638C15.8329 5.91638 16.7498 4.91689 16.75 3.75037C16.75 2.5837 15.833 1.58337 14.583 1.58337Z" fill="#200040"/>
</g>
<defs>
<clipPath id="clip0_11_218">
<rect width="20" height="20" fill="white"/>
</clipPath>
</defs>
</svg>
