<svg width="20" height="20" viewBox="0 0 20 20" fill="none" xmlns="http://www.w3.org/2000/svg">
<g clip-path="url(#clip0_11_222)">
<path d="M7.5 11.7504C11.5832 11.7504 14.9168 15.0832 14.917 19.1664C14.917 19.5829 14.5835 19.9162 14.167 19.9164C13.7503 19.9164 13.417 19.583 13.417 19.1664C13.4168 15.9166 10.7499 13.2504 7.5 13.2504C4.25011 13.2504 1.58319 15.9165 1.58301 19.1664C1.58301 19.583 1.24967 19.9164 0.833008 19.9164C0.416455 19.9163 0.0830078 19.583 0.0830078 19.1664C0.0831853 15.0832 3.41678 11.7504 7.5 11.7504ZM19.167 9.25037C19.5835 9.25058 19.917 9.58384 19.917 10.0004C19.9168 10.4167 19.5834 10.7501 19.167 10.7504H14.167C13.7504 10.7504 13.4172 10.4169 13.417 10.0004C13.417 9.5837 13.7503 9.25037 14.167 9.25037H19.167ZM7.5 0.083374C10.1666 0.0834182 12.417 2.25039 12.417 5.00037C12.4168 7.75018 10.1665 9.91634 7.5 9.91638C4.83344 9.91638 2.58319 7.66689 2.58301 5.00037C2.58301 2.3337 4.83333 0.083374 7.5 0.083374ZM7.5 1.58337C5.58333 1.58337 4.08301 3.0837 4.08301 5.00037C4.08319 6.91688 5.66677 8.41638 7.5 8.41638C9.33319 8.41634 10.9168 6.83353 10.917 5.00037C10.917 3.16706 9.41663 1.58342 7.5 1.58337Z" fill="#200040"/>
</g>
<defs>
<clipPath id="clip0_11_222">
<rect width="20" height="20" fill="white"/>
</clipPath>
</defs>
</svg>
