<svg width="20" height="20" viewBox="0 0 20 20" fill="none" xmlns="http://www.w3.org/2000/svg">
<g clip-path="url(#clip0_11_220)">
<path d="M7.5 11.7504C11.5832 11.7504 14.9168 15.0832 14.917 19.1664C14.917 19.5829 14.5835 19.9162 14.167 19.9164C13.7503 19.9164 13.417 19.583 13.417 19.1664C13.4168 15.9166 10.7499 13.2504 7.5 13.2504C4.25011 13.2504 1.58319 15.9165 1.58301 19.1664C1.58301 19.583 1.24967 19.9164 0.833008 19.9164C0.416455 19.9163 0.0830078 19.583 0.0830078 19.1664C0.0831853 15.0832 3.41678 11.7504 7.5 11.7504ZM17.917 7.75037C18.167 7.50041 18.667 7.50038 18.917 7.75037C19.1666 8.00047 19.1668 8.50047 18.917 8.75037L17.667 10.0004L18.917 11.2504C19.1666 11.5005 19.1668 12.0005 18.917 12.2504C18.7505 12.3336 18.5835 12.4162 18.417 12.4164C18.2504 12.4164 18.0835 12.4167 17.917 12.2504L16.667 11.0004L15.417 12.2504C15.2505 12.3336 15.0835 12.4162 14.917 12.4164C14.7504 12.4164 14.5835 12.4167 14.417 12.2504C14.167 12.0004 14.167 11.5004 14.417 11.2504L15.667 10.0004L14.417 8.75037C14.167 8.50037 14.167 8.00037 14.417 7.75037C14.667 7.50041 15.167 7.50038 15.417 7.75037L16.667 9.00037L17.917 7.75037ZM7.5 0.083374C10.1666 0.0834182 12.417 2.25039 12.417 5.00037C12.4168 7.75018 10.1665 9.91634 7.5 9.91638C4.83344 9.91638 2.58319 7.66689 2.58301 5.00037C2.58301 2.3337 4.83333 0.083374 7.5 0.083374ZM7.5 1.58337C5.58333 1.58337 4.08301 3.0837 4.08301 5.00037C4.08319 6.91688 5.66677 8.41638 7.5 8.41638C9.33319 8.41634 10.9168 6.83353 10.917 5.00037C10.917 3.16706 9.41663 1.58342 7.5 1.58337Z" fill="#200040"/>
</g>
<defs>
<clipPath id="clip0_11_220">
<rect width="20" height="20" fill="white"/>
</clipPath>
</defs>
</svg>
