<svg width="20" height="20" viewBox="0 0 20 20" fill="none" xmlns="http://www.w3.org/2000/svg">
<g clip-path="url(#clip0_18_987)">
<path d="M0.297668 0.347321C0.547732 0.0975149 1.04773 0.0973884 1.29767 0.347321L4.46368 3.51431H11.6307C13.7973 3.51431 15.6307 5.26431 15.6307 7.51431L17.2137 5.84732C17.6303 5.43067 18.2974 5.26435 18.8807 5.51431C19.464 5.76431 19.7977 6.34797 19.7977 6.9313V13.0143C19.7976 13.6809 19.464 14.1813 18.8807 14.4313C18.7141 14.5145 18.4642 14.5143 18.2977 14.5143C17.881 14.5143 17.4637 14.3473 17.2137 14.0973L15.6307 12.5143C15.6307 13.1809 15.4637 13.7643 15.2137 14.2643L19.6307 18.6813C19.9639 18.9313 19.964 19.4313 19.6307 19.6813C19.4641 19.7646 19.2972 19.8473 19.1307 19.8473C18.9641 19.8473 18.7972 19.8478 18.6307 19.6813L0.297668 1.34732C0.0476719 1.09732 0.0476696 0.597319 0.297668 0.347321ZM0.630676 5.59732C0.797366 5.18078 1.21407 5.0977 1.63068 5.26431C1.96401 5.51431 2.04734 5.93098 1.88068 6.26431C1.63075 6.68093 1.54767 7.0977 1.54767 7.51431V12.5143C1.54774 13.9309 2.71411 15.0972 4.13068 15.0973H11.6307C12.0473 15.0973 12.2977 15.3476 12.2977 15.7643C12.2976 16.1809 12.0473 16.5143 11.6307 16.5143H4.13068C1.96411 16.5142 0.130746 14.7642 0.130676 12.5143V7.51431C0.130676 6.84765 0.297343 6.18065 0.630676 5.59732ZM18.3807 6.84732C18.3805 6.76666 18.3021 6.84295 18.2977 6.84732L15.8807 9.4313C15.8392 9.43135 15.8184 9.45157 15.7977 9.47232C15.7768 9.49315 15.7554 9.51431 15.7137 9.51431V10.5973L18.2977 13.1813H18.3807C18.464 13.1813 18.4637 13.0973 18.4637 13.0973V6.9313C18.4637 6.9313 18.464 6.84732 18.3807 6.84732ZM14.1307 13.0973C14.2139 12.8475 14.2137 12.681 14.2137 12.4313V7.4313C14.2137 6.01464 13.0473 4.84732 11.6307 4.84732V4.76431H5.79767L14.1307 13.0973Z" fill="#200040"/>
</g>
<defs>
<clipPath id="clip0_18_987">
<rect width="20" height="20" fill="white"/>
</clipPath>
</defs>
</svg>
