<svg width="20" height="20" viewBox="0 0 20 20" fill="none" xmlns="http://www.w3.org/2000/svg">
<path d="M6.91632 1.83368C7.49953 1.83368 7.99998 2.08318 8.33331 2.49969L9.50031 4.08368C9.58381 4.25012 9.83375 4.33368 10.0003 4.33368H17.2503C18.2502 4.3338 19.0833 5.16677 19.0833 6.16669V16.4167C19.0833 17.4166 18.2502 18.2496 17.2503 18.2497H2.75031C1.75031 18.2497 0.916321 17.4167 0.916321 16.4167V3.66669C0.916332 2.6667 1.75031 1.83368 2.75031 1.83368H6.91632ZM2.33331 13.9997V16.3337C2.33345 16.5835 2.50041 16.7497 2.75031 16.7497H5.16632V13.9997H2.33331ZM6.58331 3.24969V16.7497H13.5003V5.74969H10.0003C9.41697 5.74969 8.83299 5.41669 8.41632 4.91669L7.16632 3.33368C7.08301 3.25041 6.99963 3.24969 6.91632 3.24969H6.58331ZM15.0003 13.9997V16.7497H17.2503C17.5001 16.7496 17.6662 16.5834 17.6663 16.3337V13.9997H15.0003ZM2.33331 9.99969V12.6667H5.16632V9.99969H2.33331ZM14.9163 9.99969V12.6667H17.5833V9.99969H14.9163ZM2.33331 5.74969V8.58368H5.16632V5.74969H2.33331ZM15.0003 5.74969V8.58368H17.6663V6.16669C17.6663 5.91677 17.5002 5.74979 17.2503 5.74969H15.0003ZM2.75031 3.24969C2.50031 3.24969 2.33332 3.4167 2.33331 3.66669V4.41669H5.16632V3.24969H2.75031Z" fill="#200040"/>
</svg>
