<svg width="20" height="20" viewBox="0 0 20 20" fill="none" xmlns="http://www.w3.org/2000/svg">
<g clip-path="url(#clip0_11_171)">
<path d="M15.8333 0.166687C18.0833 0.166688 19.9163 1.91669 19.9163 4.16669V15.8337C19.9161 18.0835 18.0831 19.9167 15.8333 19.9167H4.16626C1.91652 19.9165 0.0834281 18.0834 0.083252 15.8337V4.24969C0.0834291 1.99995 1.91652 0.166864 4.16626 0.166687H15.8333ZM1.66626 14.7497V15.8337C1.66644 17.2502 2.83369 18.4164 4.25024 18.4997H4.58325V14.7497H1.66626ZM5.91626 1.58368V18.4997H14.1663V1.58368H5.91626ZM15.5833 14.6667V18.4167H15.8333C17.2499 18.4167 18.4169 17.2497 18.5002 15.7497V14.6667H15.5833ZM1.66626 10.7497V13.3337H4.58325V10.7497H1.66626ZM15.5002 10.7497V13.3337H18.4163V10.7497H15.5002ZM1.66626 6.74969V9.33368H4.58325V6.74969H1.66626ZM15.5002 6.74969V9.33368H18.4163V6.74969H15.5002ZM4.16626 1.58368C2.83316 1.58387 1.66673 2.74997 1.58325 4.24969V5.33368H4.41626V1.58368H4.16626ZM15.5002 1.49969V5.24969H18.4163V4.16669C18.4163 2.75002 17.2499 1.58303 15.8333 1.49969H15.5002Z" fill="#200040"/>
</g>
<defs>
<clipPath id="clip0_11_171">
<rect width="20" height="20" fill="white"/>
</clipPath>
</defs>
</svg>
