<svg width="20" height="20" viewBox="0 0 20 20" fill="none" xmlns="http://www.w3.org/2000/svg">
<path d="M15.8337 1.00031C18.0836 1.00048 19.8337 2.83374 19.8337 5.00031V15.0003C19.8336 17.1667 18.0835 19.0001 15.8337 19.0003H4.16675C2.00018 19.0003 0.166914 17.2502 0.166748 15.0003V5.00031C0.166748 2.83364 1.91675 1.00031 4.16675 1.00031H15.8337ZM1.58374 15.0003C1.58391 16.4168 2.75018 17.5833 4.16675 17.5833H15.8337C17.2502 17.5831 18.4163 16.4167 18.4998 15.0003V7.41632H1.58374V15.0003ZM7.49976 10.5833C7.49977 9.99999 8.08375 9.66632 8.58374 9.91632L12.2498 11.9163C12.8331 12.2497 12.8331 12.917 12.2498 13.2503L8.58374 15.2503C8.08374 15.5003 7.49976 15.1666 7.49976 14.5833V10.5833ZM16.3337 2.50031C16.1671 2.417 16.0004 2.41704 15.8337 2.50031H10.9167L7.33374 6.08331H12.8337V6.00031L16.3337 2.50031ZM4.16675 2.41632C2.75008 2.41632 1.58374 3.58364 1.58374 5.00031V6.00031H5.41675V5.91632L8.91675 2.41632H4.16675ZM14.7498 6.00031H18.4167V5.08331C18.4167 4.33332 18.0837 3.66632 17.5837 3.16632L14.7498 6.00031Z" fill="#200040"/>
</svg>
