<svg width="20" height="20" viewBox="0 0 20 20" fill="none" xmlns="http://www.w3.org/2000/svg">
<path d="M4.10986 3.49976H11.6099C13.7765 3.49976 15.6097 5.24987 15.6099 7.49976L17.1929 5.83374C17.6095 5.41712 18.2766 5.24988 18.8599 5.49976C19.4432 5.74976 19.7769 6.33341 19.7769 6.91675V12.9998C19.7769 13.6664 19.4432 14.1667 18.8599 14.4167C18.6933 14.5 18.4435 14.4998 18.2769 14.4998C17.8602 14.4998 17.4429 14.3337 17.1929 14.0837L15.6099 12.4998C15.6099 14.6664 13.8599 16.4998 11.6099 16.4998H4.10986C1.94326 16.4997 0.109863 14.7497 0.109863 12.4998V7.49976C0.109988 5.24991 1.86001 3.41651 4.10986 3.49976ZM4.10986 4.91675C2.69334 4.91682 1.52699 6.08324 1.52686 7.49976V12.4998C1.52686 13.9164 2.69326 15.0837 4.10986 15.0837H11.6099C13.0265 15.0837 14.1929 13.9164 14.1929 12.4998V7.49976C14.1927 6.0832 13.0264 4.91675 11.6099 4.91675H4.10986ZM18.3599 6.83374C18.3599 6.75041 18.2769 6.83374 18.2769 6.83374L15.7769 9.41675C15.6935 9.41675 15.6932 9.49976 15.6099 9.49976V10.5837L18.1929 13.1667H18.2769C18.3566 13.1666 18.3597 13.0901 18.3599 13.0837H18.4429V6.91675C18.4429 6.91675 18.4432 6.83374 18.3599 6.83374Z" fill="#200040"/>
</svg>
