<svg width="20" height="20" viewBox="0 0 20 20" fill="none" xmlns="http://www.w3.org/2000/svg">
<path d="M15.417 5.16699C17.8334 5.16717 19.9168 7.16663 19.917 9.58301C19.917 11.9997 17.9167 14 15.5 14H4.66699C2.25033 14 0.25 11.9997 0.25 9.58301C0.250225 7.16652 2.25046 5.16699 4.66699 5.16699C7.08338 5.16717 9.08278 7.16663 9.08301 9.58301C9.08301 10.7496 8.58298 11.7497 7.83301 12.583H12.25C11.5001 11.833 11 10.7496 11 9.58301C11.0002 7.16652 13.0005 5.16699 15.417 5.16699ZM4.58301 6.58301C2.91663 6.58318 1.58322 7.91664 1.58301 9.58301C1.58301 11.2496 2.91649 12.5828 4.58301 12.583C6.24967 12.583 7.58301 11.2497 7.58301 9.58301C7.58279 7.91653 6.24954 6.58301 4.58301 6.58301ZM15.417 6.58301C13.7505 6.58301 12.4172 7.91653 12.417 9.58301C12.417 11.2497 13.7503 12.583 15.417 12.583C17.0835 12.5828 18.417 11.2496 18.417 9.58301C18.4168 7.91664 17.0834 6.58318 15.417 6.58301Z" fill="#200040"/>
</svg>
