<svg width="20" height="20" viewBox="0 0 20 20" fill="none" xmlns="http://www.w3.org/2000/svg">
<g clip-path="url(#clip0_11_178)">
<path d="M11.9163 0.333374C12.3329 0.333374 12.5829 0.666737 12.6663 1.08337V18.8334C12.6663 19.25 12.3329 19.5834 11.9163 19.5834C8.74974 19.5832 6.08323 16.5833 5.33325 15.5834H4.33325C2.08325 15.5834 0.333252 13.833 0.333252 11.6664V8.16638C0.333436 5.99987 2.16669 4.25037 4.33325 4.25037H5.41626C6.16623 3.2504 8.74974 0.333574 11.9163 0.333374ZM11.2502 1.83337C8.59638 2.33097 6.3547 5.38706 6.33325 5.41638C6.16666 5.66627 6.00006 5.75029 5.75024 5.75037H4.33325C2.99992 5.75037 1.83325 6.8337 1.83325 8.25037V11.6664C1.83325 12.9997 2.91659 14.1664 4.33325 14.1664H5.66626C5.91626 14.1664 6.08358 14.3337 6.25024 14.5004C6.2564 14.5915 8.58649 17.6668 11.1663 18.1664H11.2502V1.83337ZM13.6663 7.16638C13.9162 6.91649 14.4162 6.91671 14.6663 7.16638L16.6663 9.16638L18.5002 7.33337C18.7503 7.0835 19.2503 7.08342 19.5002 7.33337C19.7501 7.58335 19.7501 8.00011 19.5002 8.33337L17.6663 10.1664L19.4163 11.9164C19.6663 12.1664 19.6663 12.6664 19.4163 12.9164C19.2496 12.9997 19.0829 13.0834 18.9163 13.0834C18.7497 13.0834 18.5828 13.0829 18.4163 12.9164L16.6663 11.1664L14.7502 13.0834C14.5837 13.1667 14.4168 13.2503 14.2502 13.2504C14.0836 13.2504 13.9169 13.2499 13.7502 13.0834C13.5002 12.8334 13.5002 12.3334 13.7502 12.0834L15.6663 10.1664L13.6663 8.16638C13.4166 7.91627 13.4164 7.41627 13.6663 7.16638Z" fill="#200040"/>
</g>
<defs>
<clipPath id="clip0_11_178">
<rect width="20" height="20" fill="white"/>
</clipPath>
</defs>
</svg>
