<svg width="20" height="20" viewBox="0 0 20 20" fill="none" xmlns="http://www.w3.org/2000/svg">
<path d="M11.833 0.333374C12.2497 0.333374 12.583 0.666707 12.583 1.08337V18.9164C12.583 19.333 12.2497 19.6664 11.833 19.6664C8.66648 19.6662 5.99997 16.6663 5.25 15.6664H4.25C2 15.6664 0.25 13.833 0.25 11.6664V8.16638C0.250183 5.99987 2.08344 4.25037 4.25 4.25037H5.33301C6.08298 3.2504 8.66649 0.333574 11.833 0.333374ZM11.167 1.83337C8.5131 2.33098 6.27142 5.3871 6.25 5.41638C6.08341 5.66627 5.91681 5.75029 5.66699 5.75037H4.25C2.91667 5.75037 1.75 6.8337 1.75 8.25037V11.6664C1.75 12.9997 2.83333 14.1664 4.25 14.1664H5.66699C5.91681 14.1665 6.08341 14.3338 6.25 14.5004C6.25582 14.5911 8.58689 17.667 11.167 18.1664V1.83337ZM13.667 6.08337C13.917 5.8335 14.3337 5.75042 14.667 6.00037C14.7544 6.0039 16.4162 7.33724 16.333 10.0004C16.3329 12.4608 14.8969 13.7874 14.6885 13.9799C14.6781 13.9894 14.6709 13.9964 14.667 14.0004C14.5837 14.0837 14.4167 14.1664 14.25 14.1664C14 14.1664 13.8337 14.083 13.667 13.9164C13.417 13.5831 13.4167 13.1664 13.75 12.9164C13.8333 12.9164 14.9169 11.9168 14.917 10.0004C14.917 8.08371 13.8333 7.08339 13.75 7.08337C13.5 6.83337 13.417 6.41671 13.667 6.08337Z" fill="#200040"/>
</svg>
