<svg width="20" height="20" viewBox="0 0 20 20" fill="none" xmlns="http://www.w3.org/2000/svg">
<g clip-path="url(#clip0_11_180)">
<path d="M11.833 0.333374C12.2497 0.333374 12.583 0.666707 12.583 1.08337V18.8334C12.583 19.25 12.2497 19.5834 11.833 19.5834C8.66648 19.5832 5.99997 16.5833 5.25 15.5834H4.25C2 15.5834 0.25 13.833 0.25 11.6664V8.16638C0.250184 5.99987 2.08344 4.25037 4.25 4.25037H5.33301C6.08298 3.2504 8.66649 0.333574 11.833 0.333374ZM11.167 1.83337C8.51312 2.33097 6.27145 5.38706 6.25 5.41638C6.08341 5.66627 5.91681 5.75029 5.66699 5.75037H4.25C2.91667 5.75037 1.75 6.8337 1.75 8.25037V11.6664C1.75 12.9997 2.83333 14.1664 4.25 14.1664H5.66699C5.91681 14.1665 6.08341 14.3338 6.25 14.5004C6.25579 14.591 8.58687 17.667 11.167 18.1664V1.83337ZM15.917 3.50037C16.167 3.25037 16.5837 3.16638 16.917 3.41638C16.9207 3.42006 16.9291 3.42803 16.9424 3.43982C17.2312 3.69625 19.667 5.85927 19.667 10.0004C19.6669 14.1412 17.2312 16.3035 16.9424 16.5599C16.9292 16.5716 16.9208 16.5796 16.917 16.5834C16.8337 16.6667 16.6667 16.7504 16.5 16.7504C16.2502 16.7504 16.0836 16.6668 15.917 16.5004C15.667 16.1671 15.6668 15.7504 16 15.5004C16.0039 15.4964 16.0126 15.4883 16.0254 15.4769C16.2837 15.2466 18.2499 13.4931 18.25 10.0004C18.25 6.3516 16.0218 4.51818 16 4.50037C15.75 4.25038 15.667 3.83369 15.917 3.50037ZM13.667 6.08337C13.917 5.8335 14.3337 5.75042 14.667 6.00037C14.7544 6.0039 16.4162 7.33724 16.333 10.0004C16.3329 12.4606 14.8971 13.7873 14.6885 13.9799C14.6781 13.9894 14.6709 13.9964 14.667 14.0004C14.5837 14.0837 14.4167 14.1664 14.25 14.1664C14 14.1664 13.8337 14.083 13.667 13.9164C13.417 13.5831 13.4167 13.1664 13.75 12.9164C13.8333 12.9164 14.9169 11.9168 14.917 10.0004C14.917 8.08371 13.8333 7.08339 13.75 7.08337C13.5 6.83337 13.417 6.33337 13.667 6.08337Z" fill="#200040"/>
</g>
<defs>
<clipPath id="clip0_11_180">
<rect width="20" height="20" fill="white"/>
</clipPath>
</defs>
</svg>
