<svg width="20" height="20" viewBox="0 0 20 20" fill="none" xmlns="http://www.w3.org/2000/svg">
<path d="M11.833 0.416626C12.2497 0.416626 12.583 0.749959 12.583 1.16663V18.9996C12.583 19.333 12.2497 19.6666 11.833 19.6666C8.74981 19.6664 6.0833 16.6666 5.25 15.6666H4.25C2.08333 15.6666 0.25 13.9163 0.25 11.7496V8.24963C0.250175 6.08312 2.00011 4.33362 4.25 4.33362H5.33301C6.08298 3.33365 8.66649 0.416826 11.833 0.416626ZM11.167 1.83362C8.50033 2.33362 6.33334 5.33329 6.25 5.41663C6.08341 5.58322 5.91681 5.66655 5.66699 5.66663H4.25C2.83333 5.66663 1.75 6.83329 1.75 8.16663V11.6666C1.75 13.0833 2.91667 14.1666 4.25 14.1666H5.66699C5.91674 14.1667 6.08346 14.2499 6.25 14.4996C6.25 14.4996 8.58366 17.6666 11.167 18.1666V1.83362Z" fill="#200040"/>
</svg>
