<svg width="20" height="20" viewBox="0 0 20 20" fill="none" xmlns="http://www.w3.org/2000/svg">
<path d="M14.1665 0.166992C14.4997 0.166992 14.8333 0.416549 14.8335 0.833008V3.41699C16.8334 4.917 18.1665 7.33341 18.1665 10C18.1665 12.6667 16.9165 15.083 14.6665 16.583V19.167C14.6663 19.5001 14.3336 19.8328 14.0005 19.833C13.6672 19.833 13.3337 19.5835 13.3335 19.167V17.417C12.3335 17.917 11.1665 18.167 9.9165 18.167C8.75008 18.1669 7.58361 17.9168 6.50049 17.417V19.167C6.50028 19.5002 6.16673 19.833 5.8335 19.833C5.50024 19.833 5.16667 19.5835 5.1665 19.167V16.583C3.16671 15.083 1.8335 12.6665 1.8335 10C1.8335 7.3335 3.16671 4.91701 5.1665 3.41699V0.833008C5.16679 0.499898 5.58334 0.167209 5.9165 0.166992C6.24974 0.166992 6.58331 0.416549 6.5835 0.833008V2.5C7.58349 2 8.75049 1.75 10.0005 1.75C11.1669 1.75005 12.3333 2.00013 13.4165 2.5V0.833008C13.4168 0.499898 13.8333 0.167209 14.1665 0.166992ZM10.0005 3.25C6.33383 3.25 3.2505 6.25001 3.25049 10C3.25049 13.75 6.33382 16.75 10.0005 16.75C13.667 16.7498 16.7505 13.6666 16.7505 10C16.7505 6.33345 13.667 3.25018 10.0005 3.25ZM10.0005 6C10.3337 6.00016 10.6665 6.25046 10.6665 6.66699V9.66699L12.1665 11.083C12.4165 11.333 12.4165 11.833 12.1665 12.083C11.9998 12.2497 11.8332 12.333 11.6665 12.333C11.4999 12.333 11.3331 12.3336 11.1665 12.167L9.50049 10.583C9.3339 10.4164 9.25056 10.1669 9.25049 9.91699V6.66699C9.25049 6.25033 9.66715 6 10.0005 6Z" fill="#200040"/>
</svg>
