<svg width="20" height="20" viewBox="0 0 20 20" fill="none" xmlns="http://www.w3.org/2000/svg">
<path d="M10.0005 14.4167C10.7504 14.4169 11.4165 15.0005 11.4165 15.8337C11.4163 16.5834 10.7502 17.2495 10.0005 17.2497C9.2506 17.2497 8.58369 16.5835 8.5835 15.8337C8.5835 15.0837 9.25049 14.4167 10.0005 14.4167ZM10.0005 8.49969C12.0837 8.49978 14.0839 9.33313 15.5005 10.9997C15.8336 11.2496 15.7502 11.7496 15.5005 11.9997C15.3339 12.083 15.167 12.1666 15.0005 12.1667C14.8339 12.1667 14.6671 12.0832 14.5005 11.9167C13.3339 10.6668 11.667 9.91678 10.0005 9.91669C8.33382 9.91669 6.6665 10.5834 5.4165 11.9167C5.16645 12.1665 4.66645 12.1666 4.4165 11.9167C4.16672 11.6667 4.16672 11.1667 4.4165 10.9167C5.9165 9.41669 7.91715 8.49969 10.0005 8.49969ZM10.0005 2.66669C13.667 2.66678 17.1666 4.16709 19.6665 6.83368C19.9165 7.08368 19.9168 7.58335 19.5835 7.91669C19.4168 8.00002 19.2502 8.08368 19.0835 8.08368C18.9169 8.08368 18.7501 8.00024 18.5835 7.83368C16.4169 5.41709 13.2504 4.08377 10.0005 4.08368C6.75049 4.08368 3.5835 5.41701 1.3335 7.83368C1.0835 8.08346 0.583496 8.08346 0.333496 7.83368C0.0835504 7.58373 0.0836592 7.08373 0.333496 6.83368C2.8335 4.16701 6.33382 2.66669 10.0005 2.66669Z" fill="#200040"/>
</svg>
