<svg width="20" height="20" viewBox="0 0 20 20" fill="none" xmlns="http://www.w3.org/2000/svg">
<g clip-path="url(#clip0_18_964)">
<path d="M0.333984 0.333191C0.584083 0.0834885 1.08408 0.0832901 1.33398 0.333191L4.66699 3.83319C6.33361 3.16657 8.08372 2.75018 9.91699 2.75018C13.5836 2.75023 17.084 4.24957 19.584 6.9162C19.917 7.16607 19.8336 7.66607 19.584 7.9162C19.4175 7.99945 19.2505 8.08303 19.084 8.08319C18.9174 8.08319 18.7506 7.99973 18.584 7.83319C16.4173 5.41652 13.25 4.08319 10 4.08319C8.58355 4.08321 7.16713 4.33333 5.83398 4.83319L9.41699 8.58319H9.91699C12.0836 8.58324 14.0834 9.50022 15.5 11.0002C15.8333 11.2502 15.75 11.7502 15.5 12.0002C15.3334 12.0835 15.1666 12.1662 15 12.1662C14.8334 12.1661 14.6666 12.0828 14.5 11.9162C13.5834 10.8331 12.3332 10.2502 11 10.0002L19.667 18.6662C20.0002 18.9161 20.0002 19.4163 19.584 19.5832C19.4175 19.6664 19.2505 19.75 19.084 19.7502C18.9174 19.7502 18.7506 19.7497 18.584 19.5832L8.75 9.75018C8.74595 9.75013 8.66699 9.7474 8.66699 9.6662L0.333984 1.33319C0.0839843 1.08319 0.0839843 0.583191 0.333984 0.333191ZM10 14.4162C10.75 14.4162 11.4169 14.9999 11.417 15.8332C11.417 16.5832 10.75 17.2502 10 17.2502C9.25007 17.2501 8.58398 16.5831 8.58398 15.8332C8.58405 15.0833 9.2501 14.4163 10 14.4162ZM5.41699 10.0002C5.75033 9.75018 6.16699 9.83319 6.41699 10.0832C6.58366 10.4165 6.58333 10.8332 6.25 11.0832C5.91675 11.3331 5.66693 11.5832 5.41699 11.8332C5.33369 11.9998 5.08366 12.0831 4.91699 12.0832C4.75033 12.0832 4.58366 12.0829 4.41699 11.9162C4.16713 11.6662 4.16704 11.1662 4.41699 10.9162C4.75023 10.583 5.08376 10.2501 5.41699 10.0002ZM1.25 6.00018C1.5 5.75018 2 5.75018 2.25 6.00018C2.49995 6.33351 2.50031 6.7502 2.16699 7.00018L1.41699 7.75018C1.33363 7.91672 1.08362 8.00013 0.916992 8.00018C0.750335 8.00018 0.58365 7.99983 0.416992 7.83319C0.166992 7.58319 0.166992 7.08319 0.416992 6.83319C0.497404 6.75277 0.577945 6.66358 0.661133 6.57147C0.836439 6.37736 1.02409 6.16966 1.25 6.00018Z" fill="#200040"/>
</g>
<defs>
<clipPath id="clip0_18_964">
<rect width="20" height="20" fill="white"/>
</clipPath>
</defs>
</svg>
