<svg width="20" height="20" viewBox="0 0 20 20" fill="none" xmlns="http://www.w3.org/2000/svg">
<g clip-path="url(#clip0_18_889)">
<path d="M9.1665 13.4164C10.9164 13.4164 12.4163 14.8332 12.4165 16.6664C12.4165 18.4997 10.9165 19.9164 9.1665 19.9164C7.74998 19.9164 6.50029 19.0834 6.0835 17.7503C5.91687 17.3338 6.16631 17.0001 6.49951 16.8333C6.91618 16.6667 7.24984 16.917 7.4165 17.2503C7.6666 18.0002 8.4166 18.5003 9.1665 18.5003C10.1665 18.5003 10.9995 17.6664 10.9995 16.6664C10.9993 15.6665 10.1664 14.8333 9.1665 14.8333H0.833496C0.500163 14.8333 0.166504 14.583 0.166504 14.1664C0.166634 13.7498 0.416938 13.4164 0.833496 13.4164H9.1665ZM14.1665 2.66635C16.3331 2.66635 18.1663 4.41651 18.1665 6.66635C18.1665 7.66635 17.8332 8.58334 17.1665 9.33334C18.6664 9.58333 19.8334 10.9165 19.8335 12.6664C19.8335 14.4996 18.3334 15.9162 16.5835 15.9164C15.1669 15.9164 13.9162 15.0835 13.4995 13.7503C13.3328 13.3337 13.5832 13 13.9165 12.8333C14.3332 12.6667 14.6668 12.917 14.8335 13.2503C15.0836 14.0001 15.8336 14.5003 16.5835 14.5003C17.5834 14.5002 18.4165 13.6662 18.4165 12.6664C18.4163 11.6666 17.5832 10.8335 16.5835 10.8333H9.1665C8.83317 10.8333 8.49951 10.4997 8.49951 10.1664C8.49967 9.83313 8.74997 9.50034 9.1665 9.50034H14.0835C15.5833 9.50017 16.7495 8.33323 16.7495 6.83334C16.7495 5.33346 15.5 4.16653 14.0835 4.16635C12.917 4.16635 11.917 4.83325 11.5835 5.91635C11.5835 5.91635 11.4995 6.25034 11.4995 6.75034C11.4993 7.08345 11.1666 7.41613 10.8335 7.41635C10.5002 7.41635 10.1667 7.16681 10.1665 6.75034C10.1665 6.18812 10.2602 5.76607 10.3071 5.55502C10.3228 5.48472 10.3335 5.43718 10.3335 5.41635C10.9169 3.74991 12.4166 2.66635 14.1665 2.66635ZM5.8335 9.25034C6.16663 9.2505 6.49934 9.50002 6.49951 9.91635C6.49951 10.3329 6.24997 10.6662 5.8335 10.6664H0.833496C0.416937 10.6664 0.166634 10.4168 0.166504 10.0003C0.166504 9.58367 0.416829 9.25034 0.833496 9.25034H5.8335ZM5.74951 0.0833435C7.58285 0.0833435 8.99951 1.50001 8.99951 3.33334C8.99951 5.16668 7.49951 6.58334 5.74951 6.58334H0.833496C0.416829 6.58334 0.166504 6.25001 0.166504 5.83334C0.166504 5.41668 0.41683 5.16635 0.833496 5.16635H5.74951C6.74951 5.16635 7.5835 4.33334 7.5835 3.33334C7.5835 2.33334 6.74951 1.50034 5.74951 1.50034C4.99964 1.50048 4.33346 2.00044 4.0835 2.75034C3.91681 3.0836 3.58312 3.333 3.1665 3.16635C2.83329 3.08299 2.58336 2.66687 2.6665 2.25034C3.16647 1.00043 4.33299 0.0834842 5.74951 0.0833435Z" fill="#200040"/>
</g>
<defs>
<clipPath id="clip0_18_889">
<rect width="20" height="20" fill="white"/>
</clipPath>
</defs>
</svg>
