<svg width="20" height="20" viewBox="0 0 20 20" fill="none" xmlns="http://www.w3.org/2000/svg">
<path d="M16.666 2.33325C16.916 2.08331 17.416 2.08341 17.666 2.33325C17.916 2.58325 17.916 3.08325 17.666 3.33325L11 10.0002L17.5 16.5002C17.7497 16.7504 17.7499 17.2504 17.5 17.5002C17.3334 17.5835 17.1666 17.6662 17 17.6663C16.8334 17.6663 16.6666 17.6666 16.5 17.5002L9.91602 10.9163L3.33301 17.5002C3.16638 17.5836 2.99963 17.6663 2.83301 17.6663C2.6664 17.6663 2.49962 17.6667 2.33301 17.5002C2.08306 17.2503 2.08317 16.7503 2.33301 16.5002L8.91602 9.91626L2.33301 3.33325C2.08305 3.08329 2.08285 2.66656 2.41602 2.33325C2.66596 2.08331 3.16596 2.08341 3.41602 2.33325L10 9.00024L16.666 2.33325Z" fill="#200040"/>
</svg>
