<svg width="20" height="20" viewBox="0 0 20 20" fill="none" xmlns="http://www.w3.org/2000/svg">
<g clip-path="url(#clip0_11_478)">
<path d="M10 0.083252C15.4165 0.0834326 19.916 4.58369 19.916 10.0002C19.9158 15.4167 15.4164 19.9161 10 19.9163C4.58344 19.9163 0.0831884 15.4168 0.0830078 10.0002C0.0830078 4.58358 4.58333 0.083252 10 0.083252ZM10 1.50024C5.33333 1.50024 1.5 5.33358 1.5 10.0002C1.50018 14.6668 5.33344 18.5002 10 18.5002C14.6664 18.5001 18.4998 14.6667 18.5 10.0002C18.5 5.33369 14.6665 1.50042 10 1.50024ZM6.75 6.75024C7 6.41691 7.5 6.41691 7.75 6.75024L10 9.00024L12.25 6.75024C12.5 6.50025 13 6.50024 13.25 6.75024C13.4997 7.00028 13.4999 7.41706 13.25 7.75024L11 10.0002L13.25 12.2502C13.4997 12.5004 13.4999 13.0004 13.25 13.2502C13.0834 13.3335 12.9166 13.4162 12.75 13.4163C12.5833 13.4163 12.4167 13.3329 12.25 13.1663L10 10.9163L7.75 13.1663C7.58344 13.3328 7.41656 13.4162 7.25 13.4163C7.08344 13.4163 6.91656 13.4166 6.75 13.2502C6.5 13.0002 6.5 12.5002 6.75 12.2502L9 10.0002L6.75 7.75024C6.5 7.50024 6.5 7.00024 6.75 6.75024Z" fill="#200040"/>
</g>
<defs>
<clipPath id="clip0_11_478">
<rect width="20" height="20" fill="white"/>
</clipPath>
</defs>
</svg>
