<svg width="20" height="20" viewBox="0 0 20 20" fill="none" xmlns="http://www.w3.org/2000/svg">
<g clip-path="url(#clip0_111_13)">
<path d="M10 0.0834961C15.4165 0.0836767 19.916 4.58393 19.916 10.0005C19.9158 15.4169 15.4164 19.9163 10 19.9165C4.58344 19.9165 0.0831884 15.417 0.0830078 10.0005C0.0830078 4.58382 4.58333 0.0834961 10 0.0834961ZM7.75 6.75049C7.5 6.41715 7 6.41715 6.75 6.75049C6.50024 7.00057 6.50008 7.50057 6.75 7.75049L9 10.0005L6.75 12.2505C6.50024 12.5006 6.50008 13.0006 6.75 13.2505C6.91658 13.4169 7.08342 13.4165 7.25 13.4165C7.41667 13.4165 7.58333 13.3332 7.75 13.1665L10 10.9165L12.25 13.1665C12.4167 13.3332 12.5833 13.4165 12.75 13.4165C12.9166 13.4165 13.0834 13.3338 13.25 13.2505C13.4999 13.0006 13.4998 12.5006 13.25 12.2505L11 10.0005L13.25 7.75049C13.4999 7.41726 13.4998 7.00052 13.25 6.75049C13 6.50049 12.5 6.50049 12.25 6.75049L10 9.00049L7.75 6.75049Z" fill="#200040"/>
</g>
<defs>
<clipPath id="clip0_111_13">
<rect width="20" height="20" fill="white"/>
</clipPath>
</defs>
</svg>
