<svg width="20" height="20" viewBox="0 0 20 20" fill="none" xmlns="http://www.w3.org/2000/svg">
<g clip-path="url(#clip0_11_476)">
<path d="M15.834 0.166687C18.0838 0.166857 19.834 1.9168 19.834 4.16669V15.8337C19.8338 18.0001 18.0837 19.8335 15.834 19.8337H4.16699C2.00043 19.8337 0.16717 18.0835 0.166992 15.8337V4.16669C0.166992 1.91669 1.91699 0.166687 4.16699 0.166687H15.834ZM4.16699 1.58368C2.75033 1.58368 1.58398 2.75002 1.58398 4.16669V15.8337C1.58416 17.2502 2.75044 18.4167 4.16699 18.4167H15.834C17.2504 18.4165 18.4168 17.2501 18.417 15.8337V4.16669C18.417 2.75013 17.2505 1.58386 15.834 1.58368H4.16699ZM12.25 6.74969C12.4999 6.4998 12.9999 6.50002 13.25 6.74969C13.5 6.99969 13.5 7.49969 13.25 7.74969L11 9.99969L13.25 12.2497C13.5 12.4997 13.5 12.9997 13.25 13.2497C13.0834 13.333 12.9166 13.4167 12.75 13.4167C12.5834 13.4167 12.4166 13.4163 12.25 13.2497L10 10.9997L7.75 13.2497C7.58338 13.333 7.41662 13.4167 7.25 13.4167C7.08344 13.4167 6.91656 13.4163 6.75 13.2497C6.50033 12.9996 6.50011 12.4996 6.75 12.2497L9 9.99969L6.75 7.74969C6.50033 7.49959 6.50011 6.99959 6.75 6.74969C7.08319 6.4998 7.49996 6.50002 7.75 6.74969L10 8.99969L12.25 6.74969Z" fill="#200040"/>
</g>
<defs>
<clipPath id="clip0_11_476">
<rect width="20" height="20" fill="white"/>
</clipPath>
</defs>
</svg>
