<svg width="20" height="20" viewBox="0 0 20 20" fill="none" xmlns="http://www.w3.org/2000/svg">
<path d="M13.4168 1.16664C14 1.16669 14.5835 1.49978 14.9168 1.99965C15.2501 2.49965 15.2498 3.16664 14.9998 3.66664L12.9998 7.41664H15.6668C16.3333 7.4167 16.9997 7.83324 17.2498 8.49965C17.4998 9.16632 17.3335 9.83363 16.9168 10.3336L8.8338 18.3336C8.5838 18.5836 8.33315 18.7496 7.99982 18.7496C7.75009 18.7496 7.58346 18.6669 7.3338 18.5836C6.8338 18.2503 6.66713 17.75 6.8338 17.1666L8.3338 12.5836H4.49982C3.91673 12.5836 3.4171 12.3333 3.0838 11.8336C2.7505 11.417 2.6672 10.8336 2.8338 10.3336L5.41681 2.91664C5.75016 1.83334 6.75016 1.16664 7.91681 1.16664H13.4168ZM8.16681 2.58363C7.66681 2.58363 7.16648 2.91664 6.99982 3.41664L4.24982 10.8336V11.0836C4.25002 11.1666 4.33349 11.1666 4.49982 11.1666H9.0838C9.33354 11.1667 9.58325 11.2501 9.74982 11.4996C9.91641 11.7495 9.91681 11.9998 9.91681 12.2496L8.49982 16.7496L15.9998 9.33363C16.0831 9.2503 16.0838 9.08298 16.0838 8.99965C16.0836 8.9165 15.9999 8.83379 15.8338 8.83363H12.2498C11.9166 8.83357 11.6665 8.66659 11.4998 8.41664C11.3333 8.16675 11.3334 7.83357 11.4998 7.58363L13.9168 3.08363C14.0001 2.91697 13.9168 2.83298 13.9168 2.74965C13.9166 2.66645 13.8332 2.58368 13.6668 2.58363H8.16681Z" fill="#200040"/>
</svg>
