<svg width="20" height="20" viewBox="0 0 20 20" fill="none" xmlns="http://www.w3.org/2000/svg">
<g clip-path="url(#clip0_11_520)">
<path d="M0.333099 0.333176C0.583127 0.0833156 1.08313 0.0832596 1.3331 0.333176L6.41611 5.41716L9.16611 1.00017C9.49944 0.333501 10.3334 0.16716 11.0001 0.41716C11.7497 0.750571 12.0827 1.41733 11.9161 2.16716L10.8331 6.83318H14.1661C14.9994 6.83318 15.7494 7.25017 16.1661 8.00017C16.5828 8.66683 16.5828 9.50017 16.1661 10.2502L14.3331 13.3332L19.6661 18.6672C19.9994 18.9172 19.9994 19.4172 19.6661 19.6672C19.4996 19.7504 19.3326 19.8332 19.1661 19.8332C18.9996 19.8332 18.8327 19.8336 18.6661 19.6672L0.333099 1.33318C0.0831414 1.08316 0.0831134 0.583162 0.333099 0.333176ZM9.75009 13.5002C10.0831 13.5837 10.3332 13.9168 10.2501 14.3332L9.3331 18.2502C9.3331 18.3334 9.33307 18.417 9.41611 18.4172C9.49944 18.4172 9.5831 18.3332 9.5831 18.3332L11.0831 15.9172C11.3331 15.5838 11.7498 15.5005 12.0831 15.6672C12.4161 15.8339 12.4997 16.25 12.2501 16.5832L10.7501 19.0002C10.5002 19.5 9.99996 19.75 9.50009 19.7502C9.33342 19.7502 9.08277 19.7505 8.91611 19.6672C8.16628 19.4172 7.83362 18.667 8.00009 17.9172L8.91611 14.0002C8.99944 13.6668 9.33343 13.4168 9.75009 13.5002ZM4.3331 8.83318C4.58311 8.49997 4.99981 8.41653 5.3331 8.58318C5.66638 8.83313 5.74965 9.24987 5.5831 9.58318L5.00009 10.5002C4.75009 10.8335 4.91676 11.3338 5.00009 11.4172C5.00967 11.4268 5.02132 11.44 5.03525 11.4552C5.14315 11.5733 5.3819 11.8332 5.75009 11.8332H8.41611C8.74944 11.8332 9.0831 12.0835 9.0831 12.5002C9.08301 12.9167 8.74969 13.1668 8.3331 13.2502H5.75009C4.91678 13.2502 4.16676 12.8331 3.75009 12.0832C3.33342 11.3332 3.33342 10.5002 3.75009 9.75017L4.3331 8.83318ZM10.5001 1.75017C10.5001 1.66683 10.4161 1.75017 10.4161 1.75017L7.50009 6.41716L13.3331 12.2502L15.0001 9.50017C15.2497 9.16723 15.0835 8.83399 15.0001 8.66716C14.9904 8.6575 14.9781 8.64357 14.964 8.6281C14.8561 8.51004 14.618 8.25036 14.2501 8.25017H10.1661C9.91636 8.25011 9.66671 8.16667 9.50009 7.91716C9.33352 7.6673 9.24999 7.41702 9.3331 7.16716L10.5831 1.83318C10.583 1.82906 10.5808 1.75043 10.5001 1.75017Z" fill="#200040"/>
</g>
<defs>
<clipPath id="clip0_11_520">
<rect width="20" height="20" fill="white"/>
</clipPath>
</defs>
</svg>
