<svg width="20" height="20" viewBox="0 0 20 20" fill="none" xmlns="http://www.w3.org/2000/svg">
<path d="M8.33301 0.0833282C10.583 0.0833282 12.5837 0.916987 14.167 2.50032C17.1667 5.58367 17.3329 10.4168 14.583 13.5833L19.667 18.6663C19.917 18.9163 19.917 19.417 19.667 19.7503C19.5004 19.8336 19.3336 19.9162 19.167 19.9163C19.0004 19.9163 18.8336 19.9167 18.667 19.7503L13.583 14.6663C12.1663 15.9163 10.2497 16.5833 8.33301 16.5833C6.08314 16.5832 4.08326 15.7496 2.5 14.1663C-0.66645 10.9164 -0.66645 5.75027 2.5 2.50032C4.08326 1.00039 6.08314 0.0834171 8.33301 0.0833282ZM8.33301 1.50032C6.4998 1.50041 4.83325 2.25039 3.5 3.50032C0.83355 6.16695 0.83355 10.4997 3.5 13.1663C4.83325 14.4163 6.4998 15.0832 8.33301 15.0833C10.1663 15.0833 11.917 14.3333 13.167 13.0833C15.8334 10.5001 15.8333 6.16696 13.167 3.50032C11.8337 2.16699 10.1663 1.50032 8.33301 1.50032ZM10.833 7.58333C11.2497 7.58333 11.5 7.91666 11.5 8.33333C11.5 8.74999 11.2497 9.08333 10.833 9.08333H5.83301C5.49978 9.08311 5.16699 8.74986 5.16699 8.33333C5.16699 7.91677 5.41654 7.5835 5.83301 7.58333H10.833Z" fill="#200040"/>
</svg>
