<svg width="20" height="20" viewBox="0 0 20 20" fill="none" xmlns="http://www.w3.org/2000/svg">
<path d="M2.5 2.5C5.75 -0.666667 10.917 -0.666667 14.167 2.5C17.1668 5.58333 17.3329 10.4164 14.583 13.583L19.667 18.667C19.9166 18.9171 19.9168 19.4168 19.667 19.75C19.5004 19.8333 19.3336 19.9169 19.167 19.917C19.0004 19.917 18.8336 19.9165 18.667 19.75L13.583 14.667C12.1664 15.9168 10.2495 16.583 8.33301 16.583C6.08322 16.5829 4.08323 15.7501 2.5 14.167C-0.666667 10.917 -0.666667 5.75 2.5 2.5ZM8.33301 1.5C6.58312 1.50008 4.83325 2.16675 3.5 3.5C0.833333 6.16667 0.833333 10.5003 3.5 13.167C4.83323 14.4168 6.49988 15.0829 8.33301 15.083C10.1663 15.083 11.917 14.333 13.167 13.083C15.8333 10.4997 15.8334 6.16657 13.167 3.5C11.8337 2.16667 10.083 1.5 8.33301 1.5ZM8.33301 5.08301C8.66625 5.08301 8.99983 5.41649 9 5.83301V7.58301H10.833C11.2497 7.58301 11.5 7.83333 11.5 8.25C11.5 8.66667 11.2497 9 10.833 9H9V10.833C9 11.2497 8.66634 11.583 8.33301 11.583C7.99978 11.5828 7.66699 11.2495 7.66699 10.833V9.16699H5.83301C5.49987 9.16678 5.16717 8.83337 5.16699 8.41699C5.16699 8.00043 5.41654 7.66717 5.83301 7.66699H7.58301V5.83301C7.58322 5.41663 7.99982 5.08322 8.33301 5.08301Z" fill="#200040"/>
</svg>
