<svg width="20" height="20" viewBox="0 0 20 20" fill="none" xmlns="http://www.w3.org/2000/svg">
<g clip-path="url(#clip0_17_848)">
<path d="M4.4165 0.16711C5.08316 0.25045 5.66684 0.583134 6.0835 1.08313L7.6665 3.16711C8.41628 4.00044 8.33311 5.25053 7.6665 6.16711L6.49951 7.58313C6.83284 8.24977 7.66625 9.9168 8.99951 11.2501C10.3328 12.5835 11.7498 13.2501 12.4165 13.5001L13.8335 12.3331C14.7501 11.6667 15.9999 11.6666 16.9165 12.3331L18.9165 13.9171C19.4163 14.3337 19.7501 14.9166 19.8335 15.5831C19.9168 16.2497 19.75 16.8332 19.3335 17.3331L18.7495 18.0001C17.7495 19.1666 16.2494 19.8331 14.7495 19.8331H14.1665C11.9998 19.5831 8.66648 18.5831 5.1665 15.0831C1.66682 11.5834 0.499919 8.16709 0.166504 5.91711C-0.0834921 4.08381 0.666552 2.16679 2.1665 1.00012L2.6665 0.583126C3.16649 0.249828 3.74987 0.0837815 4.4165 0.16711ZM4.1665 1.50012C3.91652 1.50012 3.7495 1.58346 3.49951 1.75012L2.99951 2.16711C1.91648 3.00047 1.41685 4.33396 1.5835 5.66711C1.91692 7.75041 3.00017 10.8334 6.1665 14.0831C9.4165 17.3331 12.4168 18.2501 14.3335 18.5001C15.5833 18.6666 16.8332 18.1668 17.6665 17.1671L18.2495 16.5001C18.4161 16.2502 18.4994 16.0002 18.4995 15.6671C18.4162 15.4172 18.3333 15.1668 18.0835 15.0001L16.0835 13.4171C15.6668 13.0838 15.1662 13.0838 14.7495 13.4171L12.9995 14.7501C12.8328 14.9166 12.4994 15.0004 12.2495 14.9171C11.8323 14.8335 9.83248 14.0831 7.99951 12.2501C6.08293 10.4168 5.16618 8.16678 4.99951 7.75012C4.91619 7.50015 4.99989 7.16681 5.1665 7.00012L6.5835 5.25012C6.83339 4.8336 6.91643 4.33368 6.5835 3.91711L4.99951 1.91711C4.83291 1.66721 4.58339 1.58342 4.3335 1.50012H4.1665ZM16.1665 0.250118C16.4165 0.000118256 16.9165 0.000118256 17.1665 0.250118L19.1665 2.25012C19.4998 2.66677 19.7495 3.16681 19.7495 3.75012C19.7495 4.3334 19.5831 4.83348 19.1665 5.25012L17.2495 7.25012C17.083 7.3334 16.9161 7.41711 16.7495 7.41711C16.583 7.41711 16.4161 7.41667 16.2495 7.25012C15.9997 7.00016 15.9998 6.50016 16.2495 6.25012L17.9995 4.50012H11.4165C11 4.5001 10.6668 4.00044 10.6665 3.66711C10.6665 3.33378 10.9168 3.00012 11.3335 3.00012H17.9165L16.1665 1.25012C15.9165 1.00014 15.9166 0.500142 16.1665 0.250118Z" fill="#200040"/>
</g>
<defs>
<clipPath id="clip0_17_848">
<rect width="20" height="20" fill="white"/>
</clipPath>
</defs>
</svg>
