<svg width="20" height="20" viewBox="0 0 20 20" fill="none" xmlns="http://www.w3.org/2000/svg">
<g clip-path="url(#clip0_11_35)">
<path d="M17.0834 9.24966C18.5833 9.24971 19.833 10.5003 19.9164 12.0836V16.5836C19.9162 18.1668 18.6666 19.4166 17.0834 19.4167H11.0834C9.50014 19.4167 8.25053 18.1668 8.25037 16.5836V12.0836C8.25037 10.5003 9.50004 9.24966 11.0834 9.24966H17.0834ZM2.08337 1.16666C3.25002 0.50003 4.58372 0.500327 5.75037 1.08365L7.16638 1.74966C7.49971 1.91633 7.8337 1.99966 8.25037 1.99966H16.0004C18.1667 1.99988 20.0002 3.74997 20.0004 5.99966V8.16666C20.0004 8.49988 19.6668 8.83343 19.2504 8.83365C18.8337 8.83365 18.5004 8.58332 18.5004 8.16666V6.91666H1.58337V14.3336C1.58354 15.7501 2.74993 16.9165 4.16638 16.9167H5.66638C6.08304 16.9167 6.41637 17.3333 6.41638 17.6667C6.41638 18 6.08305 18.3336 5.66638 18.3336H4.16638C1.91661 18.3335 0.166547 16.5001 0.166382 14.3336V3.91666C0.333049 2.74999 1.00004 1.74999 2.08337 1.16666ZM11.0004 10.6667C10.2504 10.6667 9.58337 11.3336 9.58337 12.0836V16.5836C9.58356 17.3335 10.2505 17.9997 11.0004 17.9997H17.0004C17.7501 17.9994 18.4162 17.3334 18.4164 16.5836V12.0836C18.4164 11.3338 17.7502 10.6669 17.0004 10.6667H11.0004ZM14.0834 12.9997C14.8333 12.9997 15.4164 13.5837 15.4164 14.3336C15.4162 15.0835 14.8332 15.6666 14.0834 15.6667C13.3335 15.6667 12.7505 15.0835 12.7504 14.3336C12.7504 13.5836 13.3334 12.9997 14.0834 12.9997ZM5.08337 2.24966C4.33345 1.91638 3.5003 1.91709 2.75037 2.33365C2.0837 2.75032 1.66671 3.33365 1.58337 4.08365V5.33365H18.4164C18.0831 4.25034 17.0833 3.33369 15.8334 3.33365H8.25037C7.66716 3.33365 7.00033 3.16657 6.50037 2.91666L5.08337 2.24966Z" fill="#200040"/>
</g>
<defs>
<clipPath id="clip0_11_35">
<rect width="20" height="20" fill="white"/>
</clipPath>
</defs>
</svg>
