<svg width="20" height="20" viewBox="0 0 20 20" fill="none" xmlns="http://www.w3.org/2000/svg">
<path d="M10.1663 0.083252C10.3873 0.083252 10.5998 0.171112 10.7561 0.327393L16.5891 6.1604C16.7454 6.31668 16.8333 6.52923 16.8333 6.75024V15.9163C16.8333 16.5793 16.5697 17.216 16.1008 17.6848C15.632 18.1535 14.9961 18.4163 14.3333 18.4163H4.33325C3.67036 18.4163 3.03448 18.1535 2.56567 17.6848C2.09683 17.216 1.83325 16.5793 1.83325 15.9163V2.58325C1.83325 1.92021 2.09683 1.28451 2.56567 0.815674C3.03451 0.346832 3.67021 0.083252 4.33325 0.083252H10.1663ZM7.75317 12.2834C7.00292 12.2834 6.36275 12.8595 6.36255 13.6829C6.36255 14.5064 7.00281 15.0833 7.75317 15.0833C8.50339 15.0831 9.14282 14.5063 9.14282 13.6829C9.14262 12.8597 8.50327 12.2836 7.75317 12.2834ZM10.7668 12.2834C10.0499 12.2835 9.38131 12.8558 9.3811 13.6829C9.3811 14.5101 10.0498 15.0832 10.7668 15.0833C11.251 15.0833 11.6098 14.8888 11.7688 14.6194L11.5911 14.1067C11.4579 14.29 11.1841 14.469 10.8147 14.469C10.3158 14.4689 9.95728 14.1619 9.95728 13.6829C9.95747 13.204 10.3159 12.8968 10.8147 12.8967C11.1622 12.8967 11.4396 13.0732 11.5764 13.2454L11.7502 12.7434C11.5986 12.4889 11.2325 12.2834 10.7668 12.2834ZM12.0305 12.3557L13.0168 13.6584L11.969 15.0432H12.7864L13.4104 14.1897L14.0295 15.0432H14.8342L13.7815 13.6624L14.7639 12.3557H13.9543L13.3967 13.1272L12.8313 12.3557H12.0305ZM3.83325 15.0266H4.67212C5.50381 15.0266 6.12524 14.5289 6.12524 13.6829C6.12506 12.8259 5.51477 12.3391 4.67212 12.3391H3.83325V15.0266ZM7.75317 12.8967C8.21123 12.8969 8.56548 13.219 8.56567 13.6829C8.56567 14.1469 8.21135 14.4688 7.75317 14.469C7.29482 14.469 6.9397 14.147 6.9397 13.6829C6.93989 13.2189 7.29495 12.8967 7.75317 12.8967ZM4.82056 12.9534C5.24532 12.9536 5.54791 13.2714 5.5481 13.6829C5.5481 14.1244 5.23068 14.4132 4.82056 14.4133H4.39478V12.9534H4.82056ZM11.0002 5.91626H13.9885L11.0002 2.92798V5.91626Z" fill="#0058DD"/>
</svg>
