<svg width="20" height="20" viewBox="0 0 20 20" fill="none" xmlns="http://www.w3.org/2000/svg">
<path d="M10.1663 0.083252C10.3873 0.083252 10.5998 0.171112 10.7561 0.327393L16.5891 6.1604C16.7454 6.31668 16.8333 6.52923 16.8333 6.75024V15.9163C16.8333 16.5793 16.5697 17.216 16.1008 17.6848C15.632 18.1535 14.9961 18.4163 14.3333 18.4163H4.33325C3.67036 18.4163 3.03448 18.1535 2.56567 17.6848C2.09683 17.216 1.83325 16.5793 1.83325 15.9163V2.58325C1.83325 1.92021 2.09683 1.28451 2.56567 0.815674C3.03451 0.346832 3.67021 0.083252 4.33325 0.083252H10.1663ZM11.0002 5.91626H13.9885L11.0002 2.92798V5.91626Z" fill="#0058DD"/>
</svg>
