<svg width="20" height="20" viewBox="0 0 20 20" fill="none" xmlns="http://www.w3.org/2000/svg">
<path d="M10.1663 0.083252C10.3873 0.083252 10.5998 0.171112 10.7561 0.327393L16.5891 6.1604C16.7454 6.31668 16.8333 6.52923 16.8333 6.75024V15.9163C16.8333 16.5793 16.5697 17.216 16.1008 17.6848C15.632 18.1535 14.9961 18.4163 14.3333 18.4163H4.33325C3.67036 18.4163 3.03448 18.1535 2.56567 17.6848C2.09683 17.216 1.83325 16.5793 1.83325 15.9163V2.58325C1.83325 1.92021 2.09683 1.28451 2.56567 0.815674C3.03451 0.346832 3.67021 0.083252 4.33325 0.083252H10.1663ZM9.51685 11.0833C8.47669 11.0833 7.5901 11.9068 7.59009 13.0833C7.59009 14.2597 8.47668 15.0833 9.51685 15.0833C10.5569 15.0831 11.4436 14.2596 11.4436 13.0833C11.4436 11.9069 10.5569 11.0834 9.51685 11.0833ZM13.6946 11.0833C12.7006 11.0833 11.7727 11.9015 11.7727 13.0833C11.7727 14.265 12.7006 15.0832 13.6946 15.0833C14.3658 15.0833 14.8629 14.8052 15.0833 14.4202L14.8372 13.6877C14.6526 13.9497 14.2733 14.2063 13.761 14.2063C13.0694 14.2062 12.5725 13.7676 12.5725 13.0833C12.5725 12.3989 13.0694 11.9603 13.761 11.9602C14.2425 11.9602 14.627 12.2114 14.8167 12.4573L15.0579 11.7415C14.8478 11.3778 14.3402 11.0833 13.6946 11.0833ZM4.08325 11.1633V15.0032H5.24634C6.39923 15.0032 7.26001 14.2918 7.26001 13.0833C7.26 11.8587 6.41459 11.1633 5.24634 11.1633H4.08325ZM9.51685 11.9602C10.1521 11.9603 10.6438 12.4203 10.6438 13.0833C10.6438 13.7463 10.1521 14.2062 9.51685 14.2063C8.88147 14.2063 8.38892 13.7464 8.38892 13.0833C8.38893 12.4202 8.88148 11.9602 9.51685 11.9602ZM5.45142 12.0403C6.04063 12.0403 6.46117 12.4951 6.46118 13.0833C6.46118 13.7142 6.02014 14.1262 5.45142 14.1262H4.86255V12.0403H5.45142ZM11.0002 5.91626H13.9885L11.0002 2.92798V5.91626Z" fill="#0058DD"/>
</svg>
