<svg width="20" height="20" viewBox="0 0 20 20" fill="none" xmlns="http://www.w3.org/2000/svg">
<path d="M10.1663 0.083252C10.3873 0.083252 10.5998 0.171112 10.7561 0.327393L16.5891 6.1604C16.7454 6.31668 16.8333 6.52923 16.8333 6.75024V15.9163C16.8333 16.5793 16.5697 17.216 16.1008 17.6848C15.632 18.1535 14.9961 18.4163 14.3333 18.4163H4.33325C3.67036 18.4163 3.03448 18.1535 2.56567 17.6848C2.09683 17.216 1.83325 16.5793 1.83325 15.9163V2.58325C1.83325 1.92021 2.09683 1.28451 2.56567 0.815674C3.03451 0.346832 3.67021 0.083252 4.33325 0.083252H10.1663ZM4.33325 11.0833V15.0833H5.25317V13.6067H5.60474C6.45191 13.6065 7.04517 13.0832 7.04517 12.3479C7.04517 11.5847 6.42108 11.0833 5.5979 11.0833H4.33325ZM7.6731 11.0833V15.0833H9.04712C10.4089 15.0832 11.426 14.3422 11.426 13.0833C11.426 11.8076 10.427 11.0833 9.04712 11.0833H7.6731ZM12.1184 15.0833H13.0383V13.4846H14.2122V12.5706H13.0383V11.9973H14.3333V11.0833H12.1184V15.0833ZM9.28931 11.9973C9.98521 11.9974 10.4817 12.4705 10.4817 13.0833C10.4817 13.7405 9.96103 14.1691 9.28931 14.1692H8.59302V11.9973H9.28931ZM5.70728 11.969C5.96752 11.969 6.1311 12.1195 6.1311 12.3479C6.1311 12.5819 5.95542 12.7209 5.70728 12.7209H5.25317V11.969H5.70728ZM11.0002 5.91626H13.9885L11.0002 2.92798V5.91626Z" fill="#0058DD"/>
</svg>
