<svg width="20" height="20" viewBox="0 0 20 20" fill="none" xmlns="http://www.w3.org/2000/svg">
<path d="M10.1663 0.083252C10.3873 0.083252 10.5998 0.171112 10.7561 0.327393L16.5891 6.1604C16.7454 6.31668 16.8333 6.52923 16.8333 6.75024V15.9163C16.8333 16.5793 16.5697 17.216 16.1008 17.6848C15.632 18.1535 14.9961 18.4163 14.3333 18.4163H4.33325C3.67036 18.4163 3.03448 18.1535 2.56567 17.6848C2.09683 17.216 1.83325 16.5793 1.83325 15.9163V2.58325C1.83325 1.92021 2.09683 1.28451 2.56567 0.815674C3.03451 0.346832 3.67021 0.083252 4.33325 0.083252H10.1663ZM4.33325 11.0833V11.9856H5.45532V15.0833H6.28931V11.9856H7.4104V11.0833H4.33325ZM7.62134 11.0833L8.85278 13.0217L7.54321 15.0833H8.56567L9.34497 13.8127L10.1184 15.0833H11.1243L9.80884 13.0276L11.0354 11.0833H10.0247L9.32837 12.2307L8.62134 11.0833H7.62134ZM11.2561 11.9856H12.3772V15.0833H13.2112V11.9856H14.3333V11.0833H11.2561V11.9856ZM11.0002 5.91626H13.9885L11.0002 2.92798V5.91626Z" fill="#0058DD"/>
</svg>
