<svg width="20" height="20" viewBox="0 0 20 20" fill="none" xmlns="http://www.w3.org/2000/svg">
<path d="M10.1663 0.083252C10.3873 0.083252 10.5998 0.171112 10.7561 0.327393L16.5891 6.1604C16.7454 6.31668 16.8333 6.52923 16.8333 6.75024V15.9163C16.8333 16.5793 16.5697 17.216 16.1008 17.6848C15.632 18.1535 14.9961 18.4163 14.3333 18.4163H4.33325C3.67036 18.4163 3.03448 18.1535 2.56567 17.6848C2.09683 17.216 1.83325 16.5793 1.83325 15.9163V2.58325C1.83325 1.92021 2.09683 1.28451 2.56567 0.815674C3.03451 0.346832 3.67021 0.083252 4.33325 0.083252H10.1663ZM12.9719 11.0833C12.2977 11.0834 11.6976 11.4256 11.6975 12.0725C11.6975 12.4415 11.9362 12.7251 12.1262 12.9016C12.3201 13.0745 12.5416 13.2292 12.7815 13.3967C12.8828 13.4674 12.9876 13.5407 13.095 13.6184C13.3032 13.768 13.3948 13.8485 13.3948 13.9661C13.3944 14.1529 13.1371 14.2063 12.9534 14.2063C12.5182 14.2061 12.0461 13.9764 11.8254 13.677L11.55 14.425C11.7094 14.7566 12.3039 15.0832 12.9475 15.0833C13.7568 15.0833 14.3333 14.6393 14.3333 13.9602C14.3332 13.495 14.0325 13.2008 13.7014 12.9602C13.4598 12.7729 13.218 12.6055 13.0217 12.47L12.9417 12.4153L12.8938 12.3811C12.7542 12.2839 12.635 12.2009 12.635 12.1096C12.6354 11.9763 12.8497 11.9602 12.9661 11.9602C13.2971 11.9602 13.7136 12.1049 13.9895 12.3508L14.1672 11.5862C13.9833 11.3456 13.5788 11.0833 12.9719 11.0833ZM4.41919 11.1633L5.78638 13.0247L4.33325 15.0032H5.46704L6.33228 13.7834L7.1897 15.0032H8.30591L6.84692 13.0295L8.20825 11.1633H7.08618L6.31372 12.2649L5.52856 11.1633H4.41919ZM8.8811 11.1633V15.0032H11.2542V14.1262H9.81372V11.1633H8.8811ZM11.0002 5.91626H13.9885L11.0002 2.92798V5.91626Z" fill="#0058DD"/>
</svg>
