<svg width="20" height="20" viewBox="0 0 20 20" fill="none" xmlns="http://www.w3.org/2000/svg">
<path d="M11.3333 0.083313C11.7499 0.083313 12.1669 0.24998 12.5002 0.583313L17.7502 5.75031C18.0001 6.00035 18.2501 6.4999 18.2502 6.91632V15.7503C18.2501 18.0002 16.4162 19.8333 14.1663 19.8333H5.00024C3.25024 19.8333 1.83325 18.4163 1.83325 16.6663V4.16632C1.83343 1.91658 3.66652 0.0834896 5.91626 0.083313H11.3333ZM5.91626 1.58331C4.41642 1.58348 3.25024 2.75041 3.25024 4.25031V16.6663C3.25024 17.583 4.00024 18.4163 5.00024 18.4163H14.1663C15.5829 18.4163 16.8333 17.25 16.8333 15.8333V8.08331H11.7502C10.8336 8.08331 10.0833 7.33299 10.0833 6.41632V1.58331H5.91626ZM8.48462 13.3294C8.7632 13.3294 9.00711 13.3945 9.21606 13.5247C9.42506 13.655 9.58728 13.8429 9.70239 14.0882C9.82054 14.3305 9.87915 14.6247 9.87915 14.97C9.87914 15.3093 9.82051 15.6016 9.70239 15.847C9.58728 16.0924 9.42509 16.2821 9.21606 16.4153C9.00712 16.5455 8.76318 16.6106 8.48462 16.6107C8.206 16.6107 7.9603 16.5455 7.74829 16.4153C7.53926 16.2821 7.37523 16.0924 7.25708 15.847C7.14202 15.6016 7.08521 15.3092 7.08521 14.97C7.08521 14.6277 7.14196 14.3336 7.25708 14.0882C7.37522 13.8428 7.53928 13.655 7.74829 13.5247C7.96031 13.3945 8.20598 13.3294 8.48462 13.3294ZM11.4944 13.3294C11.7215 13.3294 11.9305 13.3734 12.1213 13.4612C12.3121 13.5491 12.468 13.6765 12.5891 13.8431C12.7132 14.0096 12.782 14.2124 12.7942 14.4515H11.9758C11.9606 14.2973 11.912 14.1751 11.8303 14.0843C11.7485 13.9904 11.6367 13.9427 11.4944 13.9427C11.3732 13.9427 11.2623 13.9821 11.1624 14.0609C11.0654 14.1366 10.9885 14.2521 10.9309 14.4066C10.8764 14.558 10.8489 14.7459 10.8489 14.97C10.8489 15.1912 10.8764 15.379 10.9309 15.5335C10.9854 15.6849 11.0578 15.8005 11.1487 15.8792C11.2426 15.958 11.3489 15.9974 11.467 15.9974C11.5669 15.9974 11.6532 15.9771 11.7258 15.9378C11.8015 15.8954 11.862 15.8348 11.9075 15.7562C11.9559 15.6774 11.9853 15.582 11.9944 15.47H12.8118C12.7875 15.7032 12.7178 15.9058 12.6028 16.0784C12.4907 16.2481 12.3395 16.38 12.1487 16.4739C11.9578 16.5648 11.7306 16.6107 11.467 16.6107C11.1824 16.6107 10.9358 16.5436 10.7268 16.4105C10.5208 16.2742 10.3595 16.0835 10.2444 15.8382C10.1323 15.5898 10.0764 15.3002 10.0764 14.97C10.0764 14.6368 10.1342 14.3472 10.2493 14.1019C10.3644 13.8566 10.5285 13.6677 10.7405 13.5345C10.9525 13.3982 11.2036 13.3294 11.4944 13.3294ZM5.3606 13.3841C5.59975 13.3841 5.81349 13.4217 6.00122 13.4974C6.19201 13.5701 6.35428 13.6764 6.48755 13.8157C6.62079 13.952 6.72256 14.1171 6.79224 14.3109C6.86191 14.5047 6.89673 14.7219 6.89673 14.9612C6.8967 15.2033 6.86181 15.4227 6.79224 15.6194C6.72256 15.8133 6.62084 15.9819 6.48755 16.1243C6.35429 16.2636 6.19199 16.3709 6.00122 16.4466C5.81345 16.5192 5.59983 16.556 5.3606 16.556H4.29321V13.3841H5.3606ZM14.2405 14.0384L14.4045 14.4388L14.5725 14.0384L14.9221 13.3841H15.7581L14.9084 14.9241L15.7903 16.556H14.9543L14.5774 15.8421L14.4045 15.4378L14.2268 15.8382L13.8547 16.556H13.0188L13.886 14.9378L13.0413 13.3841H13.8909L14.2405 14.0384ZM8.48462 13.9427C8.36647 13.9427 8.25832 13.9839 8.16138 14.0657C8.0676 14.1445 7.9932 14.261 7.93872 14.4153C7.88419 14.5668 7.85767 14.7519 7.85767 14.97C7.85767 15.188 7.88428 15.3742 7.93872 15.5286C7.99325 15.6801 8.06747 15.7974 8.16138 15.8792C8.25832 15.958 8.36647 15.9974 8.48462 15.9974C8.60247 15.9973 8.70827 15.9577 8.802 15.8792C8.89591 15.7974 8.97013 15.6801 9.02466 15.5286C9.07916 15.3742 9.10669 15.1881 9.10669 14.97C9.10669 14.749 9.07914 14.5629 9.02466 14.4114C8.97013 14.2569 8.89591 14.1396 8.802 14.0609C8.70826 13.9824 8.60249 13.9427 8.48462 13.9427ZM5.04321 15.9427H5.3606C5.52418 15.9427 5.66257 15.9033 5.77466 15.8245C5.88973 15.7427 5.9759 15.6272 6.03345 15.4788C6.09397 15.3305 6.12423 15.158 6.12427 14.9612C6.12427 14.7643 6.09403 14.5939 6.03345 14.4515C5.97591 14.3063 5.8896 14.1942 5.77466 14.1155C5.66257 14.0368 5.52418 13.9974 5.3606 13.9974H5.04321V15.9427ZM11.5002 6.41632C11.5002 6.58299 11.6669 6.66632 11.7502 6.66632H16.6663L11.5002 1.66632V6.41632Z" fill="#200040"/>
</svg>
