<svg width="20" height="20" viewBox="0 0 20 20" fill="none" xmlns="http://www.w3.org/2000/svg">
<path d="M11.3333 0.083313C11.7499 0.083313 12.1669 0.24998 12.5002 0.583313L17.7502 5.75031C18.0001 6.00035 18.2501 6.4999 18.2502 6.91632V15.7503C18.2501 18.0002 16.4162 19.8333 14.1663 19.8333H5.00024C3.25024 19.8333 1.83325 18.4163 1.83325 16.6663V4.16632C1.83343 1.91658 3.66652 0.0834896 5.91626 0.083313H11.3333ZM5.91626 1.58331C4.41642 1.58348 3.25024 2.75041 3.25024 4.25031V16.6663C3.25024 17.583 4.00024 18.4163 5.00024 18.4163H14.1663C15.5829 18.4163 16.8333 17.25 16.8333 15.8333V8.08331H11.7502C10.8336 8.08331 10.0833 7.33299 10.0833 6.41632V1.58331H5.91626ZM9.95435 12.8704C10.3111 12.8704 10.6233 12.9537 10.8909 13.1204C11.1583 13.2871 11.3656 13.5272 11.5129 13.8411C11.6642 14.1514 11.7405 14.5279 11.7405 14.97C11.7405 15.4044 11.6642 15.779 11.5129 16.0931C11.3656 16.407 11.1583 16.6491 10.8909 16.8196C10.6233 16.9864 10.3111 17.0696 9.95435 17.0696C9.59756 17.0696 9.28343 16.9864 9.01196 16.8196C8.74454 16.6491 8.53525 16.407 8.38403 16.0931C8.23667 15.779 8.16236 15.4044 8.16235 14.97C8.16235 14.5318 8.23666 14.1553 8.38403 13.8411C8.53524 13.5272 8.74454 13.2871 9.01196 13.1204C9.28343 12.9537 9.59756 12.8704 9.95435 12.8704ZM13.8079 12.8704C14.0986 12.8705 14.3664 12.926 14.6106 13.0384C14.8549 13.1509 15.0541 13.3144 15.2092 13.5276C15.3682 13.7409 15.4554 14.0006 15.4709 14.3069H14.4241C14.4047 14.1092 14.3432 13.9516 14.2385 13.8353C14.1339 13.7151 13.99 13.6556 13.8079 13.6556C13.6527 13.6556 13.511 13.7061 13.3831 13.8069C13.2591 13.9039 13.1598 14.0507 13.0862 14.2484C13.0164 14.4423 12.9817 14.6831 12.9817 14.97C12.9817 15.2531 13.0164 15.4939 13.0862 15.6917C13.1559 15.8854 13.2493 16.0323 13.3655 16.1331C13.4857 16.2339 13.6215 16.2845 13.7727 16.2845C13.9007 16.2845 14.0117 16.2597 14.1047 16.2093C14.2016 16.155 14.279 16.0766 14.3372 15.9759C14.399 15.8751 14.4359 15.753 14.4475 15.6097H15.4944C15.4634 15.9082 15.3741 16.168 15.2268 16.389C15.0833 16.6062 14.8891 16.7756 14.6448 16.8958C14.4006 17.012 14.1098 17.0696 13.7727 17.0696C13.4082 17.0696 13.0921 16.9844 12.8245 16.8138C12.5609 16.6393 12.3556 16.3952 12.2083 16.0814C12.0648 15.7634 11.9924 15.3927 11.9924 14.97C11.9924 14.5434 12.0667 14.1728 12.2141 13.8587C12.3615 13.5448 12.5707 13.3027 12.842 13.1321C13.1135 12.9576 13.4356 12.8704 13.8079 12.8704ZM5.95532 12.9398C6.26161 12.9398 6.53524 12.9884 6.77563 13.0853C7.01996 13.1783 7.22804 13.3141 7.39868 13.4925C7.56919 13.6669 7.69917 13.8782 7.78833 14.1263C7.87752 14.3745 7.92212 14.652 7.92212 14.9583C7.92212 15.2686 7.87753 15.55 7.78833 15.8021C7.69916 16.0501 7.56922 16.2654 7.39868 16.4476C7.22804 16.626 7.01996 16.7637 6.77563 16.8607C6.53525 16.9537 6.26159 17.0003 5.95532 17.0003H4.58911V12.9398H5.95532ZM9.95435 13.6556C9.8031 13.6556 9.66536 13.7081 9.54126 13.8128C9.42118 13.9136 9.32586 14.0625 9.2561 14.2601C9.1863 14.454 9.15161 14.6908 9.15161 14.97C9.15162 15.2492 9.1863 15.4881 9.2561 15.6859C9.32587 15.8795 9.42118 16.0285 9.54126 16.1331C9.66536 16.2339 9.8031 16.2845 9.95435 16.2845C10.1056 16.2845 10.2414 16.2339 10.3616 16.1331C10.4817 16.0285 10.577 15.8795 10.6467 15.6859C10.7165 15.4881 10.7512 15.2492 10.7512 14.97C10.7512 14.6869 10.7165 14.4481 10.6467 14.2542C10.577 14.0566 10.4817 13.9077 10.3616 13.8069C10.2414 13.7061 10.1056 13.6556 9.95435 13.6556ZM5.5481 16.2151H5.95532C6.16457 16.2151 6.34119 16.1644 6.48462 16.0638C6.63199 15.9591 6.74297 15.8114 6.81665 15.6214C6.89418 15.4314 6.93286 15.2103 6.93286 14.9583C6.93286 14.7063 6.89417 14.4892 6.81665 14.3069C6.74297 14.1208 6.63199 13.9771 6.48462 13.8763C6.34118 13.7756 6.16459 13.7249 5.95532 13.7249H5.5481V16.2151ZM11.5002 6.41632C11.5002 6.58299 11.6669 6.66632 11.7502 6.66632H16.6663L11.5002 1.66632V6.41632Z" fill="#200040"/>
</svg>
