<svg width="20" height="20" viewBox="0 0 20 20" fill="none" xmlns="http://www.w3.org/2000/svg">
<path d="M11.3333 0.083374C11.7499 0.083374 12.1669 0.250041 12.5002 0.583374L17.7502 5.75037C18.0001 6.00041 18.2501 6.49996 18.2502 6.91638V15.7504C18.2501 18.0002 16.4162 19.8334 14.1663 19.8334H5.00024C3.25024 19.8334 1.83325 18.4164 1.83325 16.6664V4.16638C1.83343 1.91664 3.66652 0.0835507 5.91626 0.083374H11.3333ZM5.91626 1.58337C4.41642 1.58354 3.25024 2.75047 3.25024 4.25037V16.6664C3.25024 17.583 4.00024 18.4164 5.00024 18.4164H14.1663C15.5829 18.4164 16.8333 17.25 16.8333 15.8334V8.08337H11.7502C10.8336 8.08337 10.0833 7.33305 10.0833 6.41638V1.58337H5.91626ZM6.2063 12.8705C6.53905 12.8705 6.82976 12.9281 7.07837 13.0443C7.32708 13.1606 7.5201 13.3277 7.65649 13.5443C7.79275 13.7569 7.8606 14.0076 7.8606 14.2963C7.86057 14.589 7.79286 14.8462 7.65649 15.0668C7.52011 15.2833 7.32697 15.4514 7.07837 15.5717C6.83374 15.6919 6.54312 15.7523 6.2063 15.7523H5.52661V17.0697H4.53345V12.8705H6.2063ZM9.82446 12.8705C10.1413 12.8705 10.4244 12.9206 10.6731 13.0209C10.9258 13.1171 11.1411 13.2572 11.3176 13.4418C11.4939 13.6221 11.6278 13.8407 11.72 14.097C11.8122 14.3538 11.8586 14.6415 11.8586 14.9584C11.8586 15.2791 11.8122 15.5698 11.72 15.8304C11.6277 16.087 11.494 16.3099 11.3176 16.4984C11.1411 16.6829 10.9258 16.8249 10.6731 16.9252C10.4244 17.0214 10.1413 17.0697 9.82446 17.0697H8.4104V12.8705H9.82446ZM15.55 13.682H13.3713V14.4945H14.7971V15.307H13.3713V17.0697H12.3782V12.8705H15.55V13.682ZM9.40356 16.2582H9.82446C10.0411 16.2582 10.2239 16.2052 10.3723 16.101C10.5247 15.9927 10.6389 15.8404 10.7151 15.6439C10.7953 15.4475 10.8361 15.219 10.8362 14.9584C10.8362 14.6978 10.7952 14.473 10.7151 14.2845C10.6389 14.092 10.5247 13.9435 10.3723 13.8392C10.2239 13.7349 10.0411 13.682 9.82446 13.682H9.40356V16.2582ZM5.52661 14.9398H6.20044C6.39288 14.9398 6.54704 14.8813 6.66333 14.765C6.77955 14.6447 6.8381 14.4887 6.83813 14.2963C6.83813 14.1117 6.77966 13.9633 6.66333 13.851C6.54705 13.7387 6.39286 13.6821 6.20044 13.682H5.52661V14.9398ZM11.5002 6.41638C11.5002 6.58305 11.6669 6.66638 11.7502 6.66638H16.6663L11.5002 1.66638V6.41638Z" fill="#200040"/>
</svg>
