<svg width="20" height="20" viewBox="0 0 20 20" fill="none" xmlns="http://www.w3.org/2000/svg">
<path d="M11.3333 0.083374C11.7499 0.083374 12.1669 0.250041 12.5002 0.583374L17.7502 5.75037C18.0001 6.00041 18.2501 6.49996 18.2502 6.91638V15.7504C18.2501 18.0002 16.4162 19.8334 14.1663 19.8334H5.00024C3.25024 19.8334 1.83325 18.4164 1.83325 16.6664V4.16638C1.83343 1.91664 3.66652 0.0835507 5.91626 0.083374H11.3333ZM5.91626 1.58337C4.41642 1.58354 3.25024 2.75047 3.25024 4.25037V16.6664C3.25024 17.583 4.00024 18.4164 5.00024 18.4164H14.1663C15.5829 18.4164 16.8333 17.25 16.8333 15.8334V8.08337H11.7502C10.8336 8.08337 10.0833 7.33305 10.0833 6.41638V1.58337H5.91626ZM7.85181 13.682H6.62427V17.0697H5.6311V13.682H4.40454V12.8705H7.85181V13.682ZM9.84595 13.7367L10.0627 14.266L10.2854 13.7367L10.7483 12.8705H11.8557L10.7307 14.9095L11.8977 17.0697H10.7903L10.2913 16.1254L10.0627 15.5902L9.82837 16.1195L9.33423 17.0697H8.22778L9.37622 14.9281L8.25708 12.8705H9.38306L9.84595 13.7367ZM15.679 13.682H14.4514V17.0697H13.4583V13.682H12.2307V12.8705H15.679V13.682ZM11.5002 6.41638C11.5002 6.58305 11.6669 6.66638 11.7502 6.66638H16.6663L11.5002 1.66638V6.41638Z" fill="#200040"/>
</svg>
