<svg width="20" height="20" viewBox="0 0 20 20" fill="none" xmlns="http://www.w3.org/2000/svg">
<path d="M11.3333 0.083374C11.7499 0.083374 12.1669 0.250041 12.5002 0.583374L17.7502 5.75037C18.0001 6.00041 18.2501 6.49996 18.2502 6.91638V15.7504C18.2501 18.0002 16.4162 19.8334 14.1663 19.8334H5.00024C3.25024 19.8334 1.83325 18.4164 1.83325 16.6664V4.16638C1.83343 1.91664 3.66652 0.0835507 5.91626 0.083374H11.3333ZM5.91626 1.58337C4.41642 1.58354 3.25024 2.75047 3.25024 4.25037V16.6664C3.25024 17.583 4.00024 18.4164 5.00024 18.4164H14.1663C15.5829 18.4164 16.8333 17.25 16.8333 15.8334V8.08337H11.7502C10.8336 8.08337 10.0833 7.33305 10.0833 6.41638V1.58337H5.91626ZM13.9065 12.8705C14.1817 12.8705 14.4376 12.9241 14.6741 13.0326C14.9106 13.1373 15.1029 13.2909 15.2502 13.4926C15.3975 13.6941 15.4749 13.9422 15.4827 14.2367H14.5227C14.5149 14.105 14.4802 13.9967 14.4182 13.9115C14.36 13.8262 14.2847 13.7618 14.1917 13.7191C14.1025 13.6765 14.0073 13.6556 13.9065 13.6556C13.7631 13.6556 13.6411 13.6904 13.5403 13.7601C13.4395 13.8261 13.3889 13.9252 13.3889 14.057C13.389 14.1577 13.4257 14.2372 13.4993 14.2953C13.5768 14.3534 13.6779 14.402 13.802 14.4408C13.9299 14.4757 14.0678 14.5104 14.2151 14.5453C14.3661 14.5802 14.5152 14.6249 14.6624 14.6791C14.8134 14.7294 14.9514 14.801 15.0754 14.8939C15.2034 14.987 15.3045 15.1118 15.3782 15.267C15.4556 15.4181 15.4943 15.6117 15.4944 15.848C15.4944 16.0846 15.427 16.2966 15.2913 16.4828C15.1595 16.6649 14.9749 16.8078 14.7385 16.9125C14.5059 17.0172 14.2382 17.0697 13.9358 17.0697C13.6023 17.0697 13.3149 17.0083 13.0745 16.8842C12.8379 16.7562 12.6556 16.5777 12.5276 16.349C12.4035 16.1164 12.3421 15.8427 12.342 15.5287H13.2844C13.2845 15.7729 13.336 15.9613 13.4407 16.0931C13.5493 16.2211 13.7148 16.2845 13.9358 16.2845C14.1102 16.2845 14.2481 16.2478 14.3489 16.1742C14.4535 16.0966 14.5061 15.9875 14.5061 15.848C14.506 15.7435 14.4664 15.662 14.3889 15.6039C14.3153 15.542 14.2148 15.4912 14.0872 15.4525C13.9631 15.4099 13.8252 15.3712 13.6741 15.3363C13.5267 15.2975 13.3771 15.2509 13.2258 15.1967C13.0785 15.1424 12.9407 15.071 12.8127 14.9818C12.6886 14.8926 12.5876 14.7757 12.51 14.6322C12.4365 14.4888 12.3997 14.3061 12.3997 14.0853C12.3997 13.8567 12.4622 13.6513 12.5862 13.4691C12.7142 13.2869 12.8906 13.1411 13.1155 13.0326C13.3404 12.9241 13.6041 12.8705 13.9065 12.8705ZM6.15356 13.7777L6.36255 14.2894L6.57837 13.7777L7.02563 12.9398H8.09595L7.00903 14.9115L8.13696 17.0004H7.06665L6.58423 16.0873L6.36255 15.5687L6.13599 16.0814L5.65942 17.0004H4.58911L5.69946 14.9291L4.61743 12.9398H5.70532L6.15356 13.7777ZM9.68091 16.2152H11.6467V17.0004H8.72095V12.9398H9.68091V16.2152ZM11.5002 6.41638C11.5002 6.58305 11.6669 6.66638 11.7502 6.66638H16.6663L11.5002 1.66638V6.41638Z" fill="#200040"/>
</svg>
