<svg width="20" height="20" viewBox="0 0 20 20" fill="none" xmlns="http://www.w3.org/2000/svg">
<path d="M11.333 0.0833435C11.7497 0.0833435 12.1667 0.250024 12.5 0.583344L17.75 5.75034C17.9999 6.00032 18.2499 6.49983 18.25 6.91635V15.7503C18.2498 18.0001 16.4168 19.8332 14.167 19.8333H5C3.25002 19.8333 1.83301 18.4163 1.83301 16.6664V4.16635C1.83318 1.9165 3.6671 0.0833435 5.91699 0.0833435H11.333ZM5.91699 1.58334C4.41699 1.58334 3.25 2.75034 3.25 4.25034V16.6664C3.25 17.583 4.00002 18.4163 5 18.4164H14.167C15.5835 18.4162 16.833 17.2499 16.833 15.8333V8.08334H11.75C10.8334 8.08332 10.083 7.333 10.083 6.41635V1.58334H5.91699ZM9.91699 9.91635C10.4169 9.91645 10.9167 10.1671 11.25 10.5003L12.75 12.2503C12.9999 12.5004 13 13.0004 12.75 13.2503C12.5834 13.3336 12.4166 13.4164 12.25 13.4164C12.0833 13.4163 11.9167 13.333 11.75 13.1664L10.5 11.9164V15.8333C10.5 16.1667 10.1663 16.5003 9.83301 16.5003C9.4998 16.5002 9.16699 16.2499 9.16699 15.8333V11.9164L7.91699 13.1664C7.66699 13.4164 7.16699 13.4164 6.91699 13.1664C6.66701 12.9163 6.667 12.4163 6.91699 12.1664L8.58301 10.5003C8.91634 10.0837 9.41699 9.91635 9.91699 9.91635ZM11.5 6.41635C11.5 6.58299 11.6667 6.66632 11.75 6.66635H16.667L11.5 1.66635V6.41635Z" fill="#200040"/>
</svg>
