<svg width="20" height="20" viewBox="0 0 20 20" fill="none" xmlns="http://www.w3.org/2000/svg">
<path d="M11.333 0.0833435C11.7497 0.0833435 12.1667 0.250014 12.5 0.583344L17.75 5.75034C17.9999 6.00033 18.2499 6.49983 18.25 6.91635V15.7503C18.2498 18.0001 16.4167 19.8332 14.167 19.8333H5C3.25002 19.8333 1.83301 18.4163 1.83301 16.6664V4.16635C1.83317 1.91649 3.66709 0.0833435 5.91699 0.0833435H11.333ZM5.91699 1.58334C4.41699 1.58334 3.25 2.75034 3.25 4.25034V16.6664C3.25 17.583 4.00002 18.4163 5 18.4164H14.167C15.5835 18.4162 16.833 17.2499 16.833 15.8333V8.08334H11.75C10.8334 8.08332 10.083 7.333 10.083 6.41635V1.58334H5.91699ZM13.417 14.2503C13.5836 14.2504 13.7504 14.3338 13.917 14.5003C13.9171 14.5417 13.9373 14.5626 13.958 14.5833C13.9788 14.6041 13.9999 14.6249 14 14.6664V15.2503C13.9166 15.5834 13.6662 15.7503 13.333 15.7503H6.58301C6.25004 15.7502 6.00043 15.5001 5.91699 15.2503V15.0003C5.91699 14.5837 6.25033 14.2503 6.66699 14.2503H13.417ZM13.333 10.8333C13.6663 10.8333 14 11.1667 14 11.5833C14 11.8333 13.833 12.083 13.583 12.1664C13.4997 12.2496 13.4163 12.2503 13.333 12.2503H6.58301C6.56216 12.2503 6.54136 12.2445 6.52051 12.2367L6.39551 12.18C6.37474 12.1723 6.35377 12.1664 6.33301 12.1664C6.08325 12.0829 5.91701 11.8332 5.91699 11.5833C5.91699 11.1667 6.25033 10.8333 6.66699 10.8333H13.333ZM11.5 6.41635C11.5 6.58299 11.6667 6.66632 11.75 6.66635H16.667L11.5 1.66635V6.41635Z" fill="#200040"/>
</svg>
