<svg width="20" height="20" viewBox="0 0 20 20" fill="none" xmlns="http://www.w3.org/2000/svg">
<path d="M11.333 0.0833435C11.7497 0.0833435 12.1667 0.250024 12.5 0.583344L17.75 5.75034C17.9999 6.00032 18.2499 6.49983 18.25 6.91635V15.7503C18.2498 18.0001 16.4168 19.8332 14.167 19.8333H5C3.25002 19.8333 1.83301 18.4163 1.83301 16.6664V4.16635C1.83318 1.9165 3.6671 0.0833435 5.91699 0.0833435H11.333ZM5.91699 1.58334C4.41699 1.58334 3.25 2.75034 3.25 4.25034V16.6664C3.25 17.583 4.00002 18.4163 5 18.4164H14.167C15.5835 18.4162 16.833 17.2499 16.833 15.8333V8.08334H11.75C10.8334 8.08332 10.083 7.333 10.083 6.41635V1.58334H5.91699ZM10 10.0833C10.4167 10.0833 10.75 10.4167 10.75 10.8333V12.5833H12.5C12.9167 12.5833 13.25 12.9167 13.25 13.3333C13.25 13.75 12.9167 14.0833 12.5 14.0833H10.75V15.8333C10.75 16.25 10.4167 16.5833 10 16.5833C9.58335 16.5833 9.25 16.25 9.25 15.8333V14.0833H7.5C7.08335 14.0833 6.75 13.75 6.75 13.3333C6.75 12.9167 7.08335 12.5834 7.5 12.5833H9.25V10.8333C9.25 10.4167 9.58335 10.0834 10 10.0833ZM11.5 6.41635C11.5 6.58299 11.6667 6.66632 11.75 6.66635H16.667L11.5 1.66635V6.41635Z" fill="#200040"/>
</svg>
