<svg width="20" height="20" viewBox="0 0 20 20" fill="none" xmlns="http://www.w3.org/2000/svg">
<path d="M2.08282 1.66666C3.24949 0.99999 4.58315 1.00032 5.74982 1.58365L7.16681 2.24966C7.50009 2.41631 7.91651 2.49964 8.24982 2.49966H13.3328C15.5827 2.49966 17.3326 4.33316 17.3328 6.49966V8.16666H17.7498C18.4164 8.16666 19.0001 8.49973 19.4168 8.99966C19.8334 9.49958 19.9161 10.1664 19.8328 10.7497L18.5828 15.7497C18.0828 17.583 16.4995 18.8336 14.5828 18.8336H4.16681C2.00024 18.8336 0.166967 17.0835 0.166809 14.8336V4.41666C0.333473 3.25014 0.999715 2.25001 2.08282 1.66666ZM7.24982 9.66666C6.41667 9.66671 5.66691 10.1666 5.41681 10.9997L3.74982 16.4167C3.66651 16.5833 3.66626 16.917 3.83282 17.0836C3.99946 17.3336 4.24986 17.4166 4.49982 17.4167H14.5828C15.8328 17.4167 16.8335 16.5833 17.1668 15.4167L18.4168 10.4167C18.5001 10.1667 18.4995 10.0003 18.3328 9.83365C18.2495 9.66698 17.9995 9.58365 17.8328 9.58365L7.24982 9.66666ZM5.08282 2.83365C4.41618 2.50045 3.49972 2.50004 2.74982 2.91666C2.08321 3.25 1.66615 3.83369 1.58282 4.58365V4.91666H1.49982V14.7497C1.49982 15.4997 1.83315 16.0836 2.24982 16.5836C2.24982 16.3337 2.24953 16.1666 2.33282 15.9167L3.99982 10.4997C4.41657 9.08317 5.66691 8.16666 7.16681 8.16666H15.9168V6.49966C15.9166 5.08316 14.7494 3.91666 13.3328 3.91666H8.24982C7.66652 3.91663 6.99978 3.74964 6.49982 3.49966L5.08282 2.83365Z" fill="#200040"/>
</svg>
