<svg width="20" height="20" viewBox="0 0 20 20" fill="none" xmlns="http://www.w3.org/2000/svg">
<path d="M2.08337 1.66666C3.25002 1.00003 4.58372 1.00033 5.75037 1.58365L7.16638 2.24966C7.49972 2.41633 7.91703 2.49966 8.25037 2.49966H15.8334C18.0833 2.49971 19.8334 4.33368 19.8334 6.58365V14.8336C19.8332 17.0002 18.0832 18.8336 15.8334 18.8336H4.16638C1.99992 18.8335 0.16655 17.0834 0.166382 14.8336V4.41666C0.333048 3.24999 1.00004 2.24999 2.08337 1.66666ZM1.58337 7.16666V14.8336C1.58354 16.2501 2.74993 17.4165 4.16638 17.4167H15.8334C17.25 17.4166 18.417 16.2496 18.5004 14.7497V7.16666H1.58337ZM4.00037 2.58365C3.58382 2.58365 3.16691 2.75004 2.75037 2.91666C2.0837 3.24999 1.66671 3.83365 1.58337 4.58365V5.74966H18.3334C18 4.66651 16.9999 3.91669 15.8334 3.91666H8.33337C7.75004 3.91666 7.08337 3.74966 6.58337 3.49966L5.16638 2.83365C4.7499 2.66706 4.41681 2.5837 4.00037 2.58365Z" fill="#200040"/>
</svg>
