<svg width="20" height="20" viewBox="0 0 20 20" fill="none" xmlns="http://www.w3.org/2000/svg">
<path d="M2.08331 1.66666C3.24997 1.00001 4.58365 1.00032 5.75031 1.58365L7.16632 2.24966C7.49965 2.41633 7.91697 2.49966 8.25031 2.49966H15.8333C18.0833 2.49968 19.8333 4.33366 19.8333 6.58365V14.8336C19.8332 17.0002 18.0832 18.8336 15.8333 18.8336H4.16632C1.99988 18.8335 0.166482 17.0834 0.166321 14.8336V4.41666C0.332987 3.24999 0.99998 2.24999 2.08331 1.66666ZM1.58331 14.8336C1.58348 16.2501 2.74989 17.4165 4.16632 17.4167H15.8333C17.25 17.4166 18.417 16.2497 18.5003 14.7497V7.16666H1.58331V14.8336ZM10.0003 9.16666C10.4168 9.16684 10.7503 9.50012 10.7503 9.91666V11.6667H12.5003C12.9168 11.6668 13.2503 12.0001 13.2503 12.4167C13.2503 12.8332 12.9168 13.1665 12.5003 13.1667H10.7503V14.9167C10.7503 15.3332 10.4168 15.6665 10.0003 15.6667C9.58364 15.6667 9.25031 15.3333 9.25031 14.9167V13.1667H7.50031C7.08364 13.1667 6.75031 12.8333 6.75031 12.4167C6.75032 12 7.08365 11.6667 7.50031 11.6667H9.25031V9.91666C9.25032 9.5 9.58365 9.16666 10.0003 9.16666ZM4.00031 2.58365C3.58374 2.58365 3.16687 2.75003 2.75031 2.91666C2.08364 3.24999 1.66665 3.83365 1.58331 4.58365V5.74966H18.3333C17.9999 4.66651 16.9999 3.91667 15.8333 3.91666H8.33331C7.74998 3.91666 7.08331 3.74966 6.58331 3.49966L5.16632 2.83365C4.74985 2.66707 4.41676 2.58369 4.00031 2.58365Z" fill="#200040"/>
</svg>
