<svg width="20" height="20" viewBox="0 0 20 20" fill="none" xmlns="http://www.w3.org/2000/svg">
<path d="M2.08331 1.66666C3.24997 1.00001 4.58365 1.00032 5.75031 1.58365L7.16632 2.24966C7.49965 2.41633 7.91697 2.49966 8.25031 2.49966H15.8333C18.0833 2.49968 19.8333 4.33366 19.8333 6.58365V8.66666C19.8333 9.08321 19.6667 9.33351 19.2503 9.33365C18.8336 9.33365 18.5003 9.08332 18.5003 8.66666V7.41666H1.58331V14.8336C1.58348 16.2501 2.74989 17.4165 4.16632 17.4167H15.8333C16.9166 17.4166 17.917 16.6666 18.2503 15.6667C18.417 15.3335 18.8331 15.0834 19.1663 15.2497C19.4996 15.4163 19.7499 15.8333 19.5833 16.1667C19.0833 17.75 17.5 18.8336 15.8333 18.8336H4.16632C1.99988 18.8335 0.166482 17.0834 0.166321 14.8336V4.41666C0.332987 3.24999 0.99998 2.24999 2.08331 1.66666ZM15.9163 9.49966C16.1662 9.2498 16.6662 9.25 16.9163 9.49966L18.5833 11.1667C18.9999 11.4999 19.1662 11.9998 19.1663 12.4997C19.1663 12.9997 18.9166 13.5003 18.5833 13.8336L16.9163 15.4997C16.7497 15.583 16.583 15.6667 16.4163 15.6667C16.2498 15.6666 16.0829 15.5832 15.9163 15.4167C15.7498 15.1667 15.6669 14.8336 15.8333 14.5836C15.8486 14.5531 15.8612 14.5246 15.8724 14.4997C15.9222 14.3888 15.9474 14.3336 16.0833 14.3336L17.2503 13.1667H10.7503C10.417 13.1667 10.0833 12.833 10.0833 12.4997C10.0835 12.1664 10.3338 11.8336 10.7503 11.8336H17.2503L16.0003 10.5836C15.9171 10.5004 15.8335 10.4169 15.8333 10.3336C15.6666 10.0836 15.6663 9.74966 15.9163 9.49966ZM5.08331 2.83365C4.33341 2.50036 3.50023 2.50014 2.75031 2.91666C2.08364 3.24999 1.66665 3.83365 1.58331 4.58365V5.91666H18.4163C18.083 4.83338 17.0833 3.91667 15.8333 3.91666H8.25031C7.66702 3.91666 7.00029 3.74963 6.50031 3.49966L5.08331 2.83365Z" fill="#200040"/>
</svg>
