<svg width="20" height="20" viewBox="0 0 20 20" fill="none" xmlns="http://www.w3.org/2000/svg">
<path d="M2.08301 1.66663C3.24967 0.999959 4.58333 1.00028 5.75 1.58362L7.16699 2.24963C7.5003 2.41625 7.91671 2.49963 8.25 2.49963H15.833C18.083 2.49963 19.833 4.33362 19.833 6.58362V14.7496C19.833 16.9163 18.083 18.7496 15.833 18.7496H4.16699C2.08376 18.7496 0.333798 17.1668 0.166992 15.0836V14.9996C0.167148 14.5832 0.416642 14.2498 0.833008 14.2496C1.24965 14.2496 1.58297 14.5 1.58301 14.9166C1.66634 16.3333 2.83366 17.3336 4.16699 17.3336H15.917C17.3335 17.3334 18.5 16.1662 18.5 14.7496V7.16663H1.58301V9.33362C1.58279 9.66686 1.16625 9.99963 0.833008 9.99963C0.49977 9.99944 0.166992 9.66618 0.166992 9.24963V4.41663C0.333676 3.25008 0.999824 2.24996 2.08301 1.66663ZM6.08301 9.24963C6.33291 8.9998 6.83291 8.99999 7.08301 9.24963L8.75 10.9166C9.16656 11.2499 9.33292 11.7498 9.33301 12.2496C9.33301 12.7496 9.08333 13.2503 8.75 13.5836L7.08301 15.2496C6.91637 15.333 6.74965 15.4166 6.58301 15.4166C6.41644 15.4165 6.24958 15.3332 6.08301 15.1666C5.83322 14.9166 5.83318 14.4166 6.08301 14.1666L7.33301 12.8336H0.833008C0.499769 12.8335 0.166992 12.5832 0.166992 12.1666C0.167034 11.8334 0.49979 11.4998 0.833008 11.4996H7.33301L6.08301 10.2496C5.83334 9.99952 5.83312 9.49952 6.08301 9.24963ZM5.08301 2.83362C4.33306 2.50036 3.49994 2.50002 2.75 2.91663C2.08333 3.24996 1.66634 3.83362 1.58301 4.58362V5.74963H18.333C17.9995 4.66653 16.9995 3.91663 15.833 3.91663H8.25C7.66667 3.91663 7 3.74963 6.5 3.49963L5.08301 2.83362Z" fill="#200040"/>
</svg>
