<svg width="20" height="20" viewBox="0 0 20 20" fill="none" xmlns="http://www.w3.org/2000/svg">
<path d="M8.33374 0.249908C10.5002 0.25015 12.3337 2.00011 12.3337 4.24991V14.2499C12.3337 14.9166 12.0834 15.5002 11.6667 15.9169C11.2501 16.3335 10.5831 16.5829 9.99976 16.5829C8.74984 16.5828 7.66675 15.4998 7.66675 14.2499V5.99991C7.6668 5.58328 8.00011 5.24991 8.41675 5.24991C8.83333 5.24997 9.1667 5.58332 9.16675 5.99991V14.1669C9.16688 14.6668 9.58382 15.0829 10.0837 15.0829C10.3336 15.0828 10.5832 14.9995 10.7498 14.8329C10.9163 14.6663 10.9997 14.4168 10.9998 14.1669V4.1669C10.9164 2.75038 9.75021 1.66713 8.33374 1.6669C7.66711 1.6669 7.00041 1.91696 6.58374 2.4169C6.08374 2.83357 5.83374 3.50023 5.83374 4.1669V14.1669C5.83387 16.5001 7.74992 18.3328 9.99976 18.3329C11.0831 18.3329 12.1664 17.9163 12.9998 17.0829C13.833 16.2496 14.2498 15.2495 14.2498 14.0829V3.33292C14.25 2.91644 14.5835 2.58292 14.9167 2.58292C15.3333 2.58298 15.5834 2.91663 15.6667 3.24991V13.9999C15.6667 15.4999 15.0831 16.9166 13.9998 17.9999C12.9164 19.1665 11.4997 19.7499 9.99976 19.7499C6.91659 19.7498 4.41687 17.2501 4.41675 14.1669V4.1669C4.41675 3.08357 4.83374 2.08292 5.58374 1.33292C6.33369 0.666487 7.33394 0.249908 8.33374 0.249908Z" fill="#200040"/>
</svg>
