<svg width="20" height="20" viewBox="0 0 20 20" fill="none" xmlns="http://www.w3.org/2000/svg">
<path d="M4.16632 3.49954H11.6663C13.8329 3.49954 15.6661 5.24974 15.6663 7.49954L17.2503 5.91653C17.6669 5.50007 18.3331 5.33368 18.9163 5.58353C19.4996 5.75018 19.8333 6.33323 19.8333 6.91653V12.9995C19.8333 13.6662 19.4997 14.1665 18.9163 14.4165C18.7497 14.4998 18.4999 14.4995 18.3333 14.4995C17.9168 14.4995 17.5003 14.3334 17.2503 14.0835L15.6663 12.4995C15.6663 14.6662 13.9163 16.4995 11.6663 16.4995H4.16632C1.99979 16.4994 0.166321 14.7494 0.166321 12.4995V7.49954C0.166538 5.24984 1.91662 3.4164 4.16632 3.49954ZM4.16632 4.91653C2.74993 4.9167 1.58354 6.08317 1.58331 7.49954V12.4995C1.58331 13.9161 2.74979 15.0834 4.16632 15.0835H11.6663C13.083 15.0835 14.2503 13.9162 14.2503 12.4995V7.49954C14.2501 6.08307 13.0828 4.91653 11.6663 4.91653H4.16632ZM7.91632 6.83353C8.33285 6.83353 8.6661 7.08313 8.66632 7.49954V9.24954H10.4163C10.8328 9.24954 11.166 9.66628 11.1663 9.99954C11.1663 10.3329 10.833 10.6665 10.4163 10.6665H8.66632V12.4995C8.66632 12.8329 8.33299 13.1665 7.91632 13.1665C7.4998 13.1664 7.16632 12.9161 7.16632 12.4995V10.6665H5.41632C4.9998 10.6664 4.66632 10.3328 4.66632 9.99954C4.6666 9.66643 4.99997 9.33369 5.41632 9.33353H7.16632V7.49954C7.16654 7.08323 7.49994 6.83365 7.91632 6.83353ZM18.3333 6.99954C18.333 6.92021 18.2564 6.99356 18.2503 6.99954L15.8333 9.41653C15.7917 9.41653 15.7711 9.43771 15.7503 9.45853C15.7295 9.47936 15.708 9.49954 15.6663 9.49954V10.5835L18.2503 13.1665H18.3333C18.414 13.1665 18.4162 13.0884 18.4163 13.0835V7.08353C18.4163 7.08353 18.4166 6.99956 18.3333 6.99954Z" fill="#200040"/>
</svg>
