<svg width="20" height="20" viewBox="0 0 20 20" fill="none" xmlns="http://www.w3.org/2000/svg">
<g clip-path="url(#clip0_11_260)">
<path d="M6.5004 2.83331C9.25037 1.00018 13.0005 1.33371 15.5004 3.50031L17.0834 1.91632C17.3334 1.66659 17.8334 1.66658 18.0834 1.91632C18.3333 2.16625 18.3332 2.66625 18.0834 2.91632L16.5004 4.50031C18.4168 6.91695 18.6667 10.2504 17.0834 12.7503L14.2504 17.8333C13.7504 18.9165 12.7502 19.6666 11.5004 19.8333C11.2504 19.9166 11.0834 19.9163 10.8334 19.9163C9.8334 19.9163 8.91641 19.583 8.16641 18.9163C7.49975 19.333 6.6664 19.5833 5.91641 19.5833C4.91657 19.5832 3.91663 19.2501 3.0834 18.5003C1.75007 17.167 1.5834 14.9997 2.5834 13.4163L1.16641 12.0003C0.249768 11.0836 -0.166268 9.91631 0.000396729 8.66632C0.167158 7.4999 0.83334 6.4166 1.91641 5.83331L6.5004 2.83331ZM18.5004 13.9163C18.5839 13.5831 18.9169 13.25 19.3334 13.3333C19.75 13.3333 19.9995 13.7498 19.9164 14.1663C19.3757 17.5648 16.9738 19.3885 16.559 19.7034C16.5264 19.7282 16.5065 19.7442 16.5004 19.7503C16.3337 19.8336 16.2501 19.8333 16.0834 19.8333C15.8335 19.8333 15.667 19.7501 15.5004 19.5003C15.3337 19.167 15.4171 18.7503 15.7504 18.5003C15.7692 18.4875 18.0854 16.9042 18.5004 13.9163ZM15.0004 4.83331C13.0004 2.74998 9.74974 2.41697 7.41641 4.00031L2.7504 7.00031C2.00043 7.41695 1.58376 8.08336 1.5004 8.83331C1.41706 9.66665 1.66706 10.417 2.2504 11.0003L3.91641 12.6663C3.95803 12.7079 3.9998 12.7295 4.04141 12.7503C4.08301 12.7711 4.12481 12.7918 4.16641 12.8333C4.24972 12.9166 4.33335 13 4.3334 13.0833L8.5834 17.3333C8.62502 17.3749 8.66679 17.3955 8.7084 17.4163C8.75007 17.4372 8.79174 17.4586 8.8334 17.5003C8.91669 17.5836 9.0004 17.667 9.0004 17.7503L9.0834 17.8333C9.66673 18.4166 10.5001 18.667 11.3334 18.5003C12.0833 18.417 12.75 17.9169 13.0834 17.2503L15.9164 12.1663C17.2496 9.83306 16.9169 6.83326 15.0004 4.83331ZM3.66641 14.5003C3.16661 15.5003 3.33349 16.7504 4.0834 17.5003C4.91664 18.2501 6.16652 18.4168 7.16641 18.0003L3.66641 14.5003ZM5.91641 0.083313C6.24972 -1.40071e-05 6.66635 0.250018 6.66641 0.583313C6.74974 0.999949 6.50002 1.33296 6.0834 1.41632C3.10701 1.82971 1.52511 4.13015 1.5004 4.16632C1.41706 4.41632 1.16641 4.50031 0.916412 4.50031C0.74985 4.50031 0.583678 4.4996 0.500397 4.41632C0.167063 4.24965 0.0834046 3.74965 0.333405 3.41632C0.339755 3.40985 0.355643 3.38926 0.38028 3.35577C0.689447 2.9355 2.44666 0.546069 5.91641 0.083313Z" fill="#200040"/>
</g>
<defs>
<clipPath id="clip0_11_260">
<rect width="20" height="20" fill="white"/>
</clipPath>
</defs>
</svg>
