<svg width="20" height="20" viewBox="0 0 20 20" fill="none" xmlns="http://www.w3.org/2000/svg">
<path d="M9.75024 0.166687C13.1667 0.166831 16.1665 2.41663 17.0833 5.74969L18.6663 11.4167C18.9996 12.6665 18.75 13.9164 18.0002 14.9997C17.2503 15.9996 16.0001 16.5836 14.7502 16.5837H14.0002C13.6668 18.5001 12 19.9165 10.0002 19.9167C8.00037 19.9167 6.33373 18.5002 6.00024 16.5837H5.00024C3.75033 16.5837 2.58326 16.0835 1.83325 15.0837C1.08325 14.0837 0.833252 12.8334 1.08325 11.6667L2.33325 6.16669C2.99992 2.66669 6.16691 0.166687 9.75024 0.166687ZM7.50024 16.4997C7.83358 17.583 8.83358 18.4167 10.0002 18.4167C11.1668 18.4165 12.1669 17.6663 12.5002 16.4997H7.50024ZM9.75024 1.49969C6.83358 1.49969 4.24959 3.50035 3.66626 6.33368L2.41626 11.8337C2.24972 12.6669 2.41633 13.4171 2.91626 14.0837C3.41626 14.7503 4.16693 15.0837 5.00024 15.0837H14.7502C15.5834 15.0836 16.3333 14.7501 16.8333 14.0837C17.4166 13.417 17.4999 12.583 17.3333 11.7497L15.7502 6.08368C15.0003 3.41712 12.5001 1.49985 9.75024 1.49969Z" fill="#200040"/>
</svg>
