<svg width="20" height="20" viewBox="0 0 20 20" fill="none" xmlns="http://www.w3.org/2000/svg">
<g clip-path="url(#clip0_11_262)">
<path d="M9.66614 0.166992C13.0828 0.166992 16.0835 2.41667 17.0001 5.75L18.5831 11.417C18.9164 12.5836 18.6661 13.9171 17.9161 14.917C17.6662 15.3335 17.3327 15.6671 16.9161 15.917L19.6661 18.667C19.9161 18.9169 19.9165 19.4162 19.5001 19.583C19.3335 19.6663 19.1667 19.7499 19.0001 19.75C18.8335 19.75 18.6668 19.7497 18.5001 19.583L15.3331 16.417C15.0832 16.5003 14.8331 16.5 14.5831 16.5H7.41614C7.74943 17.5832 8.74966 18.4168 9.91614 18.417C10.7494 18.417 11.4161 18.083 11.9161 17.583C12.1661 17.2498 12.5829 17.2502 12.9161 17.5C13.2494 17.75 13.25 18.1667 13.0001 18.5C12.3335 19.3333 11.1667 19.8329 10.0001 19.833C8.00013 19.833 6.33346 18.4167 6.00012 16.5H5.00012C3.75012 16.5 2.58313 16 1.83313 15C1.08317 14 0.833135 12.7497 1.08313 11.583L2.08313 6.91699C2.16646 6.58367 2.49981 6.33368 2.83313 6.41699C3.2498 6.50033 3.49947 6.83333 3.41614 7.25L2.41614 11.917C2.2496 12.7502 2.41622 13.5004 2.91614 14.167C3.41614 14.8337 4.16679 15.167 5.00012 15.167H14.0831L0.33313 1.41699C0.0831986 1.16706 0.0833359 0.667061 0.33313 0.416992C0.58313 0.166992 1.08313 0.166992 1.33313 0.416992L3.83313 2.91699C5.33303 1.1671 7.4163 0.16712 9.66614 0.166992ZM9.66614 1.58301C7.74971 1.58313 5.99971 2.41654 4.83313 3.83301L15.9161 14.917C16.2494 14.7504 16.5832 14.5002 16.8331 14.167C17.3331 13.5003 17.5001 12.583 17.2501 11.833L15.6661 6.16699C14.9161 3.50033 12.4161 1.58301 9.66614 1.58301Z" fill="#200040"/>
</g>
<defs>
<clipPath id="clip0_11_262">
<rect width="20" height="20" fill="white"/>
</clipPath>
</defs>
</svg>
