<svg width="20" height="20" viewBox="0 0 20 20" fill="none" xmlns="http://www.w3.org/2000/svg">
<path d="M11.2505 0.333008C14.0837 0.916432 16.3335 3.0001 17.0835 5.75L18.6665 11.417C18.9997 12.5835 18.7502 13.9165 18.0005 15.083C17.2506 16.0829 16.0004 16.6669 14.7505 16.667H14.0005C13.6671 18.5834 12.0002 19.9998 10.0005 20C8.00062 20 6.33398 18.5835 6.00049 16.667H5.00049C3.75059 16.667 2.5835 16.1668 1.8335 15.167C1.0835 14.167 0.833496 12.9167 1.0835 11.75L1.3335 10.75C1.41682 10.4167 1.74996 10.1668 2.1665 10.25C2.49977 10.3333 2.74968 10.6665 2.6665 11.083L2.4165 12.083C2.24985 12.833 2.41658 13.5834 2.9165 14.25C3.4165 14.9167 4.16716 15.25 5.00049 15.25H14.7505C15.5836 15.2499 16.3336 14.8335 16.8335 14.167C17.3335 13.5003 17.5005 12.583 17.2505 11.833L15.6665 6.16699C15.0832 3.91712 13.2503 2.1668 11.0005 1.75C10.5839 1.66669 10.3334 1.33349 10.4165 0.916992C10.4998 0.500325 10.8338 0.249674 11.2505 0.333008ZM7.50049 16.5C7.83386 17.5833 8.83386 18.417 10.0005 18.417C11.167 18.4168 12.1672 17.6665 12.5005 16.5H7.50049ZM4.75049 0C5.16697 0.000212529 5.50049 0.333466 5.50049 0.75V1.75C6.25033 1.91672 6.91659 2.33376 7.4165 2.91699L8.25049 2.33301C8.58379 2.16666 9.08385 2.24991 9.25049 2.58301C9.41708 2.91619 9.33345 3.41612 9.00049 3.58301L8.0835 4.16699C8.25002 4.50019 8.33345 4.91657 8.3335 5.33301C8.3335 5.74967 8.24984 6.16667 8.1665 6.5L9.0835 6.91699C9.49994 7.08368 9.58304 7.49975 9.4165 7.83301C9.24993 8.08287 9.00035 8.24982 8.75049 8.25C8.66717 8.25 8.49985 8.25029 8.4165 8.16699L7.50049 7.66699C7.00058 8.25022 6.33361 8.66628 5.50049 8.83301V9.83301C5.50049 10.2495 5.16697 10.5828 4.75049 10.583C4.33382 10.583 4.00049 10.2497 4.00049 9.83301V8.83301C3.25065 8.66638 2.50049 8.25012 2.00049 7.66699L1.0835 8.25C1.0003 8.3332 0.833953 8.33301 0.750488 8.33301C0.500561 8.33301 0.249909 8.16687 0.166504 7.91699C-0.0834454 7.58373 0.0833056 7.16673 0.416504 7L1.3335 6.41699C1.25016 6.08366 1.1665 5.74967 1.1665 5.33301C1.1665 4.91658 1.16698 4.58343 1.3335 4.16699L0.416504 3.58301C0.083436 3.33298 -0.000109654 2.91623 0.166504 2.58301C0.333242 2.33307 0.833219 2.16703 1.1665 2.41699L2.0835 2.91699C2.5835 2.33366 3.25016 1.91667 4.0835 1.75V0.75C4.0835 0.333333 4.33382 0 4.75049 0ZM4.75049 3.08301C3.5006 3.08301 2.58366 4.08316 2.5835 5.33301C2.5835 6.58301 3.50049 7.5 4.75049 7.5C6.00028 7.49977 6.9165 6.41654 6.9165 5.25C6.9165 4.08346 6.00028 3.08322 4.75049 3.08301Z" fill="#200040"/>
</svg>
