<svg width="20" height="20" viewBox="0 0 20 20" fill="none" xmlns="http://www.w3.org/2000/svg">
<path d="M14 9.25C14.4166 9.25005 14.75 9.58336 14.75 10V11.083C15.5 11.2497 16.25 11.6667 16.75 12.25L17.667 11.75C18.0836 11.5003 18.5004 11.6667 18.667 12C18.9168 12.4165 18.7501 12.8332 18.417 13L17.5 13.5C17.5833 13.8332 17.6669 14.1665 17.667 14.583C17.667 14.9997 17.5833 15.4167 17.5 15.75L18.5 16.333C18.7499 16.4996 18.9162 16.9997 18.833 17.333C18.7497 17.583 18.5 17.667 18.25 17.667C18.1667 17.667 18.0003 17.6663 17.917 17.583L17 17C16.5 17.5833 15.8333 18.0003 15 18.167V19.25C15 19.6666 14.6666 20 14.25 20C13.8333 20 13.5 19.6667 13.5 19.25V18.167C12.6667 18.0003 12 17.5833 11.5 17L10.583 17.583C10.4997 17.6663 10.3334 17.667 10.25 17.667C10 17.667 9.83366 17.583 9.66699 17.333C9.50039 16.9997 9.58369 16.4997 9.91699 16.333L10.833 15.75C10.6664 15.4167 10.583 14.9996 10.583 14.583C10.5831 14.1666 10.6667 13.7502 10.75 13.417L9.83301 12.917C9.41642 12.7503 9.33335 12.3333 9.5 12C9.66668 11.5834 10.0837 11.5003 10.417 11.667L11.333 12.167C11.833 11.5837 12.4998 11.1667 13.333 11V10C13.333 9.58333 13.5833 9.25 14 9.25ZM10 0C10.4166 4.79544e-05 10.7503 0.333401 10.667 0.75V1.91699C13.6668 2.25049 16.2497 4.41714 17.083 7.41699C17.1662 7.75028 16.9996 8.16669 16.583 8.25C16.2497 8.3332 15.8333 8.16656 15.75 7.75C15 5.08336 12.5 3.16703 9.75 3.16699C6.83336 3.16699 4.25036 5.16671 3.66699 8L2.41699 13.5C2.25033 14.3333 2.41699 15.0833 2.91699 15.75C3.41699 16.4165 4.16675 16.75 5 16.75H6.66699C7.08347 16.7502 7.41699 17.0005 7.41699 17.417C7.41682 17.8334 7.08336 18.1668 6.66699 18.167H5C3.75004 18.167 2.58301 17.6669 1.83301 16.667C1.08302 15.667 0.833025 14.4167 1.08301 13.25L2.33301 7.75C2.99967 4.41667 5.91667 1.99967 9.25 1.83301V0.75C9.25 0.333333 9.58333 0 10 0ZM14.083 12.417C12.9165 12.4171 11.9172 13.4166 11.917 14.583C11.917 15.7496 12.8331 16.7499 14.083 16.75C15.333 16.75 16.25 15.7497 16.25 14.583C16.2498 13.4165 15.2496 12.417 14.083 12.417Z" fill="#200040"/>
</svg>
