<svg width="180" height="49" viewBox="0 0 180 49" fill="none" xmlns="http://www.w3.org/2000/svg">
<path d="M7.26549 2.00913C8.26481 2 9.25726 2.17514 10.1931 2.52577C11.0639 2.84924 11.8624 3.34128 12.5429 3.97371C13.2142 4.60687 13.7446 5.37431 14.0996 6.22607C14.4859 7.15316 14.6787 8.14941 14.6661 9.15369C14.675 10.1353 14.4886 11.1089 14.1177 12.0179C13.7747 12.8649 13.2601 13.6317 12.6063 14.2702C11.9384 14.906 11.1514 15.4034 10.2905 15.734C9.33592 16.0944 8.32202 16.272 7.30174 16.2575H4.36959V25.106H0.730469V2.00913H7.26549ZM4.36959 5.93603V12.3396H7.8433C8.26096 12.3502 8.67653 12.2773 9.06563 12.1251C9.45474 11.973 9.80955 11.7447 10.1093 11.4536C10.4143 11.1494 10.6524 10.7849 10.8085 10.3834C10.9646 9.98195 11.0351 9.55229 11.0156 9.12196C11.0265 8.70446 10.954 8.28899 10.8022 7.8999C10.6505 7.5108 10.4226 7.1559 10.1319 6.85601C9.83353 6.55078 9.47451 6.31142 9.078 6.15336C8.68148 5.9953 8.25626 5.92204 7.82971 5.9383L4.36959 5.93603Z" fill="#38056C"/>
<path d="M23.8032 21.9219C24.8187 21.9255 25.8232 21.7115 26.749 21.2942C27.5526 20.9726 28.2652 20.4592 28.8246 19.7987L29.8534 22.5337C29.6113 22.9557 29.3056 23.3379 28.947 23.6667C28.5332 24.051 28.068 24.3759 27.5647 24.632C26.9977 24.9217 26.3984 25.143 25.7792 25.2914C25.089 25.4568 24.3815 25.5382 23.6718 25.5339C22.5083 25.5441 21.3526 25.3422 20.2616 24.9379C19.2427 24.5624 18.3118 23.9816 17.5266 23.2316C16.7357 22.4707 16.1175 21.5489 15.7138 20.5284C15.2718 19.3959 15.0533 18.1886 15.0703 16.9731C15.0634 15.8547 15.2544 14.7438 15.6345 13.692C16 12.683 16.5562 11.7537 17.2728 10.9547C17.9901 10.1543 18.8669 9.51293 19.8469 9.07168C20.9177 8.60312 22.0771 8.37124 23.2458 8.39189C24.3219 8.37664 25.3882 8.59785 26.3694 9.0399C27.3506 9.48195 28.2228 10.1341 28.9243 10.9502C29.6131 11.7548 30.1429 12.6829 30.4856 13.6852C30.854 14.7297 31.0425 15.8292 31.043 16.9368C31.0462 17.3677 31.0144 17.7981 30.9478 18.2239H18.655C18.8272 19.4913 19.3748 20.4249 20.2978 21.0246C21.2208 21.6243 22.3893 21.9234 23.8032 21.9219ZM27.3767 15.0697C27.3297 14.6243 27.1856 14.1947 26.9546 13.811C26.7236 13.4273 26.4114 13.099 26.0397 12.849C25.2247 12.2815 24.25 11.9886 23.2572 12.0129C22.7201 12.0094 22.1855 12.0857 21.671 12.2395C21.1971 12.3805 20.7472 12.5921 20.3363 12.8672C19.9483 13.1259 19.6105 13.453 19.3393 13.8325C19.0729 14.2015 18.8911 14.6247 18.8068 15.0719L27.3767 15.0697Z" fill="#38056C"/>
<path d="M37.2538 8.80012V14.848H45.1053V8.80012H48.6108V25.115H45.1053V18.58H37.2538V25.1127H33.7461V8.79785L37.2538 8.80012Z" fill="#38056C"/>
<path d="M60.0331 21.9221C61.0485 21.9257 62.053 21.7117 62.9788 21.2944C63.7817 20.9728 64.4936 20.4593 65.0521 19.7989L66.0832 22.5339C65.8411 22.9559 65.5354 23.3381 65.1768 23.6669C64.763 24.0512 64.2978 24.3761 63.7945 24.6322C63.2275 24.9219 62.6282 25.1432 62.009 25.2916C61.3188 25.457 60.6113 25.5384 59.9016 25.5341C58.7374 25.5442 57.581 25.3422 56.4891 24.9381C55.4704 24.5612 54.5396 23.9798 53.7541 23.2296C52.9631 22.4688 52.3449 21.5469 51.9413 20.5263C51.4994 19.3938 51.2808 18.1865 51.2978 16.971C51.2909 15.8526 51.4819 14.7418 51.862 13.6899C52.2228 12.6823 52.7745 11.7537 53.4867 10.9549C54.204 10.1545 55.0808 9.51313 56.0608 9.07188C57.1352 8.60172 58.2986 8.36981 59.4711 8.39209C60.5472 8.37684 61.6135 8.59805 62.5947 9.0401C63.5759 9.48215 64.448 10.1343 65.1496 10.9504C65.8376 11.7556 66.3673 12.6835 66.7108 13.6854C67.0808 14.7296 67.2708 15.8291 67.2728 16.937C67.276 17.3679 67.2442 17.7983 67.1776 18.2241H54.8871C55.0593 19.4915 55.6069 20.4251 56.5299 21.0248C57.4529 21.6245 58.6206 21.9236 60.0331 21.9221ZM63.6042 15.0699C63.5581 14.6245 63.4146 14.1948 63.184 13.811C62.9533 13.4273 62.6412 13.0989 62.2695 12.8492C61.4544 12.282 60.4798 11.9892 59.487 12.0131C58.9499 12.0096 58.4154 12.0859 57.9008 12.2397C57.4269 12.3807 56.977 12.5923 56.5661 12.8674C56.1781 13.1261 55.8403 13.4532 55.5691 13.8327C55.3027 14.2017 55.1209 14.6249 55.0366 15.0721L63.6042 15.0699Z" fill="#38056C"/>
<path d="M84.165 22.6683C83.9265 23.0815 83.6201 23.4515 83.2586 23.7628C82.8483 24.1247 82.391 24.4296 81.8991 24.6691C81.3335 24.9415 80.7401 25.1519 80.1293 25.2968C79.4392 25.4622 78.7317 25.5436 78.022 25.5393C76.9134 25.5443 75.8147 25.331 74.7885 24.9116C73.7851 24.5023 72.8679 23.9073 72.0852 23.1578C71.2901 22.3891 70.6554 21.4702 70.2181 20.4545C69.7501 19.3452 69.5186 18.1505 69.5383 16.9468C69.5186 15.743 69.7501 14.5483 70.2181 13.4391C70.6493 12.4342 71.2752 11.5246 72.0596 10.7628C72.844 10.0009 73.7715 9.40182 74.7885 9.00006C75.817 8.59014 76.9149 8.38241 78.022 8.38825C79.3362 8.35558 80.6387 8.64251 81.8175 9.22439C82.8915 9.78181 83.6318 10.4359 84.0381 11.1867L83.0728 14.0826C82.5534 13.5037 81.918 13.0405 81.2079 12.723C80.3749 12.3222 79.4608 12.1183 78.5364 12.1271C76.8837 12.1271 75.5589 12.5667 74.5619 13.4459C73.5649 14.3251 73.0656 15.489 73.0641 16.9377C73.0641 18.397 73.5626 19.5715 74.5596 20.4613C75.5566 21.351 76.8815 21.7959 78.5341 21.7959C79.4835 21.815 80.423 21.5994 81.2691 21.1682C81.9715 20.8199 82.6043 20.3461 83.1363 19.7701L84.165 22.6683Z" fill="#38056C"/>
<path d="M100.253 22.6683C100.014 23.0815 99.708 23.4515 99.3465 23.7628C98.9362 24.1247 98.4789 24.4296 97.9869 24.6691C97.4214 24.9415 96.828 25.1519 96.2172 25.2968C95.5271 25.4622 94.8195 25.5436 94.1099 25.5393C93.0013 25.5443 91.9026 25.331 90.8764 24.9116C89.8729 24.5023 88.9558 23.9073 88.1731 23.1578C87.378 22.3891 86.7433 21.4702 86.3059 20.4545C85.838 19.3452 85.6065 18.1505 85.6262 16.9468C85.6065 15.743 85.838 14.5483 86.3059 13.4391C86.7372 12.4342 87.3631 11.5246 88.1475 10.7628C88.9319 10.0009 89.8594 9.40182 90.8764 9.00006C91.9049 8.59014 93.0027 8.38241 94.1099 8.38825C95.4241 8.35558 96.7266 8.64251 97.9054 9.22439C98.9794 9.78181 99.7196 10.4359 100.126 11.1867L99.1607 14.0826C98.6413 13.5037 98.0059 13.0405 97.2958 12.723C96.4628 12.3222 95.5487 12.1183 94.6243 12.1271C92.9716 12.1271 91.6468 12.5667 90.6498 13.4459C89.6528 14.3251 89.1535 15.489 89.152 16.9377C89.152 18.397 89.6505 19.5715 90.6475 20.4613C91.6445 21.351 92.9694 21.7959 94.622 21.7959C95.5714 21.815 96.5109 21.5994 97.357 21.1682C98.0594 20.8199 98.6922 20.3461 99.2242 19.7701L100.253 22.6683Z" fill="#38056C"/>
<path d="M118.528 25.1124H115.161V23.4061C114.903 24.0104 114.323 24.5149 113.423 24.9198C112.417 25.3475 111.331 25.5561 110.237 25.5316C109.144 25.5352 108.061 25.3218 107.051 24.9039C106.058 24.4948 105.152 23.8995 104.382 23.1501C103.597 22.3799 102.973 21.4609 102.547 20.4468C102.085 19.3468 101.853 18.1637 101.867 16.9708C101.854 15.7786 102.085 14.5964 102.547 13.4971C102.975 12.4794 103.598 11.5556 104.382 10.7779C105.941 9.23731 108.046 8.37554 110.237 8.38056C111.326 8.35799 112.407 8.56651 113.41 8.99237C114.316 9.40024 114.901 9.91461 115.163 10.5355V8.79976H118.54L118.528 25.1124ZM105.37 17.0048C105.37 18.4626 105.837 19.6257 106.77 20.4944C107.704 21.363 108.943 21.7973 110.486 21.7973C111.483 21.8197 112.468 21.5856 113.348 21.1175C114.184 20.6643 114.742 20.0903 115.023 19.3954V14.5576C114.745 13.8506 114.187 13.2667 113.348 12.806C112.47 12.3332 111.484 12.0944 110.486 12.1126C108.941 12.1126 107.702 12.5575 106.77 13.4472C105.838 14.337 105.371 15.5229 105.37 17.0048Z" fill="#38056C"/>
<path d="M125.834 8.80109V14.8489H133.685V8.80109H137.191V25.116H133.685V18.581H125.834V25.1137H122.326V8.79883L125.834 8.80109Z" fill="#38056C"/>
<path d="M154.535 22.6676C154.296 23.0807 153.99 23.4507 153.628 23.762C153.218 24.124 152.761 24.4289 152.269 24.6684C151.059 25.2484 149.733 25.5459 148.392 25.5385C147.283 25.5435 146.184 25.3302 145.158 24.9109C144.154 24.5022 143.237 23.9071 142.455 23.157C141.66 22.3883 141.025 21.4695 140.588 20.4537C140.114 19.3427 139.878 18.1447 139.894 16.937C139.878 15.7324 140.114 14.5377 140.585 13.4293C141.017 12.4244 141.643 11.5148 142.427 10.7529C143.211 9.99109 144.139 9.39201 145.156 8.99025C146.184 8.58033 147.282 8.3726 148.389 8.37845C149.704 8.34604 151.006 8.63296 152.185 9.21458C153.259 9.77201 153.999 10.4261 154.406 11.1769L153.44 14.0728C152.92 13.4934 152.284 13.0301 151.573 12.7132C150.741 12.3121 149.828 12.1082 148.904 12.1173C147.253 12.1173 145.928 12.5569 144.929 13.4361C143.931 14.3153 143.432 15.4822 143.434 16.937C143.434 18.3962 143.932 19.5708 144.929 20.4605C145.926 21.3503 147.251 21.7952 148.904 21.7952C149.855 21.8157 150.796 21.6008 151.643 21.1698C152.346 20.8215 152.979 20.3476 153.51 19.7717L154.535 22.6676Z" fill="#38056C"/>
<path d="M7.37737 43.8168C7.28876 44.0051 7.15029 44.1879 6.96198 44.3652C6.78475 44.5313 6.56321 44.6809 6.29735 44.8138C6.0315 44.9467 5.72688 45.0519 5.38349 45.1295C5.05118 45.2181 4.69117 45.2624 4.30347 45.2624C3.73853 45.2624 3.19575 45.1572 2.67513 44.9467C2.1545 44.7362 1.6948 44.4427 1.29603 44.0661C0.908325 43.6784 0.592627 43.2187 0.34893 42.687C0.11631 42.1553 0 41.5626 0 40.9091C0 40.2666 0.11631 39.6795 0.34893 39.1478C0.592627 38.605 0.908325 38.1453 1.29603 37.7687C1.6948 37.3921 2.1545 37.0986 2.67513 36.8881C3.19575 36.6776 3.73853 36.5724 4.30347 36.5724C4.68009 36.5724 5.02902 36.6112 5.35026 36.6887C5.68257 36.7662 5.97612 36.8715 6.23089 37.0044C6.49674 37.1373 6.71829 37.2869 6.89552 37.453C7.08383 37.6192 7.2223 37.7909 7.31091 37.9681L6.91214 39.1644C6.67952 38.8986 6.35274 38.6715 5.93181 38.4832C5.51088 38.2838 5.06225 38.1841 4.58594 38.1841C3.65546 38.1841 2.90775 38.4333 2.34282 38.9318C1.78896 39.4192 1.51203 40.0783 1.51203 40.9091C1.51203 41.3189 1.58403 41.6956 1.72803 42.039C1.88311 42.3713 2.09358 42.6593 2.35943 42.903C2.62528 43.1356 2.94652 43.3184 3.32314 43.4513C3.69976 43.5842 4.1207 43.6507 4.58594 43.6507C5.09548 43.6507 5.56072 43.551 5.98166 43.3516C6.40259 43.1411 6.72936 42.903 6.96198 42.6371L7.37737 43.8168Z" fill="#38056C"/>
<path d="M15.4533 38.3835H12.6951V45.063H11.183V38.3835H8.42481V36.7718H15.4533V38.3835Z" fill="#38056C"/>
<path d="M24.9934 39.1644C25.226 39.6961 25.3423 40.2832 25.3423 40.9257C25.3423 41.5682 25.226 42.1553 24.9934 42.687C24.7608 43.2187 24.4506 43.6784 24.0629 44.0661C23.6752 44.4427 23.2211 44.7362 22.7004 44.9467C22.1909 45.1572 21.6536 45.2624 21.0887 45.2624C20.4573 45.2624 19.9145 45.1572 19.4604 44.9467C19.0062 44.7362 18.7127 44.4759 18.5797 44.1658V48.6022H17.0677V36.7718H18.5299V37.6524C18.6628 37.3422 18.9564 37.0875 19.4105 36.8881C19.8758 36.6776 20.4241 36.5724 21.0555 36.5724C21.6315 36.5724 22.1798 36.6776 22.7004 36.8881C23.2211 37.0986 23.6752 37.3976 24.0629 37.7853C24.4506 38.162 24.7608 38.6217 24.9934 39.1644ZM23.8303 40.8925C23.8303 40.0617 23.5755 39.4026 23.066 38.9152C22.5564 38.4278 21.8807 38.1841 21.0389 38.1841C20.4629 38.1841 19.9422 38.317 19.477 38.5829C19.0228 38.8377 18.7237 39.1644 18.5797 39.5632V42.2716C18.7237 42.6704 19.0228 43.0027 19.477 43.2685C19.9422 43.5233 20.4629 43.6507 21.0389 43.6507C21.8807 43.6507 22.5564 43.4014 23.066 42.903C23.5755 42.4045 23.8303 41.7343 23.8303 40.8925Z" fill="#38056C"/>
<path d="M28.116 40.9423C28.116 41.7731 28.3708 42.4322 28.8803 42.9196C29.3899 43.407 30.0656 43.6507 30.9074 43.6507C31.4834 43.6507 31.9985 43.5233 32.4527 43.2685C32.9179 43.0027 33.2225 42.6704 33.3665 42.2716V39.5632C33.2225 39.1644 32.9179 38.8377 32.4527 38.5829C31.9985 38.317 31.4834 38.1841 30.9074 38.1841C30.0656 38.1841 29.3899 38.4333 28.8803 38.9318C28.3708 39.4303 28.116 40.1005 28.116 40.9423ZM34.8786 45.063H33.4164V44.1824C33.2835 44.4925 32.9844 44.7529 32.5191 44.9633C32.0539 45.1627 31.5056 45.2624 30.8742 45.2624C30.2982 45.2624 29.7499 45.1572 29.2292 44.9467C28.7197 44.7362 28.2655 44.4427 27.8668 44.0661C27.4791 43.6784 27.1689 43.2187 26.9363 42.687C26.7147 42.1553 26.604 41.5682 26.604 40.9257C26.604 40.2832 26.7147 39.6961 26.9363 39.1644C27.1689 38.6217 27.4791 38.162 27.8668 37.7853C28.2655 37.3976 28.7197 37.0986 29.2292 36.8881C29.7499 36.6776 30.2982 36.5724 30.8742 36.5724C31.5056 36.5724 32.0539 36.6776 32.5191 36.8881C32.9844 37.0875 33.2835 37.3422 33.4164 37.6524V36.7718H34.8786V45.063Z" fill="#38056C"/>
<path d="M38.0012 45.063H36.1402L39.264 40.6599L36.4559 36.7718H38.3002L40.1778 39.3971L42.072 36.7718H43.9496L41.1415 40.6765L44.2985 45.063H42.4708L40.2111 41.9559L38.0012 45.063Z" fill="#38056C"/>
<path d="M52.771 39.1977C53.0036 39.7294 53.1199 40.3054 53.1199 40.9257C53.1199 41.546 53.0036 42.122 52.771 42.6537C52.5494 43.1854 52.2448 43.6451 51.8571 44.0328C51.4805 44.4205 51.0374 44.7252 50.5279 44.9467C50.0294 45.1572 49.4977 45.2624 48.9327 45.2624C48.3678 45.2624 47.8306 45.1572 47.321 44.9467C46.8115 44.7252 46.3628 44.4205 45.9751 44.0328C45.5985 43.6451 45.2994 43.1854 45.0779 42.6537C44.8564 42.122 44.7456 41.546 44.7456 40.9257C44.7456 40.3054 44.8564 39.7294 45.0779 39.1977C45.2994 38.666 45.5985 38.2063 45.9751 37.8186C46.3628 37.4309 46.8115 37.1262 47.321 36.9047C47.8306 36.6832 48.3678 36.5724 48.9327 36.5724C49.4977 36.5724 50.0294 36.6832 50.5279 36.9047C51.0374 37.1262 51.4805 37.4309 51.8571 37.8186C52.2448 38.2063 52.5494 38.666 52.771 39.1977ZM46.2576 40.9257C46.2576 41.3356 46.3241 41.7122 46.457 42.0556C46.5899 42.3879 46.7782 42.6759 47.0219 42.9196C47.2656 43.1522 47.5481 43.335 47.8693 43.4679C48.1906 43.5898 48.545 43.6507 48.9327 43.6507C49.3094 43.6507 49.6583 43.5898 49.9795 43.4679C50.3118 43.335 50.5999 43.1522 50.8436 42.9196C51.0872 42.6759 51.2756 42.3879 51.4085 42.0556C51.5414 41.7233 51.6079 41.3522 51.6079 40.9423C51.6079 40.5325 51.5414 40.1614 51.4085 39.8291C51.2756 39.4857 51.0872 39.1921 50.8436 38.9484C50.5999 38.7047 50.3118 38.5164 49.9795 38.3835C49.6583 38.2506 49.3094 38.1841 48.9327 38.1841C48.545 38.1841 48.1906 38.2506 47.8693 38.3835C47.5481 38.5164 47.2656 38.7047 47.0219 38.9484C46.7782 39.1921 46.5899 39.4857 46.457 39.8291C46.3241 40.1614 46.2576 40.5269 46.2576 40.9257Z" fill="#38056C"/>
<path d="M58.0981 36.7718C58.9178 36.7718 59.5825 36.9712 60.092 37.3699C60.6126 37.7687 60.8729 38.317 60.8729 39.0149C60.8729 39.3583 60.8176 39.674 60.7068 39.962C60.6071 40.2389 60.4188 40.4882 60.1419 40.7097C60.8951 41.0752 61.2717 41.7288 61.2717 42.6704C61.2717 43.0248 61.1942 43.3516 61.0391 43.6507C60.8951 43.9387 60.6957 44.1879 60.4409 44.3984C60.1862 44.6089 59.8815 44.775 59.5271 44.8969C59.1837 45.0076 58.8126 45.063 58.4138 45.063H54.9411V36.7718H58.0981ZM58.7129 43.4845C59.012 43.4845 59.2557 43.4014 59.444 43.2353C59.6323 43.0581 59.7265 42.831 59.7265 42.554C59.7265 42.2771 59.6268 42.0611 59.4274 41.906C59.2391 41.751 59.0009 41.6734 58.7129 41.6734H56.4532V43.4845H58.7129ZM58.3806 40.1115C58.6575 40.1115 58.8846 40.034 59.0618 39.8789C59.2391 39.7128 59.3277 39.5023 59.3277 39.2475C59.3277 38.9484 59.2335 38.7269 59.0452 38.5829C58.8569 38.4278 58.6354 38.3503 58.3806 38.3503H56.4532V40.1115H58.3806Z" fill="#38056C"/>
<path d="M64.0747 40.9423C64.0747 41.7731 64.3295 42.4322 64.839 42.9196C65.3486 43.407 66.0243 43.6507 66.8662 43.6507C67.4422 43.6507 67.9573 43.5233 68.4114 43.2685C68.8767 43.0027 69.1813 42.6704 69.3253 42.2716V39.5632C69.1813 39.1644 68.8767 38.8377 68.4114 38.5829C67.9573 38.317 67.4422 38.1841 66.8662 38.1841C66.0243 38.1841 65.3486 38.4333 64.839 38.9318C64.3295 39.4303 64.0747 40.1005 64.0747 40.9423ZM70.8373 45.063H69.3751V44.1824C69.2422 44.4925 68.9431 44.7529 68.4779 44.9633C68.0126 45.1627 67.4643 45.2624 66.8329 45.2624C66.2569 45.2624 65.7086 45.1572 65.188 44.9467C64.6784 44.7362 64.2243 44.4427 63.8255 44.0661C63.4378 43.6784 63.1276 43.2187 62.895 42.687C62.6735 42.1553 62.5627 41.5682 62.5627 40.9257C62.5627 40.2832 62.6735 39.6961 62.895 39.1644C63.1276 38.6217 63.4378 38.162 63.8255 37.7853C64.2243 37.3976 64.6784 37.0986 65.188 36.8881C65.7086 36.6776 66.2569 36.5724 66.8329 36.5724C67.4643 36.5724 68.0126 36.6776 68.4779 36.8881C68.9431 37.0875 69.2422 37.3422 69.3751 37.6524V36.7718H70.8373V45.063Z" fill="#38056C"/>
<path d="M74.7408 36.7718V39.9786H79.0941V36.7718H80.6062V45.063H79.0941V41.5903H74.7408V45.063H73.2288V36.7718H74.7408Z" fill="#38056C"/>
<path d="M84.5175 36.7718V42.5707L88.9373 36.7718H90.4493V45.063H88.9373V39.2641L84.5175 45.063H83.0055V36.7718H84.5175Z" fill="#38056C"/>
<path d="M96.6686 43.6507C96.9345 43.6507 97.1948 43.6174 97.4496 43.551C97.7043 43.4845 97.9425 43.4014 98.164 43.3017C98.3967 43.2021 98.6016 43.0857 98.7788 42.9528C98.9561 42.8199 99.1056 42.687 99.2275 42.554L99.6262 43.7338C99.5376 43.9221 99.3991 44.1048 99.2108 44.2821C99.0336 44.4593 98.8121 44.6255 98.5462 44.7805C98.2914 44.9246 97.9979 45.0409 97.6656 45.1295C97.3333 45.2181 96.9733 45.2624 96.5856 45.2624C95.9652 45.2624 95.3892 45.1627 94.8575 44.9633C94.3369 44.7529 93.8827 44.4648 93.495 44.0993C93.1184 43.7227 92.8193 43.2685 92.5978 42.7368C92.3873 42.194 92.2821 41.5903 92.2821 40.9257C92.2821 40.3497 92.3762 39.8014 92.5646 39.2807C92.7529 38.749 93.0243 38.2838 93.3787 37.885C93.7332 37.4863 94.1597 37.1706 94.6581 36.9379C95.1566 36.6942 95.7215 36.5724 96.3529 36.5724C96.9511 36.5724 97.4883 36.6887 97.9647 36.9213C98.441 37.1539 98.8453 37.4696 99.1776 37.8684C99.521 38.2561 99.7813 38.7158 99.9585 39.2475C100.136 39.7681 100.224 40.322 100.224 40.9091C100.224 41.0863 100.208 41.2746 100.175 41.474H93.8273C93.9049 42.2051 94.1984 42.7534 94.708 43.119C95.2175 43.4734 95.8711 43.6507 96.6686 43.6507ZM98.6127 39.9454C98.5905 39.7017 98.5185 39.4746 98.3967 39.2641C98.2748 39.0426 98.1087 38.8543 97.8982 38.6992C97.6988 38.533 97.4662 38.4057 97.2003 38.317C96.9345 38.2284 96.652 38.1841 96.3529 38.1841C96.0539 38.1841 95.7603 38.2284 95.4723 38.317C95.1954 38.4057 94.9461 38.5275 94.7246 38.6826C94.5141 38.8377 94.3369 39.026 94.1929 39.2475C94.0489 39.458 93.9603 39.6906 93.927 39.9454H98.6127Z" fill="#38056C"/>
<path d="M169.167 20.5567L158.335 0.396484H180L169.167 20.5567Z" fill="#79FF3A"/>
</svg>
